<?xml version="1.0" encoding="utf-8"?>
<!-- Generator: Adobe Illustrator 17.0.0, SVG Export Plug-In . SVG Version: 6.00 Build 0)  -->
<!DOCTYPE svg PUBLIC "-//W3C//DTD SVG 1.1//EN" "http://www.w3.org/Graphics/SVG/1.1/DTD/svg11.dtd">
<svg version="1.1" id="Layer_1" xmlns="http://www.w3.org/2000/svg" xmlns:xlink="http://www.w3.org/1999/xlink" x="0px" y="0px"
	 width="28.719px" height="28.792px" viewBox="0 0 28.719 28.792" enable-background="new 0 0 28.719 28.792" xml:space="preserve">
<g id="Layer_2">
</g>
<line fill="none" stroke="#000000" stroke-width="0.6289" stroke-miterlimit="10" x1="8.226" y1="11.224" x2="12.489" y2="11.893"/>
<ellipse transform="matrix(0.9999 -0.0161 0.0161 0.9999 -0.1908 0.2176)" cx="13.418" cy="11.961" rx="1.194" ry="1.156"/>
<rect x="5.912" y="7.244" width="1.484" height="2.78"/>
<rect x="22.797" y="7.074" width="1.437" height="2.692"/>
<path fill="none" stroke="#000017" stroke-width="0.2889" stroke-miterlimit="10" d="M6.88,8.019c0-4.256,3.705-7.707,8.278-7.707
	s8.278,3.45,8.278,7.707"/>
<path fill="none" stroke="#000000" stroke-width="1.5" stroke-linecap="round" stroke-miterlimit="10" d="M16.056,16.508
	c2.592,0.17,4.895,1.397,6.482,3.256"/>
<path fill="none" stroke="#000000" stroke-width="1.5" stroke-linecap="round" stroke-miterlimit="10" d="M24.539,27.886
	c0.15-0.664,0.233-1.355,0.233-2.066c0-2.312-0.843-4.427-2.235-6.057"/>
<path fill="none" stroke="#000000" stroke-width="1.5" stroke-linecap="round" stroke-miterlimit="10" d="M14.662,16.52
	c-4.794,0.394-8.563,4.406-8.563,9.302c0,0.711,0.082,1.401,0.233,2.066"/>
<ellipse fill="none" stroke="#000000" stroke-width="1.5" stroke-linecap="round" stroke-miterlimit="10" cx="15.1" cy="9.599" rx="6.813" ry="6.91"/>
</svg>
