<?xml version="1.0" encoding="utf-8"?>
<!-- Generator: Adobe Illustrator 17.0.0, SVG Export Plug-In . SVG Version: 6.00 Build 0)  -->
<!DOCTYPE svg PUBLIC "-//W3C//DTD SVG 1.1//EN" "http://www.w3.org/Graphics/SVG/1.1/DTD/svg11.dtd">
<svg version="1.1" id="Layer_1" xmlns="http://www.w3.org/2000/svg" xmlns:xlink="http://www.w3.org/1999/xlink" x="0px" y="0px"
	 width="28.719px" height="28.792px" viewBox="0 0 28.719 28.792" enable-background="new 0 0 28.719 28.792" xml:space="preserve">
<g id="Layer_2">
</g>
<ellipse transform="matrix(-0.8134 -0.5817 0.5817 -0.8134 16.5822 31.4162)" fill="none" stroke="#000000" stroke-width="0.9155" stroke-miterlimit="10" cx="13.33" cy="13.048" rx="6.142" ry="14.67"/>
<path fill="none" stroke="#000000" stroke-width="0.7679" stroke-miterlimit="10" d="M20.332,0.588
	c2.465,1.737-0.046,8.142-4.092,14.164c-4.047,6.022-9.987,10.629-12.452,8.892"/>
<g>
	<path fill="none" stroke="#000000" stroke-width="0.5658" stroke-miterlimit="10" d="M8.228,6.039L6.674,4.863
		c-0.949-0.718-2.3-0.531-3.017,0.418c-0.718,0.949-0.531,2.3,0.418,3.017l1.554,1.176"/>
	
		<line fill="none" stroke="#000000" stroke-width="0.5658" stroke-linecap="round" stroke-linejoin="round" x1="8.228" y1="6.039" x2="5.628" y2="9.474"/>
</g>
<g>
	<g>
		
			<line fill="none" stroke="#000000" stroke-width="0.7631" stroke-linecap="round" stroke-miterlimit="10" x1="23.22" y1="28.204" x2="16.946" y2="18.809"/>
		<path fill="none" stroke="#000000" stroke-width="0.7683" stroke-miterlimit="10" d="M17.768,17.538"/>
	</g>
	
		<line fill="none" stroke="#000000" stroke-width="0.7631" stroke-linecap="round" stroke-miterlimit="10" x1="23.22" y1="28.204" x2="15.7" y2="28.204"/>
	<line fill="none" stroke="#000000" stroke-width="0.7631" stroke-miterlimit="10" x1="15.7" y1="28.204" x2="14.95" y2="20.648"/>
</g>
<line fill="none" stroke="#000000" stroke-width="0.8609" stroke-linecap="round" stroke-miterlimit="10" x1="14.89" y1="12.157" x2="9.165" y2="9.144"/>
<line fill="none" stroke="#000000" stroke-width="0.8609" stroke-linecap="round" stroke-miterlimit="10" x1="8.334" y1="9.475" x2="12.055" y2="15.97"/>
</svg>
