<?xml version="1.0" encoding="utf-8"?>
<!-- Generator: Adobe Illustrator 17.0.0, SVG Export Plug-In . SVG Version: 6.00 Build 0)  -->
<!DOCTYPE svg PUBLIC "-//W3C//DTD SVG 1.1//EN" "http://www.w3.org/Graphics/SVG/1.1/DTD/svg11.dtd">
<svg version="1.1" id="Layer_1" xmlns="http://www.w3.org/2000/svg" xmlns:xlink="http://www.w3.org/1999/xlink" x="0px" y="0px"
	 width="521.333px" height="196px" viewBox="-120 -45.167 521.333 196" enable-background="new -120 -45.167 521.333 196"
	 xml:space="preserve">
<g>
	<line fill="none" stroke="#CACCCE" stroke-width="7" stroke-miterlimit="10" x1="123.257" y1="147" x2="122.66" y2="-40.86"/>
	<path fill="none" stroke="#CACCCE" stroke-width="5" stroke-linecap="square" stroke-miterlimit="10" d="M261.007,34.99
		c-34.965,0.002-69.933,0.002-104.898,0.002c-1.121,0-1.122,0.002-1.122,1.755c0,8.836,0,17.675,0,26.509
		c0,2.341,0.015,4.687-0.006,7.028c-0.006,0.794,0.179,1.144,0.692,1.091c0.288-0.032,0.581-0.002,0.873-0.002
		c34.94,0,69.879,0,104.819,0c1.217,0,1.218,0.006,1.218,1.899c0,23.551,0,47.102,0,70.653c0,1.901,0,1.901,1.184,1.901
		c7.051,0,14.102,0,21.154,0c1.159,0,1.161-0.002,1.161-1.818c0-23.47,0-46.938,0-70.407c0-2.23,0-2.23,1.403-2.23
		c17.457,0,34.912,0,52.369,0c17.59,0,35.178,0,52.767,0c1.055,0,1.056-0.006,1.056-1.619c0-7.318,0-14.631,0-21.949
		c0-3.864-0.012-7.726,0.009-11.59c0.005-0.883-0.154-1.328-0.762-1.229c-0.261,0.042-0.527,0.006-0.791,0.006
		c-34.835,0-69.668,0-104.503-0.002c-1.736,0-1.548,0.225-1.548-2.353c-0.005-23.428-0.002-46.856-0.002-70.284
		c0-1.838,0-1.84-1.146-1.84c-7.077,0-14.156,0-21.233,0c-1.121,0-1.121,0.002-1.121,1.757c0,23.428,0.002,46.856-0.002,70.284
		C262.58,35.234,262.782,34.99,261.007,34.99z"/>
	<path fill="none" stroke="#CACCCE" stroke-width="5" stroke-linecap="square" stroke-miterlimit="10" d="M392.451,84.563
		c-16.476,0-32.951,0-49.424,0c-0.259,0-0.52,0-0.779,0c-0.005,0.068-0.006,0.134-0.011,0.202c0.113,0.1,0.225,0.208,0.339,0.297
		c16.782,13.058,33.566,26.114,50.342,39.192c0.658,0.511,0.769,0.325,0.768-0.753c-0.017-12.326-0.011-24.654-0.011-36.981
		C393.679,84.563,393.677,84.563,392.451,84.563z"/>
	<path fill="none" stroke="#CACCCE" stroke-width="5" stroke-linecap="square" stroke-miterlimit="10" d="M253.067,15.402
		c0.165,0.129,0.331,0.257,0.493,0.388c0.35,0.28,0.554,0.176,0.554-0.496c0-0.327,0.005-0.658,0.005-0.985
		c0-17.296,0-34.595,0-51.891c0-1.901-0.002-1.905-1.201-1.905c-23.046,0-46.094,0-69.14,0c-0.282,0-0.563,0-0.845,0
		c-0.006,0.093-0.012,0.185-0.019,0.278c0.231,0.189,0.459,0.38,0.692,0.564C206.76-20.632,229.913-2.613,253.067,15.402z"/>
	<path fill="none" stroke="#CACCCE" stroke-width="5" stroke-linecap="square" stroke-miterlimit="10" d="M156.031-18.478
		c17.184,13.321,34.351,26.691,51.523,40.053c0.304,0.236,0.603,0.486,0.956,0.768c-0.207,0.386-0.375,0.323-0.526,0.323
		c-2.034-0.015-4.066-0.055-6.1-0.059c-15.266-0.006-30.53-0.002-45.795-0.002c-1.099,0-1.099,0.006-1.101,1.689
		c-0.002,2.712-0.002,5.426,0,8.138c0,1.731,0.002,1.734,1.15,1.734c10.115,0,20.231,0,30.345,0c12.702,0,25.404,0,38.109,0
		c12.148,0,24.297,0,36.447,0c1.113,0,1.116-0.006,1.116-1.662c0.002-4.397,0-8.797,0-13.194c0-19.072-0.006-38.145,0.017-57.215
		c0.002-1.233-0.194-1.653-1.013-1.608c-1.793,0.093-3.593,0.028-5.387,0.028c-1.118,0-1.121,0.002-1.121,1.763
		c0,17.716,0,35.432,0,53.145c0,2.062,0,2.062-1.169,1.152c-23.737-18.469-47.476-36.938-71.208-55.418
		c-0.558-0.435-1.112-0.656-1.738-0.656c-7.87,0.021-15.741,0.011-23.611,0.021c-0.248,0-0.513-0.131-0.831,0.195
		c26.341,20.498,52.628,40.955,78.964,61.452c-0.378,0.63-0.745,0.429-1.065,0.429c-5.309,0.013-10.617-0.013-15.926,0.032
		c-1.01,0.008-1.906-0.325-2.805-1.029C195.572,6.251,175.875-9.072,156.176-24.4c-0.165-0.129-0.338-0.242-0.496-0.386
		c-0.476-0.435-0.725-0.346-0.698,0.63c0.028,0.983,0.065,1.982-0.009,2.956C154.87-19.813,155.218-19.108,156.031-18.478z"/>
	<path fill="none" stroke="#CACCCE" stroke-width="5" stroke-linecap="square" stroke-miterlimit="10" d="M155.834-25.557
		c20.055,15.573,40.099,31.179,60.14,46.788c0.486,0.378,0.971,0.558,1.516,0.556c4.965-0.019,9.927-0.011,14.891-0.011
		c0.227,0,0.452,0,0.74,0c-0.21-0.494-0.481-0.575-0.706-0.751c-16.409-12.772-32.819-25.543-49.23-38.313
		c-9.114-7.093-18.229-14.183-27.343-21.276c-0.853-0.664-0.856-0.66-0.857,0.857c0,3.329,0.029,6.659-0.017,9.984
		C154.955-26.603,155.201-26.047,155.834-25.557z"/>
	<path fill="none" stroke="#CACCCE" stroke-width="5" stroke-linecap="square" stroke-miterlimit="10" d="M156.164,21.778
		c16.449,0,32.897,0,49.346,0c0.259,0,0.515,0,0.774,0c0.006-0.079,0.012-0.161,0.019-0.238c-0.139-0.115-0.273-0.236-0.415-0.346
		c-16.692-12.99-33.383-25.978-50.075-38.965c-0.802-0.624-0.825-0.592-0.825,0.896c-0.002,12.286,0,24.572,0,36.859
		C154.987,21.778,154.989,21.778,156.164,21.778z"/>
	<path fill="none" stroke="#CACCCE" stroke-width="5" stroke-linecap="square" stroke-miterlimit="10" d="M295.396,15.566
		c0.094-0.074,0.188-0.148,0.284-0.219c18.647-14.514,37.293-29.025,55.942-43.539c4.743-3.69,9.484-7.38,14.228-11.07
		c-0.006-0.076-0.012-0.149-0.018-0.225c-4.035,0-8.072,0-12.105,0c-19.3,0-38.601,0-57.9,0c-1.277,0-1.277,0-1.277,2.035
		c0,4.11,0,8.22,0,12.326c0,13.273,0,26.543,0.002,39.817C294.548,16.151,294.586,16.183,295.396,15.566z"/>
	<path fill="none" stroke="#CACCCE" stroke-width="5" stroke-linecap="square" stroke-miterlimit="10" d="M297.821,21.564
		c0.017,0.07,0.037,0.142,0.054,0.216c4.937,0,9.874-0.028,14.81,0.023c0.981,0.011,1.843-0.327,2.717-1.01
		c25.445-19.829,52.9-40.631,78.353-60.439c0.259-0.202-11.433,0.175-16.501,0.147c-0.709-0.006-1.334,0.233-1.967,0.726
		c-25.569,19.916-51.144,39.815-76.717,59.715C298.316,21.136,298.069,21.354,297.821,21.564z"/>
	<path fill="none" stroke="#CACCCE" stroke-width="5" stroke-linecap="square" stroke-miterlimit="10" d="M287.725,34.164
		c13.283,0,26.568,0,39.851,0c19.383,0,38.767,0,58.15,0c2.378,0,4.754-0.021,7.131,0.013c0.604,0.008,0.845-0.286,0.834-1.273
		c-0.032-2.916-0.051-5.839,0.006-8.751c0.026-1.297-0.282-1.572-1.052-1.572c-17.323,0.049-34.647,0.062-51.969,0.079
		c-0.159,0-0.382,0.138-0.453-0.361c0.271-0.223,0.546-0.456,0.828-0.673c5.102-3.97,10.203-7.938,15.305-11.91
		c12.164-9.464,24.324-18.93,36.49-28.391c0.455-0.354,0.857-0.639,0.851-1.668c-0.029-5.916-0.023-11.836-0.005-17.756
		c0.002-0.955-0.162-1.038-0.674-0.632c-2.046,1.627-4.104,3.21-6.16,4.81C362.983-15.342,339.106,3.24,315.23,21.821
		c-0.546,0.426-1.082,0.798-1.721,0.794c-5.651-0.021-11.302-0.011-16.954-0.021c-0.231,0-0.527,0.202-0.742-0.42
		c26.327-20.489,52.638-40.963,78.95-61.438c-0.012-0.074-0.026-0.149-0.037-0.223c-2.208,0-4.414,0.019-6.624-0.013
		c-0.601-0.008-1.132,0.204-1.665,0.622c-8.024,6.262-16.054,12.507-24.086,18.755C326.552-7.828,310.754,4.466,294.953,16.76
		c-0.93,0.724-0.933,0.719-0.936-0.881c0-0.165,0-0.327,0-0.494c0-17.675,0-35.345,0-53.02c0-1.852,0-1.852-1.221-1.852
		c-1.716,0-3.434,0-5.15,0c-1.133,0-1.133,0.002-1.133,1.736c0,23.345,0,46.688,0,70.033
		C286.51,34.164,286.513,34.164,287.725,34.164z"/>
	<path fill="none" stroke="#CACCCE" stroke-width="5" stroke-linecap="square" stroke-miterlimit="10" d="M392.749-17.697
		c-0.048,0.036-0.094,0.076-0.142,0.113C376.08-4.724,359.553,8.135,343.028,20.993c-0.231,0.178-0.453,0.38-0.68,0.571
		c0.017,0.07,0.034,0.142,0.051,0.212c0.131,0,0.261,0,0.393,0c16.66,0,33.32-0.008,49.978,0.023c0.762,0.002,0.919-0.414,0.917-1.5
		c-0.018-12.368-0.012-24.737-0.012-37.104C393.677-18.41,393.676-18.41,392.749-17.697z"/>
	<path fill="none" stroke="#CACCCE" stroke-width="5" stroke-linecap="square" stroke-miterlimit="10" d="M260.886,72.208
		c-13.098,0-26.198,0-39.294,0c-21.708,0-43.417,0-65.124,0c-0.237,0-0.476,0.032-0.712-0.006c-0.587-0.089-0.785,0.306-0.776,1.214
		c0.028,2.835,0.009,5.672,0.011,8.507c0,1.806,0.002,1.81,1.18,1.81c16.93,0,33.856-0.002,50.784,0.015
		c0.392,0,1.027-0.401,1.127,0.259c0.092,0.613-0.58,0.787-0.939,1.067c-17.093,13.317-34.191,26.628-51.298,39.906
		c-0.629,0.488-0.879,1.036-0.87,2.156c0.039,5.508,0.022,11.015,0.015,16.523c-0.002,2.245,0,1.927,1.133,1.046
		c25.789-20.063,51.575-40.129,77.358-60.211c0.682-0.53,1.358-0.785,2.122-0.781c5.413,0.028,10.827,0.011,16.24,0.026
		c0.325,0,0.845-0.259,0.93,0.267c0.089,0.55-0.452,0.645-0.734,0.866c-25.714,20.024-51.432,40.038-77.15,60.054
		c-0.278,0.216-0.549,0.448-0.823,0.671c0.017,0.074,0.037,0.148,0.054,0.219c2.112,0,4.223-0.026,6.336,0.015
		c0.682,0.013,1.283-0.229,1.89-0.7c23.706-18.465,47.42-36.913,71.132-55.363c0.211-0.165,0.427-0.323,0.64-0.49
		c0.359-0.286,0.554-0.163,0.541,0.509c-0.006,0.289,0,0.575,0,0.862c0,17.752,0,35.506,0,53.258c0,1.908,0,1.912,1.261,1.912
		c1.691,0,3.38,0,5.071,0c1.169,0,1.172-0.002,1.172-1.802c0-23.305,0-46.61,0-69.912C262.155,72.208,262.155,72.208,260.886,72.208
		z"/>
	<path fill="none" stroke="#CACCCE" stroke-width="5" stroke-linecap="square" stroke-miterlimit="10" d="M254.12,92.137
		c0-1.954,0-1.956-1.155-1.057c-23.091,17.968-46.179,35.936-69.27,53.905c-0.256,0.199-0.507,0.414-0.759,0.622
		c0.015,0.074,0.028,0.148,0.043,0.218c0.159,0,0.315,0,0.472,0c23.236,0,46.47-0.008,69.706,0.028
		c0.877,0.002,0.973-0.571,0.971-1.695C254.115,126.821,254.12,109.477,254.12,92.137z"/>
	<path fill="none" stroke="#CACCCE" stroke-width="5" stroke-linecap="square" stroke-miterlimit="10" d="M392.993,132.117
		c-20.194-15.689-40.381-31.4-60.569-47.113c-0.284-0.219-0.564-0.439-0.896-0.435c-5.304,0.002-10.611,0.002-15.915,0.002
		c-0.012,0.07-0.028,0.142-0.04,0.212c0.254,0.208,0.504,0.422,0.762,0.622c11.473,8.931,22.948,17.86,34.421,26.787
		c14.023,10.913,28.05,21.822,42.073,32.734c0.846,0.658,0.853,0.653,0.853-0.758c0.002-3.41-0.017-6.822,0.012-10.23
		C393.697,133.045,393.526,132.531,392.993,132.117z"/>
	<path fill="none" stroke="#CACCCE" stroke-width="5" stroke-linecap="square" stroke-miterlimit="10" d="M393.697,82.202
		c-0.062-2.708-0.018-5.424-0.018-8.138c0-1.857,0-1.857-1.221-1.857c-18.435,0-36.866-0.002-55.301,0
		c-4.013,0-8.029,0.028-12.042,0.026c-12.597-0.006-25.194-0.013-37.79-0.042c-0.612-0.002-0.839,0.289-0.825,1.269
		c0.032,2.958,0.011,5.92,0.011,8.878c0,20.633,0.005,41.265-0.011,61.896c0,1.078,0.083,1.661,0.924,1.619
		c1.819-0.095,3.643-0.028,5.467-0.028c1.124,0,1.124-0.002,1.127-1.755c0-17.716,0-35.432,0-53.149c0-2.063,0-2.067,1.166-1.159
		c23.711,18.45,47.423,36.898,71.132,55.363c0.607,0.473,1.206,0.713,1.89,0.711c7.842-0.023,15.687-0.013,23.529-0.021
		c0.248,0,0.513,0.129,0.825-0.182c-26.341-20.498-52.628-40.955-78.967-61.452c0.385-0.635,0.751-0.441,1.073-0.441
		c5.413-0.013,10.827,0.002,16.24-0.023c0.735-0.002,1.388,0.25,2.045,0.76c19.762,15.397,39.53,30.776,59.296,46.158
		c0.308,0.238,0.62,0.461,0.919,0.719c0.376,0.323,0.524,0.168,0.515-0.497c-0.015-1.11-0.066-2.232,0.012-3.325
		c0.103-1.405-0.264-2.094-1.067-2.718c-17.181-13.321-34.348-26.689-51.518-40.051c-0.304-0.236-0.603-0.488-1.113-0.9
		c0.797-0.325,1.372-0.123,1.937-0.123c12.121-0.015,24.243-0.011,36.363-0.011c4.781,0,9.56-0.021,14.339,0.021
		C393.395,83.766,393.728,83.522,393.697,82.202z"/>
	<path fill="none" stroke="#CACCCE" stroke-width="5" stroke-linecap="square" stroke-miterlimit="10" d="M251.03,84.563
		c-0.315,0-0.569,0-0.82,0c-4.832,0-9.666,0.015-14.498-0.015c-0.763-0.006-1.434,0.246-2.119,0.779
		c-25.57,19.92-51.148,39.817-76.723,59.721c-0.233,0.182-0.464,0.374-0.697,0.562c0.011,0.074,0.022,0.148,0.032,0.219
		c5.148,0,10.295-0.011,15.443,0.013c0.626,0.002,1.18-0.208,1.741-0.645c25.641-19.969,51.289-39.923,76.934-59.886
		C250.546,85.134,250.816,85.051,251.03,84.563z"/>
	<path fill="none" stroke="#CACCCE" stroke-width="5" stroke-linecap="square" stroke-miterlimit="10" d="M155.881,124.131
		c16.59-12.912,33.182-25.821,49.773-38.731c0.233-0.182,0.463-0.374,0.692-0.562c-0.009-0.076-0.017-0.155-0.023-0.231
		c-0.205-0.015-0.409-0.042-0.614-0.042c-16.604-0.002-33.209,0.006-49.815-0.026c-0.757-0.002-0.924,0.399-0.922,1.494
		c0.022,12.407,0.012,24.816,0.012,37.224C154.987,124.82,154.989,124.824,155.881,124.131z"/>
	<path fill="none" stroke="#CACCCE" stroke-width="5" stroke-linecap="square" stroke-miterlimit="10" d="M295.507,90.933
		c-0.957-0.745-0.961-0.741-0.961,0.923c0,17.383,0,34.763,0,52.146c0,1.823,0.002,1.825,1.173,1.825c23.076,0,46.154,0,69.23-0.006
		c0.25,0,0.515,0.117,0.819-0.157c-0.261-0.225-0.48-0.433-0.708-0.609C341.88,127.014,318.692,108.972,295.507,90.933z"/>
	<line fill="none" stroke="#CACCCE" stroke-width="7" stroke-miterlimit="10" x1="-116.166" y1="-39.57" x2="125.344" y2="-39.57"/>
	<line fill="none" stroke="#CACCCE" stroke-width="7" stroke-miterlimit="10" x1="-113.9" y1="147.117" x2="-114.46" y2="-42.45"/>
	<line fill="none" stroke="#CACCCE" stroke-width="5" stroke-miterlimit="10" x1="3.136" y1="84.48" x2="3.611" y2="-39.002"/>
	<line fill="none" stroke="#CACCCE" stroke-width="7" stroke-miterlimit="10" x1="4.11" y1="17.345" x2="121.472" y2="17.345"/>
	<line fill="none" stroke="#CACCCE" stroke-width="7" stroke-miterlimit="10" x1="3.63" y1="-11.393" x2="120.53" y2="-11.393"/>
	<line fill="none" stroke="#CACCCE" stroke-width="7" stroke-miterlimit="10" x1="3.564" y1="52.372" x2="122.72" y2="52.372"/>
	<line fill="none" stroke="#CACCCE" stroke-width="7" stroke-miterlimit="10" x1="-115.446" y1="84.48" x2="122.56" y2="84.48"/>
	
		<line fill="none" stroke="#CACCCE" stroke-width="7" stroke-miterlimit="10" x1="-115.372" y1="115.125" x2="122.72" y2="115.125"/>
	
		<line fill="none" stroke="#CACCCE" stroke-width="7" stroke-miterlimit="10" x1="-115.372" y1="144.312" x2="122.56" y2="144.312"/>
	<g>
		<polygon fill="none" stroke="#CACCCE" stroke-width="2.6227" stroke-miterlimit="10" points="-53.016,31.699 -49.422,29.208 
			-50.924,33.556 -48.038,35.342 -51.484,35.68 -52.45,39.034 -53.763,35.646 -58.013,35.901 -54.811,33.138 -56.379,29.443 		"/>
	</g>
	<g>
		<polygon fill="none" stroke="#CACCCE" stroke-width="2.6227" stroke-miterlimit="10" points="-43.041,63.005 -39.447,60.516 
			-40.949,64.863 -38.063,66.648 -41.509,66.987 -42.476,70.34 -43.788,66.953 -48.038,67.208 -44.836,64.445 -46.404,60.749 		"/>
	</g>
	<g>
		<polygon fill="none" stroke="#CACCCE" stroke-width="2.6227" stroke-miterlimit="10" points="-19.053,34.189 -15.461,31.7 
			-16.963,36.046 -14.075,37.833 -17.521,38.17 -18.489,41.524 -19.8,38.136 -24.05,38.391 -20.85,35.63 -22.416,31.932 		"/>
	</g>
	<g>
		<polygon fill="none" stroke="#CACCCE" stroke-width="2.6227" stroke-miterlimit="10" points="-48.029,-2.899 -44.435,-5.389 
			-45.937,-1.041 -43.05,0.744 -46.497,1.083 -47.465,4.436 -48.776,1.049 -53.025,1.304 -49.825,-1.459 -51.391,-5.155 		"/>
	</g>
	<g>
		<polygon fill="none" stroke="#CACCCE" stroke-width="2.6227" stroke-miterlimit="10" points="-79.858,9.743 -76.266,7.254 
			-77.768,11.601 -74.882,13.388 -78.326,13.725 -79.294,17.078 -80.605,13.69 -84.857,13.946 -81.655,11.184 -83.223,7.487 		"/>
	</g>
	<g>
		<polygon fill="none" stroke="#CACCCE" stroke-width="2.6227" stroke-miterlimit="10" points="-101.512,-4.623 -97.92,-7.112 
			-99.422,-2.766 -96.534,-0.981 -99.98,-0.642 -100.948,2.711 -102.259,-0.676 -106.511,-0.421 -103.309,-3.184 -104.875,-6.88 		
			"/>
	</g>
	<g>
		<polygon fill="none" stroke="#CACCCE" stroke-width="2.6227" stroke-miterlimit="10" points="-102.643,26.786 -99.051,24.297 
			-100.553,28.643 -97.665,30.431 -101.111,30.767 -102.079,34.121 -103.39,30.733 -107.642,30.989 -104.44,28.227 -106.008,24.53 
					"/>
	</g>
	<g>
		<polygon fill="none" stroke="#CACCCE" stroke-width="2.6227" stroke-miterlimit="10" points="-102.643,69.162 -99.051,66.673 
			-100.553,71.019 -97.665,72.804 -101.111,73.143 -102.079,76.496 -103.39,73.109 -107.642,73.364 -104.44,70.601 -106.008,66.905 
					"/>
	</g>
	<g>
		<polygon fill="none" stroke="#CACCCE" stroke-width="2.6227" stroke-miterlimit="10" points="-88.044,45.836 -84.452,43.345 
			-85.954,47.693 -83.066,49.479 -86.512,49.817 -87.48,53.17 -88.791,49.783 -93.041,50.038 -89.84,47.275 -91.407,43.579 		"/>
	</g>
	<g>
		<polygon fill="none" stroke="#CACCCE" stroke-width="2.6227" stroke-miterlimit="10" points="-71.254,63.193 -67.663,60.704 
			-69.164,65.05 -66.278,66.837 -69.724,67.174 -70.691,70.527 -72.003,67.14 -76.253,67.395 -73.051,64.634 -74.619,60.936 		"/>
	</g>
	<g>
		<polygon fill="none" stroke="#CACCCE" stroke-width="2.6227" stroke-miterlimit="10" points="-18.297,66.739 -14.705,64.25 
			-16.207,68.596 -13.32,70.384 -16.766,70.72 -17.733,74.074 -19.046,70.686 -23.295,70.942 -20.093,68.18 -21.661,64.483 		"/>
	</g>
	<g>
		<polygon fill="none" stroke="#CACCCE" stroke-width="2.6227" stroke-miterlimit="10" points="-19.053,2.354 -15.46,-0.135 
			-16.961,4.211 -14.075,5.998 -17.521,6.335 -18.489,9.688 -19.8,6.301 -24.05,6.556 -20.85,3.795 -22.416,0.097 		"/>
	</g>
	<g>
		<polygon fill="none" stroke="#CACCCE" stroke-width="2.6227" stroke-miterlimit="10" points="-60.896,-28.106 -57.305,-30.597 
			-58.806,-26.249 -55.918,-24.464 -59.364,-24.125 -60.333,-20.772 -61.643,-24.159 -65.895,-23.904 -62.693,-26.667 
			-64.261,-30.363 		"/>
	</g>
	<g>
		<polygon fill="none" stroke="#CACCCE" stroke-width="2.6227" stroke-miterlimit="10" points="-97.105,-28.106 -93.513,-30.597 
			-95.015,-26.251 -92.129,-24.464 -95.573,-24.127 -96.542,-20.772 -97.852,-24.161 -102.104,-23.904 -98.902,-26.667 
			-100.47,-30.363 		"/>
	</g>
	<g>
		<polygon fill="none" stroke="#CACCCE" stroke-width="2.6227" stroke-miterlimit="10" points="-21.331,-26.118 -17.739,-28.609 
			-19.241,-24.261 -16.353,-22.476 -19.799,-22.137 -20.767,-18.784 -22.078,-22.171 -26.328,-21.916 -23.127,-24.679 
			-24.693,-28.375 		"/>
	</g>
</g>
</svg>
