<?xml version="1.0" encoding="utf-8"?>
<!-- Generator: Adobe Illustrator 17.0.0, SVG Export Plug-In . SVG Version: 6.00 Build 0)  -->
<!DOCTYPE svg PUBLIC "-//W3C//DTD SVG 1.1//EN" "http://www.w3.org/Graphics/SVG/1.1/DTD/svg11.dtd">
<svg version="1.1" id="Layer_1" xmlns="http://www.w3.org/2000/svg" xmlns:xlink="http://www.w3.org/1999/xlink" x="0px" y="0px"
	 width="47.281px" height="46.167px" viewBox="0 0 47.281 46.167" enable-background="new 0 0 47.281 46.167" xml:space="preserve">
<g>
	<g>
		<path fill="none" stroke="#FFFFFF" stroke-width="1.5" stroke-linecap="round" stroke-miterlimit="10" d="M12.86,13.974
			c-0.032,0.905,0.098,1.716,0.27,2.519c0.922,4.307,2.86,8.156,5.383,11.724c1.658,2.346,3.54,4.481,5.977,6.079
			c1.835,1.204,3.612,1.061,5.421-0.019c0.369-0.221,0.463-0.441,0.242-0.821c-1.152-1.982-2.294-3.97-3.437-5.958
			c-0.174-0.302-0.382-0.462-0.76-0.338c-1.312,0.433-2.398-0.079-3.352-0.909c-2.143-1.866-3.35-4.248-3.68-7.058
			c-0.112-0.955,0.092-1.876,0.795-2.594c0.305-0.311,0.379-0.575,0.152-0.965c-1.128-1.93-2.245-3.868-3.354-5.81
			c-0.239-0.419-0.49-0.551-0.952-0.286C13.814,10.543,12.677,11.898,12.86,13.974z"/>
		<path fill="none" stroke="#FFFFFF" stroke-width="1.5" stroke-linecap="round" stroke-miterlimit="10" d="M20.008,15.942
			c0.17,0.176,0.389,0.302,0.697,0.346c0.107-0.022,0.294-0.016,0.433-0.094c0.714-0.401,1.441-0.788,2.114-1.252
			c0.458-0.316,0.486-0.825,0.219-1.295c-1.187-2.09-2.379-4.178-3.595-6.252c-0.32-0.546-0.83-0.793-1.447-0.466
			c-0.624,0.331-1.237,0.687-1.827,1.075c-0.574,0.377-0.693,0.903-0.374,1.496"/>
		<path fill="none" stroke="#FFFFFF" stroke-width="1.5" stroke-linecap="round" stroke-miterlimit="10" d="M30.269,33.7
			c0.17,0.176,0.389,0.302,0.697,0.346c0.107-0.022,0.294-0.016,0.433-0.094c0.714-0.401,1.441-0.788,2.114-1.252
			c0.458-0.316,0.486-0.825,0.219-1.295c-1.187-2.09-2.379-4.178-3.595-6.252c-0.32-0.546-0.83-0.793-1.447-0.466
			c-0.624,0.331-1.237,0.687-1.827,1.075c-0.574,0.377-0.693,0.903-0.374,1.496"/>
	</g>
	<path fill="none" stroke="#FFFFFF" stroke-width="1.5" stroke-linecap="round" stroke-miterlimit="10" d="M14.458,40.542
		c2.765,1.351,5.872,2.11,9.156,2.11c11.533,0,20.882-9.349,20.882-20.882S35.147,0.889,23.614,0.889S2.732,10.238,2.732,21.771
		c0,6.029,2.556,11.461,6.643,15.272"/>
	
		<line fill="none" stroke="#FFFFFF" stroke-width="1.5" stroke-linecap="round" stroke-miterlimit="10" x1="14.705" y1="40.542" x2="5.561" y2="45.277"/>
	
		<line fill="none" stroke="#FFFFFF" stroke-width="1.5" stroke-linecap="round" stroke-miterlimit="10" x1="9.287" y1="36.779" x2="5.404" y2="45.277"/>
</g>
</svg>
