<?xml version="1.0" encoding="utf-8"?>
<!-- Generator: Adobe Illustrator 17.0.0, SVG Export Plug-In . SVG Version: 6.00 Build 0)  -->
<!DOCTYPE svg PUBLIC "-//W3C//DTD SVG 1.1//EN" "http://www.w3.org/Graphics/SVG/1.1/DTD/svg11.dtd">
<svg version="1.1" id="Layer_1" xmlns="http://www.w3.org/2000/svg" xmlns:xlink="http://www.w3.org/1999/xlink" x="0px" y="0px"
	 width="39.417px" height="40px" viewBox="0 0 39.417 40" enable-background="new 0 0 39.417 40" xml:space="preserve">
<g>
	<circle fill="none" stroke="#FFFFFF" stroke-width="1.5" stroke-miterlimit="10" cx="19.708" cy="19.964" r="18.854"/>
	<g>
		<path fill="none" stroke="#FFFFFF" stroke-width="1.5" stroke-miterlimit="10" d="M9.942,12.405c0,0.849,0.085,1.529,0.255,2.293
			c0.849,3.907,2.548,7.389,4.841,10.616c1.529,2.123,3.227,4.076,5.435,5.52c1.699,1.104,3.227,0.934,4.926,0
			c0.34-0.17,0.425-0.425,0.255-0.764c-1.019-1.783-2.038-3.567-3.142-5.35c-0.17-0.255-0.34-0.425-0.679-0.34
			c-1.189,0.425-2.208-0.085-3.057-0.849c-1.953-1.699-3.057-3.822-3.312-6.369c-0.085-0.849,0.085-1.699,0.679-2.378
			c0.255-0.255,0.34-0.51,0.17-0.849c-1.019-1.783-2.038-3.482-3.057-5.265c-0.255-0.34-0.425-0.51-0.849-0.255
			C10.792,9.263,9.772,10.452,9.942,12.405z"/>
		<path fill="none" stroke="#FFFFFF" stroke-width="1.5" stroke-miterlimit="10" d="M16.396,14.104c0.17,0.17,0.34,0.255,0.594,0.34
			c0.085,0,0.255,0,0.425-0.085c0.679-0.34,1.274-0.679,1.868-1.104c0.425-0.255,0.425-0.764,0.17-1.189
			c-1.104-1.868-2.123-3.737-3.227-5.69c-0.17-0.425-0.679-0.679-1.189-0.34c-0.594,0.34-1.104,0.594-1.614,0.934
			s-0.594,0.849-0.34,1.359"/>
		<path fill="none" stroke="#FFFFFF" stroke-width="1.5" stroke-miterlimit="10" d="M25.738,30.155c0.17,0.17,0.34,0.255,0.594,0.34
			c0.085,0,0.255,0,0.425-0.085c0.679-0.34,1.274-0.679,1.868-1.104c0.425-0.255,0.425-0.764,0.17-1.189
			c-1.104-1.868-2.123-3.737-3.227-5.69c-0.255-0.51-0.764-0.679-1.274-0.425c-0.594,0.34-1.104,0.594-1.614,0.934
			s-0.594,0.849-0.34,1.359"/>
	</g>
</g>
</svg>
