<?xml version="1.0" encoding="utf-8"?>
<!-- Generator: Adobe Illustrator 17.0.0, SVG Export Plug-In . SVG Version: 6.00 Build 0)  -->
<!DOCTYPE svg PUBLIC "-//W3C//DTD SVG 1.1//EN" "http://www.w3.org/Graphics/SVG/1.1/DTD/svg11.dtd">
<svg version="1.1" id="Layer_1" xmlns="http://www.w3.org/2000/svg" xmlns:xlink="http://www.w3.org/1999/xlink" x="0px" y="0px"
	 width="44.875px" height="45.417px" viewBox="0 0 44.875 45.417" enable-background="new 0 0 44.875 45.417" xml:space="preserve">
<g>
	<circle fill="none" stroke="#FFFFFF" stroke-width="1.1484" stroke-miterlimit="10" cx="22.438" cy="22.708" r="21.579"/>
	<g>
		<path fill="none" stroke="#FFFFFF" stroke-width="1.1484" stroke-miterlimit="10" d="M10.223,13.122c0,0-3.293,5.169,2.369,8.536
			c0,0-3.116-0.592-3.543-1.255c0,0,0.344,6.211,5.792,6.181c0,0-2.874,0.899-3.721,0c0,0,2.892,5.415,5.94,4.246
			c0,0-3.489,3.535-9.423,2.411c0,0,12.11,7.818,21.812-2.234c0,0,6.463-7.502,4.866-12.549c0,0,2.967-2.357,3.319-3.685
			c0,0-0.1,0.788-4.107,1.443c0,0,2.549-1.143,3.348-3.861c0,0-2.053,1.594-4.035,1.681c0,0-1.639-2.848-6.261-1.728
			c0,0-3.13,0.738-4.12,4.084c0,0-0.383,1.709-0.104,2.423"/>
		<path fill="none" stroke="#FFFFFF" stroke-width="1.1484" stroke-miterlimit="10" d="M10.078,13.087c0,0,2.286,4.52,10.574,6.34"
			/>
	</g>
</g>
</svg>
