<?xml version="1.0" encoding="utf-8"?>
<!-- Generator: Adobe Illustrator 17.0.0, SVG Export Plug-In . SVG Version: 6.00 Build 0)  -->
<!DOCTYPE svg PUBLIC "-//W3C//DTD SVG 1.1//EN" "http://www.w3.org/Graphics/SVG/1.1/DTD/svg11.dtd">
<svg version="1.1" id="Layer_1" xmlns="http://www.w3.org/2000/svg" xmlns:xlink="http://www.w3.org/1999/xlink" x="0px" y="0px"
	 width="122px" height="177.667px" viewBox="0 0 122 177.667" enable-background="new 0 0 122 177.667" xml:space="preserve">
<g>
	
		<path fill="none" stroke="#CACCCE" stroke-width="5.0501" stroke-linecap="round" stroke-linejoin="round" stroke-miterlimit="10" d="
		M10.999,124.681c9.763-5.05,19.696-9.802,29.25-15.222c13.507-7.662,26.903-15.636,38.341-26.275
		c4.691-4.363,8.895-9.396,12.592-14.639c3.613-5.125,5.518-11.533,3.948-17.542c-2.663-10.195-13.497-17.057-24.987-10.556
		c-4.231,2.394-8.189,5.578-11.601,9.058C47.814,60.445,36.627,70.83,23.056,78.102c-6.021,3.226-12.73,5.168-19.127,7.693"/>
	
		<path fill="none" stroke="#CACCCE" stroke-width="5.0501" stroke-linecap="round" stroke-linejoin="round" stroke-miterlimit="10" d="
		M117.556,66.101c-2.357-7.238-4.472-14.567-7.125-21.695c-4.289-11.526-9.878-22.203-20.118-29.852
		C74.547,2.778,56.467,2.887,39.815,12.621c-11.273,6.59-19.586,16.36-27.369,26.662c-2.416,3.198-5.654,5.776-8.516,8.637"/>
	
		<path fill="none" stroke="#CACCCE" stroke-width="5.0501" stroke-linecap="round" stroke-linejoin="round" stroke-miterlimit="10" d="
		M77.155,57.01c-18.133,22.418-41.199,37.752-68.17,47.488c-0.554,0.2-1.016,0.656-1.521,0.993"/>
	
		<path fill="none" stroke="#CACCCE" stroke-width="5.0501" stroke-linecap="round" stroke-linejoin="round" stroke-miterlimit="10" d="
		M70.59,21.66c-9.314,1.297-17.42,5.27-24.187,11.672c-4.49,4.247-8.438,9.064-12.685,13.572
		C25.607,55.513,16.212,62.22,4.939,66.101"/>
	
		<path fill="none" stroke="#CACCCE" stroke-width="5.0501" stroke-linecap="round" stroke-linejoin="round" stroke-miterlimit="10" d="
		M97.355,152.961c-8.08-4.545-16.195-9.031-24.226-13.66c-4.069-2.346-7.917-1.977-11.617,0.548
		c-9.295,6.343-18.529,12.776-27.787,19.172"/>
	
		<path fill="none" stroke="#CACCCE" stroke-width="5.0501" stroke-linecap="round" stroke-linejoin="round" stroke-miterlimit="10" d="
		M107.96,134.781c-5.892-3.367-11.841-6.637-17.66-10.126c-6.58-3.945-13.042-8.086-19.91-12.364
		c-12.752,7.997-24.684,15.537-36.679,22.973c-4.292,2.661-8.74,5.072-13.117,7.597"/>
	
		<path fill="none" stroke="#CACCCE" stroke-width="5.0501" stroke-linecap="round" stroke-linejoin="round" stroke-miterlimit="10" d="
		M84.225,171.142c-4.208-2.693-8.636-5.105-12.565-8.157c-4.139-3.215-8.145-2.26-11.588,0.199
		c-4.236,3.025-7.83,6.948-11.702,10.483"/>
	
		<path fill="none" stroke="#CACCCE" stroke-width="5.0501" stroke-linecap="round" stroke-linejoin="round" stroke-miterlimit="10" d="
		M87.76,93.876c4.233,7.339,9.532,13.655,17.179,17.659c2.133,1.117,4.368,2.036,6.557,3.046"/>
	
		<path fill="none" stroke="#CACCCE" stroke-width="5.0501" stroke-linecap="round" stroke-linejoin="round" stroke-miterlimit="10" d="
		M102.91,77.716c1.158,9.704,8.09,13.973,16.16,17.17"/>
</g>
</svg>

