<?xml version="1.0" encoding="utf-8"?>
<!-- Generator: Adobe Illustrator 17.0.0, SVG Export Plug-In . SVG Version: 6.00 Build 0)  -->
<!DOCTYPE svg PUBLIC "-//W3C//DTD SVG 1.1//EN" "http://www.w3.org/Graphics/SVG/1.1/DTD/svg11.dtd">
<svg version="1.1" xmlns="http://www.w3.org/2000/svg" xmlns:xlink="http://www.w3.org/1999/xlink" x="0px" y="0px" width="195.6px"
	 height="204.75px" viewBox="-161.05 -140.583 195.6 204.75" enable-background="new -161.05 -140.583 195.6 204.75"
	 xml:space="preserve">
<g id="Layer_2">
</g>
<g id="Layer_1">
	<g>
		<g id="Layer_1_1_" opacity="0.3">
			<path fill="none" d="M-132.29-85.732c2.015,1.094,3.434,3.107,6.464,3.89c-2.003-2.137-3.544-3.795-5.102-5.435
				c-0.496-0.521-1.099-0.972-1.705-0.205C-133.139-86.841-132.966-86.099-132.29-85.732z"/>
			<path fill="none" d="M-36.185,43.283c0.052-3.351-3.122-4.626-5.993-3.983c-3.853,0.863-5.987,3.816-5.566,7.54
				c0.739,6.548,3.198,9.726,8.084,9.79c2.933,0.45,3.384-0.174,3.548-4.198C-35.967,48.875-36.235,46.48-36.185,43.283z"/>
			<path fill="none" d="M-122.896-66.104c1.868,0.364,2.209-3.86,3.567-5.854c2.348-3.446-0.573-5.568-2.285-7.877
				c-0.352-0.475-1.593-0.624-2.289-0.434c-1.016,0.279-1.337,1.303-1.306,2.041c0.351,2.083,0.519,3.891,0.981,5.621
				C-123.624-70.345-125.542-66.62-122.896-66.104z"/>
			<path fill="none" d="M27.503-15.046c-1.8,0.053-2.421,1.582-2.601,3.231c-0.105,0.96-0.252,1.917-0.357,2.697
				c0.026,3.578,1.158,6.694,2.458,9.754c0.524,1.234,1.452,2.117,2.923,1.681c1.602-0.476,2.54-1.144,2.557-2.202
				c0.063-3.952,0.145-10.525-1.379-13.646C30.589-14.585,29.705-15.111,27.503-15.046z"/>
			<path fill="none" d="M-56.982-140.583h-14.671c0.367,0.739,0.736,1.478,1.112,2.212c5.587,10.912,14.074,19.616,22.022,28.711
				c2.986,3.417,5.543,6.857,5.211,11.692c-4.139-8.673-11.995-14.217-17.693-21.516c-4.496-5.758-8.693-11.565-11.296-18.377
				c-0.351-0.919-0.722-1.825-1.111-2.723h-7.381c3.786,4.268,7.032,8.937,8.731,14.366c2.232,7.134,5.703,13.542,9.497,19.875
				c1.726,2.881,3.647,5.825,2.782,9.086c-10.039-12.822-12.444-29.679-21.442-43.327h-44.608c1.304,1.265,2.566,2.525,3.771,3.835
				c0.702,0.762-0.381,0.956-1.096,0.803c2.909,2.798,6.616,4.772,8.43,8.788c-3.802-2.995-7.751-5.825-11.339-9.057
				c-1.648-1.485,0.418-0.952,1.04-1.111c-0.646-1.383-1.985-2.246-3.203-3.257h-29.969c1.566,7.075,2.941,14.206,6.17,20.793
				c6.348,12.946,16.1,23.332,25.718,33.799c1.375,1.497,2.826,3.061,4.981,3.598c1.236-3.345,0.158-7.608,4.756-10.177
				c-1.442,4.874-2.877,9.143-1.658,13.582c0.325,1.183,0.082,4.069,2.878,1.582c1.214-1.079,1.717,0.229,1.447,1.275
				c-0.378,1.465-0.815,3.004-1.624,4.255c-4.4,6.806-6.185,13.963-3.61,22.036c-1.49-3.566-8.369-4.364-4.759-10.508
				c0.948-1.613-1.022-1.961-2.201-2.147c-3.977-0.627-7.501,0.55-10.775,3.296c-0.457-3.123,0.442-4.927,3.28-5.644
				c1.882-0.475,3.692-1.425,5.587-1.607c2.359-0.227,2.677-1.365,2.47-3.34c-0.521-4.971-3.082-8.957-6.433-12.314
				c-2.474-2.478-6.242-3.541-9.307-2.108c-2.292,1.071-1.75,4.595-1.957,7.153c-0.033,0.414-0.014,0.841,0.043,1.253
				c0.73,5.281,0.657,10.531-0.019,15.838c-0.492,3.863-0.268,7.782,0.905,11.602c0.834,2.716,2.365,4.497,5.037,5.683
				c6.723,2.983,14.168,3.674,21.192,7.43c-1.368-2.499-4.34-3.371-3.301-6.581c3.053,5.691,8.384,7.013,13.729,8.316
				c3.644,0.889,5.799-0.343,7.592-3.855c4.884-9.566,8.231-19.837,13.59-29.165c2.354-4.097,5.18-7.716,10.759-9.016
				c-2.32,3.618-5.726,5.189-7.743,8.356c-4.537,7.12-7.481,14.93-10.915,22.536c-7.357,16.292-10.561,17.497-26.725,10.117
				c-3.726-1.701-7.581-2.929-11.955-3.171c2.279,6.567,5.476,10.127,11.19,12.216c8.399,3.07,17.365,3.719,25.998,6.218
				c0.098-1.879-1.386-3.11-0.665-4.874c0.633,0.675,1.207,1.253,1.744,1.864c3.57,4.058,8.146,5.902,13.426,5.399
				c4.871-0.464,4.564-5.353,6.297-8.415c1.224-2.163,1.951-4.615,2.838-6.961c4.245-11.22,8.723-22.335,14.558-32.85
				c1.233-2.222,2.638-4.216,6.509-5.166c-1.935,2.784-3.277,4.69-4.593,6.612c-3.244,4.736-7.477,10.005-7.045,15.284
				c0.656,8.018,0.578,16.116,1.683,24.114c0.677,4.898,2.035,9.546,0.659,14.879c-1.648,6.387-1.443,13.27-1.857,19.95
				c-0.221,3.571-0.168,7.102,0.615,10.575c-0.106,0.552-0.115,1.122,0.079,1.781c0.96,3.265,1.113,6.443,1.205,9.821
				c0.056,2.052,0.202,3.947,0.577,5.745c-0.078,5.868,1.655,11.389,4.722,16.647c2.773,4.754,8.822,7.095,14.132,5.531
				c0.994-0.293,2.611-0.33,2.417-1.752c-0.213-1.564-1.837-1.016-2.788-0.865c-6.787,1.08-9.319-4.76-9.701-11.759
				c-0.299-5.478,3.191-8.665,9.23-8.768c1.566-0.027,2.421-0.31,2.448-1.932c0.021-1.287,0.865-2.968-1.167-3.465
				c-2.48-0.607-4.292-2.748-7.038-2.8c-1.409-0.027-2.383-0.931-2.258-2.962c2.724,1.819,5.512,1.964,8.216,2.559
				c2.536,0.558,3.248,0.178,3.215-2.483c-0.138-11.158-0.068-22.319,2.132-33.331c0.454-2.273-0.784-2.057-2.387-1.958
				c-2.613,0.161-5.248,0.028-6.585-3.258c4.671,1.862,4.671,1.862,7.76,0.03c-2.009-0.731-4.294-0.738-5.896-2.943
				c8.856,1.607,10.174,0.305,9.295-8.566c-0.041-0.416-0.087-0.832-0.149-1.246c-2.58-17.203-2.892-34.424-0.324-51.656
				c0.302-2.027,0.271-4.202,1.907-6.763c0.94,4.145-0.049,7.569,0.247,10.859c2.617-0.379,2.559-3.286,4.792-4.266
				c-0.348,3.26-2.849,5.345-3.333,8.226c-0.13,0.771-0.57,1.58-0.262,2.186c4.546,1.149,8.591,1.807,13.082,3.351
				c1.843,0.633,3.695,1.616,5.564,2.665c4.169,1.21,8.517,2.251,13.169,2.73c3.608,1.791,4.805,1.9,5.681,6.466
				c-0.367,5.381-0.215,11.009,1.008,16.226c1.176,5.016,1.597,9.924,1.741,14.995c0.102,3.603,0.757,7.205,1.361,10.775
				c0.58,3.428,1.139,6.895,2.73,10.051c3.014,5.975,11.185,9.264,15.855,6.379c0.777-0.48,1.945-0.895,1.714-2.104
				c-0.278-1.454-1.422-0.924-2.355-0.785C27.84,4.86,25.861,3.871,24.79,1.679c-1.792-3.665-2.933-7.562-2.57-11.71
				c0.27-3.09,1.231-6.535,4.751-6.61c3.915-0.084,4.441-2.083,4.496-3.713c0.471-13.877-1.016-25.841-2.886-38.154
				c-0.365-2.405-0.673-3.8-3.537-3.747c0.672-0.703,0.911-1.058,1.24-1.278c0.922-0.617,2.199-1.138,1.454-2.532
				c-0.936-1.752-1.828,0.177-2.766,0.236c-0.929,0.058-1.876,0.553-2.598-0.466c1.049-1.638,4.758-1.671,3.121-4.793
				c-1.799-3.431-3.618,0.111-5.442,0.319c-0.153-3.422,1.373-5.225-1.261-8.07c-1.047-0.262-2.004-0.657-2.93-1.096
				C11.705-86.799,2.041-90.112-4.41-94.606c-0.988-0.688-1.972-1.316-2.952-1.923c-0.342-0.828-0.752-1.602-1.343-2.168
				c-2.04-1.066-4.233-2.126-6.72-3.193c-2.738-2.234-5.008-4.411-7.167-6.515c-0.005-0.004-0.011-0.007-0.016-0.011
				c-0.525-0.383-1.009-0.574-1.473-0.696c-2.675-2.929-5.492-5.298-9.166-6.739c0.022-0.432-0.032-0.839-0.325-1.151
				c-0.637-0.679-1.205-1.315-1.8-1.966c-0.949-0.564-1.921-1.12-2.992-1.648C-44.112-127.635-50.56-134.1-56.982-140.583z
				 M-123.886-130.948c0.257-0.263,0.513-0.526,0.77-0.789c4.521,2.516,7.873,6.31,11.321,9.998
				c-0.257,0.288-0.515,0.576-0.772,0.864C-116.34-124.233-120.113-127.59-123.886-130.948z M-115.882-120.27
				c2.912,1.179,4.897,3.178,5.726,6.203C-112.795-115.448-114.42-117.791-115.882-120.27z"/>
			<path fill="#FFFFFF" d="M-29.198-66.26c0.156,0.306,0.489,0.563,1.176,0.729c5.636,1.362,11.354,3.512,17.469,5.287
				c-1.869-1.049-3.721-2.032-5.564-2.665C-20.607-64.453-24.651-65.111-29.198-66.26z"/>
			<path fill="#FFFFFF" d="M-8.705-98.698c-0.005-0.004-0.007-0.01-0.012-0.015c-4.158-3.941-9.288-6.352-13.875-9.693
				c2.159,2.104,4.429,4.281,7.167,6.515C-12.938-100.824-10.745-99.763-8.705-98.698z"/>
			<path fill="#FFFFFF" d="M-4.41-94.607c6.452,4.494,16.115,7.807,20.273,14.671c0.926,0.439,1.883,0.833,2.93,1.096
				c-3.93-4.245-4.95-6.176-9.303-8.801C2.824-91.663-2.032-95.21-8.705-98.698c0.591,0.566,1.001,1.341,1.343,2.168
				C-6.381-95.922-5.398-95.295-4.41-94.607z"/>
			<path fill="#FFFFFF" d="M20.054-70.77c1.824-0.208,3.643-3.75,5.442-0.319c1.636,3.122-2.072,3.155-3.121,4.793
				c0.721,1.019,1.668,0.524,2.598,0.466c0.938-0.058,1.83-1.988,2.766-0.236c0.744,1.394-0.532,1.915-1.454,2.532
				c-0.329,0.22-0.568,0.575-1.24,1.278c2.864-0.053,3.172,1.342,3.537,3.747c1.87,12.313,3.356,24.277,2.886,38.154
				c-0.055,1.63-0.581,3.629-4.496,3.713c-3.52,0.075-4.481,3.52-4.751,6.61c-0.362,4.148,0.779,8.045,2.57,11.71
				c1.071,2.191,3.051,3.181,5.563,2.808c0.933-0.139,2.077-0.668,2.355,0.785c0.231,1.209-0.937,1.624-1.714,2.104
				c-4.67,2.886-12.841-0.404-15.855-6.379c-1.592-3.156-2.151-6.623-2.73-10.051c-0.604-3.569-1.259-7.172-1.361-10.775
				c-0.143-5.07-0.565-9.979-1.741-14.995c-1.223-5.217-1.375-10.845-1.008-16.226c-0.876-4.566-2.073-4.675-5.681-6.466
				c-4.652-0.479-9-1.52-13.169-2.73c4.237,2.379,8.568,5.138,13.14,5.21c2.039,0.032,3.7,1.481,3.505,3.436
				C4.963-40.232,8.28-29.267,8.873-18.066C9.167-12.511,9.52-6.94,11.218-1.586c2.597,8.186,9.374,13.786,17.403,11.878
				c5.096-1.212,5.607-2.562,5.93-8.25c-0.543-6.446,0.404-12.847-0.507-19.747c-0.065-5.516-0.17-11.015-0.544-16.527
				c-0.586-8.621-0.871-17.335-1.592-25.843c-0.363-4.283-0.297-6.085-1.356-9.069c-2.014-5.671-7.444-8.615-11.757-9.696
				C21.427-75.996,19.901-74.192,20.054-70.77z M32.483,0.115c-0.017,1.057-0.954,1.726-2.557,2.202
				c-1.471,0.436-2.399-0.447-2.923-1.681c-1.299-3.06-2.432-6.175-2.458-9.754c0.105-0.781,0.252-1.737,0.357-2.697
				c0.18-1.648,0.802-3.177,2.601-3.231c2.202-0.065,3.086,0.461,3.601,1.514C32.628-10.41,32.546-3.837,32.483,0.115z"/>
			<path fill="#FFFFFF" d="M-38.363-120.616c1.071,0.528,2.043,1.084,2.992,1.648c-3.644-3.995-6.651-7.601-10.335-11.968
				c-2.644-3.134-5.893-6.363-9.27-9.648h-2.007C-50.56-134.1-44.112-127.635-38.363-120.616z"/>
			<path fill="#FFFFFF" d="M-28.935-68.446c0.484-2.881,2.984-4.966,3.333-8.226c-2.233,0.98-2.175,3.887-4.792,4.266
				c-0.296-3.29,0.693-6.714-0.247-10.859c-1.636,2.561-1.605,4.736-1.907,6.763c-2.568,17.232-2.256,34.452,0.324,51.656
				c0.062,0.413,0.108,0.83,0.149,1.246c0.879,8.871-0.439,10.174-9.295,8.566c1.602,2.205,3.887,2.212,5.896,2.943
				c-3.089,1.831-3.089,1.831-7.76-0.03c1.336,3.286,3.971,3.419,6.585,3.258c1.602-0.099,2.84-0.315,2.387,1.958
				c-2.2,11.012-2.27,22.173-2.132,33.331c0.033,2.661-0.678,3.041-3.215,2.483c-2.704-0.595-5.491-0.74-8.216-2.559
				c-0.126,2.032,0.848,2.936,2.258,2.962c2.746,0.052,4.558,2.194,7.038,2.8c2.032,0.497,1.188,2.178,1.167,3.465
				c-0.026,1.622-0.881,1.905-2.448,1.932c-6.039,0.103-9.53,3.29-9.23,8.768c0.382,6.999,2.914,12.839,9.701,11.759
				c0.951-0.152,2.575-0.699,2.788,0.865c0.194,1.422-1.422,1.46-2.417,1.752c-5.311,1.563-11.36-0.777-14.132-5.531
				c-3.067-5.258-4.8-10.779-4.722-16.647c-0.375-1.798-0.521-3.693-0.577-5.745c-0.092-3.378-0.245-6.556-1.205-9.821
				c-0.194-0.66-0.185-1.229-0.079-1.781c-0.783-3.474-0.836-7.004-0.615-10.575c0.414-6.679,0.209-13.563,1.857-19.95
				c1.376-5.333,0.018-9.98-0.659-14.879c-1.105-7.998-1.027-16.096-1.683-24.114c-0.432-5.279,3.801-10.548,7.045-15.284
				c1.317-1.923,2.658-3.828,4.593-6.612c-3.871,0.95-5.275,2.944-6.509,5.166c-5.836,10.515-10.313,21.63-14.558,32.85
				c-0.887,2.346-1.614,4.797-2.838,6.961c-1.733,3.062-1.427,7.95-6.297,8.415c-5.28,0.503-9.856-1.341-13.426-5.399
				c-0.537-0.61-1.111-1.189-1.744-1.864c-0.722,1.764,0.763,2.995,0.665,4.874c-8.634-2.5-17.599-3.148-25.998-6.218
				c-5.714-2.089-8.911-5.648-11.19-12.216c4.374,0.242,8.23,1.47,11.955,3.171c16.164,7.379,19.367,6.175,26.725-10.117
				c3.435-7.606,6.378-15.416,10.915-22.536c2.018-3.167,5.424-4.737,7.743-8.356c-5.579,1.3-8.405,4.919-10.759,9.016
				c-5.358,9.327-8.706,19.598-13.59,29.165c-1.793,3.511-3.948,4.743-7.592,3.855c-5.345-1.303-10.676-2.625-13.729-8.316
				c-1.039,3.21,1.933,4.082,3.301,6.581c-7.023-3.757-14.469-4.446-21.192-7.43c-2.672-1.186-4.203-2.967-5.037-5.683
				c-1.173-3.819-1.397-7.738-0.905-11.602c0.677-5.306,0.75-10.557,0.019-15.838c-0.057-0.412-0.076-0.839-0.043-1.253
				c0.207-2.558-0.335-6.081,1.957-7.153c3.065-1.432,6.833-0.37,9.307,2.108c3.351,3.357,5.911,7.343,6.433,12.314
				c0.207,1.975-0.11,3.113-2.47,3.34c-1.896,0.183-3.705,1.133-5.587,1.607c-2.839,0.717-3.737,2.52-3.28,5.644
				c3.274-2.746,6.798-3.924,10.775-3.296c1.179,0.186,3.149,0.534,2.201,2.147c-3.611,6.144,3.269,6.942,4.759,10.508
				c-2.575-8.073-0.791-15.23,3.61-22.036c0.809-1.251,1.246-2.79,1.624-4.255c0.27-1.046-0.233-2.354-1.447-1.275
				c-2.796,2.486-2.554-0.399-2.878-1.582c-1.219-4.438,0.216-8.707,1.658-13.582c-4.598,2.568-3.52,6.832-4.756,10.177
				c-2.155-0.537-3.606-2.101-4.981-3.598c-9.618-10.467-19.37-20.853-25.717-33.799c-3.23-6.587-4.604-13.718-6.17-20.793h-2.857
				c0.688,3.361,1.695,6.63,2.785,9.864c1.368,4.058,2.566,8.235,4.935,11.869c1.942,2.979,3.025,6.349,5.296,9.261
				c4.014,5.148,7.673,10.591,11.685,15.768c1.068,1.379,3.322,2.47,2.126,4.897c-1.079,2.189-3.066,1.872-5.034,1.932
				c-4.902,0.15-7.202,3.002-6.609,7.895c0.167,1.376,0.22,2.765,0.354,4.145c0.774,7.963-0.857,15.842-0.821,23.778
				c0.015,3.528,0.774,7.371,4.092,8.578c5.15,1.873,6.469,6.482,9.262,10.132c1.15,1.502,2.168,3.207,3.257,4.825
				c1.743,1.126,3.402,2.808,5.227,3.732c2.22,1.124,4.614,1.88,7.029,2.447c0.018,0.004,0.027,0.016,0.045,0.021
				c7.836,1.607,15.673,3.207,23.506,4.83c0.67,0.139,1.284,0.359,1.861,0.638c1.49,0.28,2.98,0.529,4.501,0.67
				c1.073,0.099,2.115,0.23,3.084,0.642c0.335,0.034,0.67,0.071,1.028,0.153c2.261,0.521,4.585,0.07,6.456-1.135
				c2.03-1.307,5.569-1.783,5.795-4.14c0.431-4.494,0.875-8.579,5.041-11.23c0.08-0.051,0.124-0.108,0.176-0.165
				c0.002-0.064-0.004-0.127,0-0.192c0.02-0.338-0.002-0.672,0.007-1.007c-1.929-4.213,1.995-6.846,2.875-10.366
				c0.52,0.697,0.634,1.337,0.631,1.975c-0.007,1.475-0.015,2.95-0.031,4.425c0.006,0.048,0.031,0.082,0.033,0.133
				c0.25,5.875,0.816,11.671,2.57,17.277c0.14,0.448,0.156,0.897,0.093,1.345c0.031,0.138-0.011,0.306-0.017,0.459
				c0.443,2.275,0.301,4.535-0.218,6.726c-0.02,5.133-1.914,10.198-1.957,15.423c-0.041,4.974,0.075,9.957,0.09,14.932
				c0.199,1.702,0.435,3.398,0.626,5.098c0.178,1.312,0.342,2.625,0.465,3.943c0.07,0.553,0.112,1.114,0.146,1.677
				c0.693,8.532,0.761,17.111,3.862,25.2c0.837,0.02,1.608,0.548,1.525,1.63c-0.011,0.144-0.022,0.288-0.033,0.432
				c0.459,0.573,0.922,1.126,1.376,1.661c3.521,4.136,9.037,4.815,16.064,3.051c3.013-0.756,3.992-1.999,5.143-6.693
				c1.62-6.602-0.184-13.296,0.242-20.189c0.857-13.866-2.18-28.107,1.025-41.776c2.275-9.702,2.358-19.232,0.803-28.982
				c-1.339-8.393-1.687-16.89-1.161-25.392c0.083-1.345-0.016-6.539,2.619-5.873C-29.506-66.865-29.065-67.675-28.935-68.446z
				 M-123.903-80.268c0.697-0.191,1.937-0.042,2.289,0.434c1.711,2.31,4.633,4.431,2.285,7.877c-1.358,1.993-1.7,6.218-3.567,5.854
				c-2.646-0.516-0.729-4.242-1.332-6.503c-0.462-1.73-0.63-3.538-0.981-5.621C-125.239-78.965-124.918-79.99-123.903-80.268z
				 M-132.634-87.481c0.606-0.768,1.209-0.317,1.705,0.205c1.559,1.64,3.099,3.298,5.102,5.435c-3.03-0.783-4.449-2.797-6.464-3.89
				C-132.966-86.099-133.139-86.841-132.634-87.481z M-36.113,52.432c-0.164,4.024-0.615,4.648-3.548,4.198
				c-4.886-0.063-7.345-3.241-8.084-9.79c-0.421-3.724,1.713-6.677,5.566-7.54c2.871-0.643,6.046,0.632,5.993,3.983
				C-36.235,46.48-35.967,48.875-36.113,52.432z"/>
			<path fill="#FFFFFF" d="M-33.247-115.851c3.674,1.441,6.491,3.81,9.166,6.739c0.464,0.122,0.948,0.314,1.473,0.696
				c0.005,0.004,0.011,0.007,0.016,0.011c-3.983-3.88-7.587-7.477-12.779-10.563c0.594,0.651,1.163,1.287,1.8,1.966
				C-33.279-116.69-33.225-116.283-33.247-115.851z"/>
			<path fill="#FFFFFF" d="M-61.001-119.484c5.699,7.298,13.554,12.843,17.693,21.516c0.331-4.835-2.225-8.275-5.211-11.692
				c-7.948-9.095-16.435-17.799-22.022-28.711c-0.376-0.735-0.745-1.473-1.112-2.212h-1.753c0.388,0.898,0.759,1.804,1.111,2.723
				C-69.693-131.049-65.496-125.241-61.001-119.484z"/>
			<path fill="#FFFFFF" d="M-62.559-106.343c-3.794-6.333-7.265-12.74-9.497-19.875c-1.699-5.429-4.945-10.098-8.731-14.366h-0.432
				c8.998,13.648,11.403,30.505,21.442,43.327C-58.913-100.518-60.834-103.462-62.559-106.343z"/>
			<path fill="#FFFFFF" d="M-111.795-121.739c-3.448-3.688-6.8-7.482-11.321-9.998c-0.257,0.263-0.513,0.526-0.77,0.789
				c3.773,3.358,7.546,6.715,11.319,10.073C-112.31-121.163-112.053-121.451-111.795-121.739z"/>
			<path fill="#FFFFFF" d="M-126.062-136.215c3.588,3.232,7.538,6.062,11.339,9.057c-1.814-4.016-5.52-5.989-8.43-8.788
				c-0.623-0.46-1.247-0.92-1.87-1.38C-125.644-137.168-127.71-137.7-126.062-136.215z"/>
			<path fill="#FFFFFF" d="M-125.022-137.326c0.623,0.46,1.247,0.92,1.87,1.38c0.716,0.154,1.798-0.04,1.096-0.803
				c-1.205-1.31-2.467-2.57-3.771-3.835h-2.398C-127.007-139.572-125.668-138.71-125.022-137.326z"/>
			<path fill="#FFFFFF" d="M-115.882-120.27c1.462,2.479,3.087,4.822,5.726,6.203C-110.986-117.092-112.97-119.091-115.882-120.27z"
				/>
		</g>
		<g id="Layer_2_1_" opacity="0.3">
		</g>
	</g>
</g>
</svg>
