<?xml version="1.0" encoding="utf-8"?>
<!-- Generator: Adobe Illustrator 17.0.0, SVG Export Plug-In . SVG Version: 6.00 Build 0)  -->
<!DOCTYPE svg PUBLIC "-//W3C//DTD SVG 1.1//EN" "http://www.w3.org/Graphics/SVG/1.1/DTD/svg11.dtd">
<svg version="1.1" xmlns="http://www.w3.org/2000/svg" xmlns:xlink="http://www.w3.org/1999/xlink" x="0px" y="0px"
	 width="1256.93px" height="378px" viewBox="0 0 1256.93 378" enable-background="new 0 0 1256.93 378" xml:space="preserve">
<g id="Layer_1">
	<path fill="none" stroke="#AFFF00" stroke-miterlimit="10" d="M103.556-519.098c0,0,2.667,4.167-24.333,6.5
		c-27,2.333-43.667-1.667-43.667-1.667c-32-8.167,23.333-11.167,23.333-11.167c42-2,45.667,6.333,45.667,6.333
		c2.333,37.333-21.333,72.917-21.333,72.917c-33,6.5-40.49-0.633-40.662-0.885c-5.928-8.651-26.338-24.865-26.338-24.865
		s-21.5-16.5-16.25-32.25s21.75-9.25,21.75-9.25l0.75,6.625c0,0,6.25,32.519,7.75,35.875c0,0,5.255,16.532,12.338,23.865"/>
	<path fill="none" stroke="#AFFF00" stroke-miterlimit="10" d="M-1682.448-126.393c0,0-1.042-3.06,0.618-5.802
		c0.996-1.646,6.281-2.417,10.031-3.105"/>
	<path fill="none" stroke="#000000" stroke-width="1.5" stroke-miterlimit="10" d="M1349.429,591.382
		c0,4.154-3.367,7.521-7.521,7.521h-48.437c-4.154,0-7.521-3.367-7.521-7.521V480.068c0-4.154,3.367-7.521,7.521-7.521h48.437
		c4.154,0,7.521,3.367,7.521,7.521V591.382z"/>
	
		<rect x="1287.906" y="483.076" fill="none" stroke="#000000" stroke-width="0.5" stroke-miterlimit="10" width="60.17" height="104.394"/>
	<path fill="none" stroke="#000000" stroke-width="0.4912" stroke-miterlimit="10" d="M1328.493,593.124
		c0,1.764-1.482,3.193-3.309,3.193h-14.441c-1.828,0-3.309-1.43-3.309-3.193l0,0c0-1.764,1.482-3.193,3.309-3.193h14.441
		C1327.011,589.93,1328.493,591.36,1328.493,593.124L1328.493,593.124z"/>
	<path fill="none" stroke="#000000" stroke-width="0.5" stroke-miterlimit="10" d="M1326.214,478.413
		c0,0.582-0.471,1.053-1.053,1.053h-14.541c-0.582,0-1.053-0.471-1.053-1.053l0,0c0-0.582,0.471-1.053,1.053-1.053h14.541
		C1325.742,477.36,1326.214,477.832,1326.214,478.413L1326.214,478.413z"/>
</g>
<g id="Layer_2">
</g>
<g id="Layer_3">
	<path fill="none" stroke="#000000" stroke-width="0.8268" stroke-miterlimit="10" d="M298.069,437.912"/>
	<g>
		<polygon fill="none" stroke="#000000" stroke-width="2" stroke-miterlimit="10" points="615.483,359.02 222.206,359.02 
			287.736,318.48 554.054,318.489 		"/>
		<polygon fill="none" stroke="#000000" stroke-width="0.9649" stroke-miterlimit="10" points="455.608,359.02 369.448,359.02 
			372.267,347.964 450.279,347.621 		"/>
		<polygon fill="none" stroke="#000000" stroke-miterlimit="10" points="595.218,347.621 239.939,347.621 287.736,318.48 
			554.054,318.489 		"/>
		<line fill="none" stroke="#000000" stroke-miterlimit="10" x1="586.985" y1="343.821" x2="248.443" y2="343.842"/>
		<line fill="none" stroke="#000000" stroke-miterlimit="10" x1="560.811" y1="323.272" x2="281.406" y2="323.335"/>
		<line fill="none" stroke="#000000" stroke-miterlimit="10" x1="565.136" y1="343.821" x2="544.976" y2="323.88"/>
		<line fill="none" stroke="#000000" stroke-miterlimit="10" x1="543.604" y1="343.821" x2="525.555" y2="324.488"/>
		<line fill="none" stroke="#000000" stroke-miterlimit="10" x1="521.122" y1="343.821" x2="507.19" y2="324.488"/>
		<line fill="none" stroke="#000000" stroke-miterlimit="10" x1="501.807" y1="343.821" x2="489.774" y2="323.272"/>
		<line fill="none" stroke="#000000" stroke-miterlimit="10" x1="479.641" y1="343.821" x2="471.092" y2="324.488"/>
		<line fill="none" stroke="#000000" stroke-miterlimit="10" x1="361.215" y1="324.488" x2="351.557" y2="343.821"/>
		<line fill="none" stroke="#000000" stroke-miterlimit="10" x1="343.799" y1="324.488" x2="331.445" y2="343.43"/>
		<line fill="none" stroke="#000000" stroke-miterlimit="10" x1="324.167" y1="324.488" x2="307.385" y2="343.43"/>
		<line fill="none" stroke="#000000" stroke-miterlimit="10" x1="304.535" y1="324.488" x2="286.803" y2="343.43"/>
		<line fill="none" stroke="#000000" stroke-miterlimit="10" x1="579.069" y1="338.121" x2="256.832" y2="338.121"/>
		<line fill="none" stroke="#000000" stroke-miterlimit="10" x1="574.002" y1="330.522" x2="268.232" y2="330.522"/>
		<line fill="none" stroke="#000000" stroke-miterlimit="10" x1="416.417" y1="324.488" x2="416.417" y2="338.121"/>
		<line fill="none" stroke="#000000" stroke-miterlimit="10" x1="397.207" y1="324.488" x2="393.988" y2="338.121"/>
		<line fill="none" stroke="#000000" stroke-miterlimit="10" x1="379.685" y1="324.061" x2="374.831" y2="338.121"/>
		<line fill="none" stroke="#000000" stroke-miterlimit="10" x1="434.572" y1="324.061" x2="436.999" y2="338.121"/>
		<line fill="none" stroke="#000000" stroke-miterlimit="10" x1="454.204" y1="324.061" x2="458.426" y2="338.121"/>
		<path fill="none" stroke="#000000" stroke-width="2" stroke-miterlimit="10" d="M616.771,359.636c0,0,1.78,10.151-8.757,10.098
			c-10.537-0.053-26.518,0-26.518,0"/>
		
			<line fill="none" stroke="#000000" stroke-width="2" stroke-miterlimit="10" x1="256.67" y1="369.734" x2="581.496" y2="369.734"/>
		<path fill="none" stroke="#000000" stroke-width="1.0942" stroke-miterlimit="10" d="M956.492,330.674
			c0,0,2.531,2.331,7.127,2.931l165.355-0.178c0,0,3.375-0.089,4.973-2.753c0,0,1.51-3.819,1.51-5.684c0,0,0.71-1.954-2.842-4.263
			l-11.722-6.838c0,0-0.755-0.555-2.753-0.688c-1.998-0.133-141.6-0.477-141.6-0.477s-1.465,0-4.363,1.465
			c-2.897,1.465-15.685,7.16-15.685,7.16s-1.598,1.998-1.465,3.197C955.027,324.547,955.693,329.109,956.492,330.674z"/>
		<path fill="none" stroke="#000000" stroke-width="1.0942" stroke-miterlimit="10" d="M956.492,330.674
			c0,0,2.065,0.866,5.861,0.866s164.223,0.2,164.223,0.2s3.969,0.089,7.002-0.533l1.878-6.216c0,0-0.266,1.154-7.926,1.088
			c-7.659-0.067-166.576-0.067-166.576-0.067s-4.412-0.044-5.936-1.021"/>
		<g>
			<polygon fill="none" stroke="#000000" stroke-width="0.5765" stroke-miterlimit="10" points="1109.37,331.008 1107.384,331.008 
				1107.384,329.129 1108.833,328.004 1114.363,328.004 1115.812,329.129 1115.812,331.008 1113.826,331.008 			"/>
		</g>
		<path fill="none" stroke="#000000" stroke-width="0.5471" stroke-miterlimit="10" d="M1007.222,328.943
			c0,0.907-0.577,1.643-1.289,1.643h-14.028c-0.712,0-1.289-0.736-1.289-1.643l0,0c0-0.907,0.577-1.643,1.289-1.643h14.028
			C1006.645,327.3,1007.222,328.035,1007.222,328.943L1007.222,328.943z"/>
		<path fill="none" stroke="#000000" stroke-width="0.5471" stroke-miterlimit="10" d="M1027.914,328.943
			c0,0.907-0.577,1.643-1.289,1.643h-14.028c-0.712,0-1.289-0.736-1.289-1.643l0,0c0-0.907,0.577-1.643,1.289-1.643h14.028
			C1027.336,327.3,1027.914,328.035,1027.914,328.943L1027.914,328.943z"/>
		
			<line fill="none" stroke="#000000" stroke-width="0.5765" stroke-miterlimit="10" x1="1108.302" y1="329.815" x2="1114.128" y2="329.815"/>
		<path fill="none" stroke="#000000" stroke-width="1.8522" stroke-miterlimit="10" d="M1145.048,292.896
			c0,0-2.47,3.859,22.535,6.02c25.004,2.161,40.439-1.543,40.439-1.543c29.635-7.563-21.609-10.341-21.609-10.341
			c-38.896-1.852-42.292,5.865-42.292,5.865c-2.161,34.574,19.757,67.527,19.757,67.527c30.561,6.02,37.497-0.587,37.657-0.819
			c5.49-8.011,24.392-23.028,24.392-23.028s19.911-15.28,15.049-29.866c-4.862-14.586-20.142-8.566-20.142-8.566l-0.695,6.135
			c0,0-5.788,30.116-7.177,33.224c0,0-4.866,15.31-11.426,22.102"/>
		<path fill="none" stroke="#000000" stroke-width="1.8522" stroke-miterlimit="10" d="M1220.833,298.143
			c0,0,0.965-2.834-0.573-5.374c-0.922-1.524-5.817-2.239-9.29-2.875"/>
		
			<ellipse transform="matrix(-0.2299 0.9732 -0.9732 -0.2299 1220.1854 -343.432)" fill="none" stroke="#000000" stroke-miterlimit="10" cx="745.968" cy="311.038" rx="21.317" ry="13.136"/>
		<path fill="none" stroke="#000000" stroke-width="2" stroke-miterlimit="10" d="M704.502,313.135
			c15.686-39.929,40.979-29.808,40.979-29.808c-9.254-8.31-26.943-4.333-26.943-4.333s-5.045-7.178-17.745-9.904
			c-12.7-2.726-22.984,7.262-22.984,7.262c-3.128,2.64-5.927,5.992-12.194,7.616c-6.267,1.624-18.551,3.816-18.551,3.816
			c-17.737,2.55-31.064,9.063-31.064,9.063c-7.545,4.058-10.718,8.994-8.673,14.494c2.045,5.5,15.126,6.271,15.126,6.271
			c9.872,1.338,27.068,1.301,27.068,1.301c17.51,0.809,40.861-2.962,54.349-5.644c13.488-2.683,21.375-12.861,21.375-12.861
			c8.967-13.086,16.671-18.201,26.455-14.744c10.944,3.867,14.98,20.689,9.014,37.573c-5.966,16.884-19.674,27.436-30.618,23.569
			c0,0-10.541-3.945-16.222-3.036c-5.664,0.906-46.031,8.528-60.272,7.531c0,0-40.349,2.205-49.055-23.508
			c0,0-7.972-21.313,8.847-29.392"/>
		
			<ellipse transform="matrix(-0.2299 0.9732 -0.9732 -0.2299 1220.1864 -343.4313)" fill="none" stroke="#000000" stroke-miterlimit="10" cx="745.968" cy="311.038" rx="24.18" ry="14.9"/>
		<path fill="none" stroke="#000000" stroke-width="2" stroke-miterlimit="10" d="M691.946,315.677c0,0,4.34-30.763,27.507-36.584"
			/>
		<path fill="none" stroke="#000000" stroke-miterlimit="10" d="M706.274,286.386c-2.627-2.69-6.118-4.571-10.154-5.008
			c-9.203-0.994-17.465,5.627-18.455,14.79c-0.99,9.163,5.949,17.314,14.376,18.932"/>
		<path fill="none" stroke="#000000" stroke-miterlimit="10" d="M705.714,285.84c-3.211-1.659-4.18-2.272-8.217-2.708
			c-9.202-0.994-17.465,5.627-18.455,14.79s3.917,13.233,12.164,17.089"/>
		<path fill="none" stroke="#000000" stroke-width="2" stroke-miterlimit="10" d="M715.715,280.304c0,0-16.192-15.954-37.906-3.952"
			/>
		<path fill="none" stroke="#000000" stroke-width="2" stroke-miterlimit="10" d="M699.394,314.395c0,0,9.36-34.886,35.351-35.867"
			/>
		<path fill="none" stroke="#000000" stroke-width="2" stroke-miterlimit="10" d="M672.97,280.481c0,0-15.119,19.995,3.95,37.071"/>
		<rect x="291.658" y="153.823" fill="none" stroke="#000000" stroke-miterlimit="10" width="253.318" height="153.258"/>
		
			<ellipse fill="none" stroke="#000000" stroke-width="0.5" stroke-miterlimit="10" cx="409.873" cy="365.203" rx="2.533" ry="2.797"/>
		
			<ellipse fill="none" stroke="#000000" stroke-width="0.5" stroke-miterlimit="10" cx="417.473" cy="365.203" rx="2.533" ry="2.797"/>
		
			<ellipse fill="none" stroke="#000000" stroke-width="0.5" stroke-miterlimit="10" cx="425.072" cy="365.203" rx="2.533" ry="2.797"/>
		<path fill="none" stroke="#000000" stroke-width="2" stroke-miterlimit="10" d="M557.642,312.147c0,3.498-4.167,6.333-9.308,6.333
			H287.736c-5.14,0-9.308-2.835-9.308-6.333V144.333c0-3.498,4.167-6.333,9.308-6.333h260.598c5.14,0,9.308,2.835,9.308,6.333
			V312.147z"/>
		
			<rect x="74.26" y="143.629" transform="matrix(0.7726 -0.6349 0.6349 0.7726 -126.8511 101.5217)" fill="none" stroke="#000000" stroke-width="1.867" stroke-miterlimit="10" width="8.052" height="168.399"/>
		
			<rect x="133.714" y="312.705" transform="matrix(0.9999 0.0129 -0.0129 0.9999 4.2276 -1.7509)" fill="none" stroke="#000000" stroke-width="1.867" stroke-miterlimit="10" width="8.052" height="27.784"/>
		
			<rect x="97.627" y="26.297" transform="matrix(-0.4624 -0.8867 0.8867 -0.4624 50.6865 251.7239)" fill="none" stroke="#000000" stroke-width="1.867" stroke-miterlimit="10" width="8.052" height="168.399"/>
		
			<rect x="194.084" y="50.074" transform="matrix(-0.6669 -0.7452 0.7452 -0.6669 288.5748 240.8024)" fill="none" stroke="#000000" stroke-width="1.867" stroke-miterlimit="10" width="8.052" height="11.653"/>
		
			<ellipse fill="none" stroke="#000000" stroke-width="1.867" stroke-miterlimit="10" cx="137.852" cy="301.619" rx="5.258" ry="5.379"/>
		
			<ellipse fill="none" stroke="#000000" stroke-width="1.867" stroke-miterlimit="10" cx="137.852" cy="301.619" rx="10.788" ry="11.035"/>
		
			<ellipse fill="none" stroke="#000000" stroke-width="1.867" stroke-miterlimit="10" cx="17.589" cy="154.454" rx="5.258" ry="5.379"/>
		
			<ellipse fill="none" stroke="#000000" stroke-width="1.867" stroke-miterlimit="10" cx="17.589" cy="154.454" rx="10.788" ry="11.035"/>
		
			<ellipse fill="none" stroke="#000000" stroke-width="1.867" stroke-miterlimit="10" cx="185.383" cy="66.259" rx="5.258" ry="5.379"/>
		
			<ellipse fill="none" stroke="#000000" stroke-width="1.867" stroke-miterlimit="10" cx="185.383" cy="66.259" rx="10.788" ry="11.035"/>
		<path fill="none" stroke="#000000" stroke-width="1.867" stroke-miterlimit="10" d="M223.615,112.824l66.228-64.891
			c0,0-26.417-11.737-48.619-10.557l-28.328-25.657c0,0-5.718-3.614-9.618-0.362c-3.899,3.253-15.545,15.531-15.545,15.531
			s-4.321,5.293,3.423,12.635s16.146,16.051,16.146,16.051l7.93,7.852C215.233,63.425,210.2,94.593,223.615,112.824z"/>
		<path fill="none" stroke="#000000" stroke-width="1.867" stroke-miterlimit="10" d="M97.843,340.492
			c-6.416,0-5.661,6.165-5.661,6.165v7.171h91.228v-7.171c0,0,0.755-6.165-5.661-6.165H97.231"/>
		
			<rect x="832.82" y="238.933" fill="none" stroke="#000000" stroke-width="0.9698" stroke-miterlimit="10" width="96.342" height="118.542"/>
		<path fill="none" stroke="#000000" stroke-width="1.9396" stroke-miterlimit="10" d="M935.378,366.828
			c0,2.367-2.207,4.287-4.929,4.287h-98.571c-2.722,0-4.929-1.919-4.929-4.287v-136.6c0-2.367,2.207-4.287,4.929-4.287h98.571
			c2.722,0,4.929,1.919,4.929,4.287V366.828z"/>
		
			<ellipse fill="none" stroke="#000000" stroke-width="0.9698" stroke-miterlimit="10" cx="880.572" cy="363.748" rx="3.108" ry="3.085"/>
		<path fill="none" stroke="#000000" stroke-width="1.6602" stroke-miterlimit="10" d="M1188.66,199.436
			c0,0-10.334,8.023-3.741,20.562s15.435,29.579,8.039,35.945"/>
		<path fill="none" stroke="#000000" stroke-width="1.6602" stroke-miterlimit="10" d="M1180.28,240.164
			c0,0,6.862,3.612,4.313,11.613s-5.945,18.862-0.969,21.812"/>
		
			<line fill="none" stroke="#000000" stroke-width="1.9629" stroke-linecap="round" stroke-miterlimit="10" x1="591" y1="75.192" x2="591" y2="95.302"/>
		<g>
			
				<line fill="none" stroke="#000000" stroke-width="1.9629" stroke-linejoin="round" x1="595.218" y1="125.167" x2="595.218" y2="129.768"/>
			
				<line fill="none" stroke="#000000" stroke-width="1.9629" stroke-linejoin="round" x1="595.218" y1="53.984" x2="595.218" y2="58.585"/>
			
				<line fill="none" stroke="#000000" stroke-width="1.9629" stroke-linejoin="round" x1="557.325" y1="91.876" x2="561.927" y2="91.876"/>
			
				<line fill="none" stroke="#000000" stroke-width="1.9629" stroke-linejoin="round" x1="628.508" y1="91.876" x2="633.11" y2="91.876"/>
			
				<line fill="none" stroke="#000000" stroke-width="1.9629" stroke-linejoin="round" x1="576.414" y1="58.984" x2="578.748" y2="62.949"/>
			
				<line fill="none" stroke="#000000" stroke-width="1.9629" stroke-linejoin="round" x1="612.521" y1="120.321" x2="614.857" y2="124.288"/>
			
				<line fill="none" stroke="#000000" stroke-width="1.9629" stroke-linejoin="round" x1="566.256" y1="108.285" x2="562.263" y2="110.572"/>
			
				<line fill="none" stroke="#000000" stroke-width="1.9629" stroke-linejoin="round" x1="624.021" y1="75.192" x2="628.014" y2="72.905"/>
			
				<line fill="none" stroke="#000000" stroke-width="1.9629" stroke-linejoin="round" x1="566.462" y1="75.109" x2="562.478" y2="72.807"/>
			
				<line fill="none" stroke="#000000" stroke-width="1.9629" stroke-linejoin="round" x1="624.111" y1="108.404" x2="628.095" y2="110.705"/>
			
				<line fill="none" stroke="#000000" stroke-width="1.9629" stroke-linejoin="round" x1="578.592" y1="120.713" x2="576.295" y2="124.7"/>
			
				<line fill="none" stroke="#000000" stroke-width="1.9629" stroke-linejoin="round" x1="611.822" y1="63.027" x2="614.119" y2="59.04"/>
		</g>
		<g>
			<path fill="none" stroke="#000000" stroke-width="1.9629" stroke-linecap="round" stroke-linejoin="round" d="M574.207,55.124
				c-6.447,3.694-11.827,9.031-15.571,15.446"/>
			<path fill="none" stroke="#000000" stroke-width="1.9629" stroke-linecap="round" stroke-linejoin="round" d="M574.074,128.552
				c-6.527-3.771-11.951-9.23-15.678-15.786"/>
			<path fill="none" stroke="#000000" stroke-width="1.9629" stroke-linecap="round" stroke-linejoin="round" d="M574.207,55.124
				c6.193-3.548,13.362-5.587,21.011-5.587"/>
			<path fill="none" stroke="#000000" stroke-width="1.9629" stroke-linecap="round" stroke-linejoin="round" d="M558.636,70.57
				c-3.654,6.26-5.757,13.535-5.757,21.306"/>
			<path fill="none" stroke="#000000" stroke-width="1.9629" stroke-linecap="round" stroke-linejoin="round" d="M631.954,112.915
				c-3.571,6.222-8.667,11.458-14.792,15.177"/>
			<path fill="none" stroke="#000000" stroke-width="1.9629" stroke-linecap="round" stroke-linejoin="round" d="M574.074,128.552
				c6.223,3.595,13.44,5.663,21.144,5.663"/>
			<path fill="none" stroke="#000000" stroke-width="1.9629" stroke-linecap="round" stroke-linejoin="round" d="M558.396,112.766
				c-3.506-6.165-5.518-13.291-5.518-20.89"/>
			<path fill="none" stroke="#000000" stroke-width="1.9629" stroke-linecap="round" stroke-linejoin="round" d="M631.862,70.679
				c-3.726-6.427-9.09-11.78-15.526-15.493"/>
			<path fill="none" stroke="#000000" stroke-width="1.9629" stroke-linecap="round" stroke-linejoin="round" d="M631.862,70.679
				c3.615,6.235,5.694,13.471,5.694,21.197"/>
			<path fill="none" stroke="#000000" stroke-width="1.9629" stroke-linecap="round" stroke-linejoin="round" d="M637.557,91.876
				c0,7.661-2.045,14.839-5.603,21.039"/>
			<path fill="none" stroke="#000000" stroke-width="1.9629" stroke-linecap="round" stroke-linejoin="round" d="M617.162,128.092
				c-6.399,3.886-13.91,6.123-21.944,6.123"/>
			<path fill="none" stroke="#000000" stroke-width="1.9629" stroke-linecap="round" stroke-linejoin="round" d="M595.218,49.537
				c7.694,0,14.901,2.062,21.119,5.649"/>
		</g>
		
			<line fill="none" stroke="#000000" stroke-width="1.9629" stroke-linecap="round" stroke-miterlimit="10" x1="619.525" y1="81.223" x2="591" y2="95.302"/>
		<path fill="none" stroke="#000000" stroke-width="2" stroke-miterlimit="10" d="M220.673,359.638c0,0-1.732,10.148,9.403,10.095
			c11.135-0.053,28.023,0,28.023,0"/>
		<path fill="none" stroke="#000000" stroke-width="0.9449" stroke-miterlimit="10" d="M826.95,366.642
			c0,0-18.191,0.603-92.248-0.092s57.051-21.557,73.508-24.489s-54.772-4.114-54.772-4.114"/>
		<polygon opacity="0.15" fill="#A2D0FF" points="229.749,106.815 416.417,377.966 796.93,377.99 285.356,52.33 		"/>
	</g>
</g>
<g id="Layer_4" display="none">
	
		<image display="inline" overflow="visible" width="504" height="338" xlink:href="temporal logo mabraska.jpg"  transform="matrix(1.2218 0 0 1.2218 647.5975 -196.3459)">
	</image>
</g>
</svg>
