<?xml version="1.0" encoding="utf-8"?>
<!-- Generator: Adobe Illustrator 17.0.0, SVG Export Plug-In . SVG Version: 6.00 Build 0)  -->
<!DOCTYPE svg PUBLIC "-//W3C//DTD SVG 1.1//EN" "http://www.w3.org/Graphics/SVG/1.1/DTD/svg11.dtd">
<svg version="1.1" xmlns="http://www.w3.org/2000/svg" xmlns:xlink="http://www.w3.org/1999/xlink" x="0px" y="0px" width="416.5px"
	 height="126.308px" viewBox="0 0 416.5 126.308" enable-background="new 0 0 416.5 126.308" xml:space="preserve">
<g id="Layer_1">
	<path fill="none" stroke="#AFFF00" stroke-miterlimit="10" d="M638.347-187.638c0,0,2.667,4.167-24.333,6.5
		s-43.667-1.667-43.667-1.667c-32-8.167,23.333-11.167,23.333-11.167c42-2,45.667,6.333,45.667,6.333
		c2.333,37.333-21.333,72.917-21.333,72.917c-33,6.5-40.49-0.633-40.662-0.885c-5.928-8.651-26.338-24.865-26.338-24.865
		s-21.5-16.5-16.25-32.25s21.75-9.25,21.75-9.25l0.75,6.625c0,0,6.25,32.519,7.75,35.875c0,0,5.255,16.532,12.338,23.865"/>
	<path fill="none" stroke="#AFFF00" stroke-miterlimit="10" d="M-2100.378-126.393c0,0-1.042-3.06,0.618-5.802
		c0.996-1.646,6.281-2.417,10.031-3.105"/>
	<path fill="none" stroke="#000000" stroke-width="1.5" stroke-miterlimit="10" d="M814.053-75.25c0,4.154-3.367,7.521-7.521,7.521
		h-48.437c-4.154,0-7.521-3.367-7.521-7.521v-111.314c0-4.154,3.367-7.521,7.521-7.521h48.437c4.154,0,7.521,3.367,7.521,7.521
		V-75.25z"/>
	
		<rect x="752.529" y="-183.556" fill="none" stroke="#000000" stroke-width="0.5" stroke-miterlimit="10" width="60.17" height="104.394"/>
	<path fill="none" stroke="#000000" stroke-width="0.4912" stroke-miterlimit="10" d="M793.116-73.508
		c0,1.764-1.482,3.193-3.309,3.193h-14.441c-1.828,0-3.309-1.43-3.309-3.193l0,0c0-1.764,1.482-3.193,3.309-3.193h14.441
		C791.634-76.702,793.116-75.272,793.116-73.508L793.116-73.508z"/>
	<path fill="none" stroke="#000000" stroke-width="0.5" stroke-miterlimit="10" d="M790.837-188.219
		c0,0.582-0.471,1.053-1.053,1.053h-14.541c-0.582,0-1.053-0.471-1.053-1.053l0,0c0-0.582,0.471-1.053,1.053-1.053h14.541
		C790.366-189.272,790.837-188.8,790.837-188.219L790.837-188.219z"/>
</g>
<g id="Layer_2">
</g>
<g id="Layer_3">
	<polygon display="none" opacity="0.15" fill="#A2D0FF" points="75.501,35.242 138.174,126.28 265.93,126.288 94.171,16.949 	"/>
	<polygon display="none" opacity="0.15" fill="#A2D0FF" points="71.09,-98.941 132.912,-9.139 258.934,-9.131 89.506,-116.986 	"/>
	<rect x="439" y="-39.01" fill="none" width="72" height="12.734"/>
	<text transform="matrix(1 0 0 1 439 -30.4897)" font-family="'MyriadPro-Regular'" font-size="12">1y 0.5 grosor</text>
	<rect x="448" y="68.871" fill="none" width="72" height="12.734"/>
	<text transform="matrix(1 0 0 1 448 77.3913)" font-family="'MyriadPro-Regular'" font-size="12">2,  1, 1.5 + etc </text>
	<rect x="432" y="244.948" fill="none" width="62.5" height="12.734"/>
	<text transform="matrix(1 0 0 1 432 253.4682)" font-family="'MyriadPro-Regular'" font-size="12">como en pc</text>
	<path fill="none" stroke="#000000" stroke-width="0.5278" stroke-miterlimit="10" d="M735.576-133.554
		c0,1.462-1.185,2.647-2.647,2.647h-17.044c-1.462,0-2.647-1.185-2.647-2.647v-39.169c0-1.462,1.185-2.647,2.647-2.647h17.044
		c1.462,0,2.647,1.185,2.647,2.647V-133.554z"/>
	
		<rect x="713.927" y="-171.664" fill="none" stroke="#000000" stroke-width="0.1759" stroke-miterlimit="10" width="21.172" height="36.734"/>
	<path fill="none" stroke="#000000" stroke-width="0.1728" stroke-miterlimit="10" d="M728.209-132.941
		c0,0.621-0.521,1.124-1.164,1.124h-5.081c-0.643,0-1.164-0.503-1.164-1.124l0,0c0-0.621,0.521-1.124,1.164-1.124h5.081
		C727.688-134.065,728.209-133.561,728.209-132.941L728.209-132.941z"/>
	<path fill="none" stroke="#000000" stroke-width="0.1759" stroke-miterlimit="10" d="M727.407-173.305
		c0,0.205-0.166,0.371-0.371,0.371h-5.117c-0.205,0-0.37-0.166-0.37-0.371l0,0c0-0.205,0.166-0.371,0.37-0.371h5.117
		C727.241-173.675,727.407-173.509,727.407-173.305L727.407-173.305z"/>
	<path fill="none" stroke="#000000" stroke-width="0.2729" stroke-miterlimit="10" d="M97.628,290.76"/>
	<polygon fill="none" stroke="#000000" stroke-width="0.6601" stroke-miterlimit="10" points="202.396,264.72 72.589,264.72 
		94.218,251.339 182.12,251.342 	"/>
	<polygon fill="none" stroke="#000000" stroke-width="0.3185" stroke-miterlimit="10" points="149.627,264.72 121.188,264.72 
		122.119,261.071 147.868,260.958 	"/>
	<polygon fill="none" stroke="#000000" stroke-width="0.3301" stroke-miterlimit="10" points="195.707,260.958 78.441,260.958 
		94.218,251.339 182.12,251.342 	"/>
	
		<line fill="none" stroke="#000000" stroke-width="0.3301" stroke-miterlimit="10" x1="192.99" y1="259.704" x2="81.248" y2="259.711"/>
	
		<line fill="none" stroke="#000000" stroke-width="0.3301" stroke-miterlimit="10" x1="184.351" y1="252.921" x2="92.128" y2="252.942"/>
	
		<line fill="none" stroke="#000000" stroke-width="0.3301" stroke-miterlimit="10" x1="185.778" y1="259.704" x2="179.124" y2="253.122"/>
	
		<line fill="none" stroke="#000000" stroke-width="0.3301" stroke-miterlimit="10" x1="178.671" y1="259.704" x2="172.714" y2="253.323"/>
	
		<line fill="none" stroke="#000000" stroke-width="0.3301" stroke-miterlimit="10" x1="171.251" y1="259.704" x2="166.652" y2="253.323"/>
	
		<line fill="none" stroke="#000000" stroke-width="0.3301" stroke-miterlimit="10" x1="164.875" y1="259.704" x2="160.904" y2="252.921"/>
	
		<line fill="none" stroke="#000000" stroke-width="0.3301" stroke-miterlimit="10" x1="157.559" y1="259.704" x2="154.737" y2="253.323"/>
	
		<line fill="none" stroke="#000000" stroke-width="0.3301" stroke-miterlimit="10" x1="118.471" y1="253.323" x2="115.283" y2="259.704"/>
	
		<line fill="none" stroke="#000000" stroke-width="0.3301" stroke-miterlimit="10" x1="112.722" y1="253.323" x2="108.645" y2="259.574"/>
	
		<line fill="none" stroke="#000000" stroke-width="0.3301" stroke-miterlimit="10" x1="106.242" y1="253.323" x2="100.703" y2="259.574"/>
	
		<line fill="none" stroke="#000000" stroke-width="0.3301" stroke-miterlimit="10" x1="99.762" y1="253.323" x2="93.91" y2="259.574"/>
	
		<line fill="none" stroke="#000000" stroke-width="0.3301" stroke-miterlimit="10" x1="190.377" y1="257.822" x2="84.018" y2="257.822"/>
	
		<line fill="none" stroke="#000000" stroke-width="0.3301" stroke-miterlimit="10" x1="188.705" y1="255.314" x2="87.78" y2="255.314"/>
	
		<line fill="none" stroke="#000000" stroke-width="0.3301" stroke-miterlimit="10" x1="136.691" y1="253.323" x2="136.691" y2="257.822"/>
	
		<line fill="none" stroke="#000000" stroke-width="0.3301" stroke-miterlimit="10" x1="130.35" y1="253.323" x2="129.288" y2="257.822"/>
	
		<line fill="none" stroke="#000000" stroke-width="0.3301" stroke-miterlimit="10" x1="124.567" y1="253.181" x2="122.965" y2="257.822"/>
	
		<line fill="none" stroke="#000000" stroke-width="0.3301" stroke-miterlimit="10" x1="142.683" y1="253.181" x2="143.485" y2="257.822"/>
	
		<line fill="none" stroke="#000000" stroke-width="0.3301" stroke-miterlimit="10" x1="149.163" y1="253.181" x2="150.557" y2="257.822"/>
	<path fill="none" stroke="#000000" stroke-width="0.6601" stroke-miterlimit="10" d="M202.821,264.923c0,0,0.588,3.35-2.89,3.333
		c-3.478-0.017-8.753,0-8.753,0"/>
	
		<line fill="none" stroke="#000000" stroke-width="0.6601" stroke-miterlimit="10" x1="83.964" y1="268.256" x2="191.178" y2="268.256"/>
	<path fill="none" stroke="#000000" stroke-width="0.3611" stroke-miterlimit="10" d="M314.952,255.364c0,0,0.835,0.769,2.352,0.967
		l54.578-0.059c0,0,1.114-0.029,1.641-0.909c0,0,0.498-1.26,0.498-1.876c0,0,0.234-0.645-0.938-1.407l-3.869-2.257
		c0,0-0.249-0.183-0.909-0.227c-0.66-0.044-46.737-0.158-46.737-0.158s-0.484,0-1.44,0.484s-5.177,2.363-5.177,2.363
		s-0.528,0.66-0.484,1.055C314.468,253.342,314.688,254.848,314.952,255.364z"/>
	<path fill="none" stroke="#000000" stroke-width="0.3611" stroke-miterlimit="10" d="M314.952,255.364c0,0,0.681,0.286,1.935,0.286
		s54.204,0.066,54.204,0.066s1.31,0.029,2.311-0.176l0.62-2.052c0,0-0.088,0.381-2.616,0.359
		c-2.528-0.022-54.981-0.022-54.981-0.022s-1.456-0.015-1.959-0.337"/>
	<g>
		<polygon fill="none" stroke="#000000" stroke-width="0.1903" stroke-miterlimit="10" points="365.411,255.474 364.756,255.474 
			364.756,254.854 365.234,254.483 367.059,254.483 367.538,254.854 367.538,255.474 366.882,255.474 		"/>
	</g>
	<path fill="none" stroke="#000000" stroke-width="0.1806" stroke-miterlimit="10" d="M331.696,254.793
		c0,0.299-0.191,0.542-0.426,0.542h-4.63c-0.235,0-0.426-0.243-0.426-0.542l0,0c0-0.299,0.191-0.542,0.426-0.542h4.63
		C331.505,254.251,331.696,254.493,331.696,254.793L331.696,254.793z"/>
	<path fill="none" stroke="#000000" stroke-width="0.1806" stroke-miterlimit="10" d="M338.525,254.793
		c0,0.299-0.191,0.542-0.426,0.542h-4.63c-0.235,0-0.426-0.243-0.426-0.542l0,0c0-0.299,0.191-0.542,0.426-0.542h4.63
		C338.335,254.251,338.525,254.493,338.525,254.793L338.525,254.793z"/>
	
		<line fill="none" stroke="#000000" stroke-width="0.1903" stroke-miterlimit="10" x1="365.059" y1="255.081" x2="366.982" y2="255.081"/>
	<path fill="none" stroke="#000000" stroke-width="0.6113" stroke-miterlimit="10" d="M377.187,242.895c0,0-0.815,1.274,7.438,1.987
		c8.253,0.713,13.348-0.509,13.348-0.509c9.781-2.496-7.132-3.413-7.132-3.413c-12.838-0.611-13.959,1.936-13.959,1.936
		c-0.713,11.412,6.521,22.289,6.521,22.289c10.087,1.987,12.377-0.194,12.429-0.27c1.812-2.644,8.051-7.601,8.051-7.601
		s6.572-5.044,4.967-9.858s-6.648-2.827-6.648-2.827l-0.229,2.025c0,0-1.911,9.94-2.369,10.966c0,0-1.606,5.053-3.771,7.295"/>
	<path fill="none" stroke="#000000" stroke-width="0.6113" stroke-miterlimit="10" d="M402.201,244.627c0,0,0.318-0.935-0.189-1.774
		c-0.304-0.503-1.92-0.739-3.066-0.949"/>
	
		<ellipse transform="matrix(-0.2299 0.9732 -0.9732 -0.2299 544.1169 67.2174)" fill="none" stroke="#000000" stroke-width="0.3301" stroke-miterlimit="10" cx="245.465" cy="248.883" rx="7.036" ry="4.336"/>
	<path fill="none" stroke="#000000" stroke-width="0.6601" stroke-miterlimit="10" d="M231.778,249.575
		c5.177-13.179,13.526-9.839,13.526-9.839c-3.055-2.743-8.893-1.43-8.893-1.43s-1.665-2.369-5.857-3.269
		c-4.192-0.9-7.586,2.397-7.586,2.397c-1.032,0.871-1.956,1.978-4.025,2.514s-6.123,1.259-6.123,1.259
		c-5.855,0.842-10.253,2.991-10.253,2.991c-2.49,1.339-3.538,2.969-2.863,4.784c0.675,1.815,4.993,2.07,4.993,2.07
		c3.259,0.441,8.934,0.429,8.934,0.429c5.779,0.267,13.487-0.978,17.939-1.863c4.452-0.886,7.055-4.245,7.055-4.245
		c2.96-4.319,5.503-6.008,8.732-4.866c3.612,1.276,4.944,6.829,2.975,12.402c-1.969,5.573-6.494,9.056-10.106,7.779
		c0,0-3.479-1.302-5.354-1.002c-1.869,0.299-15.193,2.815-19.894,2.486c0,0-13.318,0.728-16.191-7.759c0,0-2.631-7.035,2.92-9.701"
		/>
	
		<ellipse transform="matrix(-0.2299 0.9732 -0.9732 -0.2299 544.1172 67.2179)" fill="none" stroke="#000000" stroke-width="0.3301" stroke-miterlimit="10" cx="245.465" cy="248.883" rx="7.981" ry="4.918"/>
	<path fill="none" stroke="#000000" stroke-width="0.6601" stroke-miterlimit="10" d="M227.634,250.414
		c0,0,1.432-10.154,9.079-12.075"/>
	<path fill="none" stroke="#000000" stroke-width="0.3301" stroke-miterlimit="10" d="M232.363,240.746
		c-0.867-0.888-2.019-1.509-3.352-1.653c-3.037-0.328-5.765,1.857-6.092,4.882s1.964,5.715,4.745,6.249"/>
	<path fill="none" stroke="#000000" stroke-width="0.3301" stroke-miterlimit="10" d="M232.178,240.566
		c-1.06-0.548-1.38-0.75-2.712-0.894c-3.037-0.328-5.765,1.857-6.092,4.882c-0.327,3.024,1.293,4.368,4.015,5.641"/>
	<path fill="none" stroke="#000000" stroke-width="0.6601" stroke-miterlimit="10" d="M235.479,238.739
		c0,0-5.344-5.266-12.511-1.304"/>
	<path fill="none" stroke="#000000" stroke-width="0.6601" stroke-miterlimit="10" d="M230.092,249.991
		c0,0,3.089-11.515,11.668-11.839"/>
	<path fill="none" stroke="#000000" stroke-width="0.6601" stroke-miterlimit="10" d="M221.37,238.797c0,0-4.99,6.6,1.304,12.236"/>
	
		<rect x="95.512" y="196.992" fill="none" stroke="#000000" stroke-width="0.3301" stroke-miterlimit="10" width="83.612" height="50.585"/>
	
		<ellipse fill="none" stroke="#000000" stroke-width="0.165" stroke-miterlimit="10" cx="134.531" cy="266.761" rx="0.836" ry="0.923"/>
	
		<ellipse fill="none" stroke="#000000" stroke-width="0.165" stroke-miterlimit="10" cx="137.039" cy="266.761" rx="0.836" ry="0.923"/>
	
		<ellipse fill="none" stroke="#000000" stroke-width="0.165" stroke-miterlimit="10" cx="139.548" cy="266.761" rx="0.836" ry="0.923"/>
	<path fill="none" stroke="#000000" stroke-width="0.6601" stroke-miterlimit="10" d="M183.305,249.249
		c0,1.154-1.375,2.09-3.072,2.09H94.218c-1.697,0-3.072-0.936-3.072-2.09v-55.39c0-1.154,1.375-2.09,3.072-2.09h86.015
		c1.697,0,3.072,0.936,3.072,2.09V249.249z"/>
	
		<rect x="23.756" y="193.627" transform="matrix(0.7726 -0.6349 0.6349 0.7726 -134.8805 66.2851)" fill="none" stroke="#000000" stroke-width="0.6162" stroke-miterlimit="10" width="2.658" height="55.583"/>
	
		<rect x="43.38" y="249.433" transform="matrix(0.9999 0.0129 -0.0129 0.9999 3.2829 -0.556)" fill="none" stroke="#000000" stroke-width="0.6162" stroke-miterlimit="10" width="2.658" height="9.171"/>
	
		<rect x="31.469" y="154.9" transform="matrix(-0.4624 -0.8867 0.8867 -0.4624 -114.0203 296.2522)" fill="none" stroke="#000000" stroke-width="0.6162" stroke-miterlimit="10" width="2.658" height="55.583"/>
	
		<rect x="63.306" y="162.748" transform="matrix(-0.6669 -0.7452 0.7452 -0.6669 -14.9642 322.6521)" fill="none" stroke="#000000" stroke-width="0.6162" stroke-miterlimit="10" width="2.658" height="3.846"/>
	
		<ellipse fill="none" stroke="#000000" stroke-width="0.6162" stroke-miterlimit="10" cx="44.746" cy="245.774" rx="1.735" ry="1.775"/>
	
		<ellipse fill="none" stroke="#000000" stroke-width="0.6162" stroke-miterlimit="10" cx="44.746" cy="245.774" rx="3.561" ry="3.642"/>
	
		<ellipse fill="none" stroke="#000000" stroke-width="0.6162" stroke-miterlimit="10" cx="5.051" cy="197.2" rx="1.735" ry="1.775"/>
	
		<ellipse fill="none" stroke="#000000" stroke-width="0.6162" stroke-miterlimit="10" cx="5.051" cy="197.2" rx="3.561" ry="3.642"/>
	
		<ellipse fill="none" stroke="#000000" stroke-width="0.6162" stroke-miterlimit="10" cx="60.434" cy="168.09" rx="1.735" ry="1.775"/>
	
		<ellipse fill="none" stroke="#000000" stroke-width="0.6162" stroke-miterlimit="10" cx="60.434" cy="168.09" rx="3.561" ry="3.642"/>
	<path fill="none" stroke="#000000" stroke-width="0.6162" stroke-miterlimit="10" d="M73.054,183.459l21.86-21.418
		c0,0-8.719-3.874-16.048-3.485l-9.35-8.469c0,0-1.887-1.193-3.174-0.119c-1.287,1.074-5.131,5.126-5.131,5.126
		s-1.426,1.747,1.13,4.17c2.556,2.423,5.329,5.298,5.329,5.298l2.617,2.592C70.287,167.154,68.626,177.442,73.054,183.459z"/>
	<path fill="none" stroke="#000000" stroke-width="0.6162" stroke-miterlimit="10" d="M31.54,258.605
		c-2.118,0-1.869,2.035-1.869,2.035v2.367h30.111v-2.367c0,0,0.249-2.035-1.869-2.035H31.338"/>
	
		<rect x="274.132" y="225.084" fill="none" stroke="#000000" stroke-width="0.3201" stroke-miterlimit="10" width="31.799" height="39.127"/>
	<path fill="none" stroke="#000000" stroke-width="0.6402" stroke-miterlimit="10" d="M307.982,267.298
		c0,0.781-0.728,1.415-1.627,1.415h-32.535c-0.898,0-1.627-0.633-1.627-1.415v-45.087c0-0.781,0.728-1.415,1.627-1.415h32.535
		c0.898,0,1.627,0.633,1.627,1.415V267.298z"/>
	
		<ellipse fill="none" stroke="#000000" stroke-width="0.3201" stroke-miterlimit="10" cx="289.893" cy="266.281" rx="1.026" ry="1.018"/>
	<path fill="none" stroke="#000000" stroke-width="0.548" stroke-miterlimit="10" d="M391.582,212.047c0,0-3.411,2.648-1.235,6.787
		s5.095,9.763,2.653,11.864"/>
	<path fill="none" stroke="#000000" stroke-width="0.548" stroke-miterlimit="10" d="M388.816,225.49c0,0,2.265,1.192,1.424,3.833
		c-0.841,2.641-1.962,6.226-0.32,7.199"/>
	
		<line fill="none" stroke="#000000" stroke-width="0.6479" stroke-linecap="round" stroke-miterlimit="10" x1="194.315" y1="171.038" x2="194.315" y2="177.676"/>
	<g>
		
			<line fill="none" stroke="#000000" stroke-width="0.6479" stroke-linejoin="round" x1="195.707" y1="187.533" x2="195.707" y2="189.052"/>
		
			<line fill="none" stroke="#000000" stroke-width="0.6479" stroke-linejoin="round" x1="195.707" y1="164.038" x2="195.707" y2="165.557"/>
		
			<line fill="none" stroke="#000000" stroke-width="0.6479" stroke-linejoin="round" x1="183.2" y1="176.545" x2="184.719" y2="176.545"/>
		
			<line fill="none" stroke="#000000" stroke-width="0.6479" stroke-linejoin="round" x1="206.695" y1="176.545" x2="208.214" y2="176.545"/>
		
			<line fill="none" stroke="#000000" stroke-width="0.6479" stroke-linejoin="round" x1="189.5" y1="165.688" x2="190.271" y2="166.997"/>
		
			<line fill="none" stroke="#000000" stroke-width="0.6479" stroke-linejoin="round" x1="201.418" y1="185.934" x2="202.189" y2="187.243"/>
		
			<line fill="none" stroke="#000000" stroke-width="0.6479" stroke-linejoin="round" x1="186.148" y1="181.961" x2="184.83" y2="182.716"/>
		
			<line fill="none" stroke="#000000" stroke-width="0.6479" stroke-linejoin="round" x1="205.214" y1="171.038" x2="206.532" y2="170.283"/>
		
			<line fill="none" stroke="#000000" stroke-width="0.6479" stroke-linejoin="round" x1="186.216" y1="171.011" x2="184.901" y2="170.251"/>
		
			<line fill="none" stroke="#000000" stroke-width="0.6479" stroke-linejoin="round" x1="205.244" y1="182" x2="206.559" y2="182.76"/>
		
			<line fill="none" stroke="#000000" stroke-width="0.6479" stroke-linejoin="round" x1="190.219" y1="186.063" x2="189.461" y2="187.379"/>
		
			<line fill="none" stroke="#000000" stroke-width="0.6479" stroke-linejoin="round" x1="201.188" y1="167.023" x2="201.946" y2="165.707"/>
	</g>
	<g>
		<path fill="none" stroke="#000000" stroke-width="0.6479" stroke-linecap="round" stroke-linejoin="round" d="M188.772,164.414
			c-2.128,1.219-3.904,2.981-5.14,5.098"/>
		<path fill="none" stroke="#000000" stroke-width="0.6479" stroke-linecap="round" stroke-linejoin="round" d="M188.728,188.65
			c-2.154-1.245-3.945-3.047-5.175-5.21"/>
		<path fill="none" stroke="#000000" stroke-width="0.6479" stroke-linecap="round" stroke-linejoin="round" d="M188.772,164.414
			c2.044-1.171,4.41-1.844,6.935-1.844"/>
		<path fill="none" stroke="#000000" stroke-width="0.6479" stroke-linecap="round" stroke-linejoin="round" d="M183.633,169.513
			c-1.206,2.066-1.9,4.468-1.9,7.033"/>
		<path fill="none" stroke="#000000" stroke-width="0.6479" stroke-linecap="round" stroke-linejoin="round" d="M207.832,183.489
			c-1.179,2.054-2.861,3.782-4.882,5.009"/>
		<path fill="none" stroke="#000000" stroke-width="0.6479" stroke-linecap="round" stroke-linejoin="round" d="M188.728,188.65
			c2.054,1.187,4.436,1.869,6.979,1.869"/>
		<path fill="none" stroke="#000000" stroke-width="0.6479" stroke-linecap="round" stroke-linejoin="round" d="M183.554,183.44
			c-1.157-2.035-1.821-4.387-1.821-6.895"/>
		<path fill="none" stroke="#000000" stroke-width="0.6479" stroke-linecap="round" stroke-linejoin="round" d="M207.802,169.549
			c-1.23-2.121-3-3.888-5.125-5.114"/>
		<path fill="none" stroke="#000000" stroke-width="0.6479" stroke-linecap="round" stroke-linejoin="round" d="M207.802,169.549
			c1.193,2.058,1.88,4.446,1.88,6.997"/>
		<path fill="none" stroke="#000000" stroke-width="0.6479" stroke-linecap="round" stroke-linejoin="round" d="M209.682,176.545
			c0,2.529-0.675,4.898-1.849,6.944"/>
		<path fill="none" stroke="#000000" stroke-width="0.6479" stroke-linecap="round" stroke-linejoin="round" d="M202.95,188.499
			c-2.112,1.283-4.591,2.021-7.243,2.021"/>
		<path fill="none" stroke="#000000" stroke-width="0.6479" stroke-linecap="round" stroke-linejoin="round" d="M195.707,162.57
			c2.539,0,4.918,0.681,6.971,1.865"/>
	</g>
	
		<line fill="none" stroke="#000000" stroke-width="0.6479" stroke-linecap="round" stroke-miterlimit="10" x1="203.73" y1="173.029" x2="194.315" y2="177.676"/>
	<path fill="none" stroke="#000000" stroke-width="0.6601" stroke-miterlimit="10" d="M72.082,264.924c0,0-0.572,3.35,3.104,3.332
		s9.25,0,9.25,0"/>
	<path fill="none" stroke="#000000" stroke-width="0.3119" stroke-miterlimit="10" d="M272.194,267.236c0,0-6.004,0.199-30.448-0.03
		c-24.444-0.229,18.831-7.115,24.262-8.083c5.432-0.968-18.078-1.358-18.078-1.358"/>
	<g>
		<path fill="none" stroke="#000000" stroke-width="0.2832" stroke-miterlimit="10" d="M96.21,148.074"/>
		<g>
			<polygon fill="none" stroke="#D3D3D3" stroke-miterlimit="10" points="205.589,120.391 75.34,120.391 97.043,106.965 
				185.244,106.968 			"/>
			<polygon fill="none" stroke="#D3D3D3" stroke-miterlimit="10" points="152.64,120.391 124.105,120.391 125.039,116.729 
				150.875,116.616 			"/>
			<polygon fill="none" stroke="#D3D3D3" stroke-miterlimit="10" points="198.878,116.616 81.213,116.616 97.043,106.965 
				185.244,106.968 			"/>
			<line fill="none" stroke="#D3D3D3" stroke-miterlimit="10" x1="196.151" y1="115.357" x2="84.029" y2="115.364"/>
			<line fill="none" stroke="#D3D3D3" stroke-miterlimit="10" x1="187.482" y1="108.551" x2="94.946" y2="108.572"/>
			<line fill="none" stroke="#D3D3D3" stroke-miterlimit="10" x1="188.915" y1="115.357" x2="182.238" y2="108.753"/>
			<line fill="none" stroke="#D3D3D3" stroke-miterlimit="10" x1="181.784" y1="115.357" x2="175.806" y2="108.954"/>
			<line fill="none" stroke="#D3D3D3" stroke-miterlimit="10" x1="174.338" y1="115.357" x2="169.724" y2="108.954"/>
			<line fill="none" stroke="#D3D3D3" stroke-miterlimit="10" x1="167.941" y1="115.357" x2="163.956" y2="108.551"/>
			<line fill="none" stroke="#D3D3D3" stroke-miterlimit="10" x1="160.6" y1="115.357" x2="157.768" y2="108.954"/>
			<line fill="none" stroke="#D3D3D3" stroke-miterlimit="10" x1="121.378" y1="108.954" x2="118.18" y2="115.357"/>
			<line fill="none" stroke="#D3D3D3" stroke-miterlimit="10" x1="115.61" y1="108.954" x2="111.519" y2="115.228"/>
			<line fill="none" stroke="#D3D3D3" stroke-miterlimit="10" x1="109.108" y1="108.954" x2="103.55" y2="115.228"/>
			<line fill="none" stroke="#D3D3D3" stroke-miterlimit="10" x1="102.606" y1="108.954" x2="96.734" y2="115.228"/>
			<line fill="none" stroke="#D3D3D3" stroke-miterlimit="10" x1="193.529" y1="113.47" x2="86.808" y2="113.47"/>
			<line fill="none" stroke="#D3D3D3" stroke-miterlimit="10" x1="191.851" y1="110.953" x2="90.583" y2="110.953"/>
			<line fill="none" stroke="#D3D3D3" stroke-miterlimit="10" x1="139.661" y1="108.954" x2="139.661" y2="113.47"/>
			<line fill="none" stroke="#D3D3D3" stroke-miterlimit="10" x1="133.298" y1="108.954" x2="132.232" y2="113.47"/>
			<line fill="none" stroke="#D3D3D3" stroke-miterlimit="10" x1="127.495" y1="108.813" x2="125.888" y2="113.47"/>
			<line fill="none" stroke="#D3D3D3" stroke-miterlimit="10" x1="145.673" y1="108.813" x2="146.477" y2="113.47"/>
			<line fill="none" stroke="#D3D3D3" stroke-miterlimit="10" x1="152.175" y1="108.813" x2="153.573" y2="113.47"/>
			<path fill="none" stroke="#D3D3D3" stroke-miterlimit="10" d="M206.735,120.906c0,0,0.626,3.049-3.079,3.033
				c-3.705-0.016-9.323,0-9.323,0"/>
			<line fill="none" stroke="#D3D3D3" stroke-miterlimit="10" x1="86.754" y1="123.939" x2="194.333" y2="123.939"/>
			<path fill="none" stroke="#D3D3D3" stroke-miterlimit="10" d="M318.528,112.175c0,0,0.838,0.924,2.36,1.162l54.764-0.07
				c0,0,1.118-0.035,1.647-1.091c0,0,0.5-1.514,0.5-2.253c0,0,0.235-0.775-0.941-1.69l-3.882-2.711c0,0-0.25-0.22-0.912-0.273
				c-0.662-0.053-46.896-0.189-46.896-0.189s-0.485,0-1.445,0.581s-5.195,2.839-5.195,2.839s-0.529,0.792-0.485,1.267
				C318.043,109.745,318.263,111.554,318.528,112.175z"/>
			<path fill="none" stroke="#D3D3D3" stroke-miterlimit="10" d="M318.528,111.408c0,0,0.684,0.349,1.941,0.349
				c1.257,0,54.389,0.08,54.389,0.08s1.315,0.036,2.319-0.214l0.622-2.502c0,0-0.088,0.465-2.625,0.438
				c-2.537-0.027-55.168-0.027-55.168-0.027s-1.461-0.018-1.966-0.411"/>
			<g>
				<polygon fill="none" stroke="#D3D3D3" stroke-width="0.1755" stroke-miterlimit="10" points="369.159,111.114 368.502,111.114 
					368.502,110.588 368.982,110.273 370.813,110.273 371.293,110.588 371.293,111.114 370.635,111.114 				"/>
			</g>
			<path fill="none" stroke="#D3D3D3" stroke-width="0.154" stroke-miterlimit="10" d="M335.442,110.64
				c0,0.217-0.191,0.393-0.427,0.393h-4.646c-0.236,0-0.427-0.176-0.427-0.393l0,0c0-0.217,0.191-0.393,0.427-0.393h4.646
				C335.251,110.248,335.442,110.423,335.442,110.64L335.442,110.64z"/>
			<path fill="none" stroke="#D3D3D3" stroke-width="0.1462" stroke-miterlimit="10" d="M342.295,110.679
				c0,0.196-0.191,0.354-0.427,0.354h-4.646c-0.236,0-0.427-0.159-0.427-0.354l0,0c0-0.196,0.191-0.354,0.427-0.354h4.646
				C342.104,110.325,342.295,110.484,342.295,110.679L342.295,110.679z"/>
			
				<line fill="none" stroke="#D3D3D3" stroke-width="0.1909" stroke-miterlimit="10" x1="368.806" y1="110.719" x2="370.735" y2="110.719"/>
			<path fill="none" stroke="#D3D3D3" stroke-miterlimit="10" d="M380.975,98.491c0,0-0.818,1.278,7.463,1.994
				s13.393-0.511,13.393-0.511c9.815-2.505-7.157-3.425-7.157-3.425c-12.882-0.613-14.007,1.943-14.007,1.943
				c-0.716,11.451,6.543,22.364,6.543,22.364c10.121,1.994,12.419-0.194,12.471-0.271c1.818-2.653,8.078-7.627,8.078-7.627
				s6.594-5.061,4.984-9.891s-6.671-2.837-6.671-2.837l-0.23,2.032c0,0-1.917,9.974-2.377,11.003c0,0-1.612,5.071-3.784,7.32"/>
			<path fill="none" stroke="#D3D3D3" stroke-miterlimit="10" d="M406.075,100.229c0,0,0.319-0.939-0.19-1.78
				c-0.306-0.505-1.927-0.741-3.077-0.952"/>
			
				<ellipse transform="matrix(-0.2299 0.9732 -0.9732 -0.2299 407.7095 -113.6127)" fill="none" stroke="#D3D3D3" stroke-miterlimit="10" cx="248.804" cy="104.5" rx="6.445" ry="3.971"/>
			<path fill="none" stroke="#D3D3D3" stroke-miterlimit="10" d="M235.071,105.194c5.195-13.224,13.572-9.872,13.572-9.872
				c-3.065-2.752-8.923-1.435-8.923-1.435s-1.671-2.377-5.877-3.28c-4.206-0.903-7.612,2.405-7.612,2.405
				c-1.036,0.874-1.963,1.985-4.038,2.522s-6.144,1.264-6.144,1.264c-5.874,0.845-10.288,3.001-10.288,3.001
				c-2.499,1.344-3.55,2.979-2.872,4.8c0.677,1.822,5.01,2.077,5.01,2.077c3.27,0.443,8.964,0.431,8.964,0.431
				c5.799,0.268,13.533-0.981,18-1.869c4.467-0.889,7.079-4.26,7.079-4.26c2.97-4.334,5.521-6.028,8.762-4.883
				c3.625,1.281,4.961,6.852,2.985,12.444c-1.976,5.592-6.516,9.087-10.14,7.806c0,0-3.491-1.306-5.373-1.006
				c-1.876,0.3-15.245,2.824-19.962,2.494c0,0-13.363,0.73-16.246-7.785c0,0-2.64-7.059,2.93-9.734"/>
			
				<ellipse transform="matrix(-0.2299 0.9732 -0.9732 -0.2299 407.7098 -113.6125)" fill="none" stroke="#D3D3D3" stroke-miterlimit="10" cx="248.804" cy="104.5" rx="8.008" ry="4.935"/>
			<path fill="none" stroke="#D3D3D3" stroke-miterlimit="10" d="M230.913,106.036c0,0,1.437-10.188,9.11-12.116"/>
			<path fill="none" stroke="#D3D3D3" stroke-miterlimit="10" d="M235.658,96.335c-0.87-0.891-2.026-1.514-3.363-1.658
				c-3.048-0.329-5.784,1.864-6.112,4.898c-0.328,3.035,1.97,5.734,4.761,6.27"/>
			<path fill="none" stroke="#D3D3D3" stroke-miterlimit="10" d="M234.921,96.661c-0.938-0.485-1.221-0.663-2.4-0.791
				c-2.687-0.29-5.101,1.643-5.39,4.319c-0.289,2.676,1.144,3.865,3.552,4.991"/>
			<path fill="none" stroke="#D3D3D3" stroke-miterlimit="10" d="M238.785,94.321c0,0-5.363-5.284-12.554-1.309"/>
			<path fill="none" stroke="#D3D3D3" stroke-miterlimit="10" d="M233.38,105.612c0,0,3.1-11.554,11.708-11.879"/>
			<path fill="none" stroke="#D3D3D3" stroke-miterlimit="10" d="M224.628,94.38c0,0-5.007,6.622,1.308,12.278"/>
			<rect x="98.342" y="52.432" fill="none" stroke="#D3D3D3" stroke-miterlimit="10" width="83.896" height="50.757"/>
			<ellipse fill="none" stroke="#D3D3D3" stroke-miterlimit="10" cx="137.314" cy="122.193" rx="0.839" ry="0.926"/>
			<ellipse fill="none" stroke="#D3D3D3" stroke-miterlimit="10" cx="139.831" cy="122.193" rx="0.839" ry="0.926"/>
			<ellipse fill="none" stroke="#D3D3D3" stroke-miterlimit="10" cx="142.348" cy="122.193" rx="0.839" ry="0.926"/>
			<path fill="none" stroke="#D3D3D3" stroke-miterlimit="10" d="M186.433,104.867c0,1.158-1.38,2.097-3.083,2.097H97.043
				c-1.702,0-3.083-0.939-3.083-2.097V49.289c0-1.158,1.38-2.097,3.083-2.097h86.307c1.702,0,3.083,0.939,3.083,2.097V104.867z"/>
			
				<rect x="26.311" y="49.066" transform="matrix(0.7726 -0.6349 0.6349 0.7726 -42.5421 35.0432)" fill="none" stroke="#D3D3D3" stroke-miterlimit="10" width="2.667" height="55.677"/>
			
				<rect x="46.037" y="105.304" transform="matrix(0.9999 0.0129 -0.0129 0.9999 1.4211 -0.6024)" fill="none" stroke="#D3D3D3" stroke-miterlimit="10" width="2.667" height="8.95"/>
			
				<rect x="34.081" y="10.196" transform="matrix(-0.4624 -0.8867 0.8867 -0.4624 18.024 87.0928)" fill="none" stroke="#D3D3D3" stroke-miterlimit="10" width="2.667" height="55.772"/>
			
				<rect x="66.061" y="18.087" transform="matrix(-0.6669 -0.7452 0.7452 -0.6669 97.4593 83.5065)" fill="none" stroke="#D3D3D3" stroke-miterlimit="10" width="2.667" height="3.766"/>
			<ellipse fill="none" stroke="#D3D3D3" stroke-miterlimit="10" cx="47.403" cy="101.38" rx="1.741" ry="1.781"/>
			<ellipse fill="none" stroke="#D3D3D3" stroke-miterlimit="10" cx="47.403" cy="101.38" rx="3.573" ry="3.655"/>
			<ellipse fill="none" stroke="#D3D3D3" stroke-miterlimit="10" cx="7.573" cy="52.641" rx="1.741" ry="1.781"/>
			<ellipse fill="none" stroke="#D3D3D3" stroke-miterlimit="10" cx="7.573" cy="52.641" rx="3.573" ry="3.655"/>
			<ellipse fill="none" stroke="#D3D3D3" stroke-miterlimit="10" cx="63.144" cy="23.431" rx="1.741" ry="1.781"/>
			<ellipse fill="none" stroke="#D3D3D3" stroke-miterlimit="10" cx="63.144" cy="23.431" rx="3.573" ry="3.655"/>
			<path fill="none" stroke="#D3D3D3" stroke-miterlimit="10" d="M75.807,38.853l21.934-21.491c0,0-8.749-3.887-16.102-3.496
				l-9.382-8.497c0,0-1.894-1.197-3.185-0.12s-5.148,5.144-5.148,5.144s-1.431,1.753,1.134,4.184
				c2.565,2.431,5.347,5.316,5.347,5.316l2.626,2.601C73.03,22.493,71.364,32.816,75.807,38.853z"/>
			<path fill="none" stroke="#D3D3D3" stroke-miterlimit="10" d="M34.152,114.255c-2.125,0-1.875,2.042-1.875,2.042v2.375h30.214
				v-2.375c0,0,0.25-2.042-1.875-2.042H33.949"/>
			<rect x="277.569" y="80.619" fill="none" stroke="#D3D3D3" stroke-miterlimit="10" width="31.908" height="39.26"/>
			<path fill="none" stroke="#D3D3D3" stroke-miterlimit="10" d="M311.535,122.977c0,0.784-0.731,1.42-1.632,1.42h-32.646
				c-0.901,0-1.632-0.636-1.632-1.42v-45.24c0-0.784,0.731-1.42,1.632-1.42h32.646c0.901,0,1.632,0.636,1.632,1.42V122.977z"/>
			<ellipse fill="none" stroke="#D3D3D3" stroke-miterlimit="10" cx="293.384" cy="121.957" rx="1.029" ry="1.022"/>
			<path fill="none" stroke="#D3D3D3" stroke-miterlimit="10" d="M395.42,67.538c0,0-3.423,2.657-1.239,6.81
				c2.183,4.153,5.112,9.796,2.662,11.904"/>
			<path fill="none" stroke="#D3D3D3" stroke-miterlimit="10" d="M392.644,81.027c0,0,2.273,1.196,1.428,3.846
				c-0.844,2.65-1.969,6.247-0.321,7.224"/>
			<line fill="none" stroke="#D3D3D3" stroke-miterlimit="10" x1="197.481" y1="26.39" x2="197.481" y2="33.05"/>
			<g>
				<line fill="none" stroke="#D3D3D3" stroke-miterlimit="10" x1="198.878" y1="42.941" x2="198.878" y2="44.465"/>
				<line fill="none" stroke="#D3D3D3" stroke-miterlimit="10" x1="198.878" y1="19.366" x2="198.878" y2="20.89"/>
				<line fill="none" stroke="#D3D3D3" stroke-miterlimit="10" x1="186.328" y1="31.916" x2="187.852" y2="31.916"/>
				<line fill="none" stroke="#D3D3D3" stroke-miterlimit="10" x1="209.903" y1="31.916" x2="211.427" y2="31.916"/>
				<line fill="none" stroke="#D3D3D3" stroke-miterlimit="10" x1="192.65" y1="21.022" x2="193.423" y2="22.335"/>
				<line fill="none" stroke="#D3D3D3" stroke-miterlimit="10" x1="204.608" y1="41.336" x2="205.382" y2="42.65"/>
				<line fill="none" stroke="#D3D3D3" stroke-miterlimit="10" x1="189.286" y1="37.35" x2="187.963" y2="38.108"/>
				<line fill="none" stroke="#D3D3D3" stroke-miterlimit="10" x1="208.417" y1="26.39" x2="209.739" y2="25.633"/>
				<line fill="none" stroke="#D3D3D3" stroke-miterlimit="10" x1="189.354" y1="26.362" x2="188.034" y2="25.6"/>
				<line fill="none" stroke="#D3D3D3" stroke-miterlimit="10" x1="208.447" y1="37.39" x2="209.766" y2="38.152"/>
				<line fill="none" stroke="#D3D3D3" stroke-miterlimit="10" x1="193.371" y1="41.466" x2="192.61" y2="42.786"/>
				<line fill="none" stroke="#D3D3D3" stroke-miterlimit="10" x1="204.377" y1="22.361" x2="205.137" y2="21.04"/>
			</g>
			<g>
				<path fill="none" stroke="#D3D3D3" stroke-miterlimit="10" d="M191.919,19.744c-2.135,1.223-3.917,2.991-5.157,5.115"/>
				<path fill="none" stroke="#D3D3D3" stroke-miterlimit="10" d="M191.875,44.062c-2.162-1.249-3.958-3.057-5.192-5.228"/>
				<path fill="none" stroke="#D3D3D3" stroke-miterlimit="10" d="M191.919,19.744c2.051-1.175,4.425-1.85,6.959-1.85"/>
				<path fill="none" stroke="#D3D3D3" stroke-miterlimit="10" d="M186.762,24.859c-1.21,2.073-1.907,4.483-1.907,7.056"/>
				<path fill="none" stroke="#D3D3D3" stroke-miterlimit="10" d="M211.044,38.883c-1.183,2.061-2.871,3.795-4.899,5.026"/>
				<path fill="none" stroke="#D3D3D3" stroke-miterlimit="10" d="M191.875,44.062c2.061,1.191,4.451,1.876,7.003,1.876"/>
				<path fill="none" stroke="#D3D3D3" stroke-miterlimit="10" d="M186.683,38.834c-1.161-2.042-1.827-4.402-1.827-6.919"/>
				<path fill="none" stroke="#D3D3D3" stroke-miterlimit="10" d="M211.014,24.895c-1.234-2.129-3.011-3.901-5.142-5.131"/>
				<path fill="none" stroke="#D3D3D3" stroke-miterlimit="10" d="M211.014,24.895c1.197,2.065,1.886,4.462,1.886,7.02"/>
				<path fill="none" stroke="#D3D3D3" stroke-miterlimit="10" d="M212.9,31.916c0,2.537-0.677,4.915-1.856,6.968"/>
				<path fill="none" stroke="#D3D3D3" stroke-miterlimit="10" d="M206.145,43.91c-2.119,1.287-4.607,2.028-7.268,2.028"/>
				<path fill="none" stroke="#D3D3D3" stroke-miterlimit="10" d="M198.878,17.893c2.548,0,4.935,0.683,6.994,1.871"/>
			</g>
			<line fill="none" stroke="#D3D3D3" stroke-miterlimit="10" x1="206.928" y1="28.387" x2="197.481" y2="33.05"/>
			<path fill="none" stroke="#D3D3D3" stroke-miterlimit="10" d="M74.111,120.924c0,0-0.607,3.031,3.295,3.015s9.821,0,9.821,0"/>
			<path fill="none" stroke="#D3D3D3" stroke-miterlimit="10" d="M275.625,122.915c0,0-6.025,0.2-30.551-0.03
				c-24.527-0.23,18.895-7.139,24.345-8.111s-18.14-1.363-18.14-1.363"/>
			<path fill="none" stroke="#000000" stroke-width="0.2773" stroke-miterlimit="10" d="M102.569,24.859"/>
		</g>
		<polygon opacity="0.15" fill="#A2D0FF" points="77.968,36.802 139.581,126.3 265.175,126.308 96.322,18.819 		"/>
	</g>
	<polygon opacity="0.15" fill="#A2D0FF" points="75.917,180.324 137.53,269.822 263.124,269.829 94.271,162.34 	"/>
</g>
<g id="Layer_4" display="none">
	
		<image display="inline" overflow="visible" width="504" height="338" xlink:href="../../composicion plataforma version pc/images for composition/temporal logo mabraska.jpg"  transform="matrix(1.2218 0 0 1.2218 229.6672 -196.3459)">
	</image>
</g>
</svg>
