<?xml version="1.0" encoding="utf-8"?>
<!-- Generator: Adobe Illustrator 17.0.0, SVG Export Plug-In . SVG Version: 6.00 Build 0)  -->
<!DOCTYPE svg PUBLIC "-//W3C//DTD SVG 1.1//EN" "http://www.w3.org/Graphics/SVG/1.1/DTD/svg11.dtd">
<svg version="1.1" id="Layer_1" xmlns="http://www.w3.org/2000/svg" xmlns:xlink="http://www.w3.org/1999/xlink" x="0px" y="0px"
	 width="82.833px" height="81.504px" viewBox="24.833 27 82.833 81.504" enable-background="new 24.833 27 82.833 81.504"
	 xml:space="preserve">
<g>
	<path fill="none" stroke="#000000" stroke-width="2" stroke-miterlimit="10" d="M195.914,79.582
		c4.09,0.268,7.722,2.205,10.226,5.138"/>
	<path fill="none" stroke="#000000" stroke-width="2" stroke-miterlimit="10" d="M209.3,97.536c0.237-1.049,0.367-2.139,0.367-3.259
		c0-3.648-1.329-6.985-3.526-9.557"/>
	<path fill="none" stroke="#000000" stroke-width="2" stroke-miterlimit="10" d="M193.715,79.601
		c-7.563,0.621-13.51,6.952-13.51,14.676c0,1.12,0.129,2.21,0.367,3.259"/>
	
		<ellipse fill="none" stroke="#000000" stroke-width="2" stroke-miterlimit="10" cx="194.405" cy="68.681" rx="10.749" ry="10.902"/>
</g>
<g>
	<g>
		<path fill="none" stroke="#000000" stroke-width="2" stroke-miterlimit="10" d="M152.914,77.657
			c-4.628,0.38-8.641,2.903-11.066,6.569"/>
		<path fill="none" stroke="#000000" stroke-width="2" stroke-miterlimit="10" d="M155.114,77.639"/>
		
			<ellipse fill="none" stroke="#000000" stroke-width="2" stroke-miterlimit="10" cx="153.605" cy="66.736" rx="10.749" ry="10.902"/>
	</g>
	
		<rect x="129.667" y="44.725" fill="none" stroke="#000000" stroke-width="2" stroke-miterlimit="10" width="50.652" height="39.682"/>
	<path fill="none" stroke="#000000" stroke-width="2" stroke-miterlimit="10" d="M155.1,77.657c4.628,0.38,8.641,2.903,11.066,6.569
		"/>
</g>
<g>
	<path fill="none" stroke="#000000" stroke-width="2" stroke-miterlimit="10" d="M94.662,93.431
		c3.446,0.228,6.507,1.873,8.616,4.364"/>
	<path fill="none" stroke="#000000" stroke-width="2" stroke-miterlimit="10" d="M105.941,108.681
		c0.2-0.891,0.309-1.816,0.309-2.768c0-3.099-1.12-5.933-2.971-8.118"/>
	<path fill="none" stroke="#000000" stroke-width="2" stroke-miterlimit="10" d="M92.809,93.446
		c-6.373,0.528-11.383,5.905-11.383,12.466c0,0.952,0.109,1.877,0.309,2.768"/>
	<ellipse fill="none" stroke="#000000" stroke-width="2" stroke-miterlimit="10" cx="93.391" cy="84.17" rx="9.057" ry="9.261"/>
</g>
<g>
	<path fill="none" stroke="#000000" stroke-width="2" stroke-miterlimit="10" d="M66.876,93.253
		c3.446,0.228,6.507,1.873,8.616,4.364"/>
	<path fill="none" stroke="#000000" stroke-width="2" stroke-miterlimit="10" d="M78.154,108.504c0.2-0.891,0.309-1.816,0.309-2.768
		c0-3.099-1.12-5.933-2.971-8.118"/>
	<path fill="none" stroke="#000000" stroke-width="2" stroke-miterlimit="10" d="M65.022,93.269
		c-6.373,0.528-11.383,5.905-11.383,12.466c0,0.952,0.109,1.877,0.309,2.768"/>
	<ellipse fill="none" stroke="#000000" stroke-width="2" stroke-miterlimit="10" cx="65.605" cy="83.993" rx="9.057" ry="9.261"/>
</g>
<g>
	<path fill="none" stroke="#000000" stroke-width="2" stroke-miterlimit="10" d="M39.486,93.327
		c3.446,0.228,6.507,1.873,8.616,4.364"/>
	<path fill="none" stroke="#000000" stroke-width="2" stroke-miterlimit="10" d="M50.765,108.577c0.2-0.891,0.309-1.816,0.309-2.768
		c0-3.099-1.12-5.933-2.971-8.118"/>
	<path fill="none" stroke="#000000" stroke-width="2" stroke-miterlimit="10" d="M37.633,93.342
		C31.26,93.87,26.25,99.248,26.25,105.809c0,0.952,0.109,1.877,0.309,2.768"/>
	<ellipse fill="none" stroke="#000000" stroke-width="2" stroke-miterlimit="10" cx="38.215" cy="84.066" rx="9.057" ry="9.261"/>
</g>
<g>
	<g>
		<path fill="none" stroke="#000000" stroke-width="2" stroke-miterlimit="10" d="M66.264,54.911
			c-3.656,0.303-6.827,2.313-8.744,5.232"/>
		<path fill="none" stroke="#000000" stroke-width="2" stroke-miterlimit="10" d="M68.002,54.897"/>
		<ellipse fill="none" stroke="#000000" stroke-width="2" stroke-miterlimit="10" cx="66.81" cy="46.213" rx="8.493" ry="8.684"/>
	</g>
	
		<rect x="47.895" y="28.681" fill="none" stroke="#000000" stroke-width="2" stroke-miterlimit="10" width="40.021" height="31.607"/>
	<path fill="none" stroke="#000000" stroke-width="2" stroke-miterlimit="10" d="M67.991,54.911
		c3.656,0.303,6.827,2.313,8.744,5.232"/>
</g>
</svg>
