<?xml version="1.0" encoding="utf-8"?>
<!-- Generator: Adobe Illustrator 17.0.0, SVG Export Plug-In . SVG Version: 6.00 Build 0)  -->
<!DOCTYPE svg PUBLIC "-//W3C//DTD SVG 1.1//EN" "http://www.w3.org/Graphics/SVG/1.1/DTD/svg11.dtd">
<svg version="1.1" id="Layer_1" xmlns="http://www.w3.org/2000/svg" xmlns:xlink="http://www.w3.org/1999/xlink" x="0px" y="0px"
	 width="82.833px" height="54.286px" viewBox="24.833 43.25 82.833 54.286" enable-background="new 24.833 43.25 82.833 54.286"
	 xml:space="preserve">
<g>
	<path fill="none" stroke="#000000" stroke-width="2" stroke-miterlimit="10" d="M92.761,79.582
		c4.09,0.268,7.722,2.205,10.226,5.138"/>
	<path fill="none" stroke="#000000" stroke-width="2" stroke-miterlimit="10" d="M106.147,97.536
		c0.237-1.049,0.367-2.139,0.367-3.259c0-3.648-1.329-6.985-3.526-9.557"/>
	<path fill="none" stroke="#000000" stroke-width="2" stroke-miterlimit="10" d="M90.562,79.601
		c-7.563,0.621-13.51,6.952-13.51,14.676c0,1.12,0.129,2.21,0.367,3.259"/>
	<ellipse fill="none" stroke="#000000" stroke-width="2" stroke-miterlimit="10" cx="91.253" cy="68.681" rx="10.749" ry="10.902"/>
</g>
<g>
	<g>
		<path fill="none" stroke="#000000" stroke-width="2" stroke-miterlimit="10" d="M49.762,77.657
			c-4.628,0.38-8.641,2.903-11.066,6.569"/>
		<path fill="none" stroke="#000000" stroke-width="2" stroke-miterlimit="10" d="M51.961,77.639"/>
		
			<ellipse fill="none" stroke="#000000" stroke-width="2" stroke-miterlimit="10" cx="50.452" cy="66.736" rx="10.749" ry="10.902"/>
	</g>
	
		<rect x="26.514" y="44.725" fill="none" stroke="#000000" stroke-width="2" stroke-miterlimit="10" width="50.652" height="39.682"/>
	<path fill="none" stroke="#000000" stroke-width="2" stroke-miterlimit="10" d="M51.947,77.657
		c4.628,0.38,8.641,2.903,11.066,6.569"/>
</g>
<g>
	<path fill="none" stroke="#000000" stroke-width="2" stroke-miterlimit="10" d="M384.6,87.514c3.446,0.228,6.507,1.873,8.616,4.364
		"/>
	<path fill="none" stroke="#000000" stroke-width="2" stroke-miterlimit="10" d="M395.879,102.764
		c0.2-0.891,0.309-1.816,0.309-2.768c0-3.099-1.12-5.933-2.971-8.118"/>
	<path fill="none" stroke="#000000" stroke-width="2" stroke-miterlimit="10" d="M382.747,87.53
		c-6.373,0.528-11.383,5.905-11.383,12.466c0,0.952,0.109,1.877,0.309,2.768"/>
	<ellipse fill="none" stroke="#000000" stroke-width="2" stroke-miterlimit="10" cx="383.329" cy="78.254" rx="9.057" ry="9.261"/>
</g>
<g>
	<path fill="none" stroke="#000000" stroke-width="2" stroke-miterlimit="10" d="M356.814,87.337
		c3.446,0.228,6.507,1.873,8.616,4.364"/>
	<path fill="none" stroke="#000000" stroke-width="2" stroke-miterlimit="10" d="M368.092,102.587
		c0.2-0.891,0.309-1.816,0.309-2.768c0-3.099-1.12-5.933-2.971-8.118"/>
	<path fill="none" stroke="#000000" stroke-width="2" stroke-miterlimit="10" d="M354.96,87.353
		c-6.373,0.528-11.383,5.905-11.383,12.466c0,0.952,0.109,1.877,0.309,2.768"/>
	<ellipse fill="none" stroke="#000000" stroke-width="2" stroke-miterlimit="10" cx="355.543" cy="78.077" rx="9.057" ry="9.261"/>
</g>
<g>
	<path fill="none" stroke="#000000" stroke-width="2" stroke-miterlimit="10" d="M329.424,87.41
		c3.446,0.228,6.507,1.873,8.616,4.364"/>
	<path fill="none" stroke="#000000" stroke-width="2" stroke-miterlimit="10" d="M340.703,102.661
		c0.2-0.891,0.309-1.816,0.309-2.768c0-3.099-1.12-5.933-2.971-8.118"/>
	<path fill="none" stroke="#000000" stroke-width="2" stroke-miterlimit="10" d="M327.571,87.426
		c-6.373,0.528-11.383,5.905-11.383,12.466c0,0.952,0.109,1.877,0.309,2.768"/>
	<ellipse fill="none" stroke="#000000" stroke-width="2" stroke-miterlimit="10" cx="328.153" cy="78.15" rx="9.057" ry="9.261"/>
</g>
<g>
	<g>
		<path fill="none" stroke="#000000" stroke-width="2" stroke-miterlimit="10" d="M356.202,48.995
			c-3.656,0.303-6.827,2.313-8.744,5.232"/>
		<path fill="none" stroke="#000000" stroke-width="2" stroke-miterlimit="10" d="M357.939,48.98"/>
		<ellipse fill="none" stroke="#000000" stroke-width="2" stroke-miterlimit="10" cx="356.748" cy="40.297" rx="8.493" ry="8.684"/>
	</g>
	
		<rect x="337.833" y="22.764" fill="none" stroke="#000000" stroke-width="2" stroke-miterlimit="10" width="40.021" height="31.607"/>
	<path fill="none" stroke="#000000" stroke-width="2" stroke-miterlimit="10" d="M357.929,48.995
		c3.656,0.303,6.827,2.313,8.744,5.232"/>
</g>
</svg>
