<?xml version="1.0" encoding="utf-8"?>
<!-- Generator: Adobe Illustrator 17.0.0, SVG Export Plug-In . SVG Version: 6.00 Build 0)  -->
<!DOCTYPE svg PUBLIC "-//W3C//DTD SVG 1.1//EN" "http://www.w3.org/Graphics/SVG/1.1/DTD/svg11.dtd">
<svg version="1.1" id="Layer_1" xmlns="http://www.w3.org/2000/svg" xmlns:xlink="http://www.w3.org/1999/xlink" x="0px" y="0px"
	 width="166.5px" height="108px" viewBox="-16 39.333 166.5 108" enable-background="new -16 39.333 166.5 108"
	 xml:space="preserve">
<g>
	<g>
		<path fill="none" stroke="#CACCCE" stroke-width="5.05" stroke-miterlimit="10" d="M119.683,112.427
			c8.178,0.536,15.439,4.409,20.446,10.273"/>
		<path fill="none" stroke="#CACCCE" stroke-width="5.05" stroke-miterlimit="10" d="M146.447,148.324
			c0.474-2.097,0.734-4.277,0.734-6.516c0-7.294-2.657-13.966-7.05-19.108"/>
		<path fill="none" stroke="#CACCCE" stroke-width="5.05" stroke-miterlimit="10" d="M115.286,112.465
			c-15.122,1.242-27.012,13.9-27.012,29.343c0,2.239,0.258,4.419,0.734,6.516"/>
		
			<ellipse fill="none" stroke="#CACCCE" stroke-width="5.05" stroke-miterlimit="10" cx="116.668" cy="90.631" rx="21.492" ry="21.798"/>
	</g>
	<g>
		<g>
			<path fill="none" stroke="#CACCCE" stroke-width="5.05" stroke-miterlimit="10" d="M33.71,108.578
				c-9.253,0.76-17.277,5.804-22.126,13.134"/>
			<path fill="none" stroke="#CACCCE" stroke-width="5.05" stroke-miterlimit="10" d="M38.107,108.542"/>
			
				<ellipse fill="none" stroke="#CACCCE" stroke-width="5.05" stroke-miterlimit="10" cx="35.09" cy="86.742" rx="21.492" ry="21.798"/>
		</g>
		
			<rect x="-12.772" y="42.733" fill="none" stroke="#CACCCE" stroke-width="5.05" stroke-miterlimit="10" width="101.274" height="79.341"/>
		<path fill="none" stroke="#CACCCE" stroke-width="5.05" stroke-miterlimit="10" d="M38.079,108.578
			c9.253,0.76,17.277,5.804,22.126,13.134"/>
	</g>
</g>
</svg>
