<?xml version="1.0" encoding="utf-8"?>
<!-- Generator: Adobe Illustrator 17.0.0, SVG Export Plug-In . SVG Version: 6.00 Build 0)  -->
<!DOCTYPE svg PUBLIC "-//W3C//DTD SVG 1.1//EN" "http://www.w3.org/Graphics/SVG/1.1/DTD/svg11.dtd">
<svg version="1.1" xmlns="http://www.w3.org/2000/svg" xmlns:xlink="http://www.w3.org/1999/xlink" x="0px" y="0px"
	 width="18.542px" height="26.938px" viewBox="0 0 18.542 26.938" enable-background="new 0 0 18.542 26.938" xml:space="preserve">
<g id="Layer_1">
</g>
<g id="Layer_4">
	<g>
		<g>
			<path fill="none" stroke="#FFFFFF" stroke-width="0.75" stroke-miterlimit="10" d="M10.07,26.159
				c0.589-0.008,2.03-0.027,2.72,0.043c0.481,0.049,1.05-0.873,1.588,0.063c0.271,0.471,3.911,0.107,4.166,0.144"/>
		</g>
	</g>
	<path fill="none" stroke="#FFFFFF" stroke-width="0.75" stroke-miterlimit="10" d="M10.07,26.159
		c-1.196-0.021-3.164-0.121-4.331-0.031c-1.406,0.108-2.855,0.03-4.301,0.089c-0.023,0-0.046,0.001-0.068,0.001"/>
	<g>
		<path fill="none" stroke="#FFFFFF" stroke-width="1.5" stroke-linecap="round" stroke-miterlimit="10" d="M4.907,3.477
			C4.905,3.485,4.903,3.493,4.9,3.502c-0.944,3.347-1.886,6.695-2.831,10.041c-0.394,1.397-0.8,2.791-1.186,4.19
			c-0.059,0.214-0.106,0.45-0.092,0.67c1.648,0.462,3.296,0.923,4.937,1.406c0.131-0.203,0.236-0.428,0.301-0.653
			c1.357-4.756,2.7-9.516,4.043-14.276L4.907,3.477z"/>
		<path fill="none" stroke="#FFFFFF" stroke-width="1.5" stroke-linecap="round" stroke-miterlimit="10" d="M4.913,3.468
			c0.131-0.483,0.259-0.968,0.408-1.445c0.246-0.787,0.909-1.15,1.697-0.95C7.84,1.281,8.656,1.51,9.475,1.729
			c0.38,0.102,0.687,0.301,0.879,0.653c0.189,0.312,0.227,0.65,0.135,0.997c-0.137,0.519-0.283,1.036-0.424,1.554"/>
		<path fill="none" stroke="#FFFFFF" stroke-width="1.5" stroke-linecap="round" stroke-miterlimit="10" d="M1.11,18.489
			c-0.001,0.032-0.314-0.024-0.309,0.007c0.29,2.001,0.585,4.001,0.895,6.117c0.426-0.508,0.778-0.929,1.131-1.348
			c0.936-1.111,1.877-2.218,2.805-3.335c0.034-0.041-0.026,0.038,0,0C3.995,19.448,2.753,18.953,1.11,18.489z"/>
	</g>
</g>
<g id="Layer_3">
</g>
<g id="Layer_2">
</g>
</svg>
