<?xml version="1.0" encoding="utf-8"?>
<!-- Generator: Adobe Illustrator 17.0.0, SVG Export Plug-In . SVG Version: 6.00 Build 0)  -->
<!DOCTYPE svg PUBLIC "-//W3C//DTD SVG 1.1//EN" "http://www.w3.org/Graphics/SVG/1.1/DTD/svg11.dtd">
<svg version="1.1" id="Layer_1" xmlns="http://www.w3.org/2000/svg" xmlns:xlink="http://www.w3.org/1999/xlink" x="0px" y="0px"
	 width="121.333px" height="137.25px" viewBox="0 0 121.333 137.25" enable-background="new 0 0 121.333 137.25"
	 xml:space="preserve">
<g>
	<path fill="#CACCCE" stroke="#CACCCE" stroke-miterlimit="10" d="M60.675,133.757c0,0-11.783-13.152-14.963-45.935
		c0,0-0.663-6.838,7.382-7.835c0,0,6.413-1.803,15.206,0.017"/>
	<path fill="#CACCCE" stroke="#CACCCE" stroke-miterlimit="10" d="M60.673,133.766c0,0,11.775-13.159,14.937-45.943
		c0,0,0.659-6.838-7.386-7.83"/>
	<circle fill="#CACCCE" stroke="#CACCCE" stroke-miterlimit="10" cx="60.666" cy="54.009" r="15.029"/>
	<path fill="#CACCCE" stroke="#CACCCE" stroke-miterlimit="10" d="M32.245,55.882c0-16.318,12.754-29.545,28.488-29.545
		s28.488,13.227,28.488,29.545c0,6.968-2.339,13.359-6.229,18.411c4.694-5.28,7.569-12.214,7.569-19.835
		c0-16.511-13.385-29.896-29.896-29.896S30.77,37.946,30.77,54.456c0,8.332,3.415,15.863,8.914,21.284
		C35.076,70.491,32.245,63.538,32.245,55.882z"/>
	<path fill="#CACCCE" stroke="#CACCCE" stroke-miterlimit="10" d="M20.63,58.223c0-22.985,17.967-41.618,40.131-41.618
		s40.131,18.633,40.131,41.618c0,9.814-3.296,18.818-8.774,25.934c6.612-7.437,10.663-17.204,10.663-27.94
		c0-23.258-18.855-42.113-42.113-42.113S18.554,32.958,18.554,56.216c0,11.738,4.812,22.344,12.558,29.981
		C24.621,78.804,20.63,69.009,20.63,58.223z"/>
	<path fill="#CACCCE" stroke="#CACCCE" stroke-miterlimit="10" d="M5.336,61.307c0-31.765,24.83-57.516,55.461-57.516
		s55.461,25.75,55.461,57.516c0,13.564-4.554,26.006-12.127,35.84c9.139-10.28,14.736-23.776,14.736-38.612
		c0-32.143-26.057-58.201-58.201-58.201S2.465,26.39,2.465,58.533c0,16.221,6.649,30.879,17.354,41.434
		C10.85,89.75,5.336,76.214,5.336,61.307z"/>
</g>
</svg>
