<?xml version="1.0" encoding="utf-8"?>
<!-- Generator: Adobe Illustrator 17.0.0, SVG Export Plug-In . SVG Version: 6.00 Build 0)  -->
<!DOCTYPE svg PUBLIC "-//W3C//DTD SVG 1.1//EN" "http://www.w3.org/Graphics/SVG/1.1/DTD/svg11.dtd">
<svg version="1.1" id="Layer_1" xmlns="http://www.w3.org/2000/svg" xmlns:xlink="http://www.w3.org/1999/xlink" x="0px" y="0px"
	 width="32.5px" height="31.891px" viewBox="0 0 32.5 31.891" enable-background="new 0 0 32.5 31.891" xml:space="preserve">
<g>
	<line fill="none" stroke="#110adc" stroke-width="2" stroke-miterlimit="10" x1="84.75" y1="-4.554" x2="84.75" y2="12.446"/>
	<line fill="none" stroke="#110adc" stroke-width="2" stroke-miterlimit="10" x1="76.75" y1="-3.554" x2="93.75" y2="-3.554"/>
</g>
<path fill="none" stroke="#110adc" stroke-width="2" stroke-miterlimit="10" d="M69.75,44.345c0,3.369-2.731,6.1-6.1,6.1H45.85
	c-3.369,0-6.1-2.731-6.1-6.1V26.546c0-3.369,2.731-6.1,6.1-6.1H63.65c3.369,0,6.1,2.731,6.1,6.1V44.345z"/>
<g>
	<path fill="none" stroke="#110adc" stroke-width="2" stroke-miterlimit="10" d="M30.75,24.149c0,3.478-2.819,6.297-6.297,6.297
		H8.047c-3.478,0-6.297-2.819-6.297-6.297V7.742c0-3.478,2.819-6.297,6.297-6.297h16.407c3.478,0,6.297,2.819,6.297,6.297V24.149z"
		/>
	<path fill="none" stroke="#110adc" stroke-width="1.6618" stroke-miterlimit="10" d="M2.99,27.221c0,0,13.26-10.475,14.297-10.558
		s13.367,10.558,13.367,10.558"/>
	<circle fill="none" stroke="#110adc" stroke-width="0.7515" stroke-miterlimit="10" cx="11.115" cy="10.778" r="3.619"/>
</g>
</svg>
