<?xml version="1.0" encoding="utf-8"?>
<!-- Generator: Adobe Illustrator 17.0.0, SVG Export Plug-In . SVG Version: 6.00 Build 0)  -->
<!DOCTYPE svg PUBLIC "-//W3C//DTD SVG 1.1//EN" "http://www.w3.org/Graphics/SVG/1.1/DTD/svg11.dtd">
<svg version="1.1" id="Layer_1" xmlns="http://www.w3.org/2000/svg" xmlns:xlink="http://www.w3.org/1999/xlink" x="0px" y="0px"
	 width="32.5px" height="31.891px" viewBox="0 0 32.5 31.891" enable-background="new 0 0 32.5 31.891" xml:space="preserve">
<polyline fill="none" stroke="#110adc" stroke-width="2" stroke-miterlimit="10" points="61.41,31.37 50.136,31.364 50.136,5.601 
	80.136,5.601 80.136,31.364 68.676,31.331 "/>
<line fill="none" stroke="#110adc" stroke-width="2" stroke-linecap="square" stroke-miterlimit="10" x1="59.808" y1="21.834" x2="65.288" y2="16.613"/>
<line fill="none" stroke="#110adc" stroke-width="2" stroke-linecap="square" stroke-miterlimit="10" x1="65.327" y1="16.606" x2="70.356" y2="21.948"/>
<line fill="none" stroke="#110adc" stroke-width="3" stroke-linecap="square" stroke-miterlimit="10" x1="65.261" y1="18.985" x2="65.239" y2="34.626"/>
<line fill="none" stroke="#110adc" stroke-width="2" stroke-linecap="round" stroke-miterlimit="10" x1="10.75" y1="14.445" x2="22.75" y2="14.445"/>
<line fill="none" stroke="#110adc" stroke-width="1.6084" stroke-linecap="round" stroke-miterlimit="10" x1="10.207" y1="14.059" x2="14.351" y2="9.29"/>
<line fill="none" stroke="#110adc" stroke-width="1.6084" stroke-linecap="round" stroke-miterlimit="10" x1="10.207" y1="14.92" x2="14.351" y2="19.689"/>
<path fill="none" stroke="#110adc" stroke-width="2" stroke-miterlimit="10" d="M30.75,24.149c0,3.478-2.819,6.297-6.297,6.297
	H8.047c-3.478,0-6.297-2.819-6.297-6.297V7.742c0-3.478,2.819-6.297,6.297-6.297h16.407c3.478,0,6.297,2.819,6.297,6.297V24.149z"/>
</svg>
