<?xml version="1.0" encoding="utf-8"?>
<!-- Generator: Adobe Illustrator 17.0.0, SVG Export Plug-In . SVG Version: 6.00 Build 0)  -->
<!DOCTYPE svg PUBLIC "-//W3C//DTD SVG 1.1//EN" "http://www.w3.org/Graphics/SVG/1.1/DTD/svg11.dtd">
<svg version="1.1" id="Layer_1" xmlns="http://www.w3.org/2000/svg" xmlns:xlink="http://www.w3.org/1999/xlink" x="0px" y="0px"
	 width="32.5px" height="31.891px" viewBox="0 0 32.5 31.891" enable-background="new 0 0 32.5 31.891" xml:space="preserve">
<g>
	<line fill="none" stroke="#000000" stroke-width="2" stroke-miterlimit="10" x1="84.75" y1="-4.554" x2="84.75" y2="12.446"/>
	<line fill="none" stroke="#000000" stroke-width="2" stroke-miterlimit="10" x1="76.75" y1="-3.554" x2="93.75" y2="-3.554"/>
</g>
<path fill="none" stroke="#001CF4" stroke-width="2" stroke-miterlimit="10" d="M69.75,44.345c0,3.369-2.731,6.1-6.1,6.1h-17.8
	c-3.369,0-6.1-2.731-6.1-6.1V26.546c0-3.369,2.731-6.1,6.1-6.1h17.8c3.369,0,6.1,2.731,6.1,6.1V44.345z"/>
<g>
	<path fill="none" stroke="#000000" stroke-width="2" stroke-miterlimit="10" d="M32.499,60.816c0,3.478-2.819,6.297-6.297,6.297
		H9.796c-3.478,0-6.297-2.819-6.297-6.297V44.409c0-3.478,2.819-6.297,6.297-6.297h16.407c3.478,0,6.297,2.819,6.297,6.297
		L32.499,60.816L32.499,60.816z"/>
	<path fill="none" stroke="#000000" stroke-width="1.6618" stroke-miterlimit="10" d="M4.739,63.888c0,0,13.26-10.475,14.297-10.558
		s13.367,10.558,13.367,10.558"/>
	<circle fill="none" stroke="#000000" stroke-width="0.7515" stroke-miterlimit="10" cx="12.864" cy="47.445" r="3.619"/>
</g>
<g>
	
		<rect x="4.206" y="3.728" fill="none" stroke="#001CF4" stroke-width="1.9255" stroke-linecap="round" stroke-miterlimit="10" width="24.089" height="20.907"/>
	
		<line fill="none" stroke="#001CF4" stroke-width="1.9255" stroke-linecap="round" stroke-miterlimit="10" x1="1.024" y1="3.728" x2="31.476" y2="3.728"/>
	
		<line fill="none" stroke="#001CF4" stroke-width="1.9255" stroke-linecap="round" stroke-miterlimit="10" x1="16.25" y1="24.636" x2="16.25" y2="30.149"/>
	
		<line fill="none" stroke="#001CF4" stroke-width="1.9255" stroke-linecap="round" stroke-miterlimit="10" x1="10.767" y1="30.149" x2="21.733" y2="30.149"/>
	
		<line fill="none" stroke="#001CF4" stroke-width="1.9255" stroke-linecap="round" stroke-miterlimit="10" x1="16.25" y1="3.728" x2="16.25" y2="1.742"/>
</g>
</svg>
