<?xml version="1.0" encoding="utf-8"?>
<!-- Generator: Adobe Illustrator 24.3.0, SVG Export Plug-In . SVG Version: 6.00 Build 0)  -->
<svg version="1.1" id="Layer_1" xmlns="http://www.w3.org/2000/svg" xmlns:xlink="http://www.w3.org/1999/xlink" x="0px" y="0px"
	 viewBox="36.792 65.18 22.125 22.103" enable-background="new 36.792 65.18 22.125 22.103" xml:space="preserve">
<g>
	<g>
		<path d="M70.816,29.995c-0.211,0-0.423,0.009-0.634-0.002c-0.402-0.021-0.727-0.003-1.003,0.419
			c-0.335,0.513-1.108,0.43-1.452-0.108c-0.158-0.247-0.336-0.319-0.608-0.313c-0.634,0.014-1.268,0.008-1.901,0.003
			c-0.512-0.004-0.692-0.264-0.522-0.751c0.095-0.271,0.208-0.548,0.44-0.725c0.628-0.483,0.667-1.154,0.616-1.851
			c-0.045-0.623-0.083-1.238,0.129-1.844c0.254-0.726,0.716-1.272,1.391-1.633c0.196-0.105,0.332-0.233,0.411-0.45
			c0.137-0.375,0.432-0.582,0.828-0.582c0.386-0.001,0.666,0.22,0.798,0.571c0.087,0.232,0.236,0.354,0.438,0.47
			c1,0.571,1.518,1.436,1.523,2.593c0.002,0.497-0.004,0.994-0.02,1.491c-0.012,0.382,0.096,0.7,0.374,0.974
			c0.291,0.287,0.573,0.585,0.692,0.999c0.148,0.515-0.001,0.733-0.53,0.737C71.462,29.997,71.139,29.995,70.816,29.995z
			 M68.487,29.551c0-0.002,0-0.004,0-0.005c0.522,0,1.044,0,1.565,0c0.522,0,1.044-0.01,1.565,0.006
			c0.32,0.01,0.34-0.12,0.214-0.357c-0.1-0.187-0.205-0.373-0.372-0.508c-0.507-0.412-0.674-0.965-0.657-1.589
			c0.012-0.459,0.067-0.918,0.055-1.376c-0.032-1.279-0.982-2.311-2.199-2.423c-1.146-0.105-2.224,0.788-2.483,2.03
			c-0.132,0.636,0.039,1.261,0.016,1.894c-0.02,0.539-0.158,0.998-0.566,1.365c-0.204,0.184-0.376,0.394-0.48,0.656
			c-0.085,0.215-0.063,0.315,0.21,0.312C66.399,29.544,67.443,29.551,68.487,29.551z"/>
		<path d="M75.064,30.016c-0.013,0.798-0.518,1.716-1.494,2.376c-0.136,0.092-0.317,0.241-0.448,0.021
			c-0.118-0.198,0.089-0.283,0.217-0.365c1.747-1.117,1.806-3.74-0.167-4.891c-0.139-0.081-0.323-0.166-0.196-0.365
			c0.109-0.17,0.267-0.059,0.398,0.005C74.369,27.282,75.055,28.435,75.064,30.016z"/>
		<path d="M61.897,29.881c0.019-1.401,0.534-2.323,1.524-2.984c0.082-0.055,0.171-0.101,0.261-0.142
			c0.119-0.055,0.248-0.085,0.327,0.054c0.082,0.145-0.023,0.229-0.131,0.302c-0.174,0.118-0.359,0.222-0.522,0.354
			c-1.427,1.159-1.385,3.339,0.083,4.453c0.089,0.067,0.181,0.13,0.271,0.197c0.105,0.078,0.202,0.169,0.111,0.308
			c-0.09,0.138-0.22,0.092-0.329,0.026c-0.603-0.361-1.056-0.862-1.337-1.505C61.981,30.544,61.883,30.12,61.897,29.881z"/>
		<path d="M74.01,29.791c-0.045,0.567-0.298,1.141-0.836,1.569c-0.125,0.099-0.286,0.221-0.428,0.061
			c-0.165-0.186,0.036-0.279,0.152-0.379c0.959-0.829,0.907-2.107-0.116-2.874c-0.123-0.092-0.334-0.17-0.195-0.367
			c0.144-0.203,0.311-0.047,0.452,0.045C73.634,28.234,74.011,28.952,74.01,29.791z"/>
		<path d="M64.216,27.708c0.105-0.002,0.165,0.037,0.193,0.114c0.034,0.092,0.005,0.173-0.068,0.233
			c-0.133,0.111-0.28,0.207-0.404,0.327c-0.769,0.742-0.743,1.887,0.046,2.604c0.124,0.112,0.407,0.215,0.238,0.42
			c-0.187,0.227-0.383-0.003-0.532-0.134c-1.041-0.916-0.95-2.599,0.179-3.398C63.98,27.796,64.094,27.718,64.216,27.708z"/>
	</g>
</g>
<path fill="#D8D8D8" stroke="#F600F6" stroke-width="0.5" stroke-miterlimit="10" d="M68.338,23c0,0-2.421,0.344-2.39,3.219l0,1.385
	c0,0-0.177,0.729-0.739,1.083c0,0-1.083,1.083,0.25,1.063"/>
<g>
	<path fill="#D8D8D8" stroke="#F600F6" stroke-width="0.5" stroke-miterlimit="10" d="M43.691,29.347
		c-1.333,0.021-0.25-1.062-0.25-1.062c0.562-0.354,0.739-1.083,0.739-1.083l0-1.385c-0.031-2.875,2.39-3.219,2.39-3.219
		s1.405-0.227,2.111,0.477"/>
	<path fill="#D8D8D8" stroke="#F600F6" stroke-width="0.5" stroke-miterlimit="10" d="M43.565,29.342l6.866,0.005
		c1.333,0.021,0.25-1.062,0.25-1.062c-0.562-0.354-0.739-1.083-0.739-1.083l0-1.385c0.031-2.875-2.39-3.219-2.39-3.219"/>
	<path fill="#D8D8D8" stroke="#F600F6" stroke-width="0.2816" stroke-miterlimit="10" d="M48.161,29.348
		c0,0.564-0.457,1.021-1.021,1.021c-0.564,0-1.021-0.457-1.021-1.021"/>
</g>
<path fill="#D8D8D8" stroke="#F600F6" stroke-width="0.6433" stroke-miterlimit="10" d="M60.979,26.375c0,0-3.062,3.062,0,6.437"/>
<path fill="#D8D8D8" stroke="#F600F6" stroke-width="0.5" stroke-miterlimit="10" d="M41.296,27.01
	c-0.778,0.47-1.307,1.335-1.307,2.337s0.529,1.867,1.307,2.337"/>
<path fill="#D8D8D8" stroke="#F600F6" stroke-width="0.3655" stroke-miterlimit="10" d="M42.251,27.755
	c-0.569,0.344-0.955,0.976-0.955,1.709c0,0.732,0.387,1.365,0.955,1.709"/>
<g>
	<g>
		<path fill="#D8D8D8" stroke="#FFFFFF" stroke-width="2" stroke-miterlimit="10" d="M39.571,83.272
			c-3.318,0.052-0.622-2.644-0.622-2.644c1.4-0.881,1.84-2.696,1.84-2.696l0.001-3.447c-0.078-7.154,5.947-8.009,5.947-8.009
			s3.495-0.564,5.253,1.187"/>
		<path fill="#D8D8D8" stroke="#FFFFFF" stroke-width="2" stroke-miterlimit="10" d="M39.257,83.26l17.086,0.012
			c3.318,0.052,0.622-2.644,0.622-2.644c-1.4-0.881-1.84-2.696-1.84-2.696l-0.001-3.447c0.078-7.154-5.947-8.009-5.947-8.009"/>
		<path fill="#D8D8D8" stroke="#FFFFFF" stroke-width="2" stroke-miterlimit="10" d="M50.694,83.272c0,1.403-1.137,2.54-2.54,2.54
			s-2.54-1.137-2.54-2.54"/>
	</g>
	
		<line fill="#D8D8D8" stroke="#FCFAFA" stroke-width="2" stroke-linecap="round" stroke-miterlimit="10" x1="38.153" y1="68.31" x2="57.998" y2="78.722"/>
</g>
</svg>
