<?xml version="1.0" encoding="utf-8"?>
<!-- Generator: Adobe Illustrator 24.3.0, SVG Export Plug-In . SVG Version: 6.00 Build 0)  -->
<svg version="1.1" id="Layer_1" xmlns="http://www.w3.org/2000/svg" xmlns:xlink="http://www.w3.org/1999/xlink" x="0px" y="0px"
	 viewBox="0 0 22.1 22.1" style="enable-background:new 0 0 22.1 22.1;" xml:space="preserve">
<style type="text/css">
	.st0{fill:none;stroke:#F600F6;stroke-width:0.5;stroke-miterlimit:10;}
	.st1{fill:none;stroke:#F600F6;stroke-width:0.2816;stroke-miterlimit:10;}
	.st2{fill:none;stroke:#F600F6;stroke-width:0.6433;stroke-miterlimit:10;}
	.st3{fill:none;stroke:#F600F6;stroke-width:0.3655;stroke-miterlimit:10;}
	.st4{fill:none;stroke:#808080;stroke-miterlimit:10;}
	.st5{fill:none;stroke:#FFFFFF;stroke-miterlimit:10;}
</style>
<g>
	<g>
		<path d="M34-35.2c-0.2,0-0.4,0-0.6,0c-0.4,0-0.7,0-1,0.4c-0.3,0.5-1.1,0.4-1.5-0.1c-0.2-0.2-0.3-0.3-0.6-0.3c-0.6,0-1.3,0-1.9,0
			c-0.5,0-0.7-0.3-0.5-0.8c0.1-0.3,0.2-0.5,0.4-0.7c0.6-0.5,0.7-1.2,0.6-1.9c0-0.6-0.1-1.2,0.1-1.8c0.3-0.7,0.7-1.3,1.4-1.6
			c0.2-0.1,0.3-0.2,0.4-0.5c0.1-0.4,0.4-0.6,0.8-0.6c0.4,0,0.7,0.2,0.8,0.6c0.1,0.2,0.2,0.4,0.4,0.5c1,0.6,1.5,1.4,1.5,2.6
			c0,0.5,0,1,0,1.5c0,0.4,0.1,0.7,0.4,1c0.3,0.3,0.6,0.6,0.7,1c0.1,0.5,0,0.7-0.5,0.7C34.7-35.2,34.3-35.2,34-35.2z M31.7-35.6
			C31.7-35.6,31.7-35.6,31.7-35.6c0.5,0,1,0,1.6,0c0.5,0,1,0,1.6,0c0.3,0,0.3-0.1,0.2-0.4c-0.1-0.2-0.2-0.4-0.4-0.5
			c-0.5-0.4-0.7-1-0.7-1.6c0-0.5,0.1-0.9,0.1-1.4c0-1.3-1-2.3-2.2-2.4c-1.1-0.1-2.2,0.8-2.5,2c-0.1,0.6,0,1.3,0,1.9
			c0,0.5-0.2,1-0.6,1.4c-0.2,0.2-0.4,0.4-0.5,0.7c-0.1,0.2-0.1,0.3,0.2,0.3C29.6-35.6,30.7-35.6,31.7-35.6z"/>
		<path d="M38.3-35.2c0,0.8-0.5,1.7-1.5,2.4c-0.1,0.1-0.3,0.2-0.4,0c-0.1-0.2,0.1-0.3,0.2-0.4c1.7-1.1,1.8-3.7-0.2-4.9
			c-0.1-0.1-0.3-0.2-0.2-0.4c0.1-0.2,0.3-0.1,0.4,0C37.6-37.9,38.3-36.7,38.3-35.2z"/>
		<path d="M25.1-35.3c0-1.4,0.5-2.3,1.5-3c0.1-0.1,0.2-0.1,0.3-0.1c0.1-0.1,0.2-0.1,0.3,0.1c0.1,0.1,0,0.2-0.1,0.3
			c-0.2,0.1-0.4,0.2-0.5,0.4c-1.4,1.2-1.4,3.3,0.1,4.5c0.1,0.1,0.2,0.1,0.3,0.2c0.1,0.1,0.2,0.2,0.1,0.3c-0.1,0.1-0.2,0.1-0.3,0
			c-0.6-0.4-1.1-0.9-1.3-1.5C25.2-34.6,25.1-35.1,25.1-35.3z"/>
		<path d="M37.2-35.4c0,0.6-0.3,1.1-0.8,1.6c-0.1,0.1-0.3,0.2-0.4,0.1c-0.2-0.2,0-0.3,0.2-0.4c1-0.8,0.9-2.1-0.1-2.9
			c-0.1-0.1-0.3-0.2-0.2-0.4c0.1-0.2,0.3,0,0.5,0C36.8-36.9,37.2-36.2,37.2-35.4z"/>
		<path d="M27.4-37.5c0.1,0,0.2,0,0.2,0.1c0,0.1,0,0.2-0.1,0.2c-0.1,0.1-0.3,0.2-0.4,0.3c-0.8,0.7-0.7,1.9,0,2.6
			c0.1,0.1,0.4,0.2,0.2,0.4c-0.2,0.2-0.4,0-0.5-0.1c-1-0.9-1-2.6,0.2-3.4C27.2-37.4,27.3-37.5,27.4-37.5z"/>
	</g>
</g>
<path class="st0" d="M31.5-42.2c0,0-2.4,0.3-2.4,3.2v1.4c0,0-0.2,0.7-0.7,1.1c0,0-1.1,1.1,0.2,1.1"/>
<g>
	<path class="st0" d="M6.9-35.8c-1.3,0-0.2-1.1-0.2-1.1C7.2-37.2,7.4-38,7.4-38v-1.4c0-2.9,2.4-3.2,2.4-3.2s1.4-0.2,2.1,0.5"/>
	<path class="st0" d="M6.8-35.8l6.9,0c1.3,0,0.2-1.1,0.2-1.1c-0.6-0.4-0.7-1.1-0.7-1.1v-1.4c0-2.9-2.4-3.2-2.4-3.2"/>
	<path class="st1" d="M11.4-35.8c0,0.6-0.5,1-1,1s-1-0.5-1-1"/>
</g>
<path class="st2" d="M24.2-38.8c0,0-3.1,3.1,0,6.4"/>
<path class="st0" d="M4.5-38.2c-0.8,0.5-1.3,1.3-1.3,2.3s0.5,1.9,1.3,2.3"/>
<path class="st3" d="M5.5-37.4c-0.6,0.3-1,1-1,1.7c0,0.7,0.4,1.4,1,1.7"/>
<g>
	<path class="st4" d="M2.8,18.1c-3.3,0.1-0.6-2.6-0.6-2.6C3.6,14.6,4,12.8,4,12.8l0-3.4c-0.1-7.2,5.9-8,5.9-8s3.5-0.6,5.3,1.2"/>
	<path class="st4" d="M2.5,18.1l17.1,0c3.3,0.1,0.6-2.6,0.6-2.6c-1.4-0.9-1.8-2.7-1.8-2.7l0-3.4c0.1-7.2-5.9-8-5.9-8"/>
	<path class="st4" d="M13.9,18.1c0,1.4-1.1,2.5-2.5,2.5s-2.5-1.1-2.5-2.5"/>
</g>
<line class="st4" x1="1.4" y1="3.1" x2="21.2" y2="13.5"/>
<g>
	<g>
		<path class="st5" d="M31.3,19.8c-3.3,0.1-0.6-2.6-0.6-2.6c1.4-0.9,1.8-2.7,1.8-2.7l0-3.4c-0.1-7.2,5.9-8,5.9-8s3.5-0.6,5.3,1.2"/>
		<path class="st5" d="M31,19.8l17.1,0c3.3,0.1,0.6-2.6,0.6-2.6c-1.4-0.9-1.8-2.7-1.8-2.7l0-3.4c0.1-7.2-5.9-8-5.9-8"/>
		<path class="st5" d="M42.4,19.8c0,1.4-1.1,2.5-2.5,2.5s-2.5-1.1-2.5-2.5"/>
	</g>
	<line class="st5" x1="29.9" y1="4.9" x2="49.7" y2="15.3"/>
</g>
</svg>
