<?xml version="1.0" encoding="utf-8"?>
<!-- Generator: Adobe Illustrator 24.3.0, SVG Export Plug-In . SVG Version: 6.00 Build 0)  -->
<svg version="1.1" id="Layer_1" xmlns="http://www.w3.org/2000/svg" xmlns:xlink="http://www.w3.org/1999/xlink" x="0px" y="0px"
	 viewBox="0 0 40 40" style="enable-background:new 0 0 40 40;" xml:space="preserve">
<style type="text/css">
	.st0{fill:none;stroke:#4FB848;stroke-linecap:round;stroke-miterlimit:10;}
	.st1{fill:#4FB848;}
</style>
<line class="st0" x1="27.27" y1="6.36" x2="30.18" y2="4.9"/>
<line class="st0" x1="14.41" y1="5.99" x2="11.26" y2="4.9"/>
<line class="st0" x1="19.99" y1="3.45" x2="19.99" y2="0.54"/>
<path class="st1" d="M26.16,25.19c0,2.94-2.41,5.32-5.39,5.32l0,0c-2.98,0-5.39-2.38-5.39-5.32v-9.17c0-2.94,2.41-5.32,5.39-5.32
	l0,0c2.98,0,5.39,2.38,5.39,5.32V25.19z"/>
<path class="st0" d="M12.44,25.64v-0.69c0,4.53,3.73,8.21,8.33,8.21s8.33-3.68,8.33-8.21v0.69"/>
<line class="st0" x1="20.77" y1="33.16" x2="20.77" y2="39.04"/>
<line class="st0" x1="15.15" y1="39.06" x2="26.08" y2="39.01"/>
</svg>
