<?xml version="1.0" encoding="utf-8"?>
<!-- Generator: Adobe Illustrator 24.3.0, SVG Export Plug-In . SVG Version: 6.00 Build 0)  -->
<svg version="1.1" id="Layer_1" xmlns="http://www.w3.org/2000/svg" xmlns:xlink="http://www.w3.org/1999/xlink" x="0px" y="0px"
	 viewBox="0 0 60 60" style="enable-background:new 0 0 60 60;" xml:space="preserve">
<style type="text/css">
	.st0{fill:none;stroke:#FFFFFF;stroke-linecap:round;stroke-miterlimit:10;}
	.st1{display:none;}
	.st2{fill:none;stroke:#FFFFFF;stroke-width:2;stroke-linecap:round;stroke-miterlimit:10;}
	.st3{fill:none;stroke:#FFFFFF;stroke-width:1.5;stroke-linecap:round;stroke-miterlimit:10;}
	.st4{fill:none;stroke:#FFFFFF;stroke-width:2;stroke-linecap:round;stroke-linejoin:round;stroke-miterlimit:10;}
	.st5{fill:none;stroke:#FFFFFF;stroke-linecap:round;stroke-linejoin:round;stroke-miterlimit:10;}
</style>
<g>
	<g>
		<image style="overflow:visible;" width="112" height="104" xlink:href="CE1141D2.png"  transform="matrix(1 0 0 1 -26 -24)">
		</image>
	</g>
	<g>
		<image style="overflow:visible;" width="112" height="104" xlink:href="CE1141D3.png"  transform="matrix(1 0 0 1 -26 -24)">
		</image>
	</g>
	<g>
		<path class="st0" d="M36.8,36.1c5,0.4,9.3,3.1,11.9,7.1"/>
		<g>
			<path class="st0" d="M34.5,36.1c-5,0.4-9.3,3.1-11.9,7.1"/>
			<path class="st0" d="M36.8,36"/>
			<ellipse class="st0" cx="35.2" cy="24.3" rx="11.5" ry="11.7"/>
		</g>
		<line class="st0" x1="11.3" y1="23.6" x2="22.4" y2="43.1"/>
	</g>
</g>
<rect x="3.3" y="7.7" class="st1" width="50" height="50"/>
<g>
	
		<image style="overflow:visible;enable-background:new    ;" width="488" height="504" xlink:href="CE1141DE.png"  transform="matrix(0.2371 0 0 0.2371 -260.9029 -43.577)">
	</image>
</g>
<g>
	
		<image style="overflow:visible;enable-background:new    ;" width="488" height="504" xlink:href="CE1141D1.png"  transform="matrix(0.2371 0 0 0.2371 -260.9029 -43.577)">
	</image>
</g>
<path class="st2" d="M-208.7,18.5c0.4,0,0.7,0.1,1.1,0.1c0.5,0,0.9,0,1.4-0.1"/>
<path class="st2" d="M-208.7,18.5c0.5,0,0.9-0.1,1.4-0.1c0.4,0,0.7,0,1.1,0"/>
<path class="st2" d="M-191.1,38.8c0.3-1.2,0.4-2.4,0.4-3.7c0-4.1-1.5-7.9-4-10.8"/>
<path class="st2" d="M-208.7,18.5c-8.6,0.7-15.3,7.9-15.3,16.6c0,1.3,0.1,2.5,0.4,3.7"/>
<path class="st2" d="M-206.2,18.5c4.6,0.3,8.7,2.5,11.6,5.8"/>
<path class="st3" d="M-189.6,1c1.4,1.1,2.2,2.8,2.2,4.7s-0.9,3.6-2.2,4.7"/>
<path class="st3" d="M-186.1-3.1c2.5,2,4.1,5.1,4.1,8.6s-1.6,6.6-4.1,8.6"/>
<path class="st2" d="M-208.7,18.5c0.4,0,0.7,0.1,1.1,0.1c0.5,0,0.9,0,1.4-0.1"/>
<path class="st2" d="M-208.7,18.5c0.5,0,0.9-0.1,1.4-0.1c0.4,0,0.7,0,1.1,0"/>
<g>
	<path class="st4" d="M-195.9,8.7"/>
	<path class="st4" d="M-196,1.6"/>
	<path class="st2" d="M-196,1.6c-1.8-4.8-6.4-8.2-11.8-8.2c-6.9,0-12.6,5.6-12.6,12.6s5.6,12.6,12.6,12.6c6,0,10.9-4.2,12.2-9.7"/>
</g>
<g>
	<ellipse class="st5" cx="-91.9" cy="19.4" rx="11.5" ry="11.7"/>
	<path class="st5" d="M-76.6,52.2c0.5-1.6,0.8-3.3,0.8-5c0-8.9-7.2-16.1-16.1-16.1s-16.1,7.2-16.1,16.1c0,1.8,0.3,3.5,0.8,5"/>
</g>
<g>
	<ellipse class="st5" cx="-91.9" cy="-10.6" rx="11.5" ry="11.7"/>
	<path class="st5" d="M-76.6,22.2c0.5-1.6,0.8-3.3,0.8-5c0-8.9-7.2-16.1-16.1-16.1s-16.1,7.2-16.1,16.1c0,1.8,0.3,3.5,0.8,5"/>
</g>
<g>
	<ellipse class="st5" cx="-91.9" cy="-40.6" rx="11.5" ry="11.7"/>
	<path class="st5" d="M-76.6-7.8c0.5-1.6,0.8-3.3,0.8-5c0-8.9-7.2-16.1-16.1-16.1s-16.1,7.2-16.1,16.1c0,1.8,0.3,3.5,0.8,5"/>
</g>
<g>
	<g>
		
			<image style="overflow:visible;" width="108" height="120" xlink:href="CE1141D0.png"  transform="matrix(1 0 0 1 86.1037 -43.817)">
		</image>
	</g>
	<g>
		
			<image style="overflow:visible;" width="108" height="120" xlink:href="CE1141CB.png"  transform="matrix(1 0 0 1 86.1037 -43.817)">
		</image>
	</g>
	<g>
		<ellipse class="st4" cx="140.1" cy="5.6" rx="11.5" ry="11.7"/>
		<path class="st4" d="M155.3,38.4c0.5-1.6,0.8-3.3,0.8-5c0-8.9-7.2-16.1-16.1-16.1s-16.1,7.2-16.1,16.1c0,1.8,0.3,3.5,0.8,5"/>
	</g>
</g>
<g>
	<g>
		<image style="overflow:visible;" width="112" height="104" xlink:href="CE1141CC.png"  transform="matrix(1 0 0 1 -26 -24)">
		</image>
	</g>
	<g>
		<image style="overflow:visible;" width="112" height="104" xlink:href="CE1141CD.png"  transform="matrix(1 0 0 1 -26 -24)">
		</image>
	</g>
	<g>
		<path class="st0" d="M36.8,36.1c5,0.4,9.3,3.1,11.9,7.1"/>
		<g>
			<path class="st0" d="M34.5,36.1c-5,0.4-9.3,3.1-11.9,7.1"/>
			<path class="st0" d="M36.8,36"/>
			<ellipse class="st0" cx="35.2" cy="24.3" rx="11.5" ry="11.7"/>
		</g>
		<line class="st0" x1="11.3" y1="23.6" x2="22.4" y2="43.1"/>
	</g>
</g>
</svg>
