<?xml version="1.0" encoding="utf-8"?>
<!-- Generator: Adobe Illustrator 17.0.0, SVG Export Plug-In . SVG Version: 6.00 Build 0)  -->
<!DOCTYPE svg PUBLIC "-//W3C//DTD SVG 1.1//EN" "http://www.w3.org/Graphics/SVG/1.1/DTD/svg11.dtd">
<svg version="1.1" id="Layer_1" xmlns="http://www.w3.org/2000/svg" xmlns:xlink="http://www.w3.org/1999/xlink" x="0px" y="0px"
	 width="7.5px" height="8.805px" viewBox="6.37 10.313 7.5 8.805" enable-background="new 6.37 10.313 7.5 8.805"
	 xml:space="preserve">
<path fill="none" stroke="#0C0015" stroke-linecap="round" stroke-miterlimit="10" d="M49.729,43.859c0,1.105-0.895,2-2,2h-11
	c-1.105,0-2-0.895-2-2v-11c0-1.105,0.895-2,2-2h11c1.105,0,2,0.895,2,2V43.859z"/>
<g>
	<path d="M8.345,14.722c0-0.072,0-0.126,0-0.181c0-0.856,0.004-1.713-0.001-2.569c-0.002-0.273,0.107-0.493,0.399-0.629
		c0.291-0.136,0.578-0.113,0.852,0.042c0.011,0.006,0.025,0.008,0.058,0.017c0-0.111-0.001-0.214,0-0.317
		c0.002-0.381,0.322-0.665,0.76-0.675c0.427-0.01,0.765,0.26,0.794,0.635c0.001,0.012,0.003,0.024,0.005,0.036
		c0.047,0.021,0.071-0.015,0.1-0.03c0.543-0.264,1.189,0.04,1.196,0.563c0.003,0.246,0.001,0.492,0.001,0.736
		c0.055,0.018,0.079-0.015,0.11-0.031c0.535-0.264,1.184,0.035,1.187,0.554c0.003,0.598-0.007,1.195-0.007,1.793
		c0,0.835,0.007,1.671,0.007,2.506c0,0.336-0.027,0.67-0.154,0.993c-0.224,0.572-0.849,0.949-1.575,0.949
		c-0.788,0-1.576-0.004-2.364,0.002c-0.305,0.002-0.548-0.091-0.745-0.277c-0.125-0.119-0.23-0.249-0.314-0.392
		c-0.553-0.939-1.109-1.877-1.665-2.815c-0.158-0.267-0.305-0.539-0.474-0.802c-0.207-0.323-0.035-0.733,0.354-0.907
		c0.398-0.177,0.892-0.063,1.114,0.264c0.091,0.133,0.164,0.275,0.248,0.411C8.256,14.638,8.265,14.685,8.345,14.722z
		 M13.534,15.107c0.001,0,0.002,0,0.003,0c0-0.165-0.001-0.33,0-0.496c0.006-0.569,0.015-1.139,0.018-1.708
		c0.002-0.269-0.228-0.465-0.529-0.463c-0.296,0.003-0.515,0.195-0.517,0.46c-0.002,0.331,0.001,0.662-0.001,0.994
		c-0.001,0.214-0.007,0.428-0.011,0.642c-0.001,0.071-0.035,0.12-0.13,0.113c-0.093-0.007-0.11-0.059-0.109-0.129
		c0.002-0.363-0.003-0.727-0.003-1.09c-0.001-0.602,0.002-1.204-0.002-1.805c-0.002-0.285-0.276-0.484-0.601-0.446
		c-0.265,0.031-0.445,0.217-0.445,0.468c-0.002,0.792-0.001,1.583-0.001,2.375c0,0.036,0.001,0.073-0.003,0.109
		c-0.007,0.056-0.052,0.088-0.116,0.092c-0.073,0.005-0.122-0.029-0.136-0.087c-0.01-0.039-0.006-0.08-0.006-0.121
		c0-0.893,0-1.785,0-2.678c0-0.101,0.004-0.202-0.003-0.303c-0.018-0.263-0.313-0.447-0.623-0.393
		c-0.252,0.044-0.41,0.213-0.411,0.452c-0.002,0.961-0.001,1.922-0.001,2.884c0,0.08,0.002,0.17-0.124,0.173
		c-0.14,0.004-0.133-0.091-0.133-0.175c0.001-0.396,0-0.792,0-1.187c0-0.291,0.005-0.582-0.002-0.872
		c-0.008-0.308-0.347-0.51-0.685-0.417c-0.225,0.062-0.358,0.228-0.356,0.452c0.007,0.864,0.016,1.728,0.024,2.593
		c0,0.056-0.001,0.113-0.009,0.169c-0.018,0.14-0.107,0.226-0.249,0.247c-0.143,0.02-0.263-0.035-0.34-0.161
		c-0.093-0.151-0.182-0.303-0.274-0.455c-0.056-0.092-0.13-0.177-0.243-0.217c-0.189-0.069-0.475-0.074-0.656,0.1
		c-0.161,0.154-0.193,0.36-0.076,0.552c0.716,1.183,1.428,2.367,2.116,3.56c0.074,0.129,0.168,0.245,0.281,0.352
		c0.142,0.134,0.315,0.203,0.538,0.201c0.807-0.005,1.615-0.003,2.422-0.001c0.144,0,0.28-0.023,0.411-0.07
		c0.449-0.158,0.751-0.422,0.867-0.823c0.09-0.313,0.113-0.63,0.113-0.95C13.534,16.399,13.534,15.753,13.534,15.107z"/>
</g>
</svg>
