<?xml version="1.0" encoding="utf-8"?>
<!-- Generator: Adobe Illustrator 17.0.0, SVG Export Plug-In . SVG Version: 6.00 Build 0)  -->
<!DOCTYPE svg PUBLIC "-//W3C//DTD SVG 1.1//EN" "http://www.w3.org/Graphics/SVG/1.1/DTD/svg11.dtd">
<svg version="1.1" id="Layer_1" xmlns="http://www.w3.org/2000/svg" xmlns:xlink="http://www.w3.org/1999/xlink" x="0px" y="0px"
	 width="26.156px" height="11px" viewBox="-2.302 8.443 26.156 11" enable-background="new -2.302 8.443 26.156 11"
	 xml:space="preserve">
<path fill="none" stroke="#0C0015" stroke-linecap="round" stroke-miterlimit="10" d="M49.729,43.859c0,1.105-0.895,2-2,2h-11
	c-1.105,0-2-0.895-2-2v-11c0-1.105,0.895-2,2-2h11c1.105,0,2,0.895,2,2V43.859z"/>
<g>
	<path fill="none" stroke="#FFFFFF" stroke-width="0.876" stroke-miterlimit="10" d="M20.486,10.966
		c-0.642-0.401-1.283-0.646-1.936-0.857c-3.503-1.133-7.098-1.338-10.735-1.003c-2.391,0.22-4.722,0.69-6.898,1.786
		c-1.638,0.825-2.277,2.171-2.252,3.932c0.005,0.36,0.126,0.519,0.493,0.518c1.916-0.005,3.832-0.001,5.748,0.002
		c0.292,0.001,0.494-0.083,0.562-0.409c0.235-1.13,1.059-1.703,2.059-2.046c2.246-0.771,4.474-0.65,6.647,0.286
		c0.738,0.318,1.319,0.85,1.545,1.66c0.098,0.351,0.258,0.515,0.635,0.513c1.869-0.01,3.738-0.008,5.606,0
		c0.404,0.002,0.603-0.124,0.605-0.57C22.571,13.09,22.065,11.701,20.486,10.966z"/>
	<path fill="none" stroke="#FFFFFF" stroke-width="0.876" stroke-miterlimit="10" d="M16.074,15.318
		c-0.198,0.049-0.381,0.156-0.542,0.36c-0.029,0.087-0.111,0.219-0.113,0.352c-0.008,0.685-0.032,1.372,0.023,2.053
		c0.037,0.463,0.394,0.696,0.846,0.7c2.009,0.014,4.018,0.024,6.028,0.011c0.529-0.004,0.92-0.269,0.942-0.853
		c0.021-0.59,0.019-1.183-0.015-1.771c-0.033-0.573-0.364-0.879-0.927-0.896"/>
	<path fill="none" stroke="#FFFFFF" stroke-width="0.876" stroke-miterlimit="10" d="M-1.066,15.324
		c-0.198,0.049-0.381,0.156-0.542,0.36c-0.029,0.087-0.111,0.219-0.113,0.352c-0.008,0.685-0.032,1.372,0.023,2.053
		c0.037,0.463,0.394,0.696,0.846,0.7c2.009,0.014,4.018,0.024,6.028,0.011c0.529-0.004,0.92-0.269,0.942-0.853
		c0.021-0.59,0.019-1.183-0.015-1.771c-0.033-0.573-0.364-0.879-0.927-0.896"/>
</g>
</svg>
