<?xml version="1.0" encoding="utf-8"?>
<!-- Generator: Adobe Illustrator 17.0.0, SVG Export Plug-In . SVG Version: 6.00 Build 0)  -->
<!DOCTYPE svg PUBLIC "-//W3C//DTD SVG 1.1//EN" "http://www.w3.org/Graphics/SVG/1.1/DTD/svg11.dtd">
<svg version="1.1" id="Layer_1" xmlns="http://www.w3.org/2000/svg" xmlns:xlink="http://www.w3.org/1999/xlink" x="0px" y="0px"
	 width="23.375px" height="26.219px" viewBox="-3.646 0 23.375 26.219" enable-background="new -3.646 0 23.375 26.219"
	 xml:space="preserve">
<g>
	<g>
		<path fill="none" stroke="#FFFFFF" stroke-width="1.1468" stroke-linecap="round" stroke-miterlimit="10" d="M12.748,13.402
			c0,2.589-2.13,4.687-4.756,4.687l0,0c-2.627,0-4.756-2.099-4.756-4.687V5.319c0-2.589,2.13-4.687,4.756-4.687l0,0
			c2.627,0,4.756,2.099,4.756,4.687V13.402z"/>
		<path fill="none" stroke="#FFFFFF" stroke-width="1.1468" stroke-linecap="round" stroke-miterlimit="10" d="M0.649,13.802v-0.607
			c0,3.997,3.288,7.237,7.344,7.237s7.344-3.24,7.344-7.237v0.607"/>
		
			<line fill="none" stroke="#FFFFFF" stroke-width="1.1468" stroke-linecap="round" stroke-miterlimit="10" x1="7.993" y1="20.433" x2="7.993" y2="25.608"/>
		
			<line fill="none" stroke="#FFFFFF" stroke-width="1.1468" stroke-linecap="round" stroke-miterlimit="10" x1="3.04" y1="25.632" x2="12.68" y2="25.584"/>
	</g>
	
		<line fill="none" stroke="#FFFFFF" stroke-width="1.1468" stroke-linecap="round" stroke-miterlimit="10" x1="-2.771" y1="22.109" x2="18.854" y2="0.632"/>
</g>
<g>
	<path fill="none" stroke="#FFFFFF" stroke-width="1.1468" stroke-linecap="round" stroke-miterlimit="10" d="M52.027,3.807
		c0,2.589-2.13,4.687-4.756,4.687l0,0c-2.627,0-4.756-2.099-4.756-4.687v-8.083c0-2.589,2.13-4.687,4.756-4.687l0,0
		c2.627,0,4.756,2.099,4.756,4.687V3.807z"/>
	<path fill="none" stroke="#FFFFFF" stroke-width="1.1468" stroke-linecap="round" stroke-miterlimit="10" d="M39.928,4.207V3.6
		c0,3.997,3.288,7.237,7.344,7.237s7.344-3.24,7.344-7.237v0.607"/>
	
		<line fill="none" stroke="#FFFFFF" stroke-width="1.1468" stroke-linecap="round" stroke-miterlimit="10" x1="47.272" y1="10.838" x2="47.272" y2="16.013"/>
	
		<line fill="none" stroke="#FFFFFF" stroke-width="1.1468" stroke-linecap="round" stroke-miterlimit="10" x1="42.319" y1="16.037" x2="51.959" y2="15.989"/>
</g>
<line fill="none" stroke="#FFFFFF" stroke-width="1.1468" stroke-linecap="round" stroke-miterlimit="10" x1="34.195" y1="13.426" x2="55.82" y2="-8.052"/>
</svg>
