<?xml version="1.0" encoding="utf-8"?>
<!-- Generator: Adobe Illustrator 17.0.0, SVG Export Plug-In . SVG Version: 6.00 Build 0)  -->
<!DOCTYPE svg PUBLIC "-//W3C//DTD SVG 1.1//EN" "http://www.w3.org/Graphics/SVG/1.1/DTD/svg11.dtd">
<svg version="1.1" id="Layer_1" xmlns="http://www.w3.org/2000/svg" xmlns:xlink="http://www.w3.org/1999/xlink" x="0px" y="0px"
	 width="27.328px" height="23.188px" viewBox="-1.172 -3.729 27.328 23.188" enable-background="new -1.172 -3.729 27.328 23.188"
	 xml:space="preserve">
<path fill="none" stroke="#0C0015" stroke-linecap="round" stroke-miterlimit="10" d="M49.729,43.859c0,1.105-0.895,2-2,2h-11
	c-1.105,0-2-0.895-2-2v-11c0-1.105,0.895-2,2-2h11c1.105,0,2,0.895,2,2V43.859z"/>
<g>
	<g>
		<path fill="none" stroke="#FFFFFF" stroke-linecap="round" stroke-miterlimit="10" d="M18.531,13.167
			c0,0.496-0.402,0.897-0.897,0.897H1.48c-0.496,0-0.897-0.402-0.897-0.897V1.5c0-0.496,0.402-0.897,0.897-0.897h16.154
			c0.496,0,0.897,0.402,0.897,0.897V13.167z"/>
		<polygon fill="none" stroke="#FFFFFF" stroke-linecap="square" stroke-linejoin="round" stroke-miterlimit="10" points="
			18.531,4.835 18.531,9.833 25.573,12.427 25.573,2.24 		"/>
	</g>
	
		<line fill="none" stroke="#FFFFFF" stroke-width="1.1468" stroke-linecap="round" stroke-miterlimit="10" x1="-0.46" y1="18.422" x2="21.165" y2="-3.056"/>
</g>
</svg>
