<?xml version="1.0" encoding="utf-8"?>
<!-- Generator: Adobe Illustrator 17.0.0, SVG Export Plug-In . SVG Version: 6.00 Build 0)  -->
<!DOCTYPE svg PUBLIC "-//W3C//DTD SVG 1.1//EN" "http://www.w3.org/Graphics/SVG/1.1/DTD/svg11.dtd">
<svg version="1.1" id="Layer_1" xmlns="http://www.w3.org/2000/svg" xmlns:xlink="http://www.w3.org/1999/xlink" x="0px" y="0px"
	 width="26.156px" height="14.667px" viewBox="-2.302 6.734 26.156 14.667" enable-background="new -2.302 6.734 26.156 14.667"
	 xml:space="preserve">
<path fill="none" stroke="#0C0015" stroke-linecap="round" stroke-miterlimit="10" d="M49.729,43.859c0,1.105-0.895,2-2,2h-11
	c-1.105,0-2-0.895-2-2v-11c0-1.105,0.895-2,2-2h11c1.105,0,2,0.895,2,2V43.859z"/>
<path fill="none" stroke="#FFFFFF" stroke-linecap="round" stroke-miterlimit="10" d="M16.261,19.965
	c0,0.496-0.402,0.897-0.897,0.897H-0.79c-0.496,0-0.897-0.402-0.897-0.897V8.299c0-0.496,0.402-0.897,0.897-0.897h16.154
	c0.496,0,0.897,0.402,0.897,0.897V19.965z"/>
<polygon fill="none" stroke="#FFFFFF" stroke-linecap="square" stroke-linejoin="round" stroke-miterlimit="10" points="
	16.261,11.633 16.261,16.631 23.303,19.226 23.303,9.038 "/>
</svg>
