<?xml version="1.0" encoding="utf-8"?>
<!-- Generator: Adobe Illustrator 17.0.0, SVG Export Plug-In . SVG Version: 6.00 Build 0)  -->
<!DOCTYPE svg PUBLIC "-//W3C//DTD SVG 1.1//EN" "http://www.w3.org/Graphics/SVG/1.1/DTD/svg11.dtd">
<svg version="1.1" id="Layer_1" xmlns="http://www.w3.org/2000/svg" xmlns:xlink="http://www.w3.org/1999/xlink" x="0px" y="0px"
	 width="115.427px" height="123.5px" viewBox="0 0 115.427 123.5" enable-background="new 0 0 115.427 123.5" xml:space="preserve">
<g>
	<path fill="#FFFFFF" d="M32.207,1.835c0.239,0.048,0.481,0.084,0.717,0.144c0.862,0.22,1.582,0.652,2.144,1.363
		c1.228,1.555,2.477,3.093,3.717,4.637c0.25,0.311,0.251,0.316-0.147,0.381c-2.097,0.34-4.15,0.855-6.157,1.555
		c-3.058,1.066-5.922,2.517-8.594,4.347c-2.176,1.49-4.165,3.198-5.975,5.115c-0.539,0.571-1.057,1.162-1.559,1.766
		c-0.226,0.273-0.256,0.269-0.379-0.047c-0.748-1.919-1.501-3.835-2.237-5.759c-0.288-0.754-0.232-1.527-0.013-2.29
		c0.227-0.79,0.631-1.492,1.114-2.151c0.591-0.807,1.294-1.51,2.037-2.174c1.222-1.09,2.56-2.022,3.95-2.881
		c1.612-0.996,3.275-1.9,5.022-2.642c1.288-0.547,2.606-0.999,3.988-1.245c0.249-0.044,0.498-0.08,0.748-0.119
		C31.125,1.835,31.666,1.835,32.207,1.835z"/>
	<path fill="#FFFFFF" d="M85.496,1c0.421,0.078,0.847,0.124,1.266,0.22c1.133,0.257,2.23,0.624,3.295,1.082
		c2.724,1.17,5.274,2.644,7.644,4.424c1.128,0.847,2.174,1.787,3.056,2.896c0.565,0.71,1.036,1.474,1.299,2.351
		c0.26,0.865,0.251,1.714-0.091,2.568c-0.707,1.768-1.385,3.548-2.077,5.322c-0.157,0.403-0.163,0.404-0.433,0.079
		c-2.731-3.286-5.941-6.008-9.635-8.156c-3.115-1.81-6.429-3.12-9.943-3.923c-0.786-0.18-1.577-0.331-2.373-0.459
		c-0.042-0.007-0.086-0.008-0.127-0.02c-0.122-0.034-0.138-0.076-0.068-0.181c0.043-0.064,0.094-0.122,0.142-0.182
		c1.209-1.505,2.427-3.002,3.621-4.519c0.617-0.784,1.418-1.222,2.375-1.416C83.598,1.056,83.75,1.029,83.901,1
		C84.432,1,84.964,1,85.496,1z"/>
	<circle fill="none" stroke="#FFFFFF" stroke-width="5" stroke-miterlimit="10" cx="57.96" cy="65.784" r="54.757"/>
	
		<line fill="none" stroke="#FFFFFF" stroke-width="5" stroke-linecap="round" stroke-miterlimit="10" x1="58.167" y1="28.207" x2="58.167" y2="65.907"/>
	
		<line fill="none" stroke="#FFFFFF" stroke-width="5" stroke-linecap="round" stroke-miterlimit="10" x1="20.467" y1="65.907" x2="58.167" y2="65.907"/>
</g>
</svg>
