<?xml version="1.0" encoding="utf-8"?>
<!-- Generator: Adobe Illustrator 17.0.0, SVG Export Plug-In . SVG Version: 6.00 Build 0)  -->
<!DOCTYPE svg PUBLIC "-//W3C//DTD SVG 1.1//EN" "http://www.w3.org/Graphics/SVG/1.1/DTD/svg11.dtd">
<svg version="1.1" id="Layer_1" xmlns="http://www.w3.org/2000/svg" xmlns:xlink="http://www.w3.org/1999/xlink" x="0px" y="0px"
	 width="57.896px" height="57.917px" viewBox="0 0 57.896 57.917" enable-background="new 0 0 57.896 57.917" xml:space="preserve">
<image overflow="visible" width="234" height="67" xlink:href="EC76F467.jpg"  transform="matrix(1 0 0 1 -324.2089 -47.8806)">
</image>
<polyline fill="none" stroke="#000000" stroke-miterlimit="10" points="-100.715,-84.644 -90.283,-79.098 -100.715,-73.505 "/>
<rect x="-108.979" y="-84.583" fill="none" stroke="#000000" stroke-miterlimit="10" width="8" height="11"/>
<polyline fill="none" stroke="#000000" stroke-miterlimit="10" points="-187.715,-84.644 -182.854,-79.396 -187.715,-73.505 "/>
<polyline fill="none" stroke="#000000" stroke-miterlimit="10" points="-187.479,-84.583 -194.979,-84.583 -194.979,-73.583 
	-187.479,-73.583 "/>
<g>
	<polyline fill="none" stroke="#000000" stroke-miterlimit="10" points="-61.854,-57.771 -56.854,-52.396 -61.715,-46.505 	"/>
	<polyline fill="none" stroke="#000000" stroke-miterlimit="10" points="-61.479,-57.583 -68.979,-57.583 -68.979,-46.583 
		-61.479,-46.583 	"/>
</g>
<g>
	<polyline fill="none" stroke="#000000" stroke-width="1.2614" stroke-miterlimit="10" points="-68.715,-89.227 -58.283,-80.404 
		-68.715,-71.505 	"/>
	<rect x="-76.979" y="-89.583" fill="none" stroke="#000000" stroke-miterlimit="10" width="8" height="18"/>
</g>
<circle fill="none" stroke="#000000" stroke-width="0.75" stroke-miterlimit="10" cx="-190.146" cy="-79.083" r="8.25"/>
<circle fill="none" stroke="#000000" stroke-width="0.9318" stroke-miterlimit="10" cx="-64.146" cy="-52.083" r="10.25"/>
<polyline fill="none" stroke="#000000" stroke-miterlimit="10" points="-155.715,-84.644 -150.854,-79.396 -155.715,-73.505 "/>
<polyline fill="none" stroke="#000000" stroke-miterlimit="10" points="-155.479,-84.583 -162.979,-84.583 -162.979,-73.583 
	-155.479,-73.583 "/>
<circle fill="none" stroke="#000000" stroke-width="0.75" stroke-miterlimit="10" cx="-158.146" cy="-79.083" r="8.25"/>
<circle opacity="0.5" fill="#6029A9" cx="-160.146" cy="8.917" r="8.25"/>
<circle fill="none" stroke="#000000" stroke-miterlimit="10" cx="-114.146" cy="-60.083" r="8.25"/>
<circle fill="none" stroke="#000000" stroke-miterlimit="10" cx="-92.146" cy="-66.083" r="8.25"/>
<line fill="none" stroke="#000000" stroke-width="3" stroke-miterlimit="10" x1="-96.479" y1="-66.583" x2="-90.479" y2="-66.583"/>
<image overflow="visible" width="277" height="139" xlink:href="EC76F465.jpg"  transform="matrix(0.3573 0 0 0.3573 129.8867 26.9527)">
</image>
<polygon opacity="0.7" fill="#6029A9" points="-90.479,-11.438 -65.113,-26.083 -90.479,-40.728 "/>
<polygon points="-90.479,-63.996 -86.385,-66.568 -90.479,-69.139 "/>
<polyline opacity="0.7" fill="none" stroke="#6029A9" stroke-width="1.5758" stroke-miterlimit="10" points="-112.739,-43.365 
	-103.514,-35.562 -112.739,-27.692 "/>
<g>
	<circle opacity="0.5" fill="#6029A9" cx="28.854" cy="28.917" r="28.711"/>
	<polyline opacity="0.7" fill="none" stroke="#6029A9" stroke-width="5.4837" stroke-miterlimit="10" points="20.918,10.626 
		41.292,27.859 20.918,45.239 	"/>
</g>
<circle opacity="0.5" fill="#6029A9" cx="-35.146" cy="-120.083" r="8.25"/>
<polyline opacity="0.7" fill="none" stroke="#6029A9" stroke-width="1.5758" stroke-miterlimit="10" points="-53.426,-120.339 
	-47.572,-115.387 -53.426,-110.393 "/>
<circle opacity="0.7" fill="none" stroke="#6029A9" stroke-width="1.5758" stroke-miterlimit="10" cx="-109.146" cy="-35.083" r="13"/>
<polygon opacity="0.5" fill="#6029A9" points="-38.479,-114.965 -29.613,-120.083 -38.479,-125.202 "/>
</svg>
