<?xml version="1.0" encoding="utf-8"?>
<!-- Generator: Adobe Illustrator 17.0.0, SVG Export Plug-In . SVG Version: 6.00 Build 0)  -->
<!DOCTYPE svg PUBLIC "-//W3C//DTD SVG 1.1//EN" "http://www.w3.org/Graphics/SVG/1.1/DTD/svg11.dtd">
<svg version="1.1" id="Layer_1" xmlns="http://www.w3.org/2000/svg" xmlns:xlink="http://www.w3.org/1999/xlink" x="0px" y="0px"
	 width="103.5px" height="80.718px" viewBox="110 54.782 103.5 80.718" enable-background="new 110 54.782 103.5 80.718"
	 xml:space="preserve">
<path fill="none" stroke="#CACCCE" stroke-width="3.6911" stroke-miterlimit="10" d="M107.565,141.562"/>
<path fill="none" stroke="#CACCCE" stroke-width="3.6911" stroke-miterlimit="10" d="M107.565,54.782"/>
<g>
	<path fill="none" stroke="#FFFFFF" stroke-width="3.5" stroke-miterlimit="10" d="M179.224,119.843
		c-8.809,0.723-16.45,5.527-21.067,12.505"/>
	<path fill="none" stroke="#FFFFFF" stroke-width="3.5" stroke-miterlimit="10" d="M183.411,119.808"/>
	
		<ellipse fill="none" stroke="#FFFFFF" stroke-width="3.5" stroke-miterlimit="10" cx="180.539" cy="99.054" rx="20.462" ry="20.754"/>
</g>
<path fill="none" stroke="#FFFFFF" stroke-width="3.5" stroke-miterlimit="10" d="M183.385,119.843
	c8.809,0.723,16.45,5.527,21.067,12.505"/>
<line fill="none" stroke="#FFFFFF" stroke-width="3.5" stroke-miterlimit="10" x1="133.209" y1="99.054" x2="152.898" y2="133.657"/>
<path fill="none" stroke="#FFFFFF" stroke-width="3.5" stroke-miterlimit="10" d="M210.74,123.308c0,5.202-3.732,9.42-8.335,9.42
	h-80.57c-4.603,0-8.335-4.217-8.335-9.42V66.791c0-5.202,3.732-9.42,8.335-9.42h80.57c4.603,0,8.335,4.217,8.335,9.42V123.308z"/>
<path fill="none" stroke="#FFFFFF" stroke-miterlimit="10" d="M98.499,89.197"/>
</svg>
