<?xml version="1.0" encoding="utf-8"?>
<!-- Generator: Adobe Illustrator 17.0.0, SVG Export Plug-In . SVG Version: 6.00 Build 0)  -->
<!DOCTYPE svg PUBLIC "-//W3C//DTD SVG 1.1//EN" "http://www.w3.org/Graphics/SVG/1.1/DTD/svg11.dtd">
<svg version="1.1" id="Layer_1" xmlns="http://www.w3.org/2000/svg" xmlns:xlink="http://www.w3.org/1999/xlink" x="0px" y="0px"
	 width="102.167px" height="70.75px" viewBox="112.917 60.833 102.167 70.75" enable-background="new 112.917 60.833 102.167 70.75"
	 xml:space="preserve">
<g id="Layer_2">
</g>
<g id="Layer_2_1_" opacity="1" enable-background="new    ">
	<path opacity="0.6" fill="#3188DF" enable-background="new    " d="M212.746,123.807c0,2.22-1.89,4.02-4.221,4.02h-90.057
		c-2.331,0-4.221-1.799-4.221-4.02V64.853c0-2.22,1.89-4.02,4.221-4.02h90.057c2.331,0,4.221,1.799,4.221,4.02V123.807z"/>
</g>
<path fill="none" stroke="#FFFFFF" stroke-width="3" stroke-linecap="round" stroke-miterlimit="10" d="M195.089,103.296
	c5.577,0.335,10.529,2.749,13.943,6.405"/>
<path fill="none" stroke="#FFFFFF" stroke-width="3" stroke-linecap="round" stroke-miterlimit="10" d="M213.044,125.895
	c0.301-1.325,0.465-2.702,0.465-4.118c0-4.61-1.688-8.825-4.477-12.076"/>
<path fill="none" stroke="#FFFFFF" stroke-width="3" stroke-linecap="round" stroke-miterlimit="10" d="M194.202,103.31
	c-10.135,0.782-18.102,8.755-18.102,18.481c0,1.411,0.173,2.783,0.491,4.104"/>
<ellipse fill="none" stroke="#FFFFFF" stroke-width="3" stroke-linecap="round" stroke-linejoin="round" stroke-miterlimit="10" cx="195.089" cy="89.433" rx="13.649" ry="13.776"/>
<g>
	<path fill="none" stroke="#FFFFFF" stroke-width="3" stroke-miterlimit="10" d="M143.017,103.776
		c-5.876,0.48-10.972,3.669-14.052,8.301"/>
	<path fill="none" stroke="#FFFFFF" stroke-width="3" stroke-miterlimit="10" d="M145.81,103.753"/>
	
		<ellipse fill="none" stroke="#FFFFFF" stroke-width="3" stroke-miterlimit="10" cx="143.895" cy="89.977" rx="13.649" ry="13.776"/>
</g>
<path fill="none" stroke="#FFFFFF" stroke-width="3" stroke-miterlimit="10" d="M145.792,103.776
	c5.876,0.48,10.972,3.669,14.052,8.301"/>
<path fill="none" stroke="#FFFFFF" stroke-width="3.0315" stroke-miterlimit="10" d="M170.767,106.642
	c0,3.255-2.983,5.894-6.662,5.894h-42.193c-3.679,0-6.662-2.639-6.662-5.894v-37.33c0-3.255,2.983-5.894,6.662-5.894h42.193
	c3.679,0,6.662,2.639,6.662,5.894V106.642z"/>
<path fill="none" stroke="#FFFFFF" stroke-width="2.8072" stroke-miterlimit="10" d="M213.203,125.46
	c0,2.468-2.193,4.469-4.898,4.469h-88.157c-2.705,0-4.898-2.001-4.898-4.469V67.358c0-2.468,2.193-4.469,4.898-4.469h88.157
	c2.705,0,4.898,2.001,4.898,4.469V125.46z"/>
</svg>
