<?xml version="1.0" encoding="utf-8"?>
<!-- Generator: Adobe Illustrator 17.0.0, SVG Export Plug-In . SVG Version: 6.00 Build 0)  -->
<!DOCTYPE svg PUBLIC "-//W3C//DTD SVG 1.1//EN" "http://www.w3.org/Graphics/SVG/1.1/DTD/svg11.dtd">
<svg version="1.1" xmlns="http://www.w3.org/2000/svg" xmlns:xlink="http://www.w3.org/1999/xlink" x="0px" y="0px" width="99px"
	 height="69.833px" viewBox="112.417 60.129 99 69.833" enable-background="new 112.417 60.129 99 69.833" xml:space="preserve">
<g id="Layer_2">
	<path opacity="0.4" fill="#3DDAFF" enable-background="new    " d="M206.417,122.117c0,2.676-2.17,4.845-4.845,4.845h-81.888
		c-2.676,0-4.845-2.17-4.845-4.845v-53.94c0-2.676,2.17-4.845,4.845-4.845h81.888c2.676,0,4.845,2.17,4.845,4.845V122.117z"/>
</g>
<g id="Layer_1">
	<rect x="250.167" y="30.071" fill="none" width="139.333" height="27.899"/>
	<text transform="matrix(1 0 0 1 250.1667 38.5911)" font-family="'MyriadPro-Regular'" font-size="12">online interview icon 2. No </text>
	<text transform="matrix(1 0 0 1 250.1667 52.9911)" font-family="'MyriadPro-Regular'" font-size="12">visible aquí por ser blanco</text>
	<g>
		<path fill="none" stroke="#FFFFFF" stroke-width="3" stroke-miterlimit="10" d="M185.75,115.426
			c8.289,0.681,15.478,5.2,19.822,11.767"/>
		<g>
			<path fill="none" stroke="#FFFFFF" stroke-width="3" stroke-miterlimit="10" d="M181.835,115.426
				c-8.289,0.681-15.478,5.2-19.822,11.767"/>
			<path fill="none" stroke="#FFFFFF" stroke-width="3" stroke-miterlimit="10" d="M185.774,115.393"/>
			
				<ellipse fill="none" stroke="#FFFFFF" stroke-width="3" stroke-miterlimit="10" cx="183.072" cy="95.865" rx="19.254" ry="19.528"/>
		</g>
		
			<line fill="none" stroke="#FFFFFF" stroke-width="3" stroke-miterlimit="10" x1="143.205" y1="94.633" x2="161.732" y2="127.192"/>
		<path fill="none" stroke="#FFFFFF" stroke-width="3" stroke-miterlimit="10" d="M209.263,122.971c0,2.761-2.239,5-5,5h-84.5
			c-2.761,0-5-2.239-5-5v-55.66c0-2.761,2.239-5,5-5h84.5c2.761,0,5,2.239,5,5V122.971z"/>
	</g>
	<path fill="#5A5B55" d="M-125.976,236.483c-4.306,0.02-7.823-1.401-10.84-4.198c-1.271-1.178-2.303-2.584-2.738-4.335
		c-0.261-1.051-0.531-2.361,0.254-3.154c0.648-0.654,1.56,0.221,2.299,0.506c7.039,2.723,14.032,2.68,21.028-0.177
		c2.499-1.021,3.05-0.501,2.694,2.367c-0.536,4.319-5.12,8.213-10.484,8.876C-124.589,236.47-125.426,236.456-125.976,236.483z"/>
</g>
</svg>
