<?xml version="1.0" encoding="utf-8"?>
<!-- Generator: Adobe Illustrator 17.0.0, SVG Export Plug-In . SVG Version: 6.00 Build 0)  -->
<!DOCTYPE svg PUBLIC "-//W3C//DTD SVG 1.1//EN" "http://www.w3.org/Graphics/SVG/1.1/DTD/svg11.dtd">
<svg version="1.1" id="Layer_1" xmlns="http://www.w3.org/2000/svg" xmlns:xlink="http://www.w3.org/1999/xlink" x="0px" y="0px"
	 width="84.167px" height="108.333px" viewBox="27.833 38.333 84.167 108.333"
	 enable-background="new 27.833 38.333 84.167 108.333" xml:space="preserve">
<path fill="none" stroke="#FFFFFF" stroke-miterlimit="10" d="M76.814,94.775"/>
<path fill="none" stroke="#FFFFFF" stroke-width="3.5" stroke-miterlimit="10" d="M108.565,77.587v62.327
	c0,2.099-1.702,3.801-3.801,3.801H53.803"/>
<path fill="none" stroke="#FFFFFF" stroke-miterlimit="10" d="M108.565,140.855"/>
<path fill="none" stroke="#FFFFFF" stroke-miterlimit="10" d="M108.565,68.531"/>
<path fill="none" stroke="#FFFFFF" stroke-width="3.5" stroke-miterlimit="10" d="M108.565,78.001l-0.19-33.021
	c0-2.099-1.805-3.881-3.904-3.881H35.301c-2.099,0-3.801,1.701-3.801,3.8v76.9"/>
<path fill="none" stroke="#FFFFFF" stroke-width="3.5" stroke-miterlimit="10" d="M54.37,143.099v-16.542
	c0-2.653-2.213-4.804-4.943-4.804H32.795"/>
<line fill="none" stroke="#FFFFFF" stroke-width="3.5" stroke-miterlimit="10" x1="30.953" y1="120.532" x2="55.187" y2="144.251"/>
<path fill="none" stroke="#FFFFFF" stroke-miterlimit="10" d="M114.999,68.531"/>
<path fill="none" stroke="#FFFFFF" stroke-miterlimit="10" d="M108.565,54.074"/>
<polyline fill="none" stroke="#FFFFFF" stroke-width="1.25" stroke-miterlimit="10" points="44.009,66.52 39.666,75.159 
	44.839,74.573 47.279,79.161 51.818,70.18 "/>
<polyline fill="none" stroke="#FFFFFF" stroke-width="1.25" stroke-miterlimit="10" points="52.375,70.063 57.501,78.884 
	59.907,74.267 65.075,74.807 59.775,66.024 "/>
<circle fill="none" stroke="#FFFFFF" stroke-width="1.25" stroke-miterlimit="10" cx="51.818" cy="60.257" r="4.993"/>
<circle fill="none" stroke="#FFFFFF" stroke-width="1.25" stroke-miterlimit="10" cx="51.818" cy="60.257" r="9.859"/>
</svg>
