<?xml version="1.0" encoding="utf-8"?>
<!-- Generator: Adobe Illustrator 17.0.0, SVG Export Plug-In . SVG Version: 6.00 Build 0)  -->
<!DOCTYPE svg PUBLIC "-//W3C//DTD SVG 1.1//EN" "http://www.w3.org/Graphics/SVG/1.1/DTD/svg11.dtd">
<svg version="1.1" id="Layer_1" xmlns="http://www.w3.org/2000/svg" xmlns:xlink="http://www.w3.org/1999/xlink" x="0px" y="0px"
	 width="81.833px" height="70.833px" viewBox="126.417 60.026 81.833 70.833" enable-background="new 126.417 60.026 81.833 70.833"
	 xml:space="preserve">
<path fill="none" stroke="#CACCCE" stroke-width="3.6911" stroke-miterlimit="10" d="M-1.134,141.562"/>
<path fill="none" stroke="#CACCCE" stroke-width="3.6911" stroke-miterlimit="10" d="M-1.134,54.782"/>
<path fill="none" stroke="#CACCCE" stroke-width="3.6911" stroke-miterlimit="10" d="M100.732,32.434"/>
<path fill="none" stroke="#FFFFFF" stroke-width="2" stroke-miterlimit="10" d="M64.881,103.836"/>
<path fill="none" stroke="#FFFFFF" stroke-width="3.5" stroke-miterlimit="10" d="M100.732,123.019c0,5.132-3.681,9.293-8.223,9.293
	H13.023c-4.541,0-8.223-4.161-8.223-9.293V67.263c0-5.132,3.681-9.293,8.223-9.293h79.486c4.541,0,8.223,4.161,8.223,9.293V123.019z
	"/>
<path fill="none" stroke="#FFFFFF" stroke-width="2" stroke-miterlimit="10" d="M43.111,96.665V76.899
	c0-2.509,1.6-4.542,3.574-4.542c1.974,0,3.574,2.034,3.574,4.542"/>
<path fill="none" stroke="#FFFFFF" stroke-width="2" stroke-miterlimit="10" d="M57.409,73.98v-3.425c0-2.155-1.6-3.903-3.574-3.903
	c-1.974,0-3.574,1.747-3.574,3.903v6.344"/>
<line fill="none" stroke="#FFFFFF" stroke-width="2" stroke-miterlimit="10" x1="50.26" y1="76.899" x2="50.26" y2="90.665"/>
<path fill="none" stroke="#FFFFFF" stroke-width="2" stroke-miterlimit="10" d="M64.886,90.189L64.777,73.98
	c0-2.155-1.649-3.903-3.684-3.903c-2.034,0-3.684,1.747-3.684,3.903"/>
<line fill="none" stroke="#FFFFFF" stroke-width="2" stroke-miterlimit="10" x1="57.409" y1="73.98" x2="57.409" y2="91.484"/>
<path fill="none" stroke="#FFFFFF" stroke-width="2" stroke-miterlimit="10" d="M64.886,94.129V82.602
	c0-2.155,1.649-3.903,3.684-3.903s3.684,1.747,3.684,3.903v30.191c0,0,0.013,10.522-7.367,10.74s-14.856,0-14.856,0
	s-3.107,0.093-4.693-3.22L33.315,95.212c-1.08-1.865-0.528-4.204,1.233-5.223s4.063-0.333,5.143,1.532l3.421,5.144"/>
<rect x="250.167" y="30.071" fill="none" width="139.333" height="27.899"/>
<text transform="matrix(1 0 0 1 250.1667 38.5911)" font-family="'MyriadPro-Regular'" font-size="12">online interview icon 2. No </text>
<text transform="matrix(1 0 0 1 250.1667 52.9911)" font-family="'MyriadPro-Regular'" font-size="12">visible aquí por ser blanco</text>
<circle opacity="0.3" fill="#7D88FF" enable-background="new    " cx="162.226" cy="95.449" r="32.145"/>
<g>
	<circle fill="none" stroke="#FFFFFF" stroke-width="3" stroke-miterlimit="10" cx="162.226" cy="95.449" r="11.132"/>
	<circle fill="none" stroke="#FFFFFF" stroke-width="3" stroke-miterlimit="10" cx="162.226" cy="95.449" r="20.622"/>
	<circle fill="none" stroke="#FFFFFF" stroke-width="3" stroke-miterlimit="10" cx="162.226" cy="95.449" r="2.891"/>
	<circle fill="none" stroke="#FFFFFF" stroke-width="3" stroke-miterlimit="10" cx="162.226" cy="95.449" r="33.485"/>
	<g>
		<line fill="none" stroke="#FFFFFF" stroke-width="3" stroke-miterlimit="10" x1="162.323" y1="95.211" x2="194.852" y2="77.084"/>
		<polygon fill="none" stroke="#FFFFFF" stroke-width="3" stroke-miterlimit="10" points="194.827,77.117 200.807,67.988 
			205.629,77.794 		"/>
	</g>
</g>
</svg>
