<?xml version="1.0" encoding="utf-8"?>
<!-- Generator: Adobe Illustrator 24.3.0, SVG Export Plug-In . SVG Version: 6.00 Build 0)  -->
<svg version="1.1" id="Layer_1" xmlns="http://www.w3.org/2000/svg" xmlns:xlink="http://www.w3.org/1999/xlink" x="0px" y="0px"
	 viewBox="0 0 22 22.8" style="enable-background:new 0 0 22 22.8;" xml:space="preserve">
<style type="text/css">
	.st0{fill:none;stroke:#7a7a7a;stroke-miterlimit:10;}
	.st1{fill:none;stroke:#7a7a7a;stroke-width:1.1225;stroke-miterlimit:10;}
	.st2{fill:none;stroke:#7a7a7a;stroke-width:1.1225;stroke-linecap:round;stroke-linejoin:round;}
	.st3{fill:none;stroke:#7a7a7a;stroke-width:2;stroke-linecap:round;stroke-miterlimit:10;}
</style>
<line class="st0" x1="44.5" y1="0.9" x2="44.5" y2="32.9"/>
<line class="st0" x1="28" y1="17.4" x2="60" y2="17.4"/>
<rect x="-71.5" y="-10.6" class="st0" width="17" height="17"/>
<circle class="st0" cx="-63" cy="0.9" r="2.6"/>
<rect x="-67.5" y="-10.6" class="st0" width="9" height="5"/>
<rect x="-115.5" y="-39.6" class="st0" width="9" height="5"/>
<path class="st0" d="M36.5-32.6c0,1.7-1.3,3-3,3h-4c-1.7,0-3-1.3-3-3l0,0c0-1.7,1.3-3,3-3h4C35.2-35.6,36.5-34.3,36.5-32.6
	L36.5-32.6z"/>
<path class="st0" d="M56.5-32.6c0,1.7-1.3,3-3,3h-4c-1.7,0-3-1.3-3-3l0,0c0-1.7,1.3-3,3-3h4C55.2-35.6,56.5-34.3,56.5-32.6
	L56.5-32.6z"/>
<path class="st0" d="M24.5-37.6c0,1.1-0.9,2-2,2h-6c-1.1,0-2-0.9-2-2v-2c0-1.1,0.9-2,2-2h6c1.1,0,2,0.9,2,2V-37.6z"/>
<rect x="-72.5" y="-38.6" class="st0" width="19" height="19"/>
<circle class="st0" cx="-63" cy="-25.1" r="2.8"/>
<path class="st0" d="M-57.5-34.6c0,0.6-0.4,1-1,1h-8c-0.6,0-1-0.4-1-1v-3c0-0.6,0.4-1,1-1h8c0.6,0,1,0.4,1,1V-34.6z"/>
<g>
	<ellipse class="st1" cx="-86.1" cy="-29.1" rx="3" ry="2.9"/>
	<path class="st0" d="M-84.5-36c0,0.3-0.3,0.4-0.8,0.4h-6.3c-0.5,0-1-0.1-1-0.4v-2c0-0.3,0.5-0.6,1-0.6h6.3c0.5,0,0.8,0.3,0.8,0.6
		V-36z"/>
	<polyline class="st0" points="-80,-38.6 -94.5,-38.6 -94.5,-19.6 -75.5,-19.6 -75.5,-33.1 	"/>
	<line class="st2" x1="-80.1" y1="-38.5" x2="-75.6" y2="-33.1"/>
</g>
<polyline class="st0" points="-104,-39.6 -118.5,-39.6 -118.5,-20.6 -99.5,-20.6 -99.5,-34.1 "/>
<line class="st2" x1="-104.1" y1="-39.5" x2="-99.6" y2="-34.1"/>
<line class="st0" x1="-116" y1="-23.6" x2="-106" y2="-23.6"/>
<line class="st0" x1="-116" y1="-26.6" x2="-106" y2="-26.6"/>
<line class="st0" x1="-116" y1="-29.6" x2="-106" y2="-29.6"/>
<line class="st3" x1="1.2" y1="1.1" x2="20.8" y2="21.7"/>
<line class="st3" x1="1.2" y1="21.7" x2="20.8" y2="1.1"/>
</svg>
