<?xml version="1.0" encoding="utf-8"?>
<!-- Generator: Adobe Illustrator 24.3.0, SVG Export Plug-In . SVG Version: 6.00 Build 0)  -->
<svg version="1.1" id="Layer_1" xmlns="http://www.w3.org/2000/svg" xmlns:xlink="http://www.w3.org/1999/xlink" x="0px" y="0px"
	 viewBox="0 0 21.5 21.4" style="enable-background:new 0 0 21.5 21.4;" xml:space="preserve">
<style type="text/css">
	.st0{fill:none;stroke:#7a7a7a;stroke-miterlimit:10;}
	.st1{fill:none;stroke:#7a7a7a;stroke-width:1.1225;stroke-miterlimit:10;}
	.st2{fill:none;stroke:#7a7a7a;stroke-width:1.1225;stroke-linecap:round;stroke-linejoin:round;}
	.st3{fill:none;stroke:#7a7a7a;stroke-width:2;stroke-miterlimit:10;}
</style>
<line class="st0" x1="44.8" y1="0.3" x2="44.8" y2="32.3"/>
<line class="st0" x1="28.3" y1="16.8" x2="60.3" y2="16.8"/>
<rect x="-71.2" y="-11.2" class="st0" width="17" height="17"/>
<circle class="st0" cx="-62.7" cy="0.3" r="2.6"/>
<rect x="-67.2" y="-11.2" class="st0" width="9" height="5"/>
<rect x="-115.2" y="-40.2" class="st0" width="9" height="5"/>
<path class="st0" d="M36.8-33.2c0,1.7-1.3,3-3,3h-4c-1.7,0-3-1.3-3-3l0,0c0-1.7,1.3-3,3-3h4C35.5-36.2,36.8-34.8,36.8-33.2
	L36.8-33.2z"/>
<path class="st0" d="M56.8-33.2c0,1.7-1.3,3-3,3h-4c-1.7,0-3-1.3-3-3l0,0c0-1.7,1.3-3,3-3h4C55.5-36.2,56.8-34.8,56.8-33.2
	L56.8-33.2z"/>
<path class="st0" d="M24.8-38.2c0,1.1-0.9,2-2,2h-6c-1.1,0-2-0.9-2-2v-2c0-1.1,0.9-2,2-2h6c1.1,0,2,0.9,2,2V-38.2z"/>
<g>
	<ellipse class="st1" cx="-85.8" cy="-29.7" rx="3" ry="2.9"/>
	<path class="st0" d="M-84.2-36.6c0,0.3-0.3,0.4-0.8,0.4h-6.3c-0.5,0-1-0.1-1-0.4v-2c0-0.3,0.5-0.6,1-0.6h6.3c0.5,0,0.8,0.3,0.8,0.6
		V-36.6z"/>
	<polyline class="st0" points="-79.7,-39.2 -94.2,-39.2 -94.2,-20.2 -75.2,-20.2 -75.2,-33.7 	"/>
	<line class="st2" x1="-79.8" y1="-39.1" x2="-75.3" y2="-33.7"/>
</g>
<polyline class="st0" points="-103.7,-40.2 -118.2,-40.2 -118.2,-21.2 -99.2,-21.2 -99.2,-34.7 "/>
<line class="st2" x1="-103.8" y1="-40.1" x2="-99.3" y2="-34.7"/>
<line class="st0" x1="-115.7" y1="-24.2" x2="-105.7" y2="-24.2"/>
<line class="st0" x1="-115.7" y1="-27.2" x2="-105.7" y2="-27.2"/>
<line class="st0" x1="-115.7" y1="-30.2" x2="-105.7" y2="-30.2"/>
<rect x="1.3" y="1.3" class="st3" width="19" height="19"/>
<path class="st0" d="M-8.2-16.2c0,0.6-0.4,1-1,1h-11c-0.6,0-1-0.4-1-1v-11c0-0.6,0.4-1,1-1h11c0.6,0,1,0.4,1,1V-16.2z"/>
<path class="st3" d="M16.5,5.8C16.5,6.5,16,7,15.3,7H7.3C6.6,7,6.1,6.5,6.1,5.8V2.5c0-0.7,0.5-1.2,1.2-1.2h8.1
	c0.7,0,1.2,0.5,1.2,1.2V5.8z"/>
<circle class="st3" cx="10.8" cy="13.2" r="2.8"/>
</svg>
