<?xml version="1.0" encoding="utf-8"?>
<!-- Generator: Adobe Illustrator 17.0.0, SVG Export Plug-In . SVG Version: 6.00 Build 0)  -->
<!DOCTYPE svg PUBLIC "-//W3C//DTD SVG 1.1//EN" "http://www.w3.org/Graphics/SVG/1.1/DTD/svg11.dtd">
<svg version="1.1" id="Layer_1" xmlns="http://www.w3.org/2000/svg" xmlns:xlink="http://www.w3.org/1999/xlink" x="0px" y="0px"
	 width="28.719px" height="28.792px" viewBox="0 0 28.719 28.792" enable-background="new 0 0 28.719 28.792" xml:space="preserve">
<g id="Layer_2">
</g>
<g>
	<path fill="none" stroke="#E9000D" stroke-width="1.505" stroke-miterlimit="10" d="M27.548,18.845
		c-0.217-0.941-0.575-1.74-0.973-2.519c-2.138-4.181-5.196-7.609-8.778-10.588C15.442,3.779,12.915,2.1,9.964,1.126
		C7.742,0.393,5.952,1.031,4.387,2.642c-0.32,0.329-0.355,0.582-0.023,0.912c1.733,1.724,3.458,3.455,5.183,5.187
		c0.263,0.263,0.521,0.371,0.875,0.138c1.231-0.808,2.491-0.581,3.703,0.011c2.722,1.33,4.621,3.45,5.737,6.253
		c0.379,0.952,0.423,1.957-0.103,2.891c-0.228,0.405-0.232,0.697,0.11,1.035c1.695,1.676,3.379,3.364,5.056,5.057
		c0.362,0.366,0.656,0.432,1.059,0.032C27.512,22.641,28.309,20.932,27.548,18.845z"/>
	<path fill="none" stroke="#E9000D" stroke-width="1.505" stroke-miterlimit="10" d="M19.643,18.791
		c-0.223-0.135-0.484-0.203-0.813-0.164c-0.104,0.052-0.298,0.097-0.42,0.216c-0.625,0.61-1.266,1.209-1.831,1.872
		c-0.385,0.451-0.273,0.983,0.132,1.394c1.799,1.825,3.603,3.646,5.427,5.447c0.481,0.474,1.073,0.587,1.618,0.08
		c0.551-0.513,1.084-1.049,1.585-1.611c0.487-0.547,0.464-1.121-0.028-1.644"/>
	<path fill="none" stroke="#E9000D" stroke-width="1.505" stroke-miterlimit="10" d="M4.177,3.336
		C3.953,3.201,3.693,3.132,3.364,3.171c-0.104,0.052-0.298,0.097-0.42,0.216C2.319,3.998,1.678,4.597,1.113,5.26
		C0.728,5.711,0.84,6.243,1.245,6.654C3.044,8.479,4.847,10.3,6.672,12.1c0.481,0.474,1.073,0.587,1.618,0.08
		c0.551-0.513,1.084-1.049,1.585-1.611c0.487-0.547,0.464-1.121-0.028-1.644"/>
</g>
</svg>
