<?xml version="1.0" encoding="utf-8"?>
<!-- Generator: Adobe Illustrator 17.0.0, SVG Export Plug-In . SVG Version: 6.00 Build 0)  -->
<!DOCTYPE svg PUBLIC "-//W3C//DTD SVG 1.1//EN" "http://www.w3.org/Graphics/SVG/1.1/DTD/svg11.dtd">
<svg version="1.1" id="Layer_1" xmlns="http://www.w3.org/2000/svg" xmlns:xlink="http://www.w3.org/1999/xlink" x="0px" y="0px"
	 width="46.25px" height="52px" viewBox="-0.5 -9.35 46.25 52" enable-background="new -0.5 -9.35 46.25 52" xml:space="preserve">
<g>
	<path fill="none" stroke="#0A72F9" stroke-width="2.3437" stroke-linecap="round" stroke-miterlimit="10" d="M31.921,17.184
		c0,5.126-4.216,9.279-9.416,9.279l0,0c-5.201,0-9.416-4.155-9.416-9.279V1.179c0-5.126,4.216-9.279,9.416-9.279l0,0
		c5.201,0,9.416,4.155,9.416,9.279V17.184z"/>
	<path fill="none" stroke="#0A72F9" stroke-width="2.3437" stroke-linecap="round" stroke-miterlimit="10" d="M7.964,17.977v-1.201
		c0,7.914,6.51,14.33,14.541,14.33s14.541-6.416,14.541-14.33v1.201"/>
	
		<line fill="none" stroke="#0A72F9" stroke-width="2.3437" stroke-linecap="round" stroke-miterlimit="10" x1="22.505" y1="31.106" x2="22.505" y2="41.352"/>
	
		<line fill="none" stroke="#0A72F9" stroke-width="2.3437" stroke-linecap="round" stroke-miterlimit="10" x1="12.698" y1="41.4" x2="31.785" y2="41.305"/>
</g>
<line fill="none" stroke="#0A72F9" stroke-width="2.3437" stroke-linecap="round" stroke-miterlimit="10" x1="0.875" y1="34.626" x2="44.375" y2="-7.541"/>
</svg>
