<?xml version="1.0" encoding="utf-8"?>
<!-- Generator: Adobe Illustrator 17.0.0, SVG Export Plug-In . SVG Version: 6.00 Build 0)  -->
<!DOCTYPE svg PUBLIC "-//W3C//DTD SVG 1.1//EN" "http://www.w3.org/Graphics/SVG/1.1/DTD/svg11.dtd">
<svg version="1.1" id="Layer_1" xmlns="http://www.w3.org/2000/svg" xmlns:xlink="http://www.w3.org/1999/xlink" x="0px" y="0px"
	 width="28.719px" height="28.792px" viewBox="0 0 28.719 28.792" enable-background="new 0 0 28.719 28.792" xml:space="preserve">
<g id="Layer_2">
</g>
<g>
	<path fill="none" stroke="#0A72F9" stroke-width="1.505" stroke-miterlimit="10" d="M1.168,9.946
		c0.217,0.941,0.575,1.74,0.973,2.519c2.138,4.181,5.196,7.609,8.778,10.588c2.355,1.958,4.881,3.637,7.832,4.611
		c2.222,0.733,4.012,0.096,5.577-1.515c0.32-0.329,0.355-0.582,0.023-0.912c-1.733-1.724-3.458-3.455-5.183-5.187
		c-0.263-0.263-0.521-0.371-0.875-0.138c-1.231,0.808-2.491,0.581-3.703-0.011c-2.722-1.33-4.621-3.45-5.737-6.253
		c-0.379-0.952-0.423-1.957,0.103-2.891c0.228-0.405,0.232-0.697-0.11-1.035C7.152,8.045,5.468,6.358,3.79,4.665
		C3.428,4.299,3.134,4.233,2.731,4.633C1.204,6.15,0.407,7.859,1.168,9.946z"/>
	<path fill="none" stroke="#0A72F9" stroke-width="1.505" stroke-miterlimit="10" d="M9.073,10c0.223,0.135,0.484,0.203,0.813,0.164
		c0.104-0.052,0.298-0.097,0.42-0.216c0.625-0.61,1.266-1.209,1.831-1.872c0.385-0.451,0.273-0.983-0.132-1.394
		c-1.799-1.825-3.603-3.646-5.427-5.447C6.097,0.762,5.505,0.648,4.96,1.155C4.409,1.668,3.876,2.204,3.375,2.766
		C2.888,3.313,2.911,3.888,3.403,4.411"/>
	<path fill="none" stroke="#0A72F9" stroke-width="1.505" stroke-miterlimit="10" d="M24.539,25.455
		c0.223,0.135,0.484,0.203,0.813,0.164c0.104-0.052,0.298-0.097,0.42-0.216c0.625-0.61,1.266-1.209,1.831-1.872
		c0.385-0.451,0.273-0.983-0.132-1.394c-1.799-1.825-3.603-3.646-5.427-5.447c-0.481-0.474-1.073-0.587-1.618-0.08
		c-0.551,0.513-1.084,1.049-1.585,1.611c-0.487,0.547-0.464,1.121,0.028,1.644"/>
</g>
</svg>
