<?xml version="1.0" standalone="no"?>
<!DOCTYPE svg PUBLIC "-//W3C//DTD SVG 20010904//EN"
 "http://www.w3.org/TR/2001/REC-SVG-20010904/DTD/svg10.dtd">
<svg version="1.0" xmlns="http://www.w3.org/2000/svg"
 width="125.000000pt" height="115.000000pt" viewBox="0 0 125.000000 115.000000"
 preserveAspectRatio="xMidYMid meet">

<g transform="translate(0.000000,115.000000) scale(0.100000,-0.100000)"
fill="grey" stroke="none">
<path d="M525 1123 c-167 -87 -175 -311 -13 -394 152 -78 323 26 322 197 -1
123 -94 214 -219 214 -35 -1 -73 -7 -90 -17z m162 -59 c96 -46 113 -186 31
-260 -36 -34 -90 -47 -136 -35 -78 21 -122 77 -122 153 0 117 120 192 227 142z"/>
<path d="M394 651 c-53 -24 -79 -63 -194 -289 -50 -100 -50 -140 3 -172 27
-17 51 -20 155 -20 l122 0 0 30 0 30 -113 0 c-81 0 -119 4 -132 14 -21 15 -19
20 102 244 67 124 66 123 302 120 l193 -3 32 -37 c17 -20 63 -98 101 -173 87
-168 88 -165 -83 -165 -114 0 -114 0 -108 -22 3 -13 6 -27 6 -31 0 -5 59 -7
131 -5 129 3 131 3 155 31 39 46 32 77 -57 242 -124 232 -112 225 -381 225
-167 0 -199 -3 -234 -19z"/>
<path d="M395 405 c-19 -18 -25 -35 -25 -70 0 -43 1 -45 29 -45 27 0 30 3 33
38 l3 37 180 0 180 0 3 -37 c3 -35 6 -38 33 -38 28 0 29 2 29 45 0 35 -6 52
-25 70 -24 25 -25 25 -220 25 -195 0 -196 0 -220 -25z"/>
<path d="M370 125 c0 -42 22 -90 45 -99 9 -3 102 -6 206 -6 188 0 190 0 214
25 18 18 25 35 25 65 0 38 -2 40 -29 40 -26 0 -30 -4 -33 -32 l-3 -33 -174 -3
c-188 -3 -191 -2 -191 51 0 23 -4 27 -30 27 -28 0 -30 -3 -30 -35z"/>
</g>
</svg>
