<?xml version="1.0" encoding="utf-8"?>
<!-- Generator: Adobe Illustrator 24.3.0, SVG Export Plug-In . SVG Version: 6.00 Build 0)  -->
<svg version="1.1" id="Layer_1" xmlns="http://www.w3.org/2000/svg" xmlns:xlink="http://www.w3.org/1999/xlink" x="0px" y="0px"
	 viewBox="0 0 40 40" enable-background="new 0 0 40 40" xml:space="preserve">
<g>
	<g>
		<path d="M-44.986,586c0,0.667,0,1.333,0,2c-1.268,3.564-0.689,7.264-0.732,10.905c-0.098,8.471-0.047,8.481-8.546,8.481
			c-123.139,0.002-246.279,0.002-369.418,0c-8.526,0-8.545-0.009-8.546-8.454c-0.004-106.976-0.005-213.953,0-320.929
			c0-8.38,0.021-8.388,8.612-8.388c104.977-0.002,209.954-0.002,314.93-0.001c18.829,0,37.661,0.164,56.486-0.103
			c5.157-0.073,6.991,1.776,6.476,6.655c-0.157,1.483-0.018,2.997-0.018,4.496c0,98.978-0.002,197.956,0.011,296.934
			C-45.73,580.412-46.048,583.271-44.986,586z M-73.285,560.71c1.437-1.978,1.033-3.523,1.033-4.967
			c0.022-84.636,0.023-169.272,0.011-253.908c-0.001-6.253-0.211-6.441-6.545-6.441c-106.795-0.007-213.589-0.007-320.384,0
			c-6.346,0-6.558,0.188-6.559,6.427c-0.012,91.134-0.014,182.267,0.022,273.401c0.001,2.059-0.856,4.718,1.556,5.893
			c2.875,1.4,4.58-1.111,6.345-2.779c15.129-14.305,30.113-28.766,45.362-42.941c30.264-28.132,60.681-56.1,93.819-80.899
			c7.609-5.694,15.446-11.075,24.231-14.854c5.478-2.356,11.358-3.968,16.95-1.333c8.56,4.033,17.32,7.999,24.454,14.393
			c26.053,23.347,51.957,46.859,77.922,70.305C-101.238,535.494-87.399,547.974-73.285,560.71z M-360.774,581.187
			c89.706,0,179.782,0,270.604,0c-1.24-1.301-1.868-2.053-2.588-2.704c-33.987-30.697-67.93-61.443-102.014-92.031
			c-8.14-7.305-15.601-15.496-25.766-20.356c-3.063-1.464-5.462-1.668-8.349,0.069c-7.008,4.216-13.666,8.923-20.112,13.932
			c-34.634,26.913-66.651,56.809-98.616,86.754C-352.316,571.256-356.369,576.353-360.774,581.187z"/>
		<path d="M-306.595,435.103c17.41,0.348,30.355,5.114,41.201,15.319c2.696,2.537,2.975,4.592-0.106,6.824
			c-0.134,0.097-0.244,0.226-0.365,0.34c-6.637,6.24-6.637,6.24-13.769,0.789c-23.444-17.919-58.368-3.905-63.149,25.181
			c-1.715,10.435,0.36,19.894,6.022,28.555c2.149,3.287,2.133,5.214-1.003,7.827c-8.122,6.769-8.572,6.809-13.782-2.62
			C-371.872,480.536-345.798,435.516-306.595,435.103z"/>
		<path d="M-355.625,443.085c-2.211,3.393-4.942,6.83-8.598,9.07c-2.655,1.627-3.931-1.641-5.532-3.053
			c-3.362-2.965-6.489-6.195-9.795-9.226c-1.928-1.768-2.194-3.27-0.443-5.5c6.823-8.689,7.819-8.821,15.738-1.128
			c2.264,2.2,4.557,4.371,6.802,6.59C-356.639,440.643-355.731,441.43-355.625,443.085z"/>
		<path d="M-392.372,499.941c-0.217-7-0.143-7.015,7.03-7.29c3.981-0.153,7.955-0.531,11.93-0.833
			c3.095-0.235,4.448,1.124,4.757,4.268c1.068,10.897,1.149,10.878-9.965,11.312c-1.49,0.058-2.976,0.266-4.458,0.451
			C-391.722,508.933-392.104,508.613-392.372,499.941z"/>
		<path d="M-312.185,404.46c0-1.495-0.073-2.994,0.012-4.484c0.576-10.095,3.158-11.856,13.128-9.188
			c1.797,0.481,2.369,1.481,2.432,3.184c0.223,6.003-0.619,11.934-1.103,17.89c-0.147,1.816-1.072,2.705-2.895,2.642
			c-0.664-0.023-1.328-0.077-1.992-0.089C-312.533,414.24-312.533,414.242-312.185,404.46z"/>
	</g>
</g>
<g>
	<g>
		
			<line fill="none" stroke="#0C2877" stroke-width="0.5" stroke-linecap="round" stroke-miterlimit="10" x1="10.067" y1="0.819" x2="8.253" y2="4.043"/>
		
			<line fill="none" stroke="#0C2877" stroke-width="0.5" stroke-linecap="round" stroke-miterlimit="10" x1="11.21" y1="4.255" x2="10.067" y2="0.819"/>
		
			<line fill="none" stroke="#0C2877" stroke-width="0.5" stroke-linecap="round" stroke-miterlimit="10" x1="10.067" y1="1.563" x2="10.067" y2="28.95"/>
	</g>
	
		<circle fill="none" stroke="#0C2877" stroke-width="0.5" stroke-linecap="round" stroke-miterlimit="10" cx="20.784" cy="28.95" r="4.376"/>
	
		<circle fill="none" stroke="#0C2877" stroke-width="0.5" stroke-linecap="round" stroke-miterlimit="10" cx="20.784" cy="28.95" r="10.716"/>
</g>
</svg>
