<?xml version="1.0" encoding="utf-8"?>
<!-- Generator: Adobe Illustrator 24.3.0, SVG Export Plug-In . SVG Version: 6.00 Build 0)  -->
<svg version="1.1" id="Layer_1" xmlns="http://www.w3.org/2000/svg" xmlns:xlink="http://www.w3.org/1999/xlink" x="0px" y="0px"
	 viewBox="0 0 30 30" enable-background="new 0 0 30 30" xml:space="preserve">
<g>
	<path d="M66.319,34.5c-7.618,0-15.236,0-22.854,0c-1.91-0.712-2.453-1.469-2.453-3.416c0-4.139,0-8.277,0-12.416
		c0-3.468-0.003-6.937,0.003-10.405c0.001-0.403-0.068-0.754-0.408-1.043c-1.34-1.142-1.669-2.593-1.292-4.195
		c0.38-1.614,1.756-2.829,3.535-2.855c1.005-0.014,2.011-0.019,3.016-0.03c1.129-0.012,2.258-0.01,3.386,0
		c0.346,0.003,0.5-0.116,0.482-0.454c-0.017-0.321-0.012-0.645,0.001-0.967c0.022-0.546,0.182-1.04,0.636-1.415
		c0.429-0.354,0.946-0.43,1.486-0.431c2.121-0.002,4.243-0.003,6.364,0.002c0.229,0.001,0.462,0.027,0.688,0.066
		c0.863,0.149,1.399,0.699,1.478,1.523c0.034,0.359,0.051,0.719,0.058,1.08c0.012,0.569,0.027,0.592,0.622,0.593
		c1.782,0.002,3.563-0.008,5.345,0.005c1.004,0.007,1.973,0.13,2.794,0.777c1.973,1.556,2.007,4.709,0.047,6.3
		c-0.277,0.225-0.49,0.434-0.488,0.829c0.007,2.5-0.015,5.001-0.032,7.501c-0.024,3.454-0.06,6.909,0.032,10.363
		c0.049,1.843,0.021,3.687,0.012,5.531c-0.003,0.726-0.211,1.399-0.704,1.976C67.61,33.959,66.996,34.275,66.319,34.5z
		 M66.477,20.144c-0.005,0-0.01,0-0.015,0c0-3.713,0-7.427,0-11.14c0-0.638-0.002-0.64-0.686-0.64c-7.249,0-14.498,0-21.746,0
		c-0.718,0-0.722,0.004-0.722,0.693c-0.001,3.868,0,7.736,0,11.604c0,3.533-0.001,7.066,0.001,10.599
		c0.001,0.881,0.313,1.18,1.243,1.211c0.068,0.002,0.136,0,0.204,0.001c6.759,0,13.518,0,20.277,0.002
		c1.113,0,1.444-0.301,1.445-1.344C66.478,27.467,66.477,23.806,66.477,20.144z M54.959,5.849c2.883,0,5.766-0.001,8.649,0.001
		c1.088,0.001,2.176,0.002,3.264,0.013c0.688,0.007,1.116-0.324,1.381-0.899c0.204-0.443,0.234-0.904,0.13-1.364
		c-0.198-0.878-0.716-1.269-1.662-1.283c-0.435-0.006-0.87,0.01-1.305,0.01C58.507,2.328,51.598,2.328,44.69,2.328
		c-0.612,0-1.224-0.004-1.835,0c-0.311,0.002-0.582,0.106-0.813,0.308c-0.605,0.529-0.791,1.502-0.439,2.335
		c0.308,0.731,0.94,0.883,1.689,0.882C47.18,5.845,51.07,5.849,54.959,5.849z M55.054,0.136c0.87,0,1.739-0.008,2.609,0.004
		c0.35,0.005,0.48-0.125,0.481-0.457c0.001-0.598-0.055-0.662-0.697-0.627c-0.163,0.009-0.326,0.007-0.489,0.007
		c-1.454,0.001-2.908-0.002-4.361,0.003c-0.492,0.001-0.554,0.07-0.555,0.547c-0.001,0.473,0.047,0.522,0.568,0.524
		C53.424,0.139,54.239,0.137,55.054,0.136z"/>
	<path d="M47.526,20.57c0-2.798,0-5.595,0-8.393c0-0.232-0.002-0.463,0.066-0.691c0.13-0.438,0.487-0.725,0.932-0.74
		c0.42-0.014,0.838,0.276,0.978,0.692c0.079,0.235,0.09,0.48,0.09,0.727c-0.001,5.608,0,11.217-0.004,16.825
		c0,0.218-0.018,0.44-0.07,0.651c-0.108,0.443-0.52,0.756-0.962,0.762c-0.44,0.006-0.833-0.303-0.968-0.75
		c-0.065-0.215-0.062-0.433-0.062-0.652C47.526,26.191,47.526,23.381,47.526,20.57z"/>
	<path d="M62.094,20.496c0,2.798,0,5.595,0,8.393c0,0.232,0.001,0.464-0.078,0.689c-0.147,0.424-0.535,0.697-0.978,0.686
		c-0.419-0.01-0.798-0.289-0.931-0.695c-0.069-0.211-0.08-0.43-0.08-0.65c0.001-5.647,0-11.293,0.004-16.94
		c0-0.205,0.02-0.414,0.069-0.613c0.106-0.428,0.504-0.735,0.928-0.748c0.434-0.013,0.831,0.263,0.985,0.682
		c0.082,0.224,0.081,0.456,0.081,0.688C62.094,14.823,62.094,17.66,62.094,20.496z"/>
	<path d="M54.056,20.882c0-2.823,0.001-5.646-0.001-8.469c0-0.273,0.015-0.542,0.123-0.798c0.163-0.382,0.508-0.617,0.903-0.618
		c0.391-0.001,0.747,0.234,0.913,0.608c0.107,0.242,0.128,0.499,0.128,0.758c0,5.633,0,11.266,0,16.9
		c0,0.259-0.019,0.516-0.116,0.761c-0.156,0.391-0.527,0.635-0.937,0.627c-0.414-0.009-0.778-0.265-0.923-0.651
		c-0.088-0.235-0.09-0.48-0.089-0.726C54.056,26.477,54.056,23.68,54.056,20.882z"/>
</g>
<g>
	<path fill="none" stroke="#032993" stroke-width="1.0488" stroke-miterlimit="10" d="M19.468,2.615c0,0.479-0.399,0.868-0.89,0.868
		H11.45c-0.492,0-0.89-0.389-0.89-0.868V1.747c0-0.479,0.399-0.868,0.89-0.868h7.127c0.492,0,0.89,0.389,0.89,0.868
		C19.468,1.747,19.468,2.615,19.468,2.615z"/>
	
		<line fill="none" stroke="#032993" stroke-width="1.0488" stroke-miterlimit="10" x1="11.313" y1="12.357" x2="11.313" y2="25.349"/>
	
		<line fill="none" stroke="#032993" stroke-width="1.0488" stroke-miterlimit="10" x1="18.714" y1="12.566" x2="18.714" y2="25.559"/>
	<path fill="none" stroke="#032993" stroke-width="1.0488" stroke-miterlimit="10" d="M4.657,8.167
		c-0.038,0.172-0.06,0.349-0.06,0.531v17.638c0,1.539,1.399,2.786,3.125,2.786h14.582c1.726,0,3.125-1.247,3.125-2.786V8.698
		c0-0.181-0.023-0.359-0.06-0.531"/>
	<path fill="none" stroke="#032993" stroke-width="1.0488" stroke-miterlimit="10" d="M26.993,6.47c0,1.1-0.859,1.992-1.919,1.992
		H4.927c-1.059,0-1.919-0.891-1.919-1.992V5.475c0-1.1,0.859-1.992,1.919-1.992h20.147c1.059,0,1.919,0.891,1.919,1.992V6.47z"/>
</g>
<g>
	<rect x="832.64" y="1346.807" fill="none" width="16.584" height="7.777"/>
	
		<text transform="matrix(1.0881 0 0 1 832.6396 1351.9238)" fill="#032993" font-family="'MicrosoftSansSerif'" font-size="7.1468px">save</text>
	<path fill="none" stroke="#032993" stroke-width="0.4894" stroke-miterlimit="10" d="M849.105,1356.837h-15.484
		c-1.077,0-1.958-0.881-1.958-1.958v-8.819c0-1.077,0.881-1.958,1.958-1.958h15.484c1.077,0,1.958,0.881,1.958,1.958v8.819
		C851.062,1355.956,850.182,1356.837,849.105,1356.837z"/>
	<g>
		<g>
			<path fill="none" stroke="#032993" stroke-width="0.4793" stroke-miterlimit="10" d="M703.562,1356.2c5.355,0,10.679,0,16,0
				c0-4.917,0-9.809,0-14.704c-5.345,0-10.668,0-16,0C703.562,1346.406,703.562,1351.292,703.562,1356.2z"/>
			<path fill="none" stroke="#032993" stroke-width="0.4793" stroke-miterlimit="10" d="M703.562,1356.2c0-4.908,0-9.794,0-14.704
				c5.332,0,10.655,0,16,0c0,4.894,0,9.787,0,14.704C714.241,1356.2,708.919,1356.2,703.562,1356.2z"/>
		</g>
		<path fill="none" stroke="#032993" stroke-width="0.4793" stroke-miterlimit="10" d="M704.029,1355.714
			c0,0,7.232-5.118,7.798-5.159c0.565-0.041,7.291,5.159,7.291,5.159"/>
		<path fill="none" stroke="#032993" stroke-width="0.4793" stroke-miterlimit="10" d="M710.626,1351.245
			c-0.449-0.504-1.128-0.824-1.887-0.821c-1.344,0.005-2.427,1.02-2.421,2.266c0.002,0.426,0.132,0.824,0.354,1.163
			L710.626,1351.245z"/>
	</g>
	<g>
		
			<line fill="none" stroke="#032993" stroke-width="0.4561" stroke-miterlimit="10" x1="743.547" y1="1342.196" x2="762.578" y2="1342.196"/>
		
			<line fill="none" stroke="#032993" stroke-width="0.4561" stroke-miterlimit="10" x1="753.062" y1="1342.196" x2="753.062" y2="1357.5"/>
	</g>
	<g>
		<path fill="none" stroke="#032993" stroke-width="0.4793" stroke-miterlimit="10" d="M679.596,1341.473
			c0,0.284-0.237,0.515-0.528,0.515h-4.23c-0.292,0-0.528-0.231-0.528-0.515v-0.515c0-0.285,0.237-0.516,0.528-0.516h4.23
			c0.292,0,0.528,0.231,0.528,0.516V1341.473z"/>
		
			<line fill="none" stroke="#032993" stroke-width="0.4793" stroke-miterlimit="10" x1="674.756" y1="1347.255" x2="674.756" y2="1354.966"/>
		
			<line fill="none" stroke="#032993" stroke-width="0.4793" stroke-miterlimit="10" x1="679.149" y1="1347.379" x2="679.149" y2="1355.09"/>
		<path fill="none" stroke="#032993" stroke-width="0.4793" stroke-miterlimit="10" d="M670.806,1344.768
			c-0.022,0.102-0.036,0.207-0.036,0.315v10.468c0,0.913,0.83,1.653,1.855,1.653h8.654c1.025,0,1.855-0.74,1.855-1.653v-10.468
			c0-0.108-0.014-0.213-0.035-0.315"/>
		<path fill="none" stroke="#032993" stroke-width="0.4793" stroke-miterlimit="10" d="M684.062,1343.761
			c0,0.653-0.51,1.182-1.139,1.182h-11.957c-0.629,0-1.139-0.529-1.139-1.182v-0.591c0-0.653,0.51-1.182,1.139-1.182h11.957
			c0.629,0,1.139,0.529,1.139,1.182V1343.761z"/>
	</g>
	<g>
		
			<line fill="none" stroke="#032993" stroke-width="0.4793" stroke-miterlimit="10" x1="790.634" y1="1338.833" x2="789.062" y2="1341.976"/>
		
			<line fill="none" stroke="#032993" stroke-width="0.4793" stroke-miterlimit="10" x1="790.634" y1="1338.833" x2="792.205" y2="1341.976"/>
		<circle fill="none" stroke="#032993" stroke-width="0.4793" stroke-miterlimit="10" cx="795.348" cy="1352.452" r="4.714"/>
		
			<line fill="none" stroke="#032993" stroke-width="0.4793" stroke-miterlimit="10" x1="790.634" y1="1352.452" x2="790.634" y2="1338.833"/>
		<circle fill="none" stroke="#032993" stroke-width="0.4793" stroke-miterlimit="10" cx="795.348" cy="1352.452" r="1.659"/>
	</g>
</g>
<rect x="147.802" y="76.189" fill="none" width="16.584" height="7.777"/>
<text transform="matrix(1.0881 0 0 1 147.8021 81.3062)" fill="#032993" font-family="'MicrosoftSansSerif'" font-size="7.1468px">save</text>
<path fill="none" stroke="#032993" stroke-width="0.4894" stroke-miterlimit="10" d="M164.267,86.219h-15.483
	c-1.077,0-1.958-0.881-1.958-1.958v-8.819c0-1.077,0.881-1.958,1.958-1.958h15.483c1.077,0,1.958,0.881,1.958,1.958v8.819
	C166.225,85.338,165.344,86.219,164.267,86.219z"/>
<g>
	<g>
		<path fill="none" stroke="#032993" stroke-width="0.4793" stroke-miterlimit="10" d="M18.725,85.583c5.355,0,10.679,0,16,0
			c0-4.917,0-9.809,0-14.704c-5.345,0-10.668,0-16,0C18.725,75.788,18.725,80.674,18.725,85.583z"/>
		<path fill="none" stroke="#032993" stroke-width="0.4793" stroke-miterlimit="10" d="M18.725,85.583c0-4.909,0-9.794,0-14.704
			c5.332,0,10.655,0,16,0c0,4.894,0,9.787,0,14.704C29.403,85.583,24.081,85.583,18.725,85.583z"/>
	</g>
	<path fill="none" stroke="#032993" stroke-width="0.4793" stroke-miterlimit="10" d="M19.191,85.097c0,0,7.232-5.118,7.798-5.159
		c0.565-0.041,7.291,5.159,7.291,5.159"/>
	<path fill="none" stroke="#032993" stroke-width="0.4793" stroke-miterlimit="10" d="M25.788,80.628
		c-0.449-0.504-1.128-0.824-1.887-0.821c-1.344,0.005-2.427,1.02-2.421,2.266c0.002,0.426,0.132,0.824,0.354,1.163L25.788,80.628z"
		/>
</g>
<g>
	
		<line fill="none" stroke="#032993" stroke-width="0.4561" stroke-miterlimit="10" x1="58.709" y1="71.578" x2="77.741" y2="71.578"/>
	
		<line fill="none" stroke="#032993" stroke-width="0.4561" stroke-miterlimit="10" x1="68.225" y1="71.578" x2="68.225" y2="86.882"/>
</g>
<g>
	<path fill="none" stroke="#032993" stroke-width="0.4793" stroke-miterlimit="10" d="M-5.241,70.855
		c0,0.284-0.237,0.515-0.528,0.515H-10c-0.292,0-0.528-0.231-0.528-0.515V70.34c0-0.284,0.237-0.515,0.528-0.515h4.23
		c0.292,0,0.528,0.231,0.528,0.515L-5.241,70.855z"/>
	
		<line fill="none" stroke="#032993" stroke-width="0.4793" stroke-miterlimit="10" x1="-10.081" y1="76.637" x2="-10.081" y2="84.348"/>
	
		<line fill="none" stroke="#032993" stroke-width="0.4793" stroke-miterlimit="10" x1="-5.689" y1="76.761" x2="-5.689" y2="84.473"/>
	<path fill="none" stroke="#032993" stroke-width="0.4793" stroke-miterlimit="10" d="M-14.031,74.151
		c-0.022,0.102-0.035,0.207-0.035,0.315v10.468c0,0.913,0.83,1.653,1.855,1.653h8.654c1.025,0,1.855-0.74,1.855-1.653V74.466
		c0-0.108-0.014-0.213-0.035-0.315"/>
	<path fill="none" stroke="#032993" stroke-width="0.4793" stroke-miterlimit="10" d="M-0.775,73.144
		c0,0.653-0.51,1.182-1.139,1.182h-11.957c-0.629,0-1.139-0.529-1.139-1.182v-0.591c0-0.653,0.51-1.182,1.139-1.182h11.957
		c0.629,0,1.139,0.529,1.139,1.182V73.144z"/>
</g>
<circle fill="none" stroke="#032993" stroke-width="0.4793" stroke-miterlimit="10" cx="108.939" cy="81.835" r="4.714"/>
<g>
	
		<line fill="none" stroke="#032993" stroke-width="0.4793" stroke-miterlimit="10" x1="113.654" y1="68.216" x2="115.225" y2="71.359"/>
	
		<line fill="none" stroke="#032993" stroke-width="0.4793" stroke-miterlimit="10" x1="113.654" y1="68.216" x2="112.082" y2="71.359"/>
	
		<line fill="none" stroke="#032993" stroke-width="0.4793" stroke-miterlimit="10" x1="113.654" y1="81.835" x2="113.654" y2="68.216"/>
</g>
<circle fill="none" stroke="#032993" stroke-width="0.4793" stroke-miterlimit="10" cx="108.939" cy="81.835" r="1.659"/>
</svg>
