<?xml version="1.0" encoding="utf-8"?>
<!-- Generator: Adobe Illustrator 24.3.0, SVG Export Plug-In . SVG Version: 6.00 Build 0)  -->
<svg version="1.1" id="Layer_1" xmlns="http://www.w3.org/2000/svg" xmlns:xlink="http://www.w3.org/1999/xlink" x="0px" y="0px"
	 viewBox="0 0 30 30" style="enable-background:new 0 0 30 30;" xml:space="preserve">
<style type="text/css">
	.st0{fill:none;stroke:#8200FA;stroke-width:1.0488;stroke-miterlimit:10;}
	.st1{fill:none;}
	.st2{fill:none;stroke:#0602F0;stroke-width:0.4894;stroke-miterlimit:10;}
	.st3{fill:none;stroke:#0602F0;stroke-width:0.4793;stroke-miterlimit:10;}
	.st4{fill:none;stroke:#0602F0;stroke-width:0.4561;stroke-miterlimit:10;}
	.st5{fill:#0602F0;}
	.st6{fill:none;stroke:#0602F0;stroke-width:0.4211;stroke-miterlimit:10;}
</style>
<g>
	<path d="M66.3,34.5c-7.6,0-15.2,0-22.9,0C41.6,33.8,41,33,41,31.1c0-4.1,0-8.3,0-12.4c0-3.5,0-6.9,0-10.4c0-0.4-0.1-0.8-0.4-1
		c-1.3-1.1-1.7-2.6-1.3-4.2c0.4-1.6,1.8-2.8,3.5-2.9c1,0,2,0,3,0c1.1,0,2.3,0,3.4,0c0.3,0,0.5-0.1,0.5-0.5c0-0.3,0-0.6,0-1
		c0-0.5,0.2-1,0.6-1.4c0.4-0.4,0.9-0.4,1.5-0.4c2.1,0,4.2,0,6.4,0c0.2,0,0.5,0,0.7,0.1c0.9,0.1,1.4,0.7,1.5,1.5
		c0,0.4,0.1,0.7,0.1,1.1c0,0.6,0,0.6,0.6,0.6c1.8,0,3.6,0,5.3,0c1,0,2,0.1,2.8,0.8c2,1.6,2,4.7,0,6.3C69,7.4,68.8,7.7,68.8,8
		c0,2.5,0,5,0,7.5c0,3.5-0.1,6.9,0,10.4c0,1.8,0,3.7,0,5.5c0,0.7-0.2,1.4-0.7,2C67.6,34,67,34.3,66.3,34.5z M66.5,20.1
		C66.5,20.1,66.5,20.1,66.5,20.1c0-3.7,0-7.4,0-11.1c0-0.6,0-0.6-0.7-0.6c-7.2,0-14.5,0-21.7,0c-0.7,0-0.7,0-0.7,0.7
		c0,3.9,0,7.7,0,11.6c0,3.5,0,7.1,0,10.6c0,0.9,0.3,1.2,1.2,1.2c0.1,0,0.1,0,0.2,0c6.8,0,13.5,0,20.3,0c1.1,0,1.4-0.3,1.4-1.3
		C66.5,27.5,66.5,23.8,66.5,20.1z M55,5.8c2.9,0,5.8,0,8.6,0c1.1,0,2.2,0,3.3,0c0.7,0,1.1-0.3,1.4-0.9c0.2-0.4,0.2-0.9,0.1-1.4
		c-0.2-0.9-0.7-1.3-1.7-1.3c-0.4,0-0.9,0-1.3,0c-6.9,0-13.8,0-20.7,0c-0.6,0-1.2,0-1.8,0c-0.3,0-0.6,0.1-0.8,0.3
		c-0.6,0.5-0.8,1.5-0.4,2.3c0.3,0.7,0.9,0.9,1.7,0.9C47.2,5.8,51.1,5.8,55,5.8z M55.1,0.1c0.9,0,1.7,0,2.6,0c0.3,0,0.5-0.1,0.5-0.5
		c0-0.6-0.1-0.7-0.7-0.6c-0.2,0-0.3,0-0.5,0c-1.5,0-2.9,0-4.4,0c-0.5,0-0.6,0.1-0.6,0.5c0,0.5,0,0.5,0.6,0.5
		C53.4,0.1,54.2,0.1,55.1,0.1z"/>
	<path d="M47.5,20.6c0-2.8,0-5.6,0-8.4c0-0.2,0-0.5,0.1-0.7c0.1-0.4,0.5-0.7,0.9-0.7c0.4,0,0.8,0.3,1,0.7c0.1,0.2,0.1,0.5,0.1,0.7
		c0,5.6,0,11.2,0,16.8c0,0.2,0,0.4-0.1,0.7c-0.1,0.4-0.5,0.8-1,0.8c-0.4,0-0.8-0.3-1-0.8c-0.1-0.2-0.1-0.4-0.1-0.7
		C47.5,26.2,47.5,23.4,47.5,20.6z"/>
	<path d="M62.1,20.5c0,2.8,0,5.6,0,8.4c0,0.2,0,0.5-0.1,0.7c-0.1,0.4-0.5,0.7-1,0.7c-0.4,0-0.8-0.3-0.9-0.7C60,29.4,60,29.1,60,28.9
		c0-5.6,0-11.3,0-16.9c0-0.2,0-0.4,0.1-0.6c0.1-0.4,0.5-0.7,0.9-0.7c0.4,0,0.8,0.3,1,0.7c0.1,0.2,0.1,0.5,0.1,0.7
		C62.1,14.8,62.1,17.7,62.1,20.5z"/>
	<path d="M54.1,20.9c0-2.8,0-5.6,0-8.5c0-0.3,0-0.5,0.1-0.8c0.2-0.4,0.5-0.6,0.9-0.6c0.4,0,0.7,0.2,0.9,0.6c0.1,0.2,0.1,0.5,0.1,0.8
		c0,5.6,0,11.3,0,16.9c0,0.3,0,0.5-0.1,0.8c-0.2,0.4-0.5,0.6-0.9,0.6c-0.4,0-0.8-0.3-0.9-0.7c-0.1-0.2-0.1-0.5-0.1-0.7
		C54.1,26.5,54.1,23.7,54.1,20.9z"/>
</g>
<g>
	<path class="st0" d="M-14.1,29c0,0.5-0.4,0.9-0.9,0.9h-7.1c-0.5,0-0.9-0.4-0.9-0.9v-0.9c0-0.5,0.4-0.9,0.9-0.9h7.1
		c0.5,0,0.9,0.4,0.9,0.9V29z"/>
	<line class="st0" x1="-22.2" y1="38.7" x2="-22.2" y2="51.7"/>
	<line class="st0" x1="-14.8" y1="39" x2="-14.8" y2="51.9"/>
	<path class="st0" d="M-28.9,34.6c0,0.2-0.1,0.3-0.1,0.5v17.6c0,1.5,1.4,2.8,3.1,2.8h14.6c1.7,0,3.1-1.2,3.1-2.8V35.1
		c0-0.2,0-0.4-0.1-0.5"/>
	<path class="st0" d="M-6.5,32.9c0,1.1-0.9,2-1.9,2h-20.1c-1.1,0-1.9-0.9-1.9-2v-1c0-1.1,0.9-2,1.9-2h20.1c1.1,0,1.9,0.9,1.9,2
		C-6.5,31.9-6.5,32.9-6.5,32.9z"/>
</g>
<g>
	<rect x="832.6" y="1346.8" class="st1" width="16.6" height="7.8"/>
	
		<text transform="matrix(1.0881 0 0 1 832.6392 1351.9238)" style="fill:#0000FF; font-family:'MicrosoftSansSerif'; font-size:7.1468px;">save</text>
	<path class="st2" d="M849.1,1356.8h-15.5c-1.1,0-2-0.9-2-2v-8.8c0-1.1,0.9-2,2-2h15.5c1.1,0,2,0.9,2,2v8.8
		C851.1,1356,850.2,1356.8,849.1,1356.8z"/>
	<g>
		<g>
			<path class="st3" d="M703.6,1356.2c5.4,0,10.7,0,16,0c0-4.9,0-9.8,0-14.7c-5.3,0-10.7,0-16,0
				C703.6,1346.4,703.6,1351.3,703.6,1356.2z"/>
			<path class="st3" d="M703.6,1356.2c0-4.9,0-9.8,0-14.7c5.3,0,10.7,0,16,0c0,4.9,0,9.8,0,14.7
				C714.2,1356.2,708.9,1356.2,703.6,1356.2z"/>
		</g>
		<path class="st3" d="M704,1355.7c0,0,7.2-5.1,7.8-5.2c0.6,0,7.3,5.2,7.3,5.2"/>
		<path class="st3" d="M710.6,1351.2c-0.4-0.5-1.1-0.8-1.9-0.8c-1.3,0-2.4,1-2.4,2.3c0,0.4,0.1,0.8,0.4,1.2L710.6,1351.2z"/>
	</g>
	<g>
		<line class="st4" x1="743.5" y1="1342.2" x2="762.6" y2="1342.2"/>
		<line class="st4" x1="753.1" y1="1342.2" x2="753.1" y2="1357.5"/>
	</g>
	<g>
		<path class="st3" d="M679.6,1341.5c0,0.3-0.2,0.5-0.5,0.5h-4.2c-0.3,0-0.5-0.2-0.5-0.5v-0.5c0-0.3,0.2-0.5,0.5-0.5h4.2
			c0.3,0,0.5,0.2,0.5,0.5V1341.5z"/>
		<line class="st3" x1="674.8" y1="1347.3" x2="674.8" y2="1355"/>
		<line class="st3" x1="679.1" y1="1347.4" x2="679.1" y2="1355.1"/>
		<path class="st3" d="M670.8,1344.8c0,0.1,0,0.2,0,0.3v10.5c0,0.9,0.8,1.7,1.9,1.7h8.7c1,0,1.9-0.7,1.9-1.7v-10.5
			c0-0.1,0-0.2,0-0.3"/>
		<path class="st3" d="M684.1,1343.8c0,0.7-0.5,1.2-1.1,1.2h-12c-0.6,0-1.1-0.5-1.1-1.2v-0.6c0-0.7,0.5-1.2,1.1-1.2h12
			c0.6,0,1.1,0.5,1.1,1.2V1343.8z"/>
	</g>
	<g>
		<line class="st3" x1="790.6" y1="1338.8" x2="789.1" y2="1342"/>
		<line class="st3" x1="790.6" y1="1338.8" x2="792.2" y2="1342"/>
		<circle class="st3" cx="795.3" cy="1352.5" r="4.7"/>
		<line class="st3" x1="790.6" y1="1352.5" x2="790.6" y2="1338.8"/>
		<circle class="st3" cx="795.3" cy="1352.5" r="1.7"/>
	</g>
</g>
<rect x="147.8" y="76.2" class="st1" width="16.6" height="7.8"/>
<text transform="matrix(1.0881 0 0 1 147.8018 81.3062)" style="fill:#0000FF; font-family:'MicrosoftSansSerif'; font-size:7.1468px;">save</text>
<path class="st2" d="M164.3,86.2h-15.5c-1.1,0-2-0.9-2-2v-8.8c0-1.1,0.9-2,2-2h15.5c1.1,0,2,0.9,2,2v8.8
	C166.2,85.3,165.3,86.2,164.3,86.2z"/>
<g>
	<g>
		<path class="st0" d="M30.6,117.5c9.2,0,18.4,0,27.6,0c0-8.5,0-16.9,0-25.4c-9.2,0-18.4,0-27.6,0C30.6,100.6,30.6,109,30.6,117.5z"
			/>
		<path class="st0" d="M30.6,117.5c0-8.5,0-16.9,0-25.4c9.2,0,18.4,0,27.6,0c0,8.4,0,16.9,0,25.4C49,117.5,39.8,117.5,30.6,117.5z"
			/>
	</g>
	<path class="st0" d="M31.4,116.7c0,0,12.5-8.8,13.5-8.9c1-0.1,12.6,8.9,12.6,8.9"/>
	<path class="st0" d="M42.8,109c-0.8-0.9-1.9-1.4-3.3-1.4c-2.3,0-4.2,1.8-4.2,3.9c0,0.7,0.2,1.4,0.6,2L42.8,109z"/>
</g>
<g>
	<line class="st0" x1="9.7" y1="39.8" x2="37.6" y2="39.8"/>
	<line class="st0" x1="23.6" y1="39.8" x2="23.6" y2="68.2"/>
</g>
<g>
	<path class="st3" d="M-5.2,70.9c0,0.3-0.2,0.5-0.5,0.5H-10c-0.3,0-0.5-0.2-0.5-0.5v-0.5c0-0.3,0.2-0.5,0.5-0.5h4.2
		c0.3,0,0.5,0.2,0.5,0.5L-5.2,70.9z"/>
	<line class="st3" x1="-10.1" y1="76.6" x2="-10.1" y2="84.3"/>
	<line class="st3" x1="-5.7" y1="76.8" x2="-5.7" y2="84.5"/>
	<path class="st3" d="M-14,74.2c0,0.1,0,0.2,0,0.3v10.5c0,0.9,0.8,1.7,1.9,1.7h8.7c1,0,1.9-0.7,1.9-1.7V74.5c0-0.1,0-0.2,0-0.3"/>
	<path class="st3" d="M-0.8,73.1c0,0.7-0.5,1.2-1.1,1.2h-12c-0.6,0-1.1-0.5-1.1-1.2v-0.6c0-0.7,0.5-1.2,1.1-1.2h12
		c0.6,0,1.1,0.5,1.1,1.2C-0.8,72.6-0.8,73.1-0.8,73.1z"/>
</g>
<polygon class="st5" points="29.3,15 4.7,29.2 4.7,0.8 "/>
<g>
	<rect x="121.7" y="35.9" class="st1" width="15.6" height="5.6"/>
	
		<text transform="matrix(1.0881 0 0 1 121.71 40.5169)" style="fill:#0000FF; font-family:'MicrosoftSansSerif'; font-size:6.5135px;">save</text>
	<path class="st6" d="M135.7,44.2h-13.3c-0.9,0-1.7-0.8-1.7-1.7V35c0-0.9,0.8-1.7,1.7-1.7h13.3c0.9,0,1.7,0.8,1.7,1.7v7.6
		C137.4,43.5,136.6,44.2,135.7,44.2z"/>
</g>
</svg>
