<?xml version="1.0" encoding="utf-8"?>
<!-- Generator: Adobe Illustrator 17.0.0, SVG Export Plug-In . SVG Version: 6.00 Build 0)  -->
<!DOCTYPE svg PUBLIC "-//W3C//DTD SVG 1.1//EN" "http://www.w3.org/Graphics/SVG/1.1/DTD/svg11.dtd">
<svg version="1.1" id="Layer_1" xmlns="http://www.w3.org/2000/svg" xmlns:xlink="http://www.w3.org/1999/xlink" x="0px" y="0px"
	 width="114.854px" height="43.801px" viewBox="3.479 44.949 114.854 43.801" enable-background="new 3.479 44.949 114.854 43.801"
	 xml:space="preserve">
<g>
	<path d="M167.701,12.815c0.239,0.048,0.481,0.084,0.717,0.144c0.862,0.22,1.582,0.652,2.144,1.363
		c1.228,1.555,2.477,3.093,3.717,4.637c0.25,0.311,0.251,0.316-0.147,0.381c-2.097,0.34-4.15,0.855-6.157,1.555
		c-3.058,1.066-5.922,2.517-8.594,4.347c-2.176,1.49-4.165,3.198-5.975,5.115c-0.539,0.571-1.057,1.162-1.559,1.766
		c-0.226,0.273-0.256,0.269-0.379-0.047c-0.748-1.919-1.501-3.835-2.237-5.759c-0.288-0.754-0.232-1.527-0.013-2.29
		c0.227-0.79,0.631-1.492,1.114-2.151c0.591-0.807,1.294-1.51,2.037-2.174c1.222-1.09,2.56-2.022,3.95-2.881
		c1.612-0.996,3.275-1.9,5.022-2.642c1.288-0.547,2.606-0.999,3.988-1.245c0.249-0.044,0.498-0.08,0.748-0.119
		C166.618,12.815,167.159,12.815,167.701,12.815z"/>
	<path d="M220.99,11.979c0.421,0.078,0.847,0.124,1.266,0.22c1.133,0.257,2.23,0.624,3.295,1.082
		c2.724,1.17,5.274,2.644,7.644,4.424c1.128,0.847,2.174,1.787,3.056,2.896c0.565,0.71,1.036,1.474,1.299,2.351
		c0.26,0.865,0.251,1.714-0.091,2.568c-0.707,1.768-1.385,3.548-2.077,5.322c-0.157,0.403-0.163,0.404-0.433,0.079
		c-2.731-3.286-5.941-6.008-9.635-8.156c-3.115-1.81-6.429-3.12-9.943-3.923c-0.786-0.18-1.577-0.331-2.373-0.459
		c-0.042-0.007-0.086-0.008-0.127-0.02c-0.122-0.034-0.138-0.076-0.068-0.181c0.043-0.064,0.094-0.122,0.142-0.182
		c1.209-1.505,2.427-3.002,3.621-4.519c0.617-0.784,1.418-1.222,2.375-1.416c0.151-0.03,0.303-0.057,0.454-0.086
		C219.926,11.979,220.458,11.979,220.99,11.979z"/>
	<circle fill="none" stroke="#000000" stroke-width="5" stroke-miterlimit="10" cx="193.453" cy="76.763" r="54.757"/>
	
		<line fill="none" stroke="#000000" stroke-width="5" stroke-linecap="round" stroke-miterlimit="10" x1="193.66" y1="39.187" x2="193.66" y2="76.886"/>
	
		<line fill="none" stroke="#000000" stroke-width="5" stroke-linecap="round" stroke-miterlimit="10" x1="155.96" y1="76.886" x2="193.66" y2="76.886"/>
</g>
<g>
	<g>
		<path fill="none" stroke="#030AF8" stroke-width="2.6242" stroke-miterlimit="10" d="M-315.352,165.911
			c7.419,0.487,14.009,4,18.55,9.319"/>
		<path fill="none" stroke="#030AF8" stroke-width="2.6242" stroke-miterlimit="10" d="M-291.07,198.48
			c0.43-1.903,0.664-3.879,0.664-5.912c0-6.618-2.411-12.67-6.396-17.337"/>
		<path fill="none" stroke="#030AF8" stroke-width="2.6242" stroke-miterlimit="10" d="M-319.342,165.945
			c-13.721,1.127-24.507,12.612-24.507,26.623c0,2.033,0.235,4.009,0.664,5.912"/>
		
			<ellipse fill="none" stroke="#030AF8" stroke-width="2.6242" stroke-miterlimit="10" cx="-318.089" cy="146.134" rx="19.499" ry="19.777"/>
	</g>
	<g>
		<g>
			<path fill="none" stroke="#030AF8" stroke-width="2.6242" stroke-miterlimit="10" d="M-393.357,162.418
				c-8.394,0.689-15.675,5.267-20.075,11.917"/>
			<path fill="none" stroke="#030AF8" stroke-width="2.6242" stroke-miterlimit="10" d="M-389.367,162.385"/>
			
				<ellipse fill="none" stroke="#030AF8" stroke-width="2.6242" stroke-miterlimit="10" cx="-392.103" cy="142.608" rx="19.499" ry="19.777"/>
		</g>
		
			<rect x="-435.529" y="102.678" fill="none" stroke="#030AF8" stroke-width="2.6242" stroke-miterlimit="10" width="91.886" height="71.985"/>
		<path fill="none" stroke="#030AF8" stroke-width="2.6242" stroke-miterlimit="10" d="M-389.392,162.418
			c8.394,0.689,15.675,5.267,20.075,11.917"/>
	</g>
</g>
<g>
	<path fill="none" stroke="#03EE0C" stroke-width="3.2496" stroke-miterlimit="10" d="M-778.853-53.436
		c7.419,0.487,14.009,4,18.55,9.319"/>
	<path fill="none" stroke="#03EE0C" stroke-width="3.2496" stroke-miterlimit="10" d="M-754.571-20.867
		c0.43-1.903,0.664-3.879,0.664-5.912c0-6.618-2.411-12.67-6.396-17.337"/>
	<path fill="none" stroke="#03EE0C" stroke-width="3.2496" stroke-miterlimit="10" d="M-782.843-53.402
		c-13.721,1.127-24.507,12.612-24.507,26.623c0,2.033,0.234,4.009,0.664,5.912"/>
	
		<ellipse fill="none" stroke="#03EE0C" stroke-width="3.2496" stroke-miterlimit="10" cx="-781.589" cy="-73.213" rx="19.499" ry="19.777"/>
</g>
<g>
	<path fill="none" stroke="#03EE0C" stroke-width="3.2496" stroke-miterlimit="10" d="M-858.857-56.929
		c-8.394,0.689-15.675,5.267-20.075,11.917"/>
	<path fill="none" stroke="#03EE0C" stroke-width="3.2496" stroke-miterlimit="10" d="M-854.868-56.962"/>
	
		<ellipse fill="none" stroke="#03EE0C" stroke-width="3.2496" stroke-miterlimit="10" cx="-857.604" cy="-76.739" rx="19.499" ry="19.777"/>
</g>
<rect x="-319.201" y="163.643" fill="none" stroke="#03EE0C" stroke-width="3.2496" stroke-miterlimit="10" width="91.886" height="71.985"/>
<path fill="none" stroke="#03EE0C" stroke-width="3.2496" stroke-miterlimit="10" d="M-854.892-56.929
	c8.394,0.689,15.675,5.267,20.075,11.917"/>
<g>
	<path fill="none" stroke="#03EE0C" stroke-width="3.2496" stroke-miterlimit="10" d="M-585.979-55.098
		c7.419,0.487,14.009,4,18.55,9.319"/>
	<path fill="none" stroke="#03EE0C" stroke-width="3.2496" stroke-miterlimit="10" d="M-561.696-22.529
		c0.43-1.903,0.664-3.879,0.664-5.912c0-6.618-2.411-12.67-6.396-17.337"/>
	<path fill="none" stroke="#03EE0C" stroke-width="3.2496" stroke-miterlimit="10" d="M-589.968-55.064
		c-13.721,1.127-24.507,12.612-24.507,26.623c0,2.033,0.234,4.009,0.664,5.912"/>
	
		<ellipse fill="none" stroke="#03EE0C" stroke-width="3.2496" stroke-miterlimit="10" cx="-588.715" cy="-74.875" rx="19.499" ry="19.777"/>
</g>
<g>
	<g>
		<path fill="none" stroke="#03EE0C" stroke-width="3.2496" stroke-miterlimit="10" d="M-666.983-58.59
			c-8.394,0.689-15.675,5.267-20.075,11.917"/>
		<path fill="none" stroke="#03EE0C" stroke-width="3.2496" stroke-miterlimit="10" d="M-662.993-58.624"/>
		
			<ellipse fill="none" stroke="#03EE0C" stroke-width="3.2496" stroke-miterlimit="10" cx="-665.729" cy="-78.401" rx="19.499" ry="19.777"/>
	</g>
	
		<rect x="-709.156" y="-118.331" fill="none" stroke="#03EE0C" stroke-width="3.2496" stroke-miterlimit="10" width="91.886" height="71.985"/>
	<path fill="none" stroke="#03EE0C" stroke-width="3.2496" stroke-miterlimit="10" d="M-663.018-58.59
		c8.394,0.689,15.675,5.267,20.075,11.917"/>
</g>
<g>
	<path fill="none" stroke="#030AF8" stroke-width="2.6242" stroke-miterlimit="10" d="M172.506,394.497
		c7.419,0.487,14.009,4,18.55,9.319"/>
	<path fill="none" stroke="#030AF8" stroke-width="2.6242" stroke-miterlimit="10" d="M196.788,427.066
		c0.43-1.903,0.664-3.879,0.664-5.912c0-6.618-2.411-12.67-6.396-17.337"/>
	<path fill="none" stroke="#030AF8" stroke-width="2.6242" stroke-miterlimit="10" d="M168.516,394.531
		c-13.721,1.127-24.507,12.612-24.507,26.623c0,2.033,0.235,4.009,0.664,5.912"/>
	
		<ellipse fill="none" stroke="#030AF8" stroke-width="2.6242" stroke-miterlimit="10" cx="169.77" cy="374.72" rx="19.499" ry="19.777"/>
</g>
<g>
	<path fill="none" stroke="#030AF8" stroke-width="2.6242" stroke-miterlimit="10" d="M106.521,391.005
		c-8.394,0.689-15.675,5.267-20.075,11.917"/>
	<path fill="none" stroke="#030AF8" stroke-width="2.6242" stroke-miterlimit="10" d="M110.511,390.971"/>
	
		<ellipse fill="none" stroke="#030AF8" stroke-width="2.6242" stroke-miterlimit="10" cx="107.775" cy="371.194" rx="19.499" ry="19.777"/>
</g>
<path fill="none" stroke="#030AF8" stroke-width="2.6242" stroke-miterlimit="10" d="M110.486,391.005
	c8.394,0.689,15.675,5.267,20.075,11.917"/>
<g>
	<path fill="none" stroke="#030AF8" stroke-width="2.6242" stroke-miterlimit="10" d="M271.423,247.135
		c7.419,0.487,14.009,4,18.551,9.319"/>
	<path fill="none" stroke="#030AF8" stroke-width="2.6242" stroke-miterlimit="10" d="M295.705,279.704
		c0.43-1.903,0.664-3.879,0.664-5.912c0-6.618-2.411-12.67-6.396-17.337"/>
	<path fill="none" stroke="#030AF8" stroke-width="2.6242" stroke-miterlimit="10" d="M267.433,247.169
		c-13.721,1.127-24.507,12.612-24.507,26.623c0,2.033,0.235,4.009,0.664,5.912"/>
	
		<ellipse fill="none" stroke="#030AF8" stroke-width="2.6242" stroke-miterlimit="10" cx="268.687" cy="227.358" rx="19.499" ry="19.777"/>
</g>
<path fill="none" stroke="#030AF8" stroke-width="2.6242" stroke-miterlimit="10" d="M223.621,213.888
	c10.672,0.115,19.29,8.915,19.29,19.766c0,10.851-8.618,19.651-19.29,19.766"/>
<path fill="none" stroke="#030AF8" stroke-width="2.6242" stroke-miterlimit="10" d="M223.621,213.888
	c-0.07-0.001-0.138-0.011-0.209-0.011c-10.769,0-19.499,8.854-19.499,19.777c0,10.923,8.73,19.777,19.499,19.777
	c0.071,0,0.139-0.01,0.209-0.011"/>
<path fill="none" stroke="#030AF8" stroke-width="2.6242" stroke-miterlimit="10" d="M246.198,265.381
	c-4.4-6.65-11.681-11.227-20.075-11.917"/>
<circle fill="none" stroke="#030AF8" stroke-width="2.8834" stroke-miterlimit="10" cx="254.695" cy="239.016" r="50.046"/>
<circle fill="none" stroke="#030AF8" stroke-width="4.2854" stroke-miterlimit="10" cx="465.428" cy="2.514" r="74.379"/>
<circle fill="none" stroke="#030AF8" stroke-width="2.8834" stroke-miterlimit="10" cx="-299.61" cy="448.109" r="50.046"/>
<g>
	<path fill="none" stroke="#030AF8" stroke-width="2.6242" stroke-miterlimit="10" d="M-401.594,341.664
		c7.419,0.487,14.009,4,18.55,9.319"/>
	<path fill="none" stroke="#030AF8" stroke-width="2.6242" stroke-miterlimit="10" d="M-377.312,374.232
		c0.43-1.903,0.664-3.879,0.664-5.912c0-6.618-2.411-12.67-6.396-17.337"/>
	<path fill="none" stroke="#030AF8" stroke-width="2.6242" stroke-miterlimit="10" d="M-405.584,341.697
		c-13.721,1.127-24.507,12.612-24.507,26.623c0,2.033,0.234,4.009,0.664,5.912"/>
	
		<ellipse fill="none" stroke="#030AF8" stroke-width="2.6242" stroke-miterlimit="10" cx="-404.33" cy="321.887" rx="19.499" ry="19.777"/>
</g>
<g>
	<path fill="none" stroke="#030AF8" stroke-width="2.6242" stroke-miterlimit="10" d="M-495.311,155.18
		c7.419,0.487,14.009,4,18.55,9.319"/>
	<path fill="none" stroke="#030AF8" stroke-width="2.6242" stroke-miterlimit="10" d="M-471.029,187.749
		c0.43-1.903,0.664-3.879,0.664-5.912c0-6.618-2.411-12.67-6.396-17.337"/>
	<path fill="none" stroke="#030AF8" stroke-width="2.6242" stroke-miterlimit="10" d="M-499.301,155.213
		c-13.721,1.127-24.507,12.612-24.507,26.623c0,2.033,0.234,4.009,0.664,5.912"/>
	
		<ellipse fill="none" stroke="#030AF8" stroke-width="2.6242" stroke-miterlimit="10" cx="-498.048" cy="135.403" rx="19.499" ry="19.777"/>
</g>
<g>
	<path fill="none" stroke="#030AF8" stroke-width="2.6242" stroke-miterlimit="10" d="M-467.579,338.171
		c-8.394,0.689-15.675,5.267-20.075,11.917"/>
	<path fill="none" stroke="#030AF8" stroke-width="2.6242" stroke-miterlimit="10" d="M-463.589,338.138"/>
	
		<ellipse fill="none" stroke="#030AF8" stroke-width="2.6242" stroke-miterlimit="10" cx="-466.325" cy="318.361" rx="19.499" ry="19.777"/>
</g>
<path fill="none" stroke="#030AF8" stroke-width="2.6242" stroke-miterlimit="10" d="M-463.614,338.171
	c8.394,0.689,15.675,5.267,20.075,11.917"/>
<g>
	<path fill="none" stroke="#030AF8" stroke-width="2.6242" stroke-miterlimit="10" d="M-522.93,257.625
		c-8.394,0.689-15.675,5.267-20.075,11.917"/>
	<path fill="none" stroke="#030AF8" stroke-width="2.6242" stroke-miterlimit="10" d="M-518.941,257.592"/>
	
		<ellipse fill="none" stroke="#030AF8" stroke-width="2.6242" stroke-miterlimit="10" cx="-521.677" cy="237.815" rx="19.499" ry="19.777"/>
</g>
<path fill="none" stroke="#030AF8" stroke-width="2.6242" stroke-miterlimit="10" d="M-518.965,257.625
	c8.394,0.689,15.675,5.267,20.075,11.917"/>
<circle fill="none" stroke="#030AF8" stroke-width="2.8834" stroke-miterlimit="10" cx="-430.9" cy="321.459" r="50.046"/>
<rect x="-589.215" y="113.517" fill="none" stroke="#030AF8" stroke-width="2.3214" stroke-miterlimit="10" width="61.571" height="57.054"/>
<path fill="none" stroke="#030AF8" stroke-width="0" stroke-linecap="round" stroke-linejoin="round" d="M-609.289,169.835
	c4.4-6.65,11.681-11.227,20.075-11.917"/>
<path fill="none" stroke="#030AF8" stroke-width="0" stroke-linecap="round" stroke-linejoin="round" d="M-589.215,118.396
	c-10.182,0.659-18.245,9.219-18.245,19.713c0,10.493,8.064,19.054,18.245,19.713"/>
<g>
	<path fill="none" stroke="#030AF8" stroke-width="2.6242" stroke-miterlimit="10" d="M-589.215,118.396
		c0.417-0.027,0.83-0.064,1.254-0.064c10.769,0,19.499,8.854,19.499,19.777c0,10.922-8.73,19.777-19.499,19.777
		c-0.423,0-0.837-0.037-1.254-0.064"/>
	<path fill="none" stroke="#030AF8" stroke-width="2.6242" stroke-miterlimit="10" d="M-565.175,169.835
		c-4.4-6.65-11.681-11.227-20.075-11.917"/>
</g>
<g>
	<path fill="none" stroke="#030AF8" stroke-width="2.6242" stroke-miterlimit="10" d="M500.971,10.009
		c7.419,0.487,14.009,4,18.55,9.319"/>
	<path fill="none" stroke="#030AF8" stroke-width="2.6242" stroke-miterlimit="10" d="M525.253,42.577
		c0.43-1.903,0.664-3.879,0.664-5.912c0-6.618-2.411-12.67-6.396-17.337"/>
	<path fill="none" stroke="#030AF8" stroke-width="2.6242" stroke-miterlimit="10" d="M496.981,10.042
		c-13.721,1.127-24.507,12.612-24.507,26.623c0,2.033,0.234,4.009,0.664,5.912"/>
	
		<ellipse fill="none" stroke="#030AF8" stroke-width="2.6242" stroke-miterlimit="10" cx="498.235" cy="-9.768" rx="19.499" ry="19.777"/>
</g>
<rect x="391.135" y="-29.545" fill="none" stroke="#030AF8" stroke-width="2.2537" stroke-miterlimit="10" width="58.032" height="57.054"/>
<g>
	<path fill="none" stroke="#030AF8" stroke-width="2.6242" stroke-miterlimit="10" d="M395.048-23.174
		c0.417-0.027,0.83-0.064,1.254-0.064c10.769,0,19.499,8.854,19.499,19.777c0,10.922-8.73,19.777-19.499,19.777
		c-0.423,0-0.837-0.037-1.254-0.064"/>
	<path fill="none" stroke="#030AF8" stroke-width="2.6242" stroke-miterlimit="10" d="M419.088,28.266
		c-4.4-6.65-11.681-11.227-20.075-11.917"/>
</g>
<line fill="none" stroke="#030AF8" stroke-width="0" stroke-linecap="round" stroke-linejoin="round" x1="-589.215" y1="157.919" x2="-589.215" y2="157.821"/>
<polyline fill="none" stroke="#030AF8" stroke-width="0" stroke-linecap="round" stroke-linejoin="round" points="-589.215,118.396 
	-589.215,106.059 -665.729,106.059 -665.729,177.066 -589.215,177.066 -589.215,157.919 "/>
<line fill="none" stroke="#030AF8" stroke-width="0" stroke-linecap="round" stroke-linejoin="round" x1="-589.215" y1="118.396" x2="-589.215" y2="157.821"/>
<line fill="none" stroke="#030AF8" stroke-width="2.2537" stroke-miterlimit="10" x1="237.73" y1="-171.75" x2="342.167" y2="-171.75"/>
<g>
	
		<line fill="none" stroke="#030AF8" stroke-width="2.4782" stroke-miterlimit="10" x1="427.962" y1="-358.403" x2="474.54" y2="-358.403"/>
	
		<line fill="none" stroke="#030AF8" stroke-width="2.4782" stroke-miterlimit="10" x1="444.081" y1="-307.066" x2="474.526" y2="-307.066"/>
	
		<line fill="none" stroke="#030AF8" stroke-width="2.4782" stroke-miterlimit="10" x1="474.025" y1="-307.066" x2="474.025" y2="-358.403"/>
</g>
<circle fill="none" stroke="#030AF8" stroke-width="3.2496" stroke-miterlimit="10" cx="484.728" cy="-346.165" r="56.401"/>
<g>
	<path fill="none" stroke="#030AF8" stroke-width="2.6242" stroke-miterlimit="10" d="M502.459-339.139
		c7.419,0.487,14.009,4,18.551,9.319"/>
	<path fill="none" stroke="#030AF8" stroke-width="2.6242" stroke-miterlimit="10" d="M526.741-306.571
		c0.43-1.903,0.664-3.879,0.664-5.912c0-6.618-2.411-12.67-6.396-17.337"/>
	<path fill="none" stroke="#030AF8" stroke-width="2.6242" stroke-miterlimit="10" d="M498.469-339.106
		c-13.721,1.127-24.507,12.612-24.507,26.623c0,2.033,0.235,4.009,0.664,5.912"/>
	
		<ellipse fill="none" stroke="#030AF8" stroke-width="2.6242" stroke-miterlimit="10" cx="499.723" cy="-358.916" rx="19.499" ry="19.777"/>
</g>
<g>
	<path fill="none" stroke="#030AF8" stroke-width="2.6242" stroke-miterlimit="10" d="M436.503-358.339
		c0.417-0.027,0.83-0.064,1.254-0.064c10.769,0,19.499,8.854,19.499,19.777c0,10.922-8.73,19.777-19.499,19.777
		c-0.423,0-0.837-0.037-1.254-0.064"/>
	<path fill="none" stroke="#030AF8" stroke-width="2.6242" stroke-miterlimit="10" d="M460.543-306.899
		c-4.4-6.65-11.681-11.227-20.075-11.917"/>
</g>
<g>
	
		<line fill="none" stroke="#030AF8" stroke-width="2.4782" stroke-miterlimit="10" x1="252.585" y1="-377.583" x2="285.247" y2="-377.583"/>
	
		<line fill="none" stroke="#030AF8" stroke-width="2.4782" stroke-miterlimit="10" x1="249.042" y1="-326.079" x2="285.234" y2="-326.246"/>
	
		<line fill="none" stroke="#030AF8" stroke-width="2.4782" stroke-miterlimit="10" x1="284.732" y1="-326.246" x2="284.732" y2="-377.583"/>
</g>
<circle fill="none" stroke="#030AF8" stroke-width="3.2496" stroke-miterlimit="10" cx="300.552" cy="-347.906" r="56.401"/>
<g>
	<path fill="none" stroke="#030AF8" stroke-width="3.0289" stroke-miterlimit="10" d="M321.217-330.448
		c8.564,0.562,16.169,4.617,21.411,10.757"/>
	<path fill="none" stroke="#030AF8" stroke-width="3.0289" stroke-miterlimit="10" d="M346.526-313.924
		c-1.082-2.071-2.392-4.005-3.897-5.767"/>
	<path fill="none" stroke="#030AF8" stroke-width="3.0289" stroke-miterlimit="10" d="M316.612-330.409
		c-15.837,1.301-28.287,14.557-28.287,30.729c0,2.346,0.271,4.628,0.767,6.824"/>
	
		<ellipse fill="none" stroke="#030AF8" stroke-width="3.0289" stroke-miterlimit="10" cx="318.059" cy="-353.275" rx="22.506" ry="22.827"/>
</g>
<g>
	<path fill="none" stroke="#030AF8" stroke-width="2.6242" stroke-miterlimit="10" d="M251.263-377.38
		c0.109,0.016,0.217,0.033,0.325,0.05c9.284,1.516,16.375,9.681,16.375,19.525c0,10.922-8.73,19.777-19.499,19.777
		c-0.423,0-0.837-0.037-1.254-0.064"/>
	<path fill="none" stroke="#030AF8" stroke-width="2.6242" stroke-miterlimit="10" d="M271.25-326.079
		c-4.4-6.65-11.681-11.227-20.075-11.917"/>
</g>
<g>
	
		<line fill="none" stroke="#03EE0C" stroke-width="2.7426" stroke-miterlimit="10" x1="25.586" y1="-460.836" x2="57.594" y2="-460.836"/>
	
		<line fill="none" stroke="#03EE0C" stroke-width="2.7426" stroke-miterlimit="10" x1="17.009" y1="-403.342" x2="56.717" y2="-403.529"/>
	
		<line fill="none" stroke="#03EE0C" stroke-width="2.7426" stroke-miterlimit="10" x1="56.167" y1="-403.529" x2="56.167" y2="-460.836"/>
</g>
<circle fill="none" stroke="#03EE0C" stroke-width="3.2496" stroke-miterlimit="10" cx="-304.63" cy="87.772" r="56.401"/>
<g>
	<path fill="none" stroke="#03EE0C" stroke-width="3.0289" stroke-miterlimit="10" d="M-283.964,105.23
		c8.564,0.562,16.169,4.617,21.411,10.757"/>
	<path fill="none" stroke="#03EE0C" stroke-width="3.0289" stroke-miterlimit="10" d="M-258.656,121.754
		c-1.082-2.071-2.392-4.005-3.897-5.767"/>
	<path fill="none" stroke="#03EE0C" stroke-width="3.0289" stroke-miterlimit="10" d="M-288.569,105.269
		c-15.837,1.301-28.287,14.557-28.287,30.729c0,2.346,0.271,4.628,0.767,6.824"/>
	
		<ellipse fill="none" stroke="#03EE0C" stroke-width="3.0289" stroke-miterlimit="10" cx="-287.122" cy="82.403" rx="22.506" ry="22.827"/>
</g>
<g>
	<path fill="none" stroke="#03EE0C" stroke-width="2.6242" stroke-miterlimit="10" d="M-353.918,58.298
		c0.109,0.016,0.217,0.033,0.325,0.05c9.284,1.516,16.375,9.681,16.375,19.525c0,10.922-8.73,19.777-19.499,19.777
		c-0.423,0-0.837-0.037-1.254-0.064"/>
	<path fill="none" stroke="#03EE0C" stroke-width="2.6242" stroke-miterlimit="10" d="M-333.931,109.6
		c-4.4-6.65-11.681-11.227-20.075-11.917"/>
</g>
<path fill="none" stroke="#03EE0C" stroke-width="2.7681" stroke-miterlimit="10" d="M-812.162-50.604
	c0,3.004-2.927,5.439-6.537,5.439h-80.317c-3.611,0-6.537-2.435-6.537-5.439v-66.82c0-3.004,2.927-5.439,6.537-5.439h80.317
	c3.611,0,6.537,2.435,6.537,5.439V-50.604z"/>
<g>
	<path fill="none" stroke="#030AF8" stroke-width="2.478" stroke-miterlimit="10" d="M-19.041,67.259
		c5.356,0.352,10.113,2.888,13.391,6.727"/>
	<path fill="none" stroke="#030AF8" stroke-width="2.478" stroke-miterlimit="10" d="M-1.512,90.77c0.31-1.373,0.48-2.8,0.48-4.268
		c0-4.778-1.741-9.146-4.617-12.515"/>
	<path fill="none" stroke="#030AF8" stroke-width="2.478" stroke-miterlimit="10" d="M-21.921,67.284
		c-9.905,0.813-17.691,9.104-17.691,19.219c0,1.467,0.169,2.894,0.48,4.268"/>
	
		<ellipse fill="none" stroke="#030AF8" stroke-width="2.478" stroke-miterlimit="10" cx="-21.016" cy="52.983" rx="14.076" ry="14.276"/>
</g>
<g>
	<path fill="none" stroke="#030AF8" stroke-width="2.5" stroke-miterlimit="10" d="M-77.804,64.676
		c-6.114,0.502-11.416,3.836-14.62,8.679"/>
	<path fill="none" stroke="#030AF8" stroke-width="2.5" stroke-miterlimit="10" d="M-74.899,64.651"/>
	
		<ellipse fill="none" stroke="#030AF8" stroke-width="2.5" stroke-miterlimit="10" cx="-76.892" cy="50.248" rx="14.201" ry="14.403"/>
</g>
<path fill="none" stroke="#030AF8" stroke-width="2.5" stroke-miterlimit="10" d="M-74.917,64.676
	c6.114,0.502,11.416,3.836,14.62,8.679"/>
<path fill="none" stroke="#030AF8" stroke-width="2.5" stroke-miterlimit="10" d="M-43.796,69.282c0,2.188-2.132,3.961-4.761,3.961
	h-58.494c-2.63,0-4.761-1.773-4.761-3.961V20.617c0-2.188,2.132-3.961,4.761-3.961h58.494c2.63,0,4.761,1.773,4.761,3.961V69.282z"
	/>
<g>
	<g>
		<path fill="none" stroke="#030AF8" stroke-width="2.6242" stroke-miterlimit="10" d="M-153.081-46.407
			c7.419,0.487,14.009,4,18.55,9.319"/>
		<path fill="none" stroke="#030AF8" stroke-width="2.6242" stroke-miterlimit="10" d="M-128.799-13.838
			c0.43-1.903,0.664-3.879,0.664-5.912c0-6.618-2.411-12.67-6.396-17.337"/>
		<path fill="none" stroke="#030AF8" stroke-width="2.6242" stroke-miterlimit="10" d="M-157.071-46.373
			c-13.721,1.127-24.507,12.612-24.507,26.623c0,2.033,0.235,4.009,0.664,5.912"/>
		
			<ellipse fill="none" stroke="#030AF8" stroke-width="2.6242" stroke-miterlimit="10" cx="-155.818" cy="-66.184" rx="19.499" ry="19.777"/>
	</g>
	<g>
		<g>
			<path fill="none" stroke="#030AF8" stroke-width="2.6242" stroke-miterlimit="10" d="M-231.086-49.899
				c-8.394,0.689-15.675,5.267-20.075,11.917"/>
			<path fill="none" stroke="#030AF8" stroke-width="2.6242" stroke-miterlimit="10" d="M-227.096-49.933"/>
			
				<ellipse fill="none" stroke="#030AF8" stroke-width="2.6242" stroke-miterlimit="10" cx="-229.832" cy="-69.71" rx="19.499" ry="19.777"/>
		</g>
		
			<rect x="-273.258" y="-109.64" fill="none" stroke="#030AF8" stroke-width="2.6242" stroke-miterlimit="10" width="91.886" height="71.985"/>
		<path fill="none" stroke="#030AF8" stroke-width="2.6242" stroke-miterlimit="10" d="M-227.121-49.899
			c8.394,0.689,15.675,5.267,20.075,11.917"/>
	</g>
</g>
<g>
	<circle fill="none" stroke="#030AF8" stroke-width="2.5" stroke-miterlimit="10" cx="-67.413" cy="153.287" r="15.976"/>
	<circle fill="none" stroke="#030AF8" stroke-width="2.5" stroke-miterlimit="10" cx="-67.413" cy="153.287" r="29.596"/>
	<circle fill="none" stroke="#030AF8" stroke-width="2.5" stroke-miterlimit="10" cx="-67.413" cy="153.287" r="4.149"/>
	<circle fill="none" stroke="#030AF8" stroke-width="2.5" stroke-miterlimit="10" cx="-67.413" cy="153.287" r="48.057"/>
	<g>
		
			<line fill="none" stroke="#030AF8" stroke-width="2.5" stroke-miterlimit="10" x1="-67.274" y1="152.945" x2="-20.59" y2="126.93"/>
		<polygon fill="none" stroke="#030AF8" stroke-width="2.5" stroke-miterlimit="10" points="-20.625,126.977 -12.043,113.876 
			-5.123,127.949 		"/>
	</g>
</g>
<path fill="none" stroke="#030AF8" stroke-width="2.1116" stroke-linecap="round" stroke-miterlimit="10" d="M-63.256,331.69
	c0,0-10.647-11.884-13.521-41.507c0,0-0.599-6.179,6.67-7.08c0,0,5.795-1.629,13.74,0.015"/>
<path fill="none" stroke="#030AF8" stroke-width="2.1116" stroke-linecap="round" stroke-miterlimit="10" d="M-63.258,331.699
	c0,0,10.64-11.891,13.497-41.514c0,0,0.595-6.179-6.674-7.075"/>
<circle fill="none" stroke="#030AF8" stroke-width="2.1116" stroke-miterlimit="10" cx="-63.264" cy="259.63" r="13.58"/>
<path fill="#030AF8" d="M-88.946,261.322c0-14.745,11.525-26.697,25.742-26.697s25.742,11.952,25.742,26.697
	c0,6.296-2.114,12.071-5.629,16.636c4.242-4.771,6.839-11.037,6.839-17.923c0-14.919-12.095-27.014-27.014-27.014
	s-27.013,12.094-27.013,27.012c0,7.529,3.086,14.334,8.055,19.232C-86.388,274.523-88.946,268.24-88.946,261.322z"/>
<path fill="#030AF8" d="M-99.441,263.438c0-20.769,16.235-37.606,36.263-37.606s36.263,16.837,36.263,37.606
	c0,8.868-2.978,17.004-7.928,23.434c5.975-6.72,9.635-15.546,9.635-25.247c0-21.016-17.037-38.054-38.054-38.054
	s-38.054,17.037-38.054,38.053c0,10.607,4.348,20.19,11.347,27.091C-95.835,282.035-99.441,273.184-99.441,263.438z"/>
<path fill="#030AF8" d="M-113.261,266.224c0-28.703,22.437-51.972,50.115-51.972s50.115,23.268,50.115,51.972
	c0,12.257-4.115,23.499-10.958,32.385c8.258-9.289,13.316-21.484,13.316-34.89c0-29.045-23.545-52.591-52.591-52.591
	s-52.591,23.544-52.591,52.589c0,14.657,6.008,27.902,15.681,37.44C-108.278,291.925-113.261,279.694-113.261,266.224z"/>
<g>
	<path fill="#001FF4" d="M-87.549,363.383c0.226,0.044,0.454,0.078,0.676,0.134c0.813,0.205,1.492,0.605,2.022,1.265
		c1.158,1.443,2.335,2.87,3.505,4.303c0.236,0.289,0.236,0.293-0.139,0.353c-1.978,0.316-3.914,0.793-5.806,1.443
		c-2.883,0.989-5.584,2.335-8.104,4.033c-2.052,1.383-3.927,2.967-5.634,4.746c-0.509,0.53-0.997,1.078-1.47,1.639
		c-0.213,0.253-0.241,0.25-0.357-0.044c-0.705-1.781-1.416-3.559-2.109-5.344c-0.272-0.7-0.219-1.417-0.012-2.125
		c0.214-0.733,0.595-1.384,1.05-1.996c0.557-0.749,1.22-1.401,1.921-2.017c1.152-1.011,2.414-1.876,3.725-2.673
		c1.521-0.924,3.089-1.763,4.735-2.452c1.214-0.507,2.457-0.927,3.76-1.155c0.234-0.041,0.47-0.074,0.705-0.111
		C-88.569,363.383-88.059,363.383-87.549,363.383z"/>
	<path fill="#001FF4" d="M-37.298,362.608c0.397,0.073,0.799,0.115,1.193,0.204c1.068,0.238,2.103,0.579,3.107,1.004
		c2.568,1.086,4.974,2.453,7.208,4.105c1.063,0.786,2.05,1.659,2.881,2.688c0.532,0.659,0.977,1.368,1.225,2.181
		c0.245,0.803,0.236,1.59-0.086,2.383c-0.667,1.641-1.306,3.292-1.958,4.938c-0.148,0.374-0.153,0.375-0.409,0.073
		c-2.576-3.049-5.603-5.575-9.086-7.568c-2.937-1.68-6.063-2.895-9.376-3.64c-0.741-0.167-1.487-0.307-2.238-0.426
		c-0.04-0.006-0.081-0.007-0.12-0.018c-0.115-0.032-0.131-0.071-0.064-0.168c0.04-0.059,0.089-0.113,0.134-0.169
		c1.14-1.397,2.289-2.786,3.415-4.194c0.582-0.728,1.337-1.134,2.239-1.314c0.142-0.028,0.286-0.053,0.428-0.079
		C-38.302,362.608-37.8,362.608-37.298,362.608z"/>
	
		<ellipse fill="none" stroke="#030AF8" stroke-width="3" stroke-miterlimit="10" cx="-63.265" cy="422.721" rx="51.635" ry="50.81"/>
	
		<line fill="none" stroke="#030AF8" stroke-width="3" stroke-linecap="round" stroke-miterlimit="10" x1="-63.07" y1="387.854" x2="-63.07" y2="422.835"/>
	
		<line fill="none" stroke="#030AF8" stroke-width="3" stroke-linecap="round" stroke-miterlimit="10" x1="-98.619" y1="422.835" x2="-63.07" y2="422.835"/>
</g>
<g>
	
		<line fill="none" stroke="#030AF8" stroke-width="2.5" stroke-miterlimit="10" x1="1497.176" y1="161.666" x2="1496.943" y2="88.219"/>
	
		<line fill="none" stroke="#030AF8" stroke-width="2.5" stroke-miterlimit="10" x1="1403.569" y1="88.723" x2="1497.992" y2="88.723"/>
	
		<line fill="none" stroke="#030AF8" stroke-width="2.5" stroke-miterlimit="10" x1="1404.455" y1="161.712" x2="1404.236" y2="87.597"/>
	
		<line fill="none" stroke="#030AF8" stroke-width="2.6242" stroke-miterlimit="10" x1="1450.213" y1="137.222" x2="1450.398" y2="88.945"/>
	
		<line fill="none" stroke="#030AF8" stroke-width="2.5" stroke-miterlimit="10" x1="1450.594" y1="110.975" x2="1496.478" y2="110.975"/>
	
		<line fill="none" stroke="#030AF8" stroke-width="2.5" stroke-miterlimit="10" x1="1450.406" y1="99.739" x2="1496.11" y2="99.739"/>
	
		<line fill="none" stroke="#030AF8" stroke-width="2.5" stroke-miterlimit="10" x1="1450.38" y1="124.669" x2="1496.966" y2="124.669"/>
	
		<line fill="none" stroke="#030AF8" stroke-width="2.5" stroke-miterlimit="10" x1="1403.851" y1="137.222" x2="1496.903" y2="137.222"/>
	
		<line fill="none" stroke="#030AF8" stroke-width="2.5" stroke-miterlimit="10" x1="1403.88" y1="149.204" x2="1496.966" y2="149.204"/>
	
		<line fill="none" stroke="#030AF8" stroke-width="2.5" stroke-miterlimit="10" x1="1403.88" y1="160.615" x2="1496.903" y2="160.615"/>
	<g>
		<polygon fill="none" stroke="#030AF8" stroke-width="2.6242" stroke-miterlimit="10" points="1428.259,121.787 1429.664,120.813 
			1429.077,122.513 1430.205,123.211 1428.858,123.343 1428.48,124.654 1427.967,123.33 1426.305,123.43 1427.557,122.349 
			1426.944,120.904 		"/>
	</g>
	<g>
		<polygon fill="none" stroke="#030AF8" stroke-width="2.6242" stroke-miterlimit="10" points="1428.259,100.164 1429.664,99.19 
			1429.077,100.89 1430.205,101.588 1428.858,101.721 1428.479,103.032 1427.967,101.707 1426.305,101.807 1427.557,100.727 
			1426.944,99.282 		"/>
	</g>
	<g>
		<polygon fill="none" stroke="#030AF8" stroke-width="2.6242" stroke-miterlimit="10" points="1412.615,97.859 1414.019,96.886 
			1413.432,98.586 1414.561,99.284 1413.214,99.416 1412.835,100.727 1412.323,99.403 1410.661,99.502 1411.913,98.423 
			1411.3,96.977 		"/>
	</g>
	<g>
		<polygon fill="none" stroke="#030AF8" stroke-width="2.6242" stroke-miterlimit="10" points="1414.564,113.566 1415.969,112.592 
			1415.381,114.292 1416.51,114.99 1415.163,115.123 1414.785,116.434 1414.272,115.109 1412.611,115.209 1413.862,114.129 
			1413.25,112.684 		"/>
	</g>
	<g>
		<polygon fill="none" stroke="#030AF8" stroke-width="2.6242" stroke-miterlimit="10" points="1415.463,128.366 1416.867,127.393 
			1416.28,129.092 1417.408,129.791 1416.061,129.923 1415.683,131.234 1415.17,129.909 1413.509,130.009 1414.76,128.929 
			1414.147,127.484 		"/>
	</g>
	<g>
		<polygon fill="none" stroke="#030AF8" stroke-width="2.6242" stroke-miterlimit="10" points="1441.833,127.167 1443.237,126.194 
			1442.65,127.893 1443.779,128.592 1442.431,128.724 1442.053,130.035 1441.54,128.71 1439.879,128.81 1441.131,127.731 
			1440.518,126.285 		"/>
	</g>
	<g>
		<polygon fill="none" stroke="#030AF8" stroke-width="2.6242" stroke-miterlimit="10" points="1441.832,111.646 1443.237,110.672 
			1442.65,112.372 1443.779,113.07 1442.431,113.202 1442.053,114.513 1441.54,113.189 1439.879,113.289 1441.13,112.209 
			1440.518,110.763 		"/>
	</g>
	<g>
		<polygon fill="none" stroke="#030AF8" stroke-width="2.6242" stroke-miterlimit="10" points="1440.647,93.982 1442.051,93.008 
			1441.464,94.708 1442.593,95.406 1441.246,95.539 1440.867,96.85 1440.355,95.525 1438.693,95.625 1439.944,94.545 1439.332,93.1 
					"/>
	</g>
	
		<rect x="1506.042" y="87.215" fill="none" stroke="#030AF8" stroke-width="2.5" stroke-miterlimit="10" width="100.784" height="75.298"/>
	
		<line fill="none" stroke="#030AF8" stroke-width="2.5" stroke-miterlimit="10" x1="1525.417" y1="87.215" x2="1541.877" y2="102.479"/>
	
		<line fill="none" stroke="#030AF8" stroke-width="2.5" stroke-miterlimit="10" x1="1506.042" y1="93.323" x2="1528.975" y2="116.434"/>
	<g>
		<g>
			<path fill="none" stroke="#030AF8" stroke-width="2.5" stroke-miterlimit="10" d="M1509.75,115.811"/>
			<path fill="none" stroke="#030AF8" stroke-width="2.5" stroke-miterlimit="10" d="M1509.75,90.773"/>
			
				<line fill="none" stroke="#030AF8" stroke-width="2.5" stroke-miterlimit="10" x1="1541.877" y1="87.922" x2="1541.938" y2="117.024"/>
		</g>
		
			<line fill="none" stroke="#030AF8" stroke-width="2.5" stroke-miterlimit="10" x1="1506.042" y1="116.046" x2="1542.952" y2="116.046"/>
	</g>
	
		<line fill="none" stroke="#030AF8" stroke-width="2.5" stroke-miterlimit="10" x1="1589.979" y1="162.513" x2="1571.344" y2="145.366"/>
	
		<line fill="none" stroke="#030AF8" stroke-width="2.5" stroke-miterlimit="10" x1="1607.179" y1="154.522" x2="1584.247" y2="131.412"/>
	<g>
		<g>
			<path fill="none" stroke="#030AF8" stroke-width="2.5" stroke-miterlimit="10" d="M1603.471,132.034"/>
			<path fill="none" stroke="#030AF8" stroke-width="2.5" stroke-miterlimit="10" d="M1603.471,157.073"/>
			
				<line fill="none" stroke="#030AF8" stroke-width="2.5" stroke-miterlimit="10" x1="1571.344" y1="162.25" x2="1571.284" y2="130.821"/>
		</g>
		
			<line fill="none" stroke="#030AF8" stroke-width="2.5" stroke-miterlimit="10" x1="1607.179" y1="131.8" x2="1570.27" y2="131.8"/>
	</g>
	
		<line fill="none" stroke="#030AF8" stroke-width="2.5" stroke-miterlimit="10" x1="1526.023" y1="162.513" x2="1543.403" y2="145.835"/>
	
		<line fill="none" stroke="#030AF8" stroke-width="2.5" stroke-miterlimit="10" x1="1506.042" y1="156.125" x2="1530.501" y2="131.88"/>
	<g>
		<g>
			<path fill="none" stroke="#030AF8" stroke-width="2.5" stroke-miterlimit="10" d="M1511.276,132.503"/>
			<path fill="none" stroke="#030AF8" stroke-width="2.5" stroke-miterlimit="10" d="M1511.276,157.542"/>
			
				<line fill="none" stroke="#030AF8" stroke-width="2.5" stroke-miterlimit="10" x1="1542.952" y1="162.513" x2="1543.464" y2="131.29"/>
		</g>
		
			<line fill="none" stroke="#030AF8" stroke-width="2.5" stroke-miterlimit="10" x1="1507.568" y1="132.268" x2="1544.477" y2="132.268"/>
	</g>
	
		<line fill="none" stroke="#030AF8" stroke-width="2.5" stroke-miterlimit="10" x1="1586.73" y1="87.569" x2="1570.27" y2="102.833"/>
	
		<line fill="none" stroke="#030AF8" stroke-width="2.5" stroke-miterlimit="10" x1="1606.105" y1="93.677" x2="1583.172" y2="116.787"/>
	<g>
		<g>
			<path fill="none" stroke="#030AF8" stroke-width="2.5" stroke-miterlimit="10" d="M1602.397,116.165"/>
			<path fill="none" stroke="#030AF8" stroke-width="2.5" stroke-miterlimit="10" d="M1602.397,91.126"/>
			
				<line fill="none" stroke="#030AF8" stroke-width="2.5" stroke-miterlimit="10" x1="1570.27" y1="88.276" x2="1570.209" y2="117.378"/>
		</g>
		
			<line fill="none" stroke="#030AF8" stroke-width="2.5" stroke-miterlimit="10" x1="1606.105" y1="116.4" x2="1569.195" y2="116.4"/>
	</g>
</g>
<g>
	
		<line fill="none" stroke="#030AF8" stroke-width="1.378" stroke-miterlimit="10" x1="56.387" y1="87.544" x2="56.259" y2="47.061"/>
	<line fill="none" stroke="#030AF8" stroke-width="1.378" stroke-miterlimit="10" x1="4.792" y1="47.339" x2="56.837" y2="47.339"/>
	<line fill="none" stroke="#030AF8" stroke-width="1.378" stroke-miterlimit="10" x1="5.28" y1="87.569" x2="5.16" y2="46.718"/>
	
		<line fill="none" stroke="#030AF8" stroke-width="1.4464" stroke-miterlimit="10" x1="30.501" y1="74.071" x2="30.604" y2="47.461"/>
	
		<line fill="none" stroke="#030AF8" stroke-width="1.378" stroke-miterlimit="10" x1="30.711" y1="59.604" x2="56.003" y2="59.604"/>
	<line fill="none" stroke="#030AF8" stroke-width="1.378" stroke-miterlimit="10" x1="30.608" y1="53.411" x2="55.8" y2="53.411"/>
	
		<line fill="none" stroke="#030AF8" stroke-width="1.378" stroke-miterlimit="10" x1="30.594" y1="67.152" x2="56.272" y2="67.152"/>
	<line fill="none" stroke="#030AF8" stroke-width="1.378" stroke-miterlimit="10" x1="4.947" y1="74.071" x2="56.237" y2="74.071"/>
	<line fill="none" stroke="#030AF8" stroke-width="1.378" stroke-miterlimit="10" x1="4.963" y1="80.675" x2="56.272" y2="80.675"/>
	<line fill="none" stroke="#030AF8" stroke-width="1.378" stroke-miterlimit="10" x1="4.963" y1="86.965" x2="56.237" y2="86.965"/>
	<g>
		<polygon fill="none" stroke="#030AF8" stroke-width="1.4464" stroke-miterlimit="10" points="18.401,65.563 19.175,65.026 
			18.852,65.963 19.474,66.348 18.731,66.421 18.523,67.144 18.24,66.414 17.324,66.469 18.014,65.873 17.676,65.077 		"/>
	</g>
	<g>
		<polygon fill="none" stroke="#030AF8" stroke-width="1.4464" stroke-miterlimit="10" points="18.401,53.645 19.175,53.108 
			18.852,54.045 19.474,54.43 18.731,54.503 18.522,55.226 18.24,54.496 17.324,54.551 18.014,53.955 17.676,53.159 		"/>
	</g>
	<g>
		<polygon fill="none" stroke="#030AF8" stroke-width="1.4464" stroke-miterlimit="10" points="9.778,52.375 10.552,51.838 
			10.228,52.775 10.85,53.16 10.108,53.233 9.899,53.955 9.617,53.225 8.701,53.28 9.391,52.685 9.053,51.888 		"/>
	</g>
	<g>
		<polygon fill="none" stroke="#030AF8" stroke-width="1.4464" stroke-miterlimit="10" points="10.852,61.032 11.626,60.495 
			11.303,61.432 11.925,61.817 11.183,61.89 10.974,62.613 10.691,61.883 9.776,61.938 10.465,61.342 10.128,60.546 		"/>
	</g>
	<g>
		<polygon fill="none" stroke="#030AF8" stroke-width="1.4464" stroke-miterlimit="10" points="11.348,69.19 12.122,68.653 
			11.798,69.59 12.42,69.975 11.677,70.048 11.469,70.77 11.186,70.04 10.27,70.095 10.96,69.5 10.623,68.703 		"/>
	</g>
	<g>
		<polygon fill="none" stroke="#030AF8" stroke-width="1.4464" stroke-miterlimit="10" points="25.883,68.529 26.657,67.992 
			26.333,68.929 26.955,69.314 26.212,69.387 26.004,70.109 25.721,69.379 24.805,69.434 25.496,68.839 25.158,68.043 		"/>
	</g>
	<g>
		<polygon fill="none" stroke="#030AF8" stroke-width="1.4464" stroke-miterlimit="10" points="25.882,59.973 26.657,59.437 
			26.333,60.374 26.955,60.759 26.212,60.831 26.004,61.554 25.721,60.824 24.805,60.879 25.495,60.284 25.158,59.487 		"/>
	</g>
	<g>
		<polygon fill="none" stroke="#030AF8" stroke-width="1.4464" stroke-miterlimit="10" points="25.229,50.238 26.003,49.701 
			25.679,50.638 26.302,51.023 25.559,51.096 25.35,51.818 25.068,51.088 24.152,51.143 24.842,50.548 24.504,49.751 		"/>
	</g>
	
		<rect x="61.274" y="47.461" fill="none" stroke="#030AF8" stroke-width="1.3444" stroke-miterlimit="10" width="55.551" height="39.504"/>
	
		<line fill="none" stroke="#030AF8" stroke-width="1.3444" stroke-miterlimit="10" x1="71.953" y1="47.461" x2="81.026" y2="55.469"/>
	
		<line fill="none" stroke="#030AF8" stroke-width="1.3444" stroke-miterlimit="10" x1="61.274" y1="50.666" x2="73.914" y2="62.79"/>
	<g>
		<g>
			<path fill="none" stroke="#030AF8" stroke-width="1.3444" stroke-miterlimit="10" d="M63.318,62.464"/>
			<path fill="none" stroke="#030AF8" stroke-width="1.3444" stroke-miterlimit="10" d="M63.318,49.328"/>
			
				<line fill="none" stroke="#030AF8" stroke-width="1.3444" stroke-miterlimit="10" x1="81.026" y1="47.832" x2="81.059" y2="63.1"/>
		</g>
		
			<line fill="none" stroke="#030AF8" stroke-width="1.3444" stroke-miterlimit="10" x1="61.274" y1="62.587" x2="81.618" y2="62.587"/>
	</g>
	
		<line fill="none" stroke="#030AF8" stroke-width="1.3444" stroke-miterlimit="10" x1="107.539" y1="86.965" x2="97.268" y2="77.969"/>
	
		<line fill="none" stroke="#030AF8" stroke-width="1.3444" stroke-miterlimit="10" x1="117.02" y1="82.773" x2="104.38" y2="70.648"/>
	<g>
		<g>
			<path fill="none" stroke="#030AF8" stroke-width="1.3444" stroke-miterlimit="10" d="M114.976,70.975"/>
			<path fill="none" stroke="#030AF8" stroke-width="1.3444" stroke-miterlimit="10" d="M114.976,84.111"/>
			
				<line fill="none" stroke="#030AF8" stroke-width="1.3444" stroke-miterlimit="10" x1="97.268" y1="86.827" x2="97.235" y2="70.338"/>
		</g>
		
			<line fill="none" stroke="#030AF8" stroke-width="1.3444" stroke-miterlimit="10" x1="117.02" y1="70.852" x2="96.676" y2="70.852"/>
	</g>
	
		<line fill="none" stroke="#030AF8" stroke-width="1.3444" stroke-miterlimit="10" x1="72.287" y1="86.965" x2="81.867" y2="78.215"/>
	
		<line fill="none" stroke="#030AF8" stroke-width="1.3444" stroke-miterlimit="10" x1="61.274" y1="83.614" x2="74.755" y2="70.894"/>
	<g>
		<g>
			<path fill="none" stroke="#030AF8" stroke-width="1.3444" stroke-miterlimit="10" d="M64.159,71.221"/>
			<path fill="none" stroke="#030AF8" stroke-width="1.3444" stroke-miterlimit="10" d="M64.159,84.357"/>
			
				<line fill="none" stroke="#030AF8" stroke-width="1.3444" stroke-miterlimit="10" x1="81.618" y1="86.965" x2="81.9" y2="70.584"/>
		</g>
		
			<line fill="none" stroke="#030AF8" stroke-width="1.3444" stroke-miterlimit="10" x1="62.115" y1="71.098" x2="82.459" y2="71.098"/>
	</g>
	
		<line fill="none" stroke="#030AF8" stroke-width="1.3444" stroke-miterlimit="10" x1="105.749" y1="47.647" x2="96.676" y2="55.655"/>
	
		<line fill="none" stroke="#030AF8" stroke-width="1.3444" stroke-miterlimit="10" x1="116.428" y1="50.851" x2="103.787" y2="62.976"/>
	<g>
		<g>
			<path fill="none" stroke="#030AF8" stroke-width="1.3444" stroke-miterlimit="10" d="M114.384,62.649"/>
			<path fill="none" stroke="#030AF8" stroke-width="1.3444" stroke-miterlimit="10" d="M114.384,49.513"/>
			
				<line fill="none" stroke="#030AF8" stroke-width="1.3444" stroke-miterlimit="10" x1="96.676" y1="48.018" x2="96.642" y2="63.285"/>
		</g>
		
			<line fill="none" stroke="#030AF8" stroke-width="1.3444" stroke-miterlimit="10" x1="116.428" y1="62.772" x2="96.083" y2="62.772"/>
	</g>
</g>
</svg>
