<svg id="visual" viewBox="0 0 900 600" width="900" height="600" xmlns="http://www.w3.org/2000/svg" xmlns:xlink="http://www.w3.org/1999/xlink" version="1.1"><path d="M820 600L822.3 580C824.7 560 829.3 520 827 480C824.7 440 815.3 400 798.2 360C781 320 756 280 746.5 240C737 200 743 160 747 120C751 80 753 40 754 20L755 0L900 0L900 20C900 40 900 80 900 120C900 160 900 200 900 240C900 280 900 320 900 360C900 400 900 440 900 480C900 520 900 560 900 580L900 600Z" fill="#ffffff" stroke-linecap="round" stroke-linejoin="miter"></path></svg>