<?xml version="1.0" encoding="utf-8"?>
<!-- Generator: Adobe Illustrator 17.0.0, SVG Export Plug-In . SVG Version: 6.00 Build 0)  -->
<!DOCTYPE svg PUBLIC "-//W3C//DTD SVG 1.1//EN" "http://www.w3.org/Graphics/SVG/1.1/DTD/svg11.dtd">
<svg version="1.1" xmlns="http://www.w3.org/2000/svg" xmlns:xlink="http://www.w3.org/1999/xlink" x="0px" y="0px"
	 width="28.719px" height="28.792px" viewBox="0.513 0.233 28.719 28.792" enable-background="new 0.513 0.233 28.719 28.792"
	 xml:space="preserve">
<g id="Layer_2">
</g>
<g id="Layer_1">
	<g>
		<path fill="none" stroke="#FAFAFA" stroke-width="1.5" stroke-miterlimit="10" d="M1.372,28.129c9.037,0,18.021,0,27,0
			c0-9.029,0-18.012,0-27c-9.02,0-18.002,0-27,0C1.372,10.145,1.372,19.116,1.372,28.129z"/>
		<path fill="none" stroke="#FAFAFA" stroke-width="1.5" stroke-miterlimit="10" d="M1.372,28.129c0-9.013,0-17.983,0-27
			c8.998,0,17.98,0,27,0c0,8.987,0,17.971,0,27C19.392,28.129,10.411,28.129,1.372,28.129z"/>
	</g>
	<path fill="none" stroke="#FAFAFA" stroke-width="1.5" stroke-miterlimit="10" d="M1.725,27.541c0,0,12.683-10.236,13.676-10.317
		c0.991-0.082,12.786,10.317,12.786,10.317"/>
	<path fill="none" stroke="#FAFAFA" stroke-width="1.5" stroke-miterlimit="10" d="M5.694,23.72c-0.476-0.598-0.77-1.338-0.77-2.15
		c0-1.956,1.64-3.542,3.662-3.542c1.168,0,2.195,0.538,2.866,1.361"/>
	<line fill="none" stroke="#FAFAFA" stroke-miterlimit="10" x1="10.037" y1="16.383" x2="10.767" y2="14.717"/>
	<path fill="none" stroke="#FAFAFA" stroke-miterlimit="10" d="M10.871,14.383"/>
	<line fill="none" stroke="#FAFAFA" stroke-miterlimit="10" x1="3.539" y1="16.126" x2="4.778" y2="17.376"/>
	<line fill="none" stroke="#FAFAFA" stroke-miterlimit="10" x1="2.454" y1="20.873" x2="3.787" y2="20.873"/>
</g>
</svg>
