<?xml version="1.0" encoding="utf-8"?>
<!-- Generator: Adobe Illustrator 17.0.0, SVG Export Plug-In . SVG Version: 6.00 Build 0)  -->
<!DOCTYPE svg PUBLIC "-//W3C//DTD SVG 1.1//EN" "http://www.w3.org/Graphics/SVG/1.1/DTD/svg11.dtd">
<svg version="1.1" xmlns="http://www.w3.org/2000/svg" xmlns:xlink="http://www.w3.org/1999/xlink" x="0px" y="0px" width="31px"
	 height="30.511px" viewBox="-0.613 -0.605 31 30.511" enable-background="new -0.613 -0.605 31 30.511" xml:space="preserve">
<g id="Layer_2">
</g>
<g id="Layer_1">
	<path fill="none" stroke="#000000" stroke-width="1.5" stroke-miterlimit="10" d="M25.822-2"/>
	<g>
		<polyline fill="none" stroke="#FFFFFF" stroke-width="1.5142" stroke-miterlimit="10" points="19.426,21.817 21.803,27.791 
			24.689,21.96 		"/>
		<path fill="none" stroke="#FFFFFF" stroke-width="1.5142" stroke-miterlimit="10" d="M24.074,22.322l1.495-0.075
			c2.129,0,3.855-1.741,3.855-3.891V4.256c0-2.148-1.726-3.891-3.855-3.891H4.206c-2.129,0-3.855,1.741-3.855,3.891v14.102
			c0,2.148,1.726,3.891,3.855,3.891L20.1,22.322"/>
		<line fill="none" stroke="#FFFFFF" stroke-width="1.5142" stroke-miterlimit="10" x1="6.115" y1="7.153" x2="23.721" y2="7.153"/>
		
			<line fill="none" stroke="#FFFFFF" stroke-width="1.5142" stroke-miterlimit="10" x1="6.321" y1="11.319" x2="23.927" y2="11.319"/>
		
			<line fill="none" stroke="#FFFFFF" stroke-width="1.5142" stroke-miterlimit="10" x1="6.665" y1="15.965" x2="14.387" y2="15.984"/>
		<path fill="none" stroke="#FFFFFF" stroke-width="1.0095" stroke-miterlimit="10" d="M1.239,3.406"/>
		<path fill="none" stroke="#FFFFFF" stroke-width="1.0095" stroke-miterlimit="10" d="M7.218,21.883"/>
		<path fill="none" stroke="#FFFFFF" stroke-width="1.0095" stroke-miterlimit="10" d="M5.77,20.435"/>
	</g>
	<line fill="none" x1="41.016" y1="6.091" x2="33.626" y2="13.491"/>
</g>
</svg>
