<?xml version="1.0" encoding="utf-8"?>
<!-- Generator: Adobe Illustrator 17.0.0, SVG Export Plug-In . SVG Version: 6.00 Build 0)  -->
<!DOCTYPE svg PUBLIC "-//W3C//DTD SVG 1.1//EN" "http://www.w3.org/Graphics/SVG/1.1/DTD/svg11.dtd">
<svg version="1.1" id="Layer_1" xmlns="http://www.w3.org/2000/svg" xmlns:xlink="http://www.w3.org/1999/xlink" x="0px" y="0px"
	 width="29.3px" height="30.083px" viewBox="0 -0.6 29.3 30.083" enable-background="new 0 -0.6 29.3 30.083" xml:space="preserve">
<rect x="22.374" y="8.057" fill="#FFFFFF" width="1.492" height="2.796"/>
<line fill="none" stroke="#FFFFFF" stroke-width="0.6356" stroke-miterlimit="10" x1="7.444" y1="12.148" x2="11.752" y2="12.824"/>
<ellipse transform="matrix(-0.9999 0.0161 -0.0161 -0.9999 25.5865 25.5785)" fill="#FFFFFF" cx="12.69" cy="12.892" rx="1.207" ry="1.168"/>
<path fill="none" stroke="#FFFFFF" stroke-width="0.6666" stroke-miterlimit="10" d="M5.845,8.028c0-4.42,3.848-8.003,8.596-8.003
	s8.596,3.583,8.596,8.003"/>
<rect x="4.875" y="8.126" fill="#FFFFFF" width="1.5" height="2.81"/>
<g>
	<path fill="none" stroke="#FFFFFF" stroke-width="1.5" stroke-linecap="round" stroke-miterlimit="10" d="M15.374,16.844
		c2.692,0.177,5.083,1.451,6.731,3.381"/>
	<path fill="none" stroke="#FFFFFF" stroke-width="1.5" stroke-linecap="round" stroke-miterlimit="10" d="M24.183,28.66
		c0.156-0.69,0.242-1.407,0.242-2.145c0-2.401-0.875-4.597-2.321-6.29"/>
	<path fill="none" stroke="#FFFFFF" stroke-width="1.5" stroke-linecap="round" stroke-miterlimit="10" d="M13.926,16.856
		c-4.978,0.409-8.892,4.576-8.892,9.66c0,0.738,0.085,1.455,0.242,2.145"/>
	
		<ellipse fill="none" stroke="#FFFFFF" stroke-width="1.5" stroke-linecap="round" stroke-miterlimit="10" cx="14.381" cy="9.669" rx="7.075" ry="7.176"/>
</g>
</svg>
