<?xml version="1.0" encoding="utf-8"?>
<!-- Generator: Adobe Illustrator 17.0.0, SVG Export Plug-In . SVG Version: 6.00 Build 0)  -->
<!DOCTYPE svg PUBLIC "-//W3C//DTD SVG 1.1//EN" "http://www.w3.org/Graphics/SVG/1.1/DTD/svg11.dtd">
<svg version="1.1" id="Layer_1" xmlns="http://www.w3.org/2000/svg" xmlns:xlink="http://www.w3.org/1999/xlink" x="0px" y="0px"
	 width="23.95px" height="27.994px" viewBox="-82.033 113.506 23.95 27.994" enable-background="new -82.033 113.506 23.95 27.994"
	 xml:space="preserve">
<rect x="-351.083" y="-57.437" opacity="0.2" fill="#004C94" width="342.175" height="45.495"/>
<g>
	
		<line fill="none" stroke="#FFFFFF" stroke-width="1.7124" stroke-linecap="round" stroke-linejoin="round" x1="-692.034" y1="286.49" x2="-681.916" y2="286.49"/>
	<path fill="none" stroke="#FFFFFF" stroke-width="1.784" stroke-linecap="round" stroke-linejoin="round" d="M-693.384,290.635
		h-5.142c-1.617,0-2.928,1.537-2.928,3.432v22.938c0,1.896,1.311,3.432,2.928,3.432h16.958"/>
	
		<line fill="none" stroke="#FFFFFF" stroke-width="1.7124" stroke-linecap="round" stroke-linejoin="round" x1="-693.384" y1="290.635" x2="-692.083" y2="286.642"/>
	
		<line fill="none" stroke="#FFFFFF" stroke-width="1.7124" stroke-linecap="round" stroke-linejoin="round" x1="-671.729" y1="286.49" x2="-681.846" y2="286.49"/>
	<path fill="none" stroke="#FFFFFF" stroke-width="1.784" stroke-linecap="round" stroke-linejoin="round" d="M-670.379,290.635
		h5.142c1.617,0,2.928,1.537,2.928,3.432v22.938c0,1.896-1.311,3.432-2.928,3.432h-16.958"/>
	
		<line fill="none" stroke="#FFFFFF" stroke-width="1.7124" stroke-linecap="round" stroke-linejoin="round" x1="-670.379" y1="290.635" x2="-671.679" y2="286.642"/>
	
		<ellipse fill="none" stroke="#FFFFFF" stroke-width="1.7124" stroke-linecap="round" stroke-linejoin="round" cx="-681.567" cy="305.149" rx="8.083" ry="8.009"/>
</g>
<g>
	<path fill="none" stroke="#FFFFFF" stroke-width="1.7887" stroke-miterlimit="10" d="M-747.788,306.008
		c4.103,0.269,7.747,2.212,10.258,5.154"/>
	<path fill="none" stroke="#FFFFFF" stroke-width="1.7887" stroke-miterlimit="10" d="M-734.36,324.018
		c0.238-1.052,0.367-2.145,0.367-3.269c0-3.66-1.333-7.006-3.537-9.587"/>
	<path fill="none" stroke="#FFFFFF" stroke-width="1.7887" stroke-miterlimit="10" d="M-749.994,306.026
		c-7.587,0.623-13.552,6.974-13.552,14.722c0,1.124,0.13,2.217,0.367,3.269"/>
	
		<ellipse fill="none" stroke="#FFFFFF" stroke-width="1.7887" stroke-miterlimit="10" cx="-749.301" cy="295.071" rx="10.783" ry="10.936"/>
</g>
<g>
	<rect x="-495.401" y="287.315" fill="#16008F" width="6.831" height="37.742"/>
	<rect x="-509.062" y="285.217" fill="#F605FF" width="34.154" height="7.164"/>
</g>
<circle fill="#F605FF" cx="-614.795" cy="303.584" r="20.473"/>
<g>
	<g>
		<g>
			<rect x="-556.083" y="286.563" fill="#FFFFFF" width="7" height="37"/>
		</g>
		<g>
			<rect x="-570.083" y="284.563" fill="#FFFFFF" width="34" height="7"/>
		</g>
	</g>
</g>
<g>
	
		<line fill="none" stroke="#FFFFFF" stroke-width="1.5524" stroke-linecap="round" stroke-linejoin="round" x1="-609.23" y1="161.134" x2="-600.058" y2="161.134"/>
	<path fill="none" stroke="#FFFFFF" stroke-width="1.6173" stroke-linecap="round" stroke-linejoin="round" d="M-610.454,164.892
		h-4.661c-1.466,0-2.655,1.393-2.655,3.111v20.794c0,1.718,1.189,3.111,2.655,3.111h15.373"/>
	
		<line fill="none" stroke="#FFFFFF" stroke-width="1.5524" stroke-linecap="round" stroke-linejoin="round" x1="-610.454" y1="164.892" x2="-609.275" y2="161.272"/>
	
		<line fill="none" stroke="#FFFFFF" stroke-width="1.5524" stroke-linecap="round" stroke-linejoin="round" x1="-590.823" y1="161.134" x2="-599.995" y2="161.134"/>
	<path fill="none" stroke="#FFFFFF" stroke-width="1.6173" stroke-linecap="round" stroke-linejoin="round" d="M-589.599,164.892
		h4.661c1.466,0,2.655,1.393,2.655,3.111v20.794c0,1.718-1.189,3.111-2.655,3.111h-15.373"/>
	
		<line fill="none" stroke="#FFFFFF" stroke-width="1.5524" stroke-linecap="round" stroke-linejoin="round" x1="-589.599" y1="164.892" x2="-590.778" y2="161.272"/>
	
		<ellipse fill="none" stroke="#FFFFFF" stroke-width="1.5524" stroke-linecap="round" stroke-linejoin="round" cx="-599.742" cy="178.05" rx="7.327" ry="7.261"/>
</g>
<g>
	<path fill="none" stroke="#FFFFFF" stroke-width="1.6216" stroke-miterlimit="10" d="M-659.774,178.828
		c3.719,0.244,7.023,2.005,9.299,4.672"/>
	<path fill="none" stroke="#FFFFFF" stroke-width="1.6216" stroke-miterlimit="10" d="M-647.601,195.155
		c0.216-0.954,0.333-1.945,0.333-2.964c0-3.318-1.209-6.352-3.206-8.691"/>
	<path fill="none" stroke="#FFFFFF" stroke-width="1.6216" stroke-miterlimit="10" d="M-661.774,178.845
		c-6.878,0.565-12.286,6.322-12.286,13.346c0,1.019,0.118,2.01,0.333,2.964"/>
	
		<ellipse fill="none" stroke="#FFFFFF" stroke-width="1.6216" stroke-miterlimit="10" cx="-661.146" cy="168.914" rx="9.775" ry="9.914"/>
</g>
<g>
	<rect x="-430.972" y="161.882" fill="#16008F" width="6.192" height="34.215"/>
	<rect x="-443.357" y="159.98" fill="#F605FF" width="30.962" height="6.495"/>
</g>
<circle fill="#F605FF" cx="-539.209" cy="176.631" r="18.56"/>
<g>
	<g>
		<g>
			<rect x="-486.083" y="160.563" fill="#FFFFFF" width="6" height="35"/>
		</g>
		<g>
			<rect x="-499.083" y="159.563" fill="#FFFFFF" width="31" height="6"/>
		</g>
	</g>
</g>
<line fill="none" stroke="#FFFFFF" stroke-width="1.7992" stroke-linecap="round" stroke-linejoin="round" x1="-337.894" y1="9.733" x2="-327.264" y2="9.733"/>
<path fill="none" stroke="#FFFFFF" stroke-width="1.823" stroke-linecap="round" stroke-linejoin="round" d="M-339.312,14.089
	h-5.402c-1.699,0-3.077,1.527-3.077,3.411v22.797c0,1.884,1.378,3.411,3.077,3.411h17.817"/>
<line fill="none" stroke="#FFFFFF" stroke-width="1.7992" stroke-linecap="round" stroke-linejoin="round" x1="-339.312" y1="14.089" x2="-337.946" y2="9.893"/>
<line fill="none" stroke="#FFFFFF" stroke-width="1.7992" stroke-linecap="round" stroke-linejoin="round" x1="-316.56" y1="9.733" x2="-327.19" y2="9.733"/>
<path fill="none" stroke="#FFFFFF" stroke-width="1.823" stroke-linecap="round" stroke-linejoin="round" d="M-315.142,14.089h5.402
	c1.699,0,3.077,1.527,3.077,3.411v22.797c0,1.884-1.378,3.411-3.077,3.411h-17.817"/>
<line fill="none" stroke="#FFFFFF" stroke-width="1.7992" stroke-linecap="round" stroke-linejoin="round" x1="-315.142" y1="14.089" x2="-316.508" y2="9.893"/>
<ellipse fill="none" stroke="#FFFFFF" stroke-width="1.675" stroke-linecap="round" stroke-linejoin="round" cx="-326.897" cy="28.338" rx="7.906" ry="7.834"/>
<g>
	<path fill="none" stroke="#FFFFFF" stroke-width="1.882" stroke-miterlimit="10" d="M-201.737,28.108
		c4.317,0.283,8.151,2.327,10.793,5.422"/>
	<path fill="none" stroke="#FFFFFF" stroke-width="1.882" stroke-miterlimit="10" d="M-187.609,47.057
		c0.25-1.107,0.387-2.257,0.387-3.44c0-3.851-1.403-7.372-3.721-10.087"/>
	<path fill="none" stroke="#FFFFFF" stroke-width="1.882" stroke-miterlimit="10" d="M-204.058,28.128
		c-7.983,0.656-14.259,7.338-14.259,15.49c0,1.183,0.136,2.333,0.387,3.44"/>
	
		<ellipse fill="none" stroke="#FFFFFF" stroke-width="1.882" stroke-miterlimit="10" cx="-203.329" cy="16.602" rx="11.345" ry="11.507"/>
</g>
<g>
	<rect x="-29.401" y="10.315" fill="#16008F" width="6.831" height="37.742"/>
	<rect x="-43.062" y="8.217" fill="#F605FF" width="34.154" height="7.164"/>
</g>
<circle fill="#F605FF" cx="-148.795" cy="26.584" r="20.473"/>
<g>
	<g>
		<g>
			<rect x="-90.083" y="9.562" fill="#FFFFFF" width="7" height="37"/>
		</g>
		<g>
			<rect x="-104.083" y="7.562" fill="#FFFFFF" width="34" height="7"/>
		</g>
	</g>
</g>
<g>
	<path fill="none" stroke="#FFFFFF" stroke-width="1.3084" stroke-miterlimit="10" d="M-736.882,186.972
		c1.918-4.983,4.069-10.432,6.02-15.502c9.521,0,19.001,0,29.06,0c-2.203,6.007-4.302,11.73-6.412,17.484
		c-9.708,0-19.188,0-28.955,0C-737.058,188.19-736.97,187.581-736.882,186.972"/>
	<path fill="none" stroke="#FFFFFF" stroke-width="1.3084" stroke-miterlimit="10" d="M-737.115,166.108
		c0,6.877-0.054,16.285-0.054,23.046"/>
</g>
<g>
	<path fill="none" stroke="#FFFFFF" stroke-width="1.5327" stroke-miterlimit="10" d="M-239.886,41.531
		c0,1.233-0.999,2.232-2.232,2.232h-38.277c-1.233,0-2.232-0.999-2.232-2.232V16.869c0-1.233,0.999-2.232,2.232-2.232h38.277
		c1.233,0,2.232,0.999,2.232,2.232V41.531z"/>
	<path fill="none" stroke="#FFFFFF" stroke-width="1.5327" stroke-miterlimit="10" d="M-265.048,9.504h-11.12
		c-1.381,0-2.5,1.119-2.5,2.5v2.633"/>
	
		<line fill="none" stroke="#FFFFFF" stroke-width="1.5327" stroke-miterlimit="10" x1="-265.537" y1="9.3" x2="-260.351" y2="14.637"/>
</g>
<line fill="none" stroke="#FFFFFF" stroke-width="1.3084" stroke-miterlimit="10" x1="-737.115" y1="166.108" x2="-703.75" y2="166.108"/>
<line fill="none" stroke="#FFFFFF" stroke-width="1.3084" stroke-miterlimit="10" x1="-703.75" y1="166.108" x2="-704.583" y2="170.789"/>
<line fill="none" stroke="#FFFFFF" stroke-width="1.2809" stroke-linecap="round" stroke-linejoin="round" x1="-291.935" y1="114.585" x2="-284.367" y2="114.585"/>
<path fill="none" stroke="#FFFFFF" stroke-width="1.2978" stroke-linecap="round" stroke-linejoin="round" d="M-292.945,117.686
	h-3.846c-1.21,0-2.191,1.087-2.191,2.429v16.23c0,1.341,0.981,2.428,2.191,2.428h12.685"/>
<line fill="none" stroke="#FFFFFF" stroke-width="1.2809" stroke-linecap="round" stroke-linejoin="round" x1="-292.945" y1="117.686" x2="-291.972" y2="114.699"/>
<line fill="none" stroke="#FFFFFF" stroke-width="1.2809" stroke-linecap="round" stroke-linejoin="round" x1="-276.747" y1="114.585" x2="-284.315" y2="114.585"/>
<path fill="none" stroke="#FFFFFF" stroke-width="1.2978" stroke-linecap="round" stroke-linejoin="round" d="M-275.737,117.686
	h3.846c1.21,0,2.191,1.087,2.191,2.429v16.23c0,1.341-0.981,2.428-2.191,2.428h-12.685"/>
<line fill="none" stroke="#FFFFFF" stroke-width="1.2809" stroke-linecap="round" stroke-linejoin="round" x1="-275.737" y1="117.686" x2="-276.71" y2="114.699"/>
<ellipse fill="none" stroke="#FFFFFF" stroke-width="1.1925" stroke-linecap="round" stroke-linejoin="round" cx="-284.106" cy="127.83" rx="5.628" ry="5.578"/>
<g>
	<path fill="none" stroke="#FFFFFF" stroke-width="1.3398" stroke-miterlimit="10" d="M-195,127.667
		c3.073,0.202,5.803,1.657,7.684,3.86"/>
	<path fill="none" stroke="#FFFFFF" stroke-width="1.3398" stroke-miterlimit="10" d="M-184.941,141.157
		c0.178-0.788,0.275-1.607,0.275-2.449c0-2.741-0.999-5.248-2.649-7.181"/>
	<path fill="none" stroke="#FFFFFF" stroke-width="1.3398" stroke-miterlimit="10" d="M-196.652,127.681
		c-5.683,0.467-10.151,5.224-10.151,11.028c0,0.842,0.097,1.661,0.275,2.449"/>
	
		<ellipse fill="none" stroke="#FFFFFF" stroke-width="1.3398" stroke-miterlimit="10" cx="-196.133" cy="119.475" rx="8.077" ry="8.192"/>
</g>
<g>
	<rect x="-72.307" y="114.999" fill="#16008F" width="4.863" height="26.87"/>
	<rect x="-82.033" y="113.506" fill="#F605FF" width="24.316" height="5.101"/>
</g>
<circle fill="#F605FF" cx="-157.309" cy="126.582" r="14.575"/>
<g>
	<g>
		<g>
			<rect x="-116.083" y="114.563" fill="#FFFFFF" width="5" height="27"/>
		</g>
		<g>
			<rect x="-125.083" y="112.563" fill="#FFFFFF" width="24" height="5"/>
		</g>
	</g>
</g>
<g>
	<path fill="none" stroke="#FFFFFF" stroke-width="1.0912" stroke-miterlimit="10" d="M-222.16,137.223
		c0,0.878-0.711,1.589-1.589,1.589h-27.251c-0.878,0-1.589-0.711-1.589-1.589v-17.558c0-0.878,0.711-1.589,1.589-1.589h27.251
		c0.878,0,1.589,0.711,1.589,1.589V137.223z"/>
	<path fill="none" stroke="#FFFFFF" stroke-width="1.0912" stroke-miterlimit="10" d="M-240.074,114.422h-7.917
		c-0.983,0-1.78,0.797-1.78,1.78v1.875"/>
	
		<line fill="none" stroke="#FFFFFF" stroke-width="1.0912" stroke-miterlimit="10" x1="-240.421" y1="114.277" x2="-236.73" y2="118.076"/>
</g>
</svg>
