<?xml version="1.0" encoding="utf-8"?>
<!-- Generator: Adobe Illustrator 17.0.0, SVG Export Plug-In . SVG Version: 6.00 Build 0)  -->
<!DOCTYPE svg PUBLIC "-//W3C//DTD SVG 1.1//EN" "http://www.w3.org/Graphics/SVG/1.1/DTD/svg11.dtd">
<svg version="1.1" id="Layer_1" xmlns="http://www.w3.org/2000/svg" xmlns:xlink="http://www.w3.org/1999/xlink" x="0px" y="0px"
	 width="560.25px" height="473.75px" viewBox="0 0 560.25 473.75" enable-background="new 0 0 560.25 473.75" xml:space="preserve">
<path opacity="0.5" fill="#F8FF00" enable-background="new    " d="M516.93,56.95c-38.99-0.87-268.07-1.73-268.07-1.73l-31.05,1.15
	l-10.11,0.15c0,0-0.72,0.86-7.58-9.1c-6.86-9.97-19.86-29.9-19.86-29.9S167.5,1.14,149.93,2.73S26.69,4.11,26.69,4.11l-1.08-1.86
	c0,0-23.29,3-23.05,29c0.191,20.691,0.116,72.568,0.077,92.894c-0.251,1.489-0.387,3.014-0.387,4.566v316.06
	c0,15.4,12.86,27.73,28.2,27.73h499.71c15.33,0,28.09-12.33,28.09-27.73V132.5v-3.79V89.88C558.25,89.88,555.92,57.82,516.93,56.95z
	"/>
<line opacity="0.3" fill="none" stroke="#E7D200" stroke-width="9" stroke-miterlimit="10" x1="2.25" y1="119.375" x2="560.25" y2="119.375"/>
</svg>
