<?xml version="1.0" encoding="utf-8"?>
<!-- Generator: Adobe Illustrator 17.0.0, SVG Export Plug-In . SVG Version: 6.00 Build 0)  -->
<!DOCTYPE svg PUBLIC "-//W3C//DTD SVG 1.1//EN" "http://www.w3.org/Graphics/SVG/1.1/DTD/svg11.dtd">
<svg version="1.1" id="Layer_1" xmlns="http://www.w3.org/2000/svg" xmlns:xlink="http://www.w3.org/1999/xlink" x="0px" y="0px"
	 width="29.3px" height="29.3px" viewBox="0 0 29.3 29.3" enable-background="new 0 0 29.3 29.3" xml:space="preserve">
<g>
	<path fill="none" stroke="#000000" stroke-width="1.5" stroke-miterlimit="10" d="M30.9,63.2c9.037,0,18.021,0,27,0
		c0-9.029,0-18.012,0-27c-9.02,0-18.002,0-27,0C30.9,45.216,30.9,54.187,30.9,63.2z"/>
	<path fill="none" stroke="#000000" stroke-width="1.5" stroke-miterlimit="10" d="M30.9,63.2c0-9.013,0-17.983,0-27
		c8.998,0,17.98,0,27,0c0,8.987,0,17.971,0,27C48.92,63.2,39.939,63.2,30.9,63.2z"/>
</g>
<g>
	<path fill="none" stroke="#000000" stroke-miterlimit="10" d="M45.039,29.101c-2.984,0-5.967,0-8.951,0c0-6.444,0-12.887,0-19.331
		c0.087-0.009,0.174-0.025,0.261-0.025c2.806-0.001,5.613-0.001,8.419,0c0.085,0,0.17,0.01,0.279,0.017c0,0.123,0,0.226,0,0.33
		c0,6.239,0,12.479,0,18.718C45.047,28.908,45.042,29.004,45.039,29.101z"/>
	<path fill="none" stroke="#000000" stroke-miterlimit="10" d="M57.273,9.77c0,6.444,0,12.887,0,19.331c-2.984,0-5.967,0-8.951,0
		c-0.003-0.044-0.008-0.088-0.008-0.132c0-6.328-0.001-12.655,0-18.983c0-0.076,0.011-0.152,0.017-0.232
		c0.095-0.004,0.165-0.01,0.236-0.01c2.824,0,5.648-0.001,8.472,0.001C57.117,9.745,57.195,9.762,57.273,9.77z"/>
	<path fill="none" stroke="#000000" stroke-miterlimit="10" d="M57.273,9.77c-0.078-0.009-0.156-0.025-0.234-0.025
		c-2.824-0.001-5.648-0.001-8.472-0.001c-0.07,0-0.14,0.006-0.236,0.01c-0.006,0.08-0.017,0.156-0.017,0.232
		c-0.001,6.328-0.001,12.655,0,18.983c0,0.044,0.005,0.088,0.008,0.132c-1.095,0-2.189,0-3.284,0
		c0.003-0.097,0.008-0.194,0.009-0.291c0-6.239,0-12.479,0-18.718c0-0.104,0-0.208,0-0.33c-0.109-0.007-0.194-0.017-0.279-0.017
		c-2.806-0.001-5.613-0.001-8.419,0c-0.087,0-0.174,0.016-0.261,0.025c0-1.095,0-2.189,0-3.284c7.062,0,14.123,0,21.185,0
		C57.273,7.581,57.273,8.676,57.273,9.77z"/>
	<path fill="none" stroke="#000000" stroke-miterlimit="10" d="M57.273,6.487c-7.062,0-14.123,0-21.185,0c0-0.071,0-0.141,0-0.212
		c7.062,0,14.123,0,21.185,0C57.273,6.345,57.273,6.416,57.273,6.487z"/>
</g>
<g>
	<path fill="none" stroke="#000000" stroke-width="1.5" stroke-miterlimit="10" d="M1.898,26.878c0,0,11.643-8.968,12.598-9.043
		c0.954-0.075,12.303,9.473,12.303,9.473"/>
	<path fill="none" stroke="#000000" stroke-width="1.5" stroke-miterlimit="10" d="M12.469,19.102
		c-0.758-0.925-1.903-1.513-3.185-1.508c-2.268,0.01-4.096,1.873-4.085,4.161c0.004,0.783,0.222,1.513,0.598,2.135L12.469,19.102z"
		/>
	<path fill="none" stroke="#190E0B" stroke-width="1.6468" stroke-miterlimit="10" d="M27.963,24.634
		c0,1.838-1.49,3.328-3.328,3.328H4.666c-1.838,0-3.328-1.49-3.328-3.328V4.666c0-1.838,1.49-3.328,3.328-3.328h19.968
		c1.838,0,3.328,1.49,3.328,3.328C27.963,4.666,27.963,24.634,27.963,24.634z"/>
</g>
</svg>
