<svg version="1.1" class="svg-icon" id="Layer_1" xmlns="http://www.w3.org/2000/svg" xmlns:xlink="http://www.w3.org/1999/xlink" x="0px" y="0px" width="28.5px" height="28.03px" viewBox="-0.25 0 28.5 28.03" enable-background="new -0.25 0 28.5 28.03" xml:space="preserve" style="stroke: black;">
<path fill="none" stroke="#000000" stroke-miterlimit="10" d="M-242.26-280.868c0.691-0.609,1.531-1.179,2.526-0.586
	c0.909,0.542,1.145,1.44,1.011,2.424c-1.89,13.923,3.995,25.121,12.289,35.548c3.41,4.286,6.422,8.869,9.062,13.691
	c9.772,17.847,3.982,39.424-13.446,50.01c-9.92,6.025-20.723,9.151-32.262,9.913c-0.991,0.065-2.093-0.323-2.95,0.535
	c-2.277,0-4.553,0-6.83,0c-0.82-0.958-1.938-0.468-2.906-0.531c-12.031-0.78-23.745-3.039-35.042-7.33
	c-18.097-6.875-33.329-18.131-47.274-31.237c-18.988-17.847-31.1-39.443-34.794-65.458c-0.634-4.463-1.128-8.946-1.686-13.42
	c0-2.691,0-5.381,0-8.072c0.606-4.359,1.132-8.73,1.829-13.074c5.705-35.555,40.775-73.75,88.592-70.329
	c23.839,1.705,41.446,13.263,54.772,32.364c2.861,4.101,0.773,10.507-3.835,12.558"></path>
	<path fill="none" stroke="#000000" stroke-width="11" stroke-miterlimit="10" d="M19.453-150.741
	c1.649,8.426,5.689,15.678,10.639,22.509c4.43,6.113,8.842,12.234,12.332,18.957c2.2,4.239,3.331,8.666,2.354,13.46
	c-2.164,10.623-9.2,16.882-18.905,20.34c-18.47,6.581-37.083,5.445-55.395-0.452c-20.059-6.46-36.398-18.812-50.732-33.977
	c-21.494-22.741-32.523-49.029-27.277-80.806c4.282-25.94,17.629-45.1,42.031-55.847c24.694-10.876,47.492-8.457,67.845,10.1
	c4.317,3.936,7.563,8.748,10.937,13.45c0,0,9.125,11.007,7.625,31.507s-1.5,20.5-1.5,20.5s-2.167,11.833-0.333,18.667
	c1.833,6.833,1.833,6.833,1.833,6.833"></path>
	<path d="M56.666-201.636c-1.039,1.371-1.938,2.881-3.14,4.09c-7.353,7.405-15.959,13.207-24.613,18.925
	c-13.522,8.934-27.621,16.863-42.185,23.971c-3.702,1.807-4.344,1.643-6.358-1.825c-1.337-2.302-2.653-4.617-3.931-6.953
	c-1.42-2.597-1.236-3.595,1.302-5.223c7.606-4.876,15.145-9.872,22.929-14.45c11.841-6.966,23.954-13.455,36.706-18.637
	c3.755-1.526,7.662-2.684,11.53-3.918c1.255-0.4,2.596-0.619,3.913-0.721C56.44-206.657,57.429-205.356,56.666-201.636z"></path>
	<path d="M-59.995-140.828c1.908-4.358,3.694-8.143,6.912-11.038c2.96-2.663,6.391-4.019,10.372-3.653
	c2.61,0.239,4.765-0.488,6.771-2.162c2.416-2.017,4.964-3.879,7.496-5.752c2.242-1.657,2.926-1.489,4.236,0.898
	c1.179,2.148,2.345,4.303,3.502,6.462c1.386,2.588,1.249,3.023-1.509,4.246c-2.496,1.106-5,2.202-7.545,3.189
	c-2.748,1.066-4.853,2.702-5.862,5.586c-1.036,2.962-3.29,4.421-6.31,4.809c-2.774,0.356-5.552,0.679-8.329,1.015
	c-3.227,0.391-6.045,1.637-8.437,3.878c-0.436,0.408-1.159,0.509-1.75,0.752c-0.134-0.635-0.436-1.287-0.373-1.902
	C-60.587-136.79-60.233-139.066-59.995-140.828z"></path>
	<g>
	<path fill="none" stroke="#000000" stroke-miterlimit="10" d="M-356.97-82.652c0,0,5.808-16.164,19.933-12.407
		c14.125,3.758,13.041,4.481,23.52,1.82"></path>
		<path fill="none" stroke="#000000" stroke-miterlimit="10" d="M-357.26-82.667c0,0,3.833-1.667,12.833,1.833
		s10.167,3.333,13.333,1.667c3.167-1.667,2.333-4.167,12-2.333s5.333,0.833,5.333,0.833"></path>
</g>
	<path fill="none" stroke="#000000" stroke-miterlimit="10" d="M-34.426-184.833"></path>
	<path fill="none" stroke="#000000" stroke-width="11" stroke-miterlimit="10" d="M456.453-245.741
	c1.649,8.426,5.689,15.678,10.639,22.509c4.43,6.113,8.842,12.234,12.332,18.957c2.2,4.239,3.331,8.666,2.354,13.46
	c-2.164,10.623-9.2,16.882-18.905,20.34c-18.471,6.581-37.085,5.445-55.396-0.452c-20.059-6.46-36.398-18.812-50.732-33.977
	c-21.494-22.741-32.523-49.029-27.277-80.806c4.282-25.94,17.629-45.1,42.031-55.847c24.694-10.876,47.492-8.457,67.845,10.1
	c4.317,3.936,7.563,8.748,10.937,13.45c0,0,9.125,11.007,7.625,31.507s-1.5,20.5-1.5,20.5s-2.167,11.833-0.333,18.667
	c1.833,6.833,1.833,6.833,1.833,6.833"></path>
	<path fill="none" stroke="#000000" stroke-miterlimit="10" d="M402.574-279.833"></path>
	<path d="M588.311-31.176c-3.725,1.68-7.317,3.808-11.198,4.968c-23.755,7.097-48.303,9.426-72.855,11.524
	c-38.364,3.278-76.791,3.805-115.252,2.089c-9.778-0.436-10.931-1.508-11.193-11.033c-0.174-6.323-0.29-12.649-0.302-18.973
	c-0.013-7.033,1.504-8.906,8.651-9.417c21.409-1.532,42.816-3.39,64.258-4.102c32.62-1.082,65.267-0.86,97.76,2.816
	c9.568,1.082,19.038,3.105,28.508,4.924c3.073,0.591,6.119,1.658,8.983,2.941C593.545-41.91,594.128-38.072,588.311-31.176z"></path>
	<path d="M275.813-36.841c8.933-6.926,16.96-12.794,26.963-15.179c9.202-2.194,17.901-1.124,25.793,4.162
	c5.173,3.465,10.496,4.396,16.584,3.181c7.332-1.464,14.764-2.455,22.176-3.484c6.561-0.911,7.796,0.217,7.819,6.687
	c0.02,5.82,0.004,11.641-0.036,17.462c-0.048,6.973-0.829,7.727-7.973,7.144c-6.465-0.528-12.935-1.086-19.366-1.918
	c-6.944-0.898-13.196,0.123-18.578,4.995c-5.528,5.004-11.887,5.486-18.629,2.865c-6.193-2.408-12.356-4.891-18.532-7.345
	c-7.177-2.851-14.472-3.451-22.01-1.494c-1.373,0.356-2.997-0.255-4.505-0.419c0.441-1.478,0.553-3.181,1.383-4.393
	C269.99-29.087,273.313-33.435,275.813-36.841z"></path>
	<ellipse fill="none" stroke="#000000" stroke-width="14" stroke-miterlimit="10" cx="404.907" cy="-308.333" rx="5.854" ry="6.036"></ellipse>
	<circle fill="none" stroke="#000000" stroke-width="14" stroke-miterlimit="10" cx="368.157" cy="-244.167" r="5.75"></circle>
	<ellipse fill="none" stroke="#000000" stroke-width="14" stroke-miterlimit="10" cx="432.907" cy="-198.833" rx="5.833" ry="6.016"></ellipse>
	<path class="fill" d="M28.179,8.795c-0.17,0.153-0.322,0.324-0.51,0.456c-1.161,0.809-2.474,1.414-3.793,2.009
	c-2.061,0.929-4.185,1.733-6.364,2.434c-0.554,0.178-0.642,0.152-0.872-0.282c-0.152-0.288-0.302-0.577-0.445-0.868
	c-0.16-0.324-0.118-0.441,0.269-0.61c1.156-0.505,2.306-1.025,3.481-1.492c1.79-0.711,3.611-1.364,5.501-1.853
	c0.556-0.144,1.129-0.243,1.697-0.352c0.185-0.035,0.378-0.047,0.566-0.047C28.228,8.193,28.346,8.359,28.179,8.795z" style="fill: black;"></path>
	<path class="fill" d="M10.668,14.871c0.341-0.501,0.655-0.934,1.157-1.246c0.462-0.288,0.97-0.415,1.529-0.332c0.366,0.054,0.684-0.01,0.994-0.19
	c0.374-0.217,0.765-0.412,1.155-0.611c0.344-0.175,0.439-0.148,0.586,0.15c0.132,0.268,0.263,0.536,0.393,0.806
	c0.155,0.322,0.129,0.373-0.282,0.491c-0.372,0.107-0.745,0.212-1.121,0.305c-0.407,0.1-0.731,0.273-0.921,0.608
	c-0.194,0.343-0.537,0.494-0.971,0.51c-0.399,0.014-0.798,0.026-1.196,0.037c-0.463,0.014-0.883,0.134-1.259,0.378
	c-0.069,0.044-0.172,0.049-0.26,0.072c-0.008-0.077-0.041-0.158-0.022-0.231C10.518,15.346,10.605,15.079,10.668,14.871z" style="fill: black;"></path>
	<path fill="none" stroke="#000000" stroke-width="1.5" stroke-miterlimit="10" d="M19.177,15.621
	c0.237,1.21,0.818,2.252,1.529,3.234c0.636,0.878,1.27,1.758,1.771,2.723c0.316,0.609,0.478,1.245,0.339,1.933
	c-0.311,1.526-1.321,2.425-2.716,2.922c-2.652,0.946-5.327,0.782-7.957-0.065c-2.883-0.927-5.23-2.702-7.289-4.88
	C1.766,18.221,0.182,14.444,0.936,9.88c0.615-3.726,2.533-6.478,6.038-8.023c3.547-1.562,6.822-1.214,9.746,1.451
	c0.62,0.566,1.086,1.256,1.571,1.932c0,0,1.311,1.581,1.095,4.526s-0.216,2.945-0.216,2.945s-0.311,1.7-0.047,2.681
	c0.263,0.981,0.263,0.982,0.263,0.982"></path>
	<path fill="none" stroke="#000000" stroke-miterlimit="10" d="M11.439,10.743"></path>
	<ellipse class="fill" cx="11.772" cy="6.675" rx="1.437" ry="1.482" style="fill: black;"></ellipse>
	<ellipse class="fill" cx="5.363" cy="14.302" rx="1.361" ry="1.404" style="fill: black;"></ellipse>
	<ellipse class="fill" cx="15.682" cy="21.737" rx="1.369" ry="1.412" style="fill: black;"></ellipse>
</svg>