<svg version="1.1" class="svg-icon" id="Layer_1" xmlns="http://www.w3.org/2000/svg" xmlns:xlink="http://www.w3.org/1999/xlink" x="0px" y="0px"
	 width="30.313px" height="30.156px" viewBox="0 0 35.313 35.156" enable-background="new 0 0 35.313 35.156" xml:space="preserve">
<image overflow="visible" enable-background="new    " width="400" height="394" xlink:href="C119B6F6.png"  transform="matrix(1 0 0 1 199.4375 24.9375)">
</image>
<path fill="none" stroke="#000000" stroke-miterlimit="10" d="M315.926-45.71c3.581,3.714,3.363,9.733-0.485,13.443l-96.168,92.705
	c-3.849,3.71-9.871,3.707-13.452-0.008L149.415,1.919c-3.581-3.714-3.363-9.733,0.485-13.443l96.168-92.705
	c3.849-3.71,9.871-3.707,13.452,0.008L315.926-45.71z"/>
<path fill="none" stroke="#000000" stroke-width="2" stroke-miterlimit="10" d="M33.341,11.074c1.181,1.195,1.147,3.143-0.076,4.352
	L15.254,33.221c-1.223,1.208-3.172,1.219-4.352,0.024l-8.837-8.944c-1.181-1.195-1.147-3.143,0.076-4.352L20.152,2.154
	c1.223-1.208,3.172-1.219,4.352-0.024L33.341,11.074z"/>
<line fill="none" stroke="#000000" stroke-width="2" stroke-miterlimit="10" x1="4.67" y1="17.333" x2="17.852" y2="30.514"/>
<line fill="none" stroke="#000000" stroke-miterlimit="10" x1="170.438" y1="-31.063" x2="240.771" y2="38.938"/>
</svg>