<?xml version="1.0" encoding="utf-8"?>
<!-- Generator: Adobe Illustrator 17.0.0, SVG Export Plug-In . SVG Version: 6.00 Build 0)  -->
<!DOCTYPE svg PUBLIC "-//W3C//DTD SVG 1.1//EN" "http://www.w3.org/Graphics/SVG/1.1/DTD/svg11.dtd">
<svg version="1.1" id="Layer_1" xmlns="http://www.w3.org/2000/svg" xmlns:xlink="http://www.w3.org/1999/xlink" x="0px" y="0px"
	 width="35px" height="46.458px" viewBox="0 0 35 46.458" enable-background="new 0 0 35 46.458" xml:space="preserve">
<path fill="none" d="M-48.392,21.5c0.005-0.222,0.017-0.443,0.017-0.667l0,0"/>
<g id="Layer_2">
</g>
<line fill="none" stroke="#000000" stroke-miterlimit="10" x1="6.284" y1="19.355" x2="13.063" y2="20.419"/>
<ellipse transform="matrix(-0.0161 -0.9999 0.9999 -0.0161 -5.7515 35.3916)" cx="14.537" cy="20.526" rx="1.838" ry="1.899"/>
<path fill="none" stroke="#000017" stroke-miterlimit="10" d="M3.769,12.873c0-6.42,5.963-11.625,13.319-11.625
	s13.319,5.205,13.319,11.625"/>
<rect x="2.243" y="13.027" width="2.36" height="4.421"/>
<rect x="29.492" y="12.918" width="2.348" height="4.399"/>
<path fill="none" stroke="#FFFFFF" stroke-width="1.8464" stroke-miterlimit="10" d="M121.017,15.637
	c-0.116,6.107-5.19,10.967-11.333,10.855s-11.031-5.154-10.915-11.261c0.115-6.107,5.189-10.967,11.333-10.855
	C116.246,4.488,121.133,9.53,121.017,15.637z"/>
<line fill="none" stroke="#FFFFFF" stroke-miterlimit="10" x1="99.66" y1="19.193" x2="106.439" y2="20.257"/>
<ellipse transform="matrix(-0.0161 -0.9999 0.9999 -0.0161 89.2908 128.5909)" fill="#FFFFFF" cx="107.914" cy="20.363" rx="1.838" ry="1.899"/>
<path fill="none" stroke="#FFFFFF" stroke-miterlimit="10" d="M96.663,12.769c0-6.42,5.963-11.625,13.319-11.625
	c7.356,0,13.319,5.205,13.319,11.625"/>
<rect x="95.137" y="12.923" fill="#FFFFFF" width="2.36" height="4.421"/>
<rect x="122.386" y="12.814" fill="#FFFFFF" width="2.348" height="4.399"/>
<path fill="none" stroke="#FFFFFF" stroke-width="1.8464" stroke-miterlimit="10" d="M110.015,29.57
	c-3.731,0-7.214-0.346-10.17-0.945c-3.392,3.602-5.637,9.386-5.785,15.948h31.667c-0.147-6.537-2.375-12.302-5.745-15.907
	C117.069,29.24,113.66,29.57,110.015,29.57z"/>
<g>
	<path fill="none" stroke="#000000" stroke-width="1.8464" stroke-linecap="round" stroke-miterlimit="10" d="M18.76,26.742
		c4.235,0.278,7.997,2.283,10.589,5.319"/>
	<path fill="none" stroke="#000000" stroke-width="1.8464" stroke-linecap="round" stroke-miterlimit="10" d="M32.62,45.332
		c0.245-1.086,0.38-2.214,0.38-3.375c0-3.778-1.376-7.232-3.651-9.896"/>
	<path fill="none" stroke="#000000" stroke-width="1.8464" stroke-linecap="round" stroke-miterlimit="10" d="M16.483,26.762
		C8.651,27.405,2.494,33.961,2.494,41.959c0,1.161,0.133,2.289,0.38,3.375"/>
	
		<ellipse fill="none" stroke="#000000" stroke-width="1.8464" stroke-linecap="round" stroke-miterlimit="10" cx="17.198" cy="15.454" rx="11.13" ry="11.289"/>
</g>
</svg>
