<svg version="1.1" class="svg-icon bar-icon" id="Layer_1" xmlns="http://www.w3.org/2000/svg" xmlns:xlink="http://www.w3.org/1999/xlink" x="0px" y="0px"
	 width="28px" height="28px" viewBox="0 -0.479 36.333 36.234" enable-background="new 0 -0.479 36.333 36.234"
	 xml:space="preserve">
<path fill="none" stroke="#000000" stroke-miterlimit="10" d="M194.792,509.462c-0.644,1.337-1.504,2.57-1.918,3.27
	c-4.493,4.256-10.078,3.034-12.736-2.604"/>
<path fill="none" stroke="#000000" stroke-width="2" stroke-miterlimit="10" d="M25.616,3.357c-0.011,0.011-0.022,0.022-0.033,0.033
	c-4.437,4.442-8.872,8.887-13.31,13.328c-1.853,1.854-3.72,3.693-5.562,5.557c-0.282,0.285-0.564,0.615-0.736,0.974
	c2.189,2.18,4.38,4.359,6.541,6.567c0.385-0.204,0.75-0.466,1.049-0.765c6.33-6.299,12.64-12.616,18.952-18.933L25.616,3.357z"/>
<path fill="none" stroke="#000000" stroke-width="2" stroke-miterlimit="10" d="M25.632,3.348c0.632-0.647,1.26-1.297,1.917-1.918
	c1.081-1.024,2.445-1.011,3.511-0.002c1.112,1.053,2.198,2.133,3.295,3.2c0.509,0.495,0.818,1.079,0.81,1.804
	c0.022,0.659-0.215,1.225-0.665,1.691c-0.673,0.697-1.358,1.383-2.038,2.074"/>
<path fill="none" stroke="#000000" stroke-width="2" stroke-miterlimit="10" d="M5.798,23.544c-1.264,3.41-2.528,6.837-3.86,10.446
	c1.179-0.462,2.153-0.846,3.128-1.226c2.483-0.969,4.969-1.926,7.447-2.909"/>
</svg>