<svg version="1.1" class="svg-icon" id="Layer_1" xmlns="http://www.w3.org/2000/svg" xmlns:xlink="http://www.w3.org/1999/xlink" x="0px" y="0px"
	 width="27px" height="32.385px" viewBox="-2.813 0 28 32.385" enable-background="new -2.813 0 28 32.385" xml:space="preserve">
<g>
	<path fill="none" stroke="#000000" stroke-miterlimit="10" d="M1.449,13.978c0-4.167,0-8.334-0.001-12.501
		C1.448,1.272,1.48,1.082,1.692,1c0.2-0.077,0.365,0.002,0.522,0.143c2.049,1.829,4.101,3.656,6.154,5.48
		c2.06,1.831,4.123,3.659,6.184,5.488c2.048,1.817,4.095,3.635,6.143,5.452c0.041,0.036,0.083,0.072,0.124,0.109
		c0.456,0.412,0.468,0.594,0.086,1.085c-0.197,0.253-0.382,0.515-0.574,0.772c-0.157,0.21-0.359,0.322-0.63,0.333
		c-1.298,0.049-2.596,0.105-3.894,0.163c-0.658,0.03-1.315,0.077-1.973,0.101c-0.259,0.01-0.175,0.13-0.112,0.261
		c0.436,0.908,0.873,1.815,1.308,2.723c0.84,1.75,1.68,3.5,2.518,5.25c0.204,0.426,0.133,0.674-0.248,0.904
		c-1.262,0.761-2.524,1.524-3.787,2.285c-0.517,0.311-0.677,0.266-0.944-0.262c-1.056-2.082-2.11-4.166-3.166-6.248
		c-0.356-0.702-0.724-1.399-1.073-2.104c-0.099-0.199-0.166-0.211-0.326-0.054c-1.379,1.353-2.77,2.694-4.147,4.049
		c-0.288,0.283-0.59,0.401-0.99,0.31c-0.302-0.068-0.615-0.087-0.923-0.131c-0.34-0.049-0.476-0.201-0.49-0.548
		C1.45,26.46,1.452,26.36,1.452,26.259c0-4.094,0-8.188,0-12.281C1.451,13.978,1.45,13.978,1.449,13.978z M2.241,2.154
		c-0.07,0.088-0.047,0.164-0.047,0.234c-0.003,7.775-0.005,15.551-0.005,23.326c0,0.678,0.007,0.673,0.668,0.794
		c0.207,0.038,0.369,0.009,0.521-0.149c0.254-0.263,0.527-0.509,0.79-0.763c1.25-1.21,2.499-2.421,3.75-3.629
		c0.325-0.314,0.56-0.278,0.783,0.111c0.064,0.111,0.122,0.226,0.18,0.34c1.393,2.743,2.788,5.485,4.176,8.23
		c0.097,0.192,0.175,0.231,0.37,0.112c1.076-0.663,2.157-1.317,3.243-1.963c0.185-0.11,0.202-0.202,0.111-0.389
		c-1.099-2.265-2.19-4.534-3.282-6.803c-0.25-0.52-0.502-1.039-0.733-1.567c-0.147-0.335-0.001-0.555,0.362-0.592
		c0.237-0.024,0.474-0.041,0.711-0.052c1.8-0.079,3.601-0.159,5.402-0.231c0.309-0.012,0.574-0.062,0.728-0.375
		c0.063-0.129,0.168-0.24,0.265-0.349c0.114-0.127,0.116-0.218-0.022-0.341c-2.256-1.996-4.508-3.996-6.761-5.997
		C10.035,9.069,6.62,6.034,3.204,3C2.885,2.717,2.564,2.437,2.241,2.154z"/>
</g>
</svg>
