<svg version="1.1" class="svg-icon" id="Layer_1" xmlns="http://www.w3.org/2000/svg" xmlns:xlink="http://www.w3.org/1999/xlink" x="0px" y="0px"
	 width="28px" height="30.004px" viewBox="-1.844 0 28 30.004" enable-background="new -1.844 0 28 30.004" xml:space="preserve">
<path fill="none" stroke="#000000" stroke-width="1.5" stroke-miterlimit="10" d="M23.546,6.484c0,1.21-0.913,2.191-2.039,2.191
	H2.43c-1.126,0-2.039-0.982-2.039-2.191l0,0c0-1.21,0.913-2.191,2.039-2.191h19.077C22.633,4.293,23.546,5.273,23.546,6.484
	L23.546,6.484z"/>
<path fill="none" stroke="#000000" stroke-width="1.5" stroke-miterlimit="10" d="M17.014,2.656c0,0.904-0.393,1.637-0.878,1.637
	H7.93c-0.485,0-0.878-0.733-0.878-1.637l0,0c0-0.904,0.393-1.637,0.878-1.637h8.207C16.621,1.019,17.014,1.751,17.014,2.656
	L17.014,2.656z"/>
<line fill="none" stroke="#000000" stroke-width="1.5" stroke-linecap="round" stroke-miterlimit="10" x1="7.052" y1="13.978" x2="7.052" y2="24.453"/>
<line fill="none" stroke="#000000" stroke-width="1.5" stroke-linecap="round" stroke-miterlimit="10" x1="11.839" y1="14.104" x2="11.839" y2="24.58"/>
<line fill="none" stroke="#000000" stroke-width="1.5" stroke-linecap="round" stroke-miterlimit="10" x1="16.417" y1="13.978" x2="16.417" y2="24.453"/>
<path fill="none" stroke="#000000" stroke-width="1.5" stroke-miterlimit="10" d="M2.144,8.165v18.892
	c0,1.062,1.389,1.924,3.103,1.924H18.82c1.714,0,3.103-0.861,3.103-1.924V8.165"/>
</svg>
