<?xml version="1.0" encoding="utf-8"?>
<!-- Generator: Adobe Illustrator 17.0.0, SVG Export Plug-In . SVG Version: 6.00 Build 0)  -->
<!DOCTYPE svg PUBLIC "-//W3C//DTD SVG 1.1//EN" "http://www.w3.org/Graphics/SVG/1.1/DTD/svg11.dtd">
<svg version="1.1" id="Layer_1" xmlns="http://www.w3.org/2000/svg" xmlns:xlink="http://www.w3.org/1999/xlink" x="0px" y="0px"
	 width="28.5px" height="28.5px" viewBox="-37.667 47.5 28.5 28.5" enable-background="new -37.667 47.5 28.5 28.5"
	 xml:space="preserve">
<text transform="matrix(1 0 0 1 8.0514 11.7453)" fill="#2694FA" font-family="'Roboto-Regular'" font-size="11.959">Save</text>
<path fill="none" stroke="#2694FA" stroke-miterlimit="10" d="M40.833,12.75c0,1.657-1.343,3-3,3h-34c-1.657,0-3-1.343-3-3v-9
	c0-1.657,1.343-3,3-3h34c1.657,0,3,1.343,3,3V12.75z"/>
<path fill="none" stroke="#2694FA" stroke-miterlimit="10" d="M-11.952,52.646c-1.897-0.042-13.04-0.084-13.04-0.084l-1.51,0.056
	l-0.492,0.007c0,0-0.035,0.042-0.369-0.443c-0.334-0.485-0.966-1.454-0.966-1.454s-0.621-0.797-1.475-0.719
	c-0.855,0.077-5.995,0.067-5.995,0.067l-0.053-0.09c0,0-1.133,0.146-1.121,1.411c0.009,1.006,0.006,3.53,0.004,4.519
	c-0.012,0.072-0.019,0.147-0.019,0.222v15.374c0,0.749,0.626,1.349,1.372,1.349h24.307c0.746,0,1.366-0.6,1.366-1.349v-15.19v-0.184
	v-1.889C-9.943,54.248-10.056,52.689-11.952,52.646z"/>
<line fill="none" stroke="#2694FA" stroke-miterlimit="10" x1="-36.988" y1="57.723" x2="-9.845" y2="57.723"/>
<g>
	<path fill="none" stroke="#2694FA" stroke-miterlimit="10" d="M20.593,51.183c0,0.457-0.38,0.828-0.849,0.828h-6.796
		c-0.469,0-0.849-0.371-0.849-0.828v-0.828c0-0.457,0.38-0.828,0.849-0.828h6.796c0.469,0,0.849,0.371,0.849,0.828V51.183z"/>
	<line fill="none" stroke="#2694FA" stroke-miterlimit="10" x1="12.817" y1="60.471" x2="12.817" y2="72.86"/>
	<line fill="none" stroke="#2694FA" stroke-miterlimit="10" x1="19.874" y1="60.671" x2="19.874" y2="73.059"/>
	<path fill="none" stroke="#2694FA" stroke-miterlimit="10" d="M6.471,56.476c-0.036,0.164-0.057,0.333-0.057,0.506V73.8
		c0,1.467,1.334,2.656,2.98,2.656h13.904c1.646,0,2.98-1.189,2.98-2.656V56.982c0-0.173-0.022-0.342-0.057-0.506"/>
	<path fill="none" stroke="#2694FA" stroke-miterlimit="10" d="M27.768,54.858c0,1.049-0.819,1.899-1.83,1.899H6.728
		c-1.01,0-1.83-0.85-1.83-1.899v-0.949c0-1.049,0.819-1.899,1.83-1.899h19.21c1.01,0,1.83,0.85,1.83,1.899V54.858z"/>
</g>
</svg>
