<?xml version="1.0" encoding="utf-8"?>
<!-- Generator: Adobe Illustrator 17.0.0, SVG Export Plug-In . SVG Version: 6.00 Build 0)  -->
<!DOCTYPE svg PUBLIC "-//W3C//DTD SVG 1.1//EN" "http://www.w3.org/Graphics/SVG/1.1/DTD/svg11.dtd">
<svg version="1.1" id="Layer_1" xmlns="http://www.w3.org/2000/svg" xmlns:xlink="http://www.w3.org/1999/xlink" x="0px" y="0px"
	 width="8.396px" height="11.313px" viewBox="0.563 2.219 8.396 11.313" enable-background="new 0.563 2.219 8.396 11.313"
	 xml:space="preserve">
<g>
	<polygon fill="none" stroke="#15FF20" stroke-width="0.5139" stroke-miterlimit="10" points="17.088,19.977 21.988,15.521 
		20.046,15.521 20.046,11.962 13.995,11.962 13.995,15.521 12.189,15.521 	"/>
</g>
<g>
	<polygon fill="none" stroke="#15FF20" stroke-width="0.5139" stroke-miterlimit="10" points="17.088,-3.477 21.988,1.307 
		20.046,1.307 20.046,5.128 13.995,5.128 13.995,1.307 12.189,1.307 	"/>
</g>
<g>
	<polygon fill="none" stroke="#15FF20" stroke-width="0.5139" stroke-miterlimit="10" points="32.351,7.884 27.582,2.984 
		27.582,4.926 23.772,4.926 23.772,10.978 27.582,10.978 27.582,12.784 	"/>
</g>
<g>
	<polygon fill="none" stroke="#15FF20" stroke-width="0.5139" stroke-miterlimit="10" points="0.945,7.884 5.232,12.784 
		5.232,10.842 8.656,10.842 8.656,4.79 5.232,4.79 5.232,2.984 	"/>
</g>
</svg>
