<?xml version="1.0" encoding="utf-8"?>
<!-- Generator: Adobe Illustrator 17.0.0, SVG Export Plug-In . SVG Version: 6.00 Build 0)  -->
<!DOCTYPE svg PUBLIC "-//W3C//DTD SVG 1.1//EN" "http://www.w3.org/Graphics/SVG/1.1/DTD/svg11.dtd">
<svg version="1.1" id="Layer_1" xmlns="http://www.w3.org/2000/svg" xmlns:xlink="http://www.w3.org/1999/xlink" x="0px" y="0px"
	 width="19.313px" height="24.438px" viewBox="-1.974 -6.694 19.313 24.438" enable-background="new -1.974 -6.694 19.313 24.438"
	 xml:space="preserve">
<path fill="#15FF20" d="M10.883,8.488c0,1.656-1.296,2.998-2.895,2.998l0,0c-1.599,0-2.895-1.343-2.895-2.998V3.316
	c0-1.656,1.296-2.998,2.895-2.998l0,0c1.599,0,2.895,1.343,2.895,2.998V8.488z"/>
<path fill="none" stroke="#15FF20" stroke-width="1.0761" stroke-linecap="round" stroke-miterlimit="10" d="M3.521,9.624V9.237
	c0,2.555,2.001,4.629,4.471,4.629s4.471-2.072,4.471-4.629v0.388"/>
<line fill="none" stroke="#15FF20" stroke-width="1.0761" stroke-linecap="round" stroke-miterlimit="10" x1="7.988" y1="13.864" x2="7.988" y2="17.175"/>
<line fill="none" stroke="#15FF20" stroke-width="1.0761" stroke-linecap="round" stroke-miterlimit="10" x1="4.975" y1="17.19" x2="10.84" y2="17.159"/>
<line fill="none" stroke="#15FF20" stroke-width="1.5134" stroke-linecap="round" stroke-miterlimit="10" x1="7.907" y1="-5.659" x2="7.907" y2="-3.162"/>
<line fill="none" stroke="#15FF20" stroke-width="1.6311" stroke-linecap="round" stroke-miterlimit="10" x1="15.033" y1="-1.677" x2="12.982" y2="0.374"/>
<line fill="none" stroke="#15FF20" stroke-width="1.503" stroke-linecap="round" stroke-miterlimit="10" x1="2.219" y1="0.065" x2="0.477" y2="-1.677"/>
<line fill="none" stroke="#15FF20" stroke-width="1.3618" stroke-linecap="round" stroke-miterlimit="10" x1="14.588" y1="5.901" x2="16.61" y2="5.901"/>
<line fill="none" stroke="#15FF20" stroke-width="1.4984" stroke-linecap="round" stroke-miterlimit="10" x1="-1.101" y1="5.419" x2="1.348" y2="5.419"/>
</svg>
