<?xml version="1.0" encoding="utf-8"?>
<!-- Generator: Adobe Illustrator 17.0.0, SVG Export Plug-In . SVG Version: 6.00 Build 0)  -->
<!DOCTYPE svg PUBLIC "-//W3C//DTD SVG 1.1//EN" "http://www.w3.org/Graphics/SVG/1.1/DTD/svg11.dtd">
<svg version="1.1" id="Layer_1" xmlns="http://www.w3.org/2000/svg" xmlns:xlink="http://www.w3.org/1999/xlink" x="0px" y="0px"
	 width="15px" height="15px" viewBox="-0.813 1.365 15 15" enable-background="new -0.813 1.365 15 15" xml:space="preserve">
<g>
	<path fill="none" stroke="#000000" stroke-width="0.7787" stroke-linecap="round" stroke-miterlimit="10" d="M9.531,9.017
		c0,1.463-1.273,2.649-2.843,2.649l0,0c-1.571,0-2.843-1.186-2.843-2.649V4.448c0-1.463,1.273-2.649,2.843-2.649l0,0
		c1.571,0,2.843,1.186,2.843,2.649V9.017z"/>
	<path fill="none" stroke="#000000" stroke-width="0.7787" stroke-linecap="round" stroke-miterlimit="10" d="M2.296,9.244V8.902
		c0,2.259,1.966,4.091,4.391,4.091s4.391-1.832,4.391-4.091v0.343"/>
	
		<line fill="none" stroke="#000000" stroke-width="0.7787" stroke-linecap="round" stroke-miterlimit="10" x1="6.688" y1="12.992" x2="6.688" y2="15.918"/>
	
		<line fill="none" stroke="#000000" stroke-width="0.7787" stroke-linecap="round" stroke-miterlimit="10" x1="3.726" y1="15.931" x2="9.49" y2="15.904"/>
</g>
<g>
	
		<rect x="-10.617" y="6.615" fill="none" stroke="#15FF20" stroke-width="0.7787" stroke-miterlimit="10" width="3.12" height="5.146"/>
	<line fill="none" stroke="#15FF20" stroke-width="0.7787" stroke-miterlimit="10" x1="-7.497" y1="6.615" x2="-4.078" y2="1.875"/>
	
		<line fill="none" stroke="#15FF20" stroke-width="0.7787" stroke-miterlimit="10" x1="-4.174" y1="1.997" x2="-4.174" y2="16.178"/>
	
		<line fill="none" stroke="#15FF20" stroke-width="0.7787" stroke-miterlimit="10" x1="-3.996" y1="16.28" x2="-7.497" y2="11.761"/>
	<line fill="none" stroke="#15FF20" stroke-width="0.7787" stroke-miterlimit="10" x1="-4.37" y1="1.997" x2="-2.867" y2="1.997"/>
	
		<line fill="none" stroke="#15FF20" stroke-width="0.7787" stroke-miterlimit="10" x1="-4.313" y1="16.178" x2="-2.867" y2="16.178"/>
	
		<line fill="none" stroke="#15FF20" stroke-width="0.7787" stroke-miterlimit="10" x1="-3.243" y1="16.444" x2="-3.243" y2="1.682"/>
</g>
</svg>
