<?xml version="1.0" encoding="utf-8"?>
<!-- Generator: Adobe Illustrator 17.0.0, SVG Export Plug-In . SVG Version: 6.00 Build 0)  -->
<!DOCTYPE svg PUBLIC "-//W3C//DTD SVG 1.1//EN" "http://www.w3.org/Graphics/SVG/1.1/DTD/svg11.dtd">
<svg version="1.1" id="Layer_1" xmlns="http://www.w3.org/2000/svg" xmlns:xlink="http://www.w3.org/1999/xlink" x="0px" y="0px"
	 width="15px" height="15px" viewBox="-0.813 1.365 15 15" enable-background="new -0.813 1.365 15 15" xml:space="preserve">
<g>
	<path fill="none" stroke="#15FF20" stroke-width="0.7787" stroke-linecap="round" stroke-miterlimit="10" d="M27.705,8.901
		c0,1.463-1.273,2.649-2.843,2.649l0,0c-1.571,0-2.843-1.186-2.843-2.649V4.332c0-1.463,1.273-2.649,2.843-2.649l0,0
		c1.571,0,2.843,1.186,2.843,2.649V8.901z"/>
	<path fill="none" stroke="#15FF20" stroke-width="0.7787" stroke-linecap="round" stroke-miterlimit="10" d="M20.471,9.128V8.785
		c0,2.259,1.966,4.091,4.391,4.091s4.391-1.832,4.391-4.091v0.343"/>
	
		<line fill="none" stroke="#15FF20" stroke-width="0.7787" stroke-linecap="round" stroke-miterlimit="10" x1="24.862" y1="12.876" x2="24.862" y2="15.801"/>
	
		<line fill="none" stroke="#15FF20" stroke-width="0.7787" stroke-linecap="round" stroke-miterlimit="10" x1="21.901" y1="15.815" x2="27.664" y2="15.788"/>
</g>
<g>
	
		<rect x="2.813" y="6.417" fill="none" stroke="#000000" stroke-width="0.7787" stroke-miterlimit="10" width="3.12" height="5.146"/>
	<line fill="none" stroke="#000000" stroke-width="0.7787" stroke-miterlimit="10" x1="5.933" y1="6.417" x2="9.351" y2="1.677"/>
	<line fill="none" stroke="#000000" stroke-width="0.7787" stroke-miterlimit="10" x1="9.255" y1="1.799" x2="9.255" y2="15.98"/>
	<line fill="none" stroke="#000000" stroke-width="0.7787" stroke-miterlimit="10" x1="9.433" y1="16.082" x2="5.933" y2="11.563"/>
	<line fill="none" stroke="#000000" stroke-width="0.7787" stroke-miterlimit="10" x1="9.06" y1="1.799" x2="10.562" y2="1.799"/>
	<line fill="none" stroke="#000000" stroke-width="0.7787" stroke-miterlimit="10" x1="9.117" y1="15.98" x2="10.562" y2="15.98"/>
	
		<line fill="none" stroke="#000000" stroke-width="0.7787" stroke-miterlimit="10" x1="10.187" y1="16.246" x2="10.187" y2="1.484"/>
</g>
</svg>
