<?xml version="1.0" encoding="utf-8"?>
<!-- Generator: Adobe Illustrator 17.0.0, SVG Export Plug-In . SVG Version: 6.00 Build 0)  -->
<!DOCTYPE svg PUBLIC "-//W3C//DTD SVG 1.1//EN" "http://www.w3.org/Graphics/SVG/1.1/DTD/svg11.dtd">
<svg version="1.1" id="Layer_1" xmlns="http://www.w3.org/2000/svg" xmlns:xlink="http://www.w3.org/1999/xlink" x="0px" y="0px"
	 width="15px" height="15px" viewBox="0 0 15 15" enable-background="new 0 0 15 15" xml:space="preserve">
<g>
	<path fill="none" stroke="#15FF20" stroke-width="0.7787" stroke-linecap="round" stroke-miterlimit="10" d="M27.705,8.901
		c0,1.463-1.273,2.649-2.843,2.649l0,0c-1.571,0-2.843-1.186-2.843-2.649V4.332c0-1.463,1.273-2.649,2.843-2.649l0,0
		c1.571,0,2.843,1.186,2.843,2.649V8.901z"/>
	<path fill="none" stroke="#15FF20" stroke-width="0.7787" stroke-linecap="round" stroke-miterlimit="10" d="M20.471,9.128V8.785
		c0,2.259,1.966,4.091,4.391,4.091s4.391-1.832,4.391-4.091v0.343"/>
	
		<line fill="none" stroke="#15FF20" stroke-width="0.7787" stroke-linecap="round" stroke-miterlimit="10" x1="24.862" y1="12.876" x2="24.862" y2="15.801"/>
	
		<line fill="none" stroke="#15FF20" stroke-width="0.7787" stroke-linecap="round" stroke-miterlimit="10" x1="21.901" y1="15.815" x2="27.664" y2="15.788"/>
</g>
<polygon fill="#0033FF" stroke="#0033FF" stroke-width="0.7787" stroke-miterlimit="10" points="11,0.43 11,14.61 10.16,14.61 
	10.07,14.49 6.75,10.2 3.63,10.2 3.63,5.05 6.75,5.05 10.07,0.44 10.07,0.43 "/>
<line fill="none" stroke="#0033FF" stroke-width="0.7787" stroke-miterlimit="10" x1="10.16" y1="0.31" x2="10.07" y2="0.43"/>
<line fill="none" stroke="#0033FF" stroke-width="0.7787" stroke-miterlimit="10" x1="10.07" y1="14.61" x2="10.07" y2="14.49"/>
<line fill="none" stroke="#0033FF" stroke-width="0.7787" stroke-miterlimit="10" x1="10.25" y1="14.72" x2="10.16" y2="14.61"/>
<line fill="none" stroke="#0033FF" stroke-width="0.7787" stroke-miterlimit="10" x1="11.37" y1="0.43" x2="11" y2="0.43"/>
<line fill="none" stroke="#0033FF" stroke-width="0.7787" stroke-miterlimit="10" x1="10.07" y1="0.43" x2="9.87" y2="0.43"/>
<line fill="none" stroke="#0033FF" stroke-width="0.7787" stroke-miterlimit="10" x1="11.37" y1="14.61" x2="11" y2="14.61"/>
<polyline fill="none" stroke="#0033FF" stroke-width="0.7787" stroke-miterlimit="10" points="10.16,14.61 10.07,14.61 9.93,14.61 
	"/>
<line fill="none" stroke="#0033FF" stroke-width="0.7787" stroke-miterlimit="10" x1="11" y1="0.43" x2="11" y2="0.12"/>
<line fill="none" stroke="#0033FF" stroke-width="0.7787" stroke-miterlimit="10" x1="11" y1="14.88" x2="11" y2="14.61"/>
</svg>
