<?xml version="1.0" encoding="utf-8"?>
<!-- Generator: Adobe Illustrator 17.0.0, SVG Export Plug-In . SVG Version: 6.00 Build 0)  -->
<!DOCTYPE svg PUBLIC "-//W3C//DTD SVG 1.1//EN" "http://www.w3.org/Graphics/SVG/1.1/DTD/svg11.dtd">
<svg version="1.1" id="Layer_1" xmlns="http://www.w3.org/2000/svg" xmlns:xlink="http://www.w3.org/1999/xlink" x="0px" y="0px"
	 width="11.214px" height="9.344px" viewBox="11.417 -3.891 11.214 9.344" enable-background="new 11.417 -3.891 11.214 9.344"
	 xml:space="preserve">
<g>
	<polygon fill="none" stroke="#000000" stroke-width="0.5139" stroke-miterlimit="10" points="17.088,19.977 21.988,15.521 
		20.046,15.521 20.046,11.962 13.995,11.962 13.995,15.521 12.189,15.521 	"/>
</g>
<g>
	<polygon fill="none" stroke="#000000" stroke-width="0.5139" stroke-miterlimit="10" points="17.088,-3.477 21.988,1.307 
		20.046,1.307 20.046,5.128 13.995,5.128 13.995,1.307 12.189,1.307 	"/>
</g>
<g>
	<polygon fill="none" stroke="#000000" stroke-width="0.5139" stroke-miterlimit="10" points="32.351,7.884 27.582,2.984 
		27.582,4.926 23.772,4.926 23.772,10.978 27.582,10.978 27.582,12.784 	"/>
</g>
<g>
	<polygon fill="#00E3F8" stroke="#00E3F8" stroke-width="0.5139" stroke-miterlimit="10" points="8.656,7.884 4.369,12.784 
		4.369,10.842 0.945,10.842 0.945,4.79 4.369,4.79 4.369,2.984 	"/>
</g>
<g>
	<g>
		<rect x="5.426" y="-4.769" fill="none" width="3.875" height="1.503"/>
		<text transform="matrix(1 0 0 1 5.4257 -3.5793)" fill="#00E3F8" font-family="'MyriadPro-Regular'" font-size="1.6745">Save</text>
		<path fill="#00E3F8" d="M9.083-3.398c0,0.128-0.104,0.232-0.232,0.232H5.444c-0.128,0-0.232-0.104-0.232-0.232v-1.239
			c0-0.128,0.104-0.232,0.232-0.232H8.85c0.128,0,0.232,0.104,0.232,0.232V-3.398z"/>
	</g>
</g>
</svg>
