<?xml version="1.0" encoding="utf-8"?>
<!-- Generator: Adobe Illustrator 17.0.0, SVG Export Plug-In . SVG Version: 6.00 Build 0)  -->
<!DOCTYPE svg PUBLIC "-//W3C//DTD SVG 1.1//EN" "http://www.w3.org/Graphics/SVG/1.1/DTD/svg11.dtd">
<svg version="1.1" id="Layer_1" xmlns="http://www.w3.org/2000/svg" xmlns:xlink="http://www.w3.org/1999/xlink" x="0px" y="0px"
	 width="32.5px" height="31.891px" viewBox="0 0 32.5 31.891" enable-background="new 0 0 32.5 31.891" xml:space="preserve">
<path fill="none" stroke="#000000" stroke-width="2" stroke-miterlimit="10" d="M30.75,24.149c0,3.478-2.819,6.297-6.297,6.297
	H8.047c-3.478,0-6.297-2.819-6.297-6.297V7.742c0-3.478,2.819-6.297,6.297-6.297h16.407c3.478,0,6.297,2.819,6.297,6.297V24.149z"/>
<g>
	<path fill="none" stroke="#000000" stroke-width="1.2615" stroke-miterlimit="10" d="M19.221,7.367
		c0,0.507-0.265,0.919-0.592,0.919h-4.74c-0.327,0-0.592-0.412-0.592-0.919V6.448c0-0.507,0.265-0.919,0.592-0.919h4.74
		c0.327,0,0.592,0.412,0.592,0.919C19.221,6.448,19.221,7.367,19.221,7.367z"/>
	
		<line fill="none" stroke="#000000" stroke-width="1.7067" stroke-miterlimit="10" x1="13.798" y1="14.188" x2="13.798" y2="22.829"/>
	<line fill="none" stroke="#000000" stroke-width="1.7067" stroke-miterlimit="10" x1="18.72" y1="14.327" x2="18.72" y2="22.968"/>
	<path fill="none" stroke="#000000" stroke-width="1.7067" stroke-miterlimit="10" d="M9.371,11.401
		c-0.025,0.114-0.04,0.232-0.04,0.353v11.731c0,1.023,0.93,1.853,2.079,1.853h9.698c1.148,0,2.079-0.829,2.079-1.853V11.754
		c0-0.121-0.015-0.239-0.04-0.353"/>
	<path fill="none" stroke="#000000" stroke-width="1.7067" stroke-miterlimit="10" d="M24.226,10.273
		c0,0.732-0.571,1.325-1.276,1.325H9.55c-0.704,0-1.276-0.593-1.276-1.325V9.611c0-0.732,0.571-1.325,1.276-1.325H22.95
		c0.704,0,1.276,0.593,1.276,1.325V10.273z"/>
</g>
</svg>
