<?xml version="1.0" encoding="utf-8"?>
<!-- Generator: Adobe Illustrator 17.0.0, SVG Export Plug-In . SVG Version: 6.00 Build 0)  -->
<!DOCTYPE svg PUBLIC "-//W3C//DTD SVG 1.1//EN" "http://www.w3.org/Graphics/SVG/1.1/DTD/svg11.dtd">
<svg version="1.1" id="Layer_1" xmlns="http://www.w3.org/2000/svg" xmlns:xlink="http://www.w3.org/1999/xlink" x="0px" y="0px"
	 width="15.551px" height="17.861px" viewBox="1.5 1.852 15.551 17.861" enable-background="new 1.5 1.852 15.551 17.861"
	 xml:space="preserve">
<g id="Layer_2">
</g>
<ellipse fill="none" stroke="currentcolor" stroke-width="0.9021" stroke-miterlimit="10" cx="9.271" cy="10.987" rx="7.25" ry="7.5"/>
<g>
	<path fill="none" stroke="currentcolor" stroke-width="0.6636" stroke-miterlimit="10" d="M10.862,11.333
		c0,1.021-0.799,1.849-1.785,1.849l0,0c-0.986,0-1.785-0.828-1.785-1.849V8.144c0-1.021,0.799-1.849,1.785-1.849l0,0
		c0.986,0,1.785,0.828,1.785,1.849V11.333z"/>
	<path fill="none" stroke="currentcolor" stroke-width="0.6636" stroke-miterlimit="10" d="M6.321,11.491v-0.239
		c0,1.576,1.234,2.855,2.757,2.855s2.757-1.278,2.757-2.855v0.239"/>
	<line fill="none" stroke="currentcolor" stroke-width="0.6636" stroke-miterlimit="10" x1="9.077" y1="14.106" x2="9.077" y2="16.148"/>
	
		<line fill="none" stroke="currentcolor" stroke-width="0.6636" stroke-miterlimit="10" x1="7.218" y1="16.157" x2="10.836" y2="16.138"/>
</g>
</svg>
