<?xml version="1.0" encoding="utf-8"?>
<!-- Generator: Adobe Illustrator 24.3.0, SVG Export Plug-In . SVG Version: 6.00 Build 0)  -->
<svg version="1.1" id="Layer_1" xmlns="http://www.w3.org/2000/svg" xmlns:xlink="http://www.w3.org/1999/xlink" x="0px" y="0px"
	 viewBox="0 0 40 34.2" style="enable-background:new 0 0 40 34.2;" xml:space="preserve">
<style type="text/css">
	.st0{fill:none;}
	.st1{fill:none;stroke:#F00200;stroke-width:0.25;stroke-miterlimit:10;}
	.st2{fill:none;stroke:#000000;stroke-width:0.25;stroke-miterlimit:10;}
	.st3{opacity:0.14;fill:none;stroke:#000000;stroke-width:0.25;stroke-miterlimit:10;enable-background:new    ;}
	.st4{fill:none;stroke:#FFFFFF;stroke-width:1.4709;stroke-miterlimit:10;}
	.st5{fill:none;stroke:#FFFFFF;stroke-width:2;stroke-miterlimit:10;}
	.st6{fill:none;stroke:#808080;stroke-width:2;stroke-miterlimit:10;}
	.st7{opacity:0.2;fill:none;stroke:#808080;stroke-miterlimit:10;enable-background:new    ;}
	.st8{fill:none;stroke:#000000;stroke-miterlimit:10;}
	.st9{fill:none;stroke:#FAFAFA;stroke-width:2;stroke-miterlimit:10;}
</style>
<polyline class="st0" points="40,-17 41.1,-18.8 33.5,-18.8 34.6,-16.9 "/>
<polyline class="st0" points="40,-17.2 37.3,-12.6 34.6,-17.2 "/>
<line class="st0" x1="40.3" y1="-16.8" x2="34.3" y2="-16.8"/>
<path class="st1" d="M13.4,42"/>
<path class="st2" d="M704.2,58.2v-2.8c0-0.2,0.2-0.4,0.4-0.4h3.1l0.3,1.2h4.3c0.2,0,0.4,0.2,0.4,0.4V62c0,0.2-0.2,0.4-0.4,0.4h-7.7
	c-0.2,0-0.4-0.2-0.4-0.4v-4.6"/>
<path class="st2" d="M670.4,58.7v-3c0-0.3,0.2-0.5,0.5-0.5h3.4l0.3,1.8h4.7c0.3,0,0.5,0.2,0.5,0.4v4.5c0,0.2-0.2,0.4-0.5,0.4h-8.4
	c-0.3,0-0.5-0.2-0.5-0.4V58"/>
<path class="st2" d="M653.2,58v-2.6c0-0.2,0.2-0.4,0.4-0.4h3l0.2,1.5h4.1c0.2,0,0.4,0.2,0.4,0.4V62c0,0.2-0.2,0.4-0.4,0.4h-7.3
	c-0.2,0-0.4-0.2-0.4-0.4v-4.4"/>
<path class="st2" d="M734.4,59v-3c0-0.3,0.2-0.5,0.5-0.5h3.4l0.3,1.8h4.7c0.3,0,0.5,0.2,0.5,0.5v5.9c0,0.3-0.2,0.5-0.5,0.5h-8.4
	c-0.3,0-0.5-0.2-0.5-0.5v-5"/>
<path class="st2" d="M686.4,58.2v-2.8c0-0.2,0.2-0.4,0.4-0.4h2.2l1.2,1.2h4.3c0.2,0,0.4,0.2,0.4,0.4V62c0,0.2-0.2,0.4-0.4,0.4h-7.7
	c-0.2,0-0.4-0.2-0.4-0.4v-4.6"/>
<line class="st0" x1="708" y1="56.2" x2="704.2" y2="56.2"/>
<path class="st2" d="M719.3,59.3v-2.8c0-0.2,0.2-0.5,0.5-0.5h3.2l0.3,1.2h4.3c0.2,0,0.5,0.2,0.5,0.5v5.4c0,0.2-0.2,0.5-0.5,0.5h-7.8
	c-0.2,0-0.5-0.2-0.5-0.5v-4.6"/>
<line class="st3" x1="723.2" y1="57.2" x2="719.3" y2="57.2"/>
<g>
	<path class="st4" d="M65.8,91.5c0,1.2-1,2.1-2.1,2.1H26.9c-1.2,0-2.1-1-2.1-2.1V67.9c0-1.2,1-2.1,2.1-2.1h36.7c1.2,0,2.1,1,2.1,2.1
		V91.5z"/>
	<path class="st4" d="M41.2,60.8H31c-1.3,0-2.4,1.1-2.4,2.4v2.5"/>
	<line class="st4" x1="41.2" y1="60.8" x2="46.2" y2="65.7"/>
</g>
<g>
	<path class="st5" d="M-33.5,79c0,1.1-0.9,2-2,2H-69c-1.1,0-2-0.9-2-2V57.3c0-1.1,0.9-2,2-2h33.6c1.1,0,2,0.9,2,2V79z"/>
	<path class="st5" d="M-55.7,50.9h-9.6c-1.2,0-2.2,1-2.2,2.2v2.3"/>
	<line class="st5" x1="-56.3" y1="50.5" x2="-51.4" y2="55.4"/>
</g>
<g>
	<path class="st6" d="M64,15V3.5c0-1,0.9-1.9,1.9-1.9h13.6l1.2,4.9h18.5c1.1,0,1.9,0.8,1.9,1.9v22.3c0,1-0.9,1.9-1.9,1.9H65.9
		c-1.1,0-1.9-0.8-1.9-1.9V11.6"/>
	<line class="st7" x1="81" y1="7" x2="64.4" y2="7"/>
</g>
<circle class="st8" cx="53.2" cy="53.4" r="17.6"/>
<g>
	<path class="st9" d="M14.7,25.9v-2.2c0,0,0-1.1,1.6-1.1h9.5c1.6,0,1.6,1.1,1.6,1.1v2.2"/>
	<path class="st9" d="M14.7,29.6v1.9c0,0,0,1.5,1.6,1.5h9.5c1.6,0,1.6-1.5,1.6-1.5l0-1.5"/>
	<g>
		<path class="st9" d="M16.9,28.5l-0.3,0l-6.5-0.1c0,0-2.8-0.3-1.2-3.3s4-7.4,4-7.4s0.9-2.3,4-2.2h8.8c3.1-0.1,4,2.2,4,2.2
			s2.4,4.4,4,7.4s-1.2,3.3-1.2,3.3l-6.8,0.1"/>
		<circle class="st9" cx="21" cy="7" r="5.7"/>
	</g>
</g>
<path class="st1" d="M5,75.2"/>
<g>
	<path class="st6" d="M30.4,63.5c0,1.1-0.9,2-2,2H-5.2c-1.1,0-2-0.9-2-2V41.8c0-1.1,0.9-2,2-2h33.6c1.1,0,2,0.9,2,2V63.5z"/>
	<path class="st6" d="M8.1,35.3h-9.6c-1.2,0-2.2,1-2.2,2.2v2.3"/>
	<line class="st6" x1="7.6" y1="35" x2="12.4" y2="39.8"/>
</g>
</svg>
