<?xml version="1.0" encoding="utf-8"?>
<!-- Generator: Adobe Illustrator 17.0.0, SVG Export Plug-In . SVG Version: 6.00 Build 0)  -->
<!DOCTYPE svg PUBLIC "-//W3C//DTD SVG 1.1//EN" "http://www.w3.org/Graphics/SVG/1.1/DTD/svg11.dtd">
<svg version="1.1" id="Layer_1" xmlns="http://www.w3.org/2000/svg" xmlns:xlink="http://www.w3.org/1999/xlink" x="0px" y="0px"
	 width="18px" height="21.37px" viewBox="0 0 18 21.37" enable-background="new 0 0 18 21.37" xml:space="preserve">
<g id="Layer_2">
</g>
<path fill="none" stroke="#fff" stroke-width="0.7492" stroke-miterlimit="10" d="M17.375,4.524c0,0.875-0.661,1.585-1.475,1.585
	H2.1c-0.814,0-1.475-0.71-1.475-1.585l0,0c0-0.875,0.661-1.585,1.475-1.585h13.801C16.714,2.94,17.375,3.649,17.375,4.524
	L17.375,4.524z"/>
<path fill="none" stroke="#fff" stroke-width="0.5221" stroke-miterlimit="10" d="M12.65,1.648c0,0.713-0.284,1.291-0.635,1.291
	H6.078c-0.351,0-0.635-0.578-0.635-1.291l0,0c0-0.713,0.284-1.291,0.635-1.291h5.937C12.365,0.357,12.65,0.935,12.65,1.648
	L12.65,1.648z"/>
<line fill="none" stroke="#fff" stroke-width="0.7492" stroke-linecap="round" stroke-miterlimit="10" x1="6.444" y1="9.946" x2="6.444" y2="17.524"/>
<line fill="none" stroke="#fff" stroke-width="0.7492" stroke-linecap="round" stroke-miterlimit="10" x1="11.218" y1="9.946" x2="11.218" y2="17.524"/>
<path fill="none" stroke="#fff" stroke-width="0.7492" stroke-miterlimit="10" d="M1.892,5.74v13.667
	c0,0.768,1.005,1.392,2.245,1.392h9.819c1.24,0,2.245-0.623,2.245-1.392V5.74"/>
</svg>
