<?xml version="1.0" encoding="utf-8"?>
<!-- Generator: Adobe Illustrator 17.0.0, SVG Export Plug-In . SVG Version: 6.00 Build 0)  -->
<!DOCTYPE svg PUBLIC "-//W3C//DTD SVG 1.1//EN" "http://www.w3.org/Graphics/SVG/1.1/DTD/svg11.dtd">
<svg version="1.1" id="Layer_1" xmlns="http://www.w3.org/2000/svg" xmlns:xlink="http://www.w3.org/1999/xlink" x="0px" y="0px"
	 width="26.333px" height="18px" viewBox="0 0 26.333 18" enable-background="new 0 0 26.333 18" xml:space="preserve">
<g>
	
		<line fill="none" stroke="#fff" stroke-linecap="round" stroke-miterlimit="10" x1="63.561" y1="20.788" x2="68.266" y2="16.112"/>
	
		<line fill="none" stroke="#fff" stroke-linecap="round" stroke-miterlimit="10" x1="68.309" y1="16.107" x2="71.964" y2="20.788"/>
	
		<line fill="none" stroke="#fff" stroke-linecap="round" stroke-miterlimit="10" x1="68.236" y1="16.72" x2="68.211" y2="28.116"/>
	<path fill="none" stroke="#fff" stroke-linecap="round" stroke-miterlimit="10" d="M80.667,24.445c0,2.209-1.791,4-4,4h-17
		c-2.209,0-4-1.791-4-4v-17c0-2.209,1.791-4,4-4h17c2.209,0,4,1.791,4,4V24.445z"/>
</g>
<rect x="3.925" y="4.644" fill="none" width="15.271" height="9.09"/>
<text transform="matrix(1 0 0 1 3.9248 11.7432)" fill="#0008F3" font-family="'Roboto-Regular'" font-size="8">save</text>
<path fill="none" stroke="#2605FB" stroke-miterlimit="10" d="M25.296,13.852c0,1.786-1.448,3.235-3.235,3.235H4.271
	c-1.786,0-3.235-1.448-3.235-3.235V4.148c0-1.786,1.448-3.235,3.235-3.235h17.79c1.786,0,3.235,1.448,3.235,3.235
	C25.296,4.148,25.296,13.852,25.296,13.852z"/>
</svg>
