<?xml version="1.0" encoding="utf-8"?>
<!-- Generator: Adobe Illustrator 17.0.0, SVG Export Plug-In . SVG Version: 6.00 Build 0)  -->
<!DOCTYPE svg PUBLIC "-//W3C//DTD SVG 1.1//EN" "http://www.w3.org/Graphics/SVG/1.1/DTD/svg11.dtd">
<svg version="1.1" id="Layer_1" xmlns="http://www.w3.org/2000/svg" xmlns:xlink="http://www.w3.org/1999/xlink" x="0px" y="0px"
	 width="47.281px" height="46.167px" viewBox="0 0 47.281 46.167" enable-background="new 0 0 47.281 46.167" xml:space="preserve">
<g>
	<path fill="none" stroke="#FFFFFF" stroke-width="1.5" stroke-miterlimit="10" d="M30.961,23.56c0,4.579-3.766,8.289-8.411,8.289
		l0,0c-4.646,0-8.411-3.712-8.411-8.289V9.264c0-4.579,3.766-8.289,8.411-8.289l0,0c4.646,0,8.411,3.712,8.411,8.289
		C30.961,9.264,30.961,23.56,30.961,23.56z"/>
	<path fill="none" stroke="#FFFFFF" stroke-width="1.5" stroke-miterlimit="10" d="M9.562,24.269v-1.073
		c0,7.069,5.816,12.8,12.989,12.8s12.989-5.731,12.989-12.8v1.073"/>
	<line fill="none" stroke="#FFFFFF" stroke-width="1.5" stroke-miterlimit="10" x1="22.55" y1="35.996" x2="22.55" y2="45.149"/>
	<line fill="none" stroke="#FFFFFF" stroke-width="1.5" stroke-miterlimit="10" x1="13.791" y1="45.192" x2="30.84" y2="45.107"/>
</g>
</svg>
