<?xml version="1.0" encoding="utf-8"?>
<!-- Generator: Adobe Illustrator 17.0.0, SVG Export Plug-In . SVG Version: 6.00 Build 0)  -->
<!DOCTYPE svg PUBLIC "-//W3C//DTD SVG 1.1//EN" "http://www.w3.org/Graphics/SVG/1.1/DTD/svg11.dtd">
<svg version="1.1" xmlns="http://www.w3.org/2000/svg" xmlns:xlink="http://www.w3.org/1999/xlink" x="0px" y="0px" width="63px"
	 height="59.85px" viewBox="-1.5 -1.425 63 59.85" enable-background="new -1.5 -1.425 63 59.85" xml:space="preserve">
<g id="Layer_1">
	<g id="Layer_2">
	</g>
	<g>
		<g>
			<image overflow="visible" width="112" height="114" xlink:href="8D73E52B.png"  transform="matrix(1 0 0 1 -25.5 -29)">
			</image>
		</g>
		<g>
			<image overflow="visible" width="112" height="114" xlink:href="8D73E52E.png"  transform="matrix(1 0 0 1 -25.5 -29)">
			</image>
		</g>
		<g>
			<g>
				<path fill="none" stroke="#FFFFFF" stroke-miterlimit="10" d="M18.381,28.377"/>
				<line fill="none" stroke="#FFFFFF" stroke-miterlimit="10" x1="36.763" y1="24.691" x2="35.081" y2="26.294"/>
				<line fill="none" stroke="#FFFFFF" stroke-miterlimit="10" x1="39.853" y1="28.509" x2="36.07" y2="24.691"/>
				<line fill="none" stroke="#FFFFFF" stroke-miterlimit="10" x1="24.269" y1="42.739" x2="22.208" y2="40.747"/>
				<line fill="none" stroke="#FFFFFF" stroke-miterlimit="10" x1="35.189" y1="26.18" x2="22.85" y2="38.704"/>
				
					<line fill="none" stroke="#FFFFFF" stroke-linecap="round" stroke-miterlimit="10" x1="22.85" y1="38.704" x2="20.68" y2="44.036"/>
				
					<line fill="none" stroke="#FFFFFF" stroke-linecap="round" stroke-miterlimit="10" x1="20.68" y1="44.036" x2="26.078" y2="41.868"/>
				<line fill="none" stroke="#FFFFFF" stroke-miterlimit="10" x1="26.078" y1="41.868" x2="39.853" y2="27.828"/>
				<path fill="none" stroke="#FFFFFF" stroke-miterlimit="10" d="M22.814,43.031"/>
				<path fill="none" stroke="#FFFFFF" stroke-miterlimit="10" d="M21.651,41.868"/>
			</g>
			<g>
				<path fill="none" stroke="#FFFFFF" stroke-width="1.5" stroke-miterlimit="10" d="M49.34,44.017c0,2.099-1.701,3.8-3.8,3.8
					h-30.4c-2.099,0-3.8-1.701-3.8-3.8v-30.4c0-2.099,1.701-3.8,3.8-3.8h30.4c2.099,0,3.8,1.701,3.8,3.8V44.017z"/>
				<line fill="none" stroke="#FFFFFF" stroke-width="1.5" stroke-miterlimit="10" x1="20.819" y1="7.03" x2="20.819" y2="13.3"/>
				<line fill="none" stroke="#FFFFFF" stroke-width="1.5" stroke-miterlimit="10" x1="39.059" y1="7.03" x2="39.059" y2="13.3"/>
				
					<line fill="none" stroke="#FFFFFF" stroke-width="1.5" stroke-miterlimit="10" x1="11.842" y1="21.217" x2="49.34" y2="21.217"/>
			</g>
		</g>
	</g>
</g>
<g id="Layer_3">
</g>
</svg>
