<?xml version="1.0" encoding="utf-8"?>
<!-- Generator: Adobe Illustrator 17.0.0, SVG Export Plug-In . SVG Version: 6.00 Build 0)  -->
<!DOCTYPE svg PUBLIC "-//W3C//DTD SVG 1.1//EN" "http://www.w3.org/Graphics/SVG/1.1/DTD/svg11.dtd">
<svg version="1.1" xmlns="http://www.w3.org/2000/svg" xmlns:xlink="http://www.w3.org/1999/xlink" x="0px" y="0px" width="31px"
	 height="28.792px" viewBox="-0.613 0.233 31 28.792" enable-background="new -0.613 0.233 31 28.792" xml:space="preserve">
<g id="Layer_2">
</g>
<g id="Layer_1">
	<g>
		<path fill="none" stroke="#787878" stroke-width="1.5" stroke-miterlimit="10" d="M1.387,28.129c9.037,0,18.021,0,27,0
			c0-9.029,0-18.012,0-27c-9.02,0-18.002,0-27,0C1.387,10.145,1.387,19.116,1.387,28.129z"/>
		<path fill="none" stroke="#787878" stroke-width="1.5" stroke-miterlimit="10" d="M1.387,28.129c0-9.013,0-17.983,0-27
			c8.998,0,17.98,0,27,0c0,8.987,0,17.971,0,27C19.407,28.129,10.427,28.129,1.387,28.129z"/>
	</g>
	<path fill="none" stroke="#787878" stroke-width="1.5" stroke-miterlimit="10" d="M22.126,8.809
		c-1.573-1.711-3.823-2.789-6.331-2.789c-4.754,0-8.609,3.854-8.609,8.609s3.854,8.609,8.609,8.609c2.764,0,5.218-1.308,6.793-3.334
		"/>
</g>
</svg>
