<?xml version="1.0" encoding="utf-8"?>
<!-- Generator: Adobe Illustrator 17.0.0, SVG Export Plug-In . SVG Version: 6.00 Build 0)  -->
<!DOCTYPE svg PUBLIC "-//W3C//DTD SVG 1.1//EN" "http://www.w3.org/Graphics/SVG/1.1/DTD/svg11.dtd">
<svg version="1.1" xmlns="http://www.w3.org/2000/svg" xmlns:xlink="http://www.w3.org/1999/xlink" x="0px" y="0px" width="19.5px"
	 height="28.792px" viewBox="5.138 0.233 19.5 28.792" enable-background="new 5.138 0.233 19.5 28.792" xml:space="preserve">
<g id="Layer_2">
</g>
<g id="Layer_1">
	<g>
		<path fill="none" stroke="#000000" stroke-width="1.5" stroke-miterlimit="10" d="M30.867,35.484c9.037,0,18.021,0,27,0
			c0-9.029,0-18.012,0-27c-9.02,0-18.002,0-27,0C30.867,17.5,30.867,26.471,30.867,35.484z"/>
		<path fill="none" stroke="#000000" stroke-width="1.5" stroke-miterlimit="10" d="M30.867,35.484c0-9.013,0-17.983,0-27
			c8.998,0,17.98,0,27,0c0,8.987,0,17.971,0,27C48.887,35.484,39.907,35.484,30.867,35.484z"/>
	</g>
	<g>
		
			<line fill="none" stroke="#000000" stroke-width="1.5" stroke-linecap="round" stroke-miterlimit="10" x1="36.979" y1="14.762" x2="44.359" y2="24.719"/>
		
			<line fill="none" stroke="#000000" stroke-width="1.5" stroke-linecap="round" stroke-miterlimit="10" x1="36.979" y1="14.762" x2="36.979" y2="29.207"/>
		
			<line fill="none" stroke="#000000" stroke-width="1.5" stroke-linecap="round" stroke-miterlimit="10" x1="51.755" y1="14.762" x2="44.359" y2="24.719"/>
		
			<line fill="none" stroke="#000000" stroke-width="1.5" stroke-linecap="round" stroke-miterlimit="10" x1="51.755" y1="14.762" x2="51.755" y2="29.207"/>
	</g>
	<path fill="none" stroke="#787878" stroke-width="1.5098" stroke-miterlimit="10" d="M15.787,28.129
		c-5.412,0-9.161-3.33-9.729-7.809c-0.205-1.624,0.235-3.123,0.793-4.605c1.065-2.824,2.489-5.473,3.98-8.088
		c1.193-2.094,2.447-4.151,3.761-6.17c0.284-0.436,0.308-0.439,0.588-0.001c2.602,4.074,5.105,8.205,7.077,12.633
		c0.471,1.06,0.879,2.143,1.199,3.26c0.654,2.285,0.257,4.435-0.934,6.42C20.806,26.628,18.207,28.038,15.787,28.129z"/>
	<path fill="none" stroke="#787878" stroke-linecap="round" stroke-miterlimit="10" d="M11.883,11.959c0,0-1.567,3.866-2.278,6.248
		c-0.772,2.588,1.517,4.512,1.517,4.512"/>
</g>
</svg>
