<?xml version="1.0" encoding="utf-8"?>
<!-- Generator: Adobe Illustrator 17.0.0, SVG Export Plug-In . SVG Version: 6.00 Build 0)  -->
<!DOCTYPE svg PUBLIC "-//W3C//DTD SVG 1.1//EN" "http://www.w3.org/Graphics/SVG/1.1/DTD/svg11.dtd">
<svg version="1.1" xmlns="http://www.w3.org/2000/svg" xmlns:xlink="http://www.w3.org/1999/xlink" x="0px" y="0px" width="31px"
	 height="30.511px" viewBox="-0.613 -0.605 31 30.511" enable-background="new -0.613 -0.605 31 30.511" xml:space="preserve">
<g id="Layer_2">
</g>
<g id="Layer_1">
	<path fill="none" stroke="#000000" stroke-width="1.5" stroke-miterlimit="10" d="M25.822-2"/>
	<line fill="none" x1="41.016" y1="6.091" x2="33.626" y2="13.491"/>
	<g>
		<path fill="none" stroke="#787878" stroke-width="1.5" stroke-miterlimit="10" d="M0.804,28.733c9.428,0,18.799,0,28.167,0
			c0-9.42,0-18.791,0-28.167c-9.41,0-18.78,0-28.167,0C0.804,9.972,0.804,19.331,0.804,28.733z"/>
		<path fill="none" stroke="#787878" stroke-width="1.5" stroke-miterlimit="10" d="M0.804,28.733c0-9.402,0-18.76,0-28.167
			c9.386,0,18.757,0,28.167,0c0,9.376,0,18.748,0,28.167C19.603,28.733,10.233,28.733,0.804,28.733z"/>
	</g>
	<line fill="none" stroke="#787878" stroke-width="1.5" stroke-miterlimit="10" x1="1.508" y1="15.193" x2="28.267" y2="15.193"/>
	<line fill="none" stroke="#787878" stroke-width="1.5" stroke-miterlimit="10" x1="14.887" y1="21.351" x2="14.887" y2="9.033"/>
	<polygon fill="#787878" points="17.994,9.389 15.095,4.277 11.781,9.398 	"/>
	<polygon fill="#787878" points="17.994,20.883 15.095,25.995 11.781,20.876 	"/>
</g>
</svg>
